<svg width="32" height="32" viewBox="0 0 32 32" fill="none" xmlns="http://www.w3.org/2000/svg">
<path fill-rule="evenodd" clip-rule="evenodd" d="M24 15H8V18H24V15ZM24 20H8V23H24V20ZM28.799 5.101C28.672 5.075 26.875 4.719 24 4.418V3C24 1.896 23.104 1 22 1C20.896 1 20.005 1.896 20.005 3L20.01 7C20.01 7.591 20.262 8.117 20.669 8.483C20.612 8.487 20.559 8.5 20.5 8.5C19.119 8.5 18 7.381 18 6V4.029C17.351 4.012 16.688 4 16 4C14.581 4 13.243 4.041 12 4.105V3C12 1.896 11.104 1 10 1C8.896 1 8.005 1.896 8.005 3V7C8.005 7.591 8.261 8.117 8.669 8.483C8.612 8.487 8.558 8.5 8.5 8.5C7.119 8.5 6 7.381 6 6V4.653C4.31 4.879 3.295 5.081 3.201 5.101C2.502 5.242 2 5.857 2 6.57V28.408C2 29.114 2.493 29.725 3.184 29.874C3.396 29.92 8.482 30.99 16 30.99C23.518 30.99 28.604 29.92 28.816 29.874C29.508 29.726 30 29.114 30 28.408V6.57C30 5.857 29.498 5.242 28.799 5.101ZM27 27.356C25.121 27.666 21.138 28.223 16 28.223C10.877 28.223 6.883 27.664 5 27.355V12.98H27V27.356Z" fill="black"/>
<mask id="mask0" mask-type="alpha" maskUnits="userSpaceOnUse" x="2" y="1" width="28" height="30">
<path fill-rule="evenodd" clip-rule="evenodd" d="M24 15H8V18H24V15ZM24 20H8V23H24V20ZM28.799 5.101C28.672 5.075 26.875 4.719 24 4.418V3C24 1.896 23.104 1 22 1C20.896 1 20.005 1.896 20.005 3L20.01 7C20.01 7.591 20.262 8.117 20.669 8.483C20.612 8.487 20.559 8.5 20.5 8.5C19.119 8.5 18 7.381 18 6V4.029C17.351 4.012 16.688 4 16 4C14.581 4 13.243 4.041 12 4.105V3C12 1.896 11.104 1 10 1C8.896 1 8.005 1.896 8.005 3V7C8.005 7.591 8.261 8.117 8.669 8.483C8.612 8.487 8.558 8.5 8.5 8.5C7.119 8.5 6 7.381 6 6V4.653C4.31 4.879 3.295 5.081 3.201 5.101C2.502 5.242 2 5.857 2 6.57V28.408C2 29.114 2.493 29.725 3.184 29.874C3.396 29.92 8.482 30.99 16 30.99C23.518 30.99 28.604 29.92 28.816 29.874C29.508 29.726 30 29.114 30 28.408V6.57C30 5.857 29.498 5.242 28.799 5.101ZM27 27.356C25.121 27.666 21.138 28.223 16 28.223C10.877 28.223 6.883 27.664 5 27.355V12.98H27V27.356Z" fill="white"/>
</mask>
<g mask="url(#mask0)">
</g>
</svg>
