<svg width="32" height="32" viewBox="0 0 32 32" fill="none" xmlns="http://www.w3.org/2000/svg">
<path fill-rule="evenodd" clip-rule="evenodd" d="M9.56671 16.2288C9.261 15.9497 8.82358 14.9879 8.43932 13.6019C13.396 14.8839 18.5895 14.8851 23.5462 13.6055C23.1438 15.0289 22.6967 15.9884 22.4333 16.2288C18.8843 19.4781 13.1181 19.4769 9.56671 16.2288ZM16 24.7695C14.3784 23.4886 12.9549 21.9878 11.7563 20.3215C13.1156 20.8182 14.5572 21.0695 16 21.0695C17.444 21.0695 18.8855 20.8182 20.2437 20.3215C19.0462 21.9878 17.6216 23.4886 16 24.7695ZM12.648 8.49416C13.2969 8.37453 14.0533 8.29357 14.707 8.23315C14.7783 8.2259 14.84 8.18119 14.869 8.11594C15.136 7.49606 15.4502 6.80609 15.7885 6.22487C15.8671 6.09074 16.1341 6.09074 16.2114 6.22487C16.551 6.80851 16.8664 7.49968 17.1322 8.11594C17.16 8.18119 17.2216 8.2259 17.2941 8.23315C17.943 8.29357 18.7031 8.37332 19.3532 8.49416C19.5066 8.52195 19.5598 8.78296 19.451 8.90258C18.9218 9.48742 18.4711 9.91639 17.9636 10.3719C17.9116 10.4191 17.8886 10.4904 17.9019 10.5592C18.0264 11.1501 18.1364 11.6963 18.2802 12.5832C18.3079 12.7536 18.0723 12.8756 17.914 12.7899C17.334 12.4805 16.963 12.3089 16.0942 11.828C16.0362 11.7966 15.9649 11.7966 15.9057 11.828C14.9258 12.3706 14.8001 12.4092 14.086 12.7899C13.9265 12.8769 13.692 12.7536 13.721 12.5832C13.8624 11.718 13.9687 11.1743 14.098 10.5592C14.1125 10.4904 14.0884 10.4191 14.0364 10.3719C13.5337 9.92002 13.0879 9.49709 12.5501 8.90258C12.4414 8.78296 12.4946 8.52195 12.648 8.49416ZM28.0835 15.7914H25.3406C26.7362 11.9706 27.2135 7.76794 26.497 3.50728C26.3858 2.84994 25.7683 2.41131 25.1037 2.51523C24.4464 2.62639 24.0017 3.2499 24.1129 3.90846C24.1213 3.95437 24.125 4.00029 24.1322 4.04742C18.7683 5.18206 13.2316 5.18206 7.86898 4.04742C7.87623 4.00029 7.87985 3.95437 7.8871 3.90846C7.99827 3.2499 7.5536 2.62639 6.89625 2.51523C6.22562 2.41252 5.61419 2.84994 5.50423 3.50728C4.78768 7.76794 5.26377 11.9706 6.66062 15.7914H3.91645C3.24823 15.7914 2.7081 16.3315 2.7081 16.9998C2.7081 17.6668 3.24823 18.2081 3.91645 18.2081H7.54151C7.59226 18.2081 7.63576 18.1852 7.6841 18.1791C9.19092 21.2483 11.32 23.9877 13.947 26.1953C11.7091 27.5825 9.20179 28.5987 6.47575 29.1026C5.81961 29.2247 5.38581 29.8542 5.50785 30.5104C5.61419 31.0928 6.12291 31.5 6.69446 31.5C6.76817 31.5 6.84067 31.494 6.91559 31.4795C10.2639 30.8596 13.3259 29.5558 16 27.7529C18.6741 29.5558 21.736 30.8596 25.0856 31.4795C25.1593 31.494 25.233 31.5 25.3055 31.5C25.8771 31.5 26.3858 31.0928 26.4933 30.5104C26.6142 29.8542 26.1804 29.2247 25.5242 29.1026C22.7982 28.5987 20.2909 27.5825 18.053 26.1953C20.6799 23.9877 22.8091 21.2483 24.3159 18.1791C24.3642 18.1852 24.4077 18.2081 24.4585 18.2081H28.0835C28.7517 18.2081 29.2919 17.6668 29.2919 16.9998C29.2919 16.3315 28.7517 15.7914 28.0835 15.7914Z" fill="black"/>
<mask id="mask0" mask-type="alpha" maskUnits="userSpaceOnUse" x="2" y="2" width="28" height="30">
<path fill-rule="evenodd" clip-rule="evenodd" d="M9.56671 16.2288C9.261 15.9497 8.82358 14.9879 8.43932 13.6019C13.396 14.8839 18.5895 14.8851 23.5462 13.6055C23.1438 15.0289 22.6967 15.9884 22.4333 16.2288C18.8843 19.4781 13.1181 19.4769 9.56671 16.2288ZM16 24.7695C14.3784 23.4886 12.9549 21.9878 11.7563 20.3215C13.1156 20.8182 14.5572 21.0695 16 21.0695C17.444 21.0695 18.8855 20.8182 20.2437 20.3215C19.0462 21.9878 17.6216 23.4886 16 24.7695ZM12.648 8.49416C13.2969 8.37453 14.0533 8.29357 14.707 8.23315C14.7783 8.2259 14.84 8.18119 14.869 8.11594C15.136 7.49606 15.4502 6.80609 15.7885 6.22487C15.8671 6.09074 16.1341 6.09074 16.2114 6.22487C16.551 6.80851 16.8664 7.49968 17.1322 8.11594C17.16 8.18119 17.2216 8.2259 17.2941 8.23315C17.943 8.29357 18.7031 8.37332 19.3532 8.49416C19.5066 8.52195 19.5598 8.78296 19.451 8.90258C18.9218 9.48742 18.4711 9.91639 17.9636 10.3719C17.9116 10.4191 17.8886 10.4904 17.9019 10.5592C18.0264 11.1501 18.1364 11.6963 18.2802 12.5832C18.3079 12.7536 18.0723 12.8756 17.914 12.7899C17.334 12.4805 16.963 12.3089 16.0942 11.828C16.0362 11.7966 15.9649 11.7966 15.9057 11.828C14.9258 12.3706 14.8001 12.4092 14.086 12.7899C13.9265 12.8769 13.692 12.7536 13.721 12.5832C13.8624 11.718 13.9687 11.1743 14.098 10.5592C14.1125 10.4904 14.0884 10.4191 14.0364 10.3719C13.5337 9.92002 13.0879 9.49709 12.5501 8.90258C12.4414 8.78296 12.4946 8.52195 12.648 8.49416ZM28.0835 15.7914H25.3406C26.7362 11.9706 27.2135 7.76794 26.497 3.50728C26.3858 2.84994 25.7683 2.41131 25.1037 2.51523C24.4464 2.62639 24.0017 3.2499 24.1129 3.90846C24.1213 3.95437 24.125 4.00029 24.1322 4.04742C18.7683 5.18206 13.2316 5.18206 7.86898 4.04742C7.87623 4.00029 7.87985 3.95437 7.8871 3.90846C7.99827 3.2499 7.5536 2.62639 6.89625 2.51523C6.22562 2.41252 5.61419 2.84994 5.50423 3.50728C4.78768 7.76794 5.26377 11.9706 6.66062 15.7914H3.91645C3.24823 15.7914 2.7081 16.3315 2.7081 16.9998C2.7081 17.6668 3.24823 18.2081 3.91645 18.2081H7.54151C7.59226 18.2081 7.63576 18.1852 7.6841 18.1791C9.19092 21.2483 11.32 23.9877 13.947 26.1953C11.7091 27.5825 9.20179 28.5987 6.47575 29.1026C5.81961 29.2247 5.38581 29.8542 5.50785 30.5104C5.61419 31.0928 6.12291 31.5 6.69446 31.5C6.76817 31.5 6.84067 31.494 6.91559 31.4795C10.2639 30.8596 13.3259 29.5558 16 27.7529C18.6741 29.5558 21.736 30.8596 25.0856 31.4795C25.1593 31.494 25.233 31.5 25.3055 31.5C25.8771 31.5 26.3858 31.0928 26.4933 30.5104C26.6142 29.8542 26.1804 29.2247 25.5242 29.1026C22.7982 28.5987 20.2909 27.5825 18.053 26.1953C20.6799 23.9877 22.8091 21.2483 24.3159 18.1791C24.3642 18.1852 24.4077 18.2081 24.4585 18.2081H28.0835C28.7517 18.2081 29.2919 17.6668 29.2919 16.9998C29.2919 16.3315 28.7517 15.7914 28.0835 15.7914Z" fill="white"/>
</mask>
<g mask="url(#mask0)">
</g>
</svg>
