<svg width="38" height="36" viewBox="0 0 38 36" fill="none" xmlns="http://www.w3.org/2000/svg">
<path fill-rule="evenodd" clip-rule="evenodd" d="M21.4249 35.1028C20.4965 34.854 19.9455 33.8997 20.1943 32.9713L21.9188 26.5355L20.5076 24.0913H17.4934L16.0822 26.5357L17.8066 32.9712C18.0553 33.8997 17.5044 34.854 16.5759 35.1027C15.6475 35.3515 14.6932 34.8005 14.4444 33.8721L13.6209 30.7987L12.2411 33.1885C11.7605 34.0209 10.6962 34.3061 9.86376 33.8256C9.03136 33.345 8.74616 32.2806 9.22674 31.4482L10.6067 29.058L7.53277 29.8817C6.60435 30.1304 5.65005 29.5795 5.40128 28.651C5.15251 27.7226 5.70347 26.7683 6.6319 26.5195L13.068 24.795L14.4207 22.452L12.7937 19.7404H10.1492L5.4379 24.4517C4.75824 25.1314 3.65631 25.1314 2.97666 24.4517C2.29701 23.7721 2.29701 22.6701 2.97666 21.9905L5.22675 19.7404H2.46692C1.50575 19.7404 0.726561 18.9612 0.726563 18C0.726563 17.0389 1.50575 16.2597 2.46692 16.2597L5.22678 16.2597L2.97666 14.0096C2.29701 13.3299 2.29701 12.228 2.97666 11.5483C3.65631 10.8687 4.75824 10.8687 5.43789 11.5483L10.1493 16.2597L12.7937 16.2597L14.4206 13.5483L13.0677 11.205L6.63165 9.48048C5.70322 9.23171 5.15226 8.27741 5.40103 7.34899C5.6498 6.42057 6.6041 5.8696 7.53252 6.11837L10.6065 6.94204L9.22653 4.55187C8.74594 3.71948 9.03114 2.65509 9.86354 2.1745C10.6959 1.69392 11.7603 1.97912 12.2409 2.81152L13.6207 5.20134L14.4442 2.12791C14.693 1.19949 15.6473 0.648523 16.5757 0.897294C17.5041 1.14606 18.0551 2.10037 17.8063 3.02879L16.0819 9.46433L17.4932 11.9088H20.5078L21.919 9.46461L20.1945 3.02878C19.9457 2.10036 20.4967 1.14606 21.4251 0.897288C22.3535 0.648518 23.3078 1.19949 23.5566 2.12791L24.3802 5.20163L25.7601 2.81151C26.2407 1.97911 27.3051 1.6939 28.1375 2.17449C28.9699 2.65508 29.2551 3.71946 28.7745 4.55186L27.3946 6.94196L30.4683 6.11837C31.3967 5.8696 32.351 6.42056 32.5998 7.34899C32.8485 8.27741 32.2976 9.23171 31.3692 9.48048L24.9334 11.2049L23.5801 13.5488L25.2066 16.2597L27.8514 16.2597L32.5627 11.5483C33.2424 10.8687 34.3443 10.8687 35.024 11.5483C35.7036 12.228 35.7036 13.3299 35.024 14.0096L32.7739 16.2597H35.5337C36.4949 16.2597 37.2741 17.0389 37.2741 18C37.2741 18.9612 36.4949 19.7404 35.5337 19.7404H32.7739L35.024 21.9905C35.7036 22.6701 35.7036 23.7721 35.024 24.4517C34.3443 25.1314 33.2424 25.1314 32.5627 24.4517L27.8514 19.7404H25.2066L23.58 22.4514L24.9331 24.7951L31.369 26.5196C32.2974 26.7683 32.8484 27.7226 32.5996 28.6511C32.3508 29.5795 31.3965 30.1305 30.4681 29.8817L27.3944 29.0581L28.7743 31.4482C29.2549 32.2806 28.9697 33.345 28.1373 33.8256C27.3049 34.3061 26.2405 34.0209 25.7599 33.1885L24.38 30.7985L23.5564 33.8721C23.3077 34.8006 22.3533 35.3515 21.4249 35.1028ZM17.375 15.3895L15.8087 18L17.375 20.6106L20.6254 20.6106L22.1917 18L20.6254 15.3895L17.375 15.3895Z" fill="#B3B5B8"/>
</svg>
