<svg width="24px" height="24px" viewBox="0 0 24 24" version="1.1" xmlns="http://www.w3.org/2000/svg" xmlns:xlink="http://www.w3.org/1999/xlink">
    <path d="M22.5,0 C23.3203125,0 24,0.6796875 24,1.5 L24,22.5 C24,23.3203125 23.3203125,24 22.5,24 L16.5,24 L16.5,14.671875 L19.5,14.671875 L20.0039062,11.2148438 L16.5,11.2148438 L16.5,8.49609375 C16.5,7.51171875 17.0039062,6.94921875 18,6.94921875 L20.25,6.94921875 L20.25,3.83203125 C20.25,3.83203125 19.2421875,3.66796875 17.7890625,3.66796875 C14.4960938,3.66796875 12.8320312,5.49609375 12.8320312,8.2265625 L12.8320312,11.2148438 L9.83203125,11.2148438 L9.83203125,14.671875 L12.8320312,14.671875 L12.8320312,24 L1.5,24 C0.6796875,24 0,23.3203125 0,22.5 L0,1.5 C0,0.6796875 0.6796875,0 1.5,0 L22.5,0 Z" id="facebook-icon"></path>
</svg>