<svg width="24px" height="24px" viewBox="0 0 24 24" version="1.1" xmlns="http://www.w3.org/2000/svg" xmlns:xlink="http://www.w3.org/1999/xlink">
    <path d="M24,4.35576923 C23.3320312,5.38942308 22.5,6.26682692 21.5507812,6.97596154 L21.5507812,7.63701923 C21.5507812,14.3076923 16.6054688,22 7.55859375,22 C4.78125,22 2.16796875,21.375 0,19.9447115 C0.38671875,20.0048077 0.7734375,20.0288462 1.171875,20.0288462 C3.46875,20.0288462 5.61328125,19.0072115 7.27734375,17.6370192 C5.14453125,17.6129808 3.3046875,16.1225962 2.6953125,14.1274038 C3,14.1875 3.3046875,14.2235577 3.609375,14.2235577 C4.0546875,14.2235577 4.5,14.1634615 4.921875,14.0432692 C2.671875,13.5865385 0.97265625,11.5432692 0.97265625,9.09134615 L0.97265625,9.03125 C1.640625,9.40384615 2.390625,9.63221154 3.19921875,9.65625 C1.86328125,8.74278846 0.99609375,7.20432692 0.99609375,5.47355769 C0.99609375,4.53605769 1.25390625,3.76682692 1.6640625,3.02163462 C4.11328125,6.07451923 7.72265625,7.97355769 11.8007812,8.20192308 C11.71875,7.84134615 11.6953125,7.43269231 11.6953125,7.03605769 C11.6953125,4.24759615 13.8867188,2 16.6054688,2 C18.0234375,2 19.3007812,2.625 20.2265625,3.58653846 C21.328125,3.35817308 22.3945312,2.9375 23.3320312,2.36057692 C22.96875,3.53846154 22.1953125,4.53605769 21.1640625,5.16105769 C22.171875,5.04086538 23.109375,4.76442308 24,4.35576923 Z" id="twitter-icon"></path>
</svg>