<!-- <svg width="408" height="579" viewBox="0 0 408 579" fill="none" xmlns="http://www.w3.org/2000/svg"> -->
<svg width="408" viewBox="0 0 408 579" fill="none" xmlns="http://www.w3.org/2000/svg">
<path d="M379.281 300.77C387.434 294.891 394.45 288.255 403.742 285.79C404.879 285.41 406.396 285.79 407.344 285.979C408.672 288.255 407.724 289.772 406.396 290.72C405.069 291.857 403.362 292.806 402.035 293.754C395.967 298.115 390.089 302.476 384.021 306.837C381.746 308.354 381.177 310.44 381.746 313.095C383.073 320.869 382.694 328.454 381.556 336.228C380.419 342.865 378.143 348.743 372.834 353.294C371.506 354.432 370.179 355.38 368.662 355.949C363.163 358.224 358.233 355.759 356.527 350.26C354.82 344.761 355.958 339.452 357.664 334.142C360.129 326.747 364.111 320.111 368.662 313.853C370.558 311.199 371.127 308.923 370.179 305.889C366.387 294.133 362.974 282.377 359.181 270.81C358.423 268.724 357.285 266.828 356.337 264.742C355.958 264.742 355.578 264.742 355.389 264.742C354.82 266.638 354.062 268.534 353.493 270.62C351.596 277.067 350.269 283.514 347.994 289.772C346.477 293.943 344.391 297.925 341.926 301.338C335.858 309.302 327.325 308.923 321.826 300.58C318.982 296.219 317.465 291.289 316.707 286.169C316.327 283.893 315.948 281.428 314.81 278.963C314.052 280.291 313.483 281.618 312.725 282.756C310.07 286.738 307.984 291.289 304.571 294.702C297.366 302.476 288.074 301.338 282.765 292.237C280.679 288.824 279.731 284.652 278.593 280.86C278.024 278.963 277.835 276.688 277.456 273.464C276.128 275.74 275.18 277.067 274.422 278.395C271.198 284.462 268.164 290.53 264.941 296.598C263.424 299.442 261.528 301.907 259.442 304.372C257.925 306.079 256.218 307.596 254.322 308.734C248.823 311.957 243.135 310.25 239.911 304.752C237.636 300.58 236.688 296.029 237.067 291.478C237.446 283.704 238.204 276.119 239.153 268.345C239.911 262.277 241.049 256.399 241.807 250.331C242.186 248.056 243.514 244.832 241.049 243.694C237.825 242.177 236.308 245.59 234.791 247.676C227.207 257.347 221.708 268.155 218.484 279.911C217.726 282.377 217.157 284.842 216.398 287.307C215.829 289.203 214.692 290.72 212.606 290.53C210.52 290.341 209.572 288.634 209.382 286.738C209.193 284.652 209.003 282.566 209.003 280.48C208.624 271.758 208.245 262.846 207.865 254.123C207.865 252.227 207.297 250.331 206.917 248.435C206.538 248.435 206.349 248.435 205.969 248.435C205.211 252.038 204.642 255.64 203.883 259.243C202.935 264.173 202.367 269.103 201.039 274.033C199.902 278.015 198.195 281.997 196.109 285.79C193.265 290.72 188.904 294.133 183.215 295.271C180.75 295.839 179.802 296.977 178.854 299.063C176.768 303.614 174.303 307.975 172.028 312.336C171.459 313.474 170.511 314.612 169.562 315.56C164.253 321.248 157.617 321.628 151.928 316.318C149.653 314.232 148.136 311.578 146.239 309.302C144.912 307.596 143.964 305.889 142.637 304.183C142.257 304.183 141.878 304.372 141.689 304.372C141.499 305.889 141.309 307.406 141.12 308.923C139.603 320.111 138.465 331.109 136.379 342.296C135.431 347.795 132.966 352.915 130.88 358.224C129.932 360.499 128.415 362.775 126.709 364.671C122.347 369.601 117.038 370.549 111.729 366.757C109.074 364.861 106.609 362.396 104.713 359.931C99.2139 352.535 96.18 344.003 94.2839 334.901C91.0603 318.973 89.1642 302.855 89.9226 286.548C89.9226 285.979 89.733 285.41 89.733 284.842C89.3538 284.652 88.9745 284.273 88.7849 284.273C87.8368 284.462 86.6991 284.652 85.5614 284.842C85.3718 285.41 85.1822 285.979 85.1822 286.548C84.8029 292.806 84.9925 299.063 84.0444 305.131C82.5275 315.56 78.9247 325.041 71.7192 333.005C71.5296 333.194 71.5296 333.574 71.34 333.763C74.1843 341.348 77.2182 348.743 79.6832 356.328C82.7171 365.05 84.2341 374.152 84.6133 383.443C84.9925 394.252 82.1483 404.491 77.4078 414.162C75.1324 418.712 72.6673 422.884 69.823 427.056C68.3061 429.331 66.2203 431.227 63.9449 432.744C59.7733 435.588 56.1705 435.588 52.3781 431.986C49.7235 429.521 47.448 426.487 45.9311 423.263C38.9152 408.283 34.554 392.545 32.0889 376.238C29.6239 360.12 28.6758 344.003 29.8135 327.695C29.8135 326.558 29.6239 325.42 29.6239 323.524C27.7277 324.472 26.2107 325.23 24.6938 325.989C19.9533 328.454 15.0232 330.729 9.7139 330.919C7.43848 331.109 4.97343 330.54 2.69801 329.781C0.801819 329.212 -0.146274 327.506 0.0433445 325.42C0.232963 323.145 1.93953 322.765 3.83572 322.386C12.7478 321.059 20.5222 317.077 28.1069 312.526C30.572 311.009 31.5201 309.113 31.8993 306.268C35.8813 279.911 43.0868 254.503 52.947 229.663C55.2224 223.974 58.2563 218.475 61.2902 212.976C62.6175 210.701 64.5137 208.615 66.4099 206.719C68.875 204.254 71.7192 204.254 75.1324 205.581C81.0106 208.046 83.0964 212.407 83.286 218.475C84.0444 244.832 75.1324 268.155 59.9629 289.203C56.5497 293.943 52.947 298.873 49.3442 303.424C47.0688 306.268 45.7415 309.302 45.5518 312.905C45.3622 315.56 44.983 318.214 44.983 321.059C47.8273 317.456 51.2404 315.749 55.412 317.456C57.6874 318.404 59.7733 319.921 61.8591 321.628C63.5656 322.955 65.0826 324.851 66.5995 326.558C69.2542 325.61 70.2023 323.145 71.34 321.248C75.5116 313.664 77.5974 305.51 77.9767 296.788C78.1663 292.616 77.9767 288.634 77.9767 284.462C77.9767 279.343 78.9247 277.067 83.8548 276.119C89.1642 274.981 92.7669 272.516 94.4735 267.207C95.0423 265.311 96.9385 263.604 98.4555 262.467C101.869 259.622 105.851 260.57 108.126 264.552C110.781 269.103 109.453 274.981 104.713 278.015C103.386 278.963 101.679 279.532 100.162 280.101C98.2659 280.67 97.5074 281.808 97.5074 283.704C97.8866 301.907 98.2659 320.111 104.523 337.556C106.609 343.623 109.453 349.312 112.108 355C112.677 356.138 113.435 357.276 114.383 358.414C116.469 361.068 117.797 361.448 120.451 359.362C122.347 357.845 124.244 355.949 125.002 353.863C127.278 348.174 129.553 342.296 130.691 336.228C134.293 319.352 135.242 302.286 135.621 285.031C135.621 281.239 134.862 277.446 134.862 273.654C134.862 271.568 134.862 269.482 135.431 267.397C136 264.932 138.655 263.035 140.74 263.225C143.205 263.415 143.774 265.5 144.343 267.397C146.239 274.792 148.136 282.187 150.221 289.392C151.359 292.995 152.686 296.598 154.393 300.011C155.531 302.286 157.237 304.372 159.133 305.889C162.547 308.734 166.529 307.785 168.425 303.614C169.183 302.097 169.562 300.39 170.131 298.873C171.648 295.081 171.459 292.616 167.666 289.582C161.219 284.462 158.565 276.688 157.806 268.724C157.427 263.604 157.806 258.105 158.565 252.986C159.323 247.487 162.357 243.125 166.339 239.333C170.89 234.972 176.768 236.11 179.233 241.988C184.353 254.692 186.628 267.965 183.405 281.618C183.025 283.325 182.646 285.031 182.267 287.307C186.059 286.927 187.766 284.842 189.662 282.756C192.506 279.153 194.213 274.792 194.971 270.241C196.488 261.708 197.816 253.175 199.522 244.642C200.47 240.281 201.608 235.92 203.125 231.559C204.073 228.525 206.538 226.439 209.382 225.301C212.985 223.595 216.398 224.732 218.105 228.335C219.243 230.611 219.811 233.265 220.001 235.73C220.191 241.04 219.811 246.349 219.622 251.658C219.622 253.365 219.432 255.071 219.243 256.778C219.622 256.778 219.811 256.968 220.191 256.968C220.949 255.83 221.708 254.882 222.277 253.744C224.931 249.952 227.396 245.78 230.24 242.177C231.947 240.092 233.843 238.195 235.929 236.489C239.532 233.455 244.083 232.507 248.065 237.816C251.099 241.988 253.184 246.159 253.943 251.469C255.081 259.812 253.943 268.155 253.374 276.498C252.995 281.239 252.805 286.169 252.616 291.099C252.616 293.564 252.995 296.219 255.46 298.494C256.598 296.977 257.925 295.65 258.683 294.133C261.338 289.582 263.993 284.842 266.078 280.101C271.577 268.345 279.162 257.916 287.505 248.056C290.16 245.022 293.384 242.177 296.797 240.281C304.192 236.11 312.725 241.798 312.535 250.331C312.535 254.313 309.88 256.399 305.898 255.64C305.14 255.451 304.381 255.261 303.623 255.071C298.693 253.554 297.176 254.123 294.9 258.864C293.763 261.329 292.815 263.984 292.435 266.638C291.487 273.654 292.435 280.48 295.09 287.117C295.659 288.634 296.607 289.961 297.555 292.047C299.262 290.341 300.779 289.392 301.727 287.875C303.623 285.221 305.519 282.377 306.846 279.343C311.777 268.345 315.379 256.968 317.655 245.211C320.12 232.317 323.723 219.613 326.756 206.719C326.946 205.771 327.325 205.012 327.705 204.254C328.653 202.737 330.17 201.978 331.876 202.357C333.772 202.737 335.289 203.874 335.289 206.15C335.289 208.046 335.1 209.753 334.72 211.649C332.635 221.509 330.17 231.559 328.463 241.419C326.188 253.934 324.86 266.638 325.24 279.343C325.429 282.377 325.619 285.41 326.188 288.444C326.756 291.857 328.273 294.702 331.497 296.598C333.393 297.736 335.289 297.925 336.806 296.029C338.323 293.943 340.219 291.668 341.167 289.203C345.149 279.722 347.046 269.862 348.752 259.812C348.942 258.295 348.183 256.209 347.425 254.692C343.822 247.107 342.116 239.143 344.581 230.8C344.96 229.852 345.149 228.714 345.718 227.766C347.994 223.026 353.113 222.078 356.906 225.87C359.181 228.146 360.509 231.179 360.509 234.403C360.509 237.626 360.129 240.66 360.129 243.884C360.129 245.78 359.94 247.866 360.888 249.572C368.093 264.363 373.023 279.911 377.764 295.65C378.143 297.356 378.522 298.684 379.281 300.77ZM63.1864 420.419C65.2722 417.385 67.5476 414.73 69.0646 411.886C73.2362 404.491 74.7531 396.337 74.9428 387.805C75.1324 371.877 71.9089 356.517 66.4099 341.538C66.0307 340.4 65.2722 339.262 64.5137 337.745C60.1525 338.883 55.9809 339.262 51.9989 336.987C48.2065 334.901 45.9311 331.488 44.2245 327.506C43.6557 329.212 43.466 330.729 43.466 332.246C43.466 338.883 43.2764 345.52 43.466 352.156C43.8453 372.445 47.448 391.976 56.5497 410.18C58.2563 413.593 59.5836 417.195 63.1864 420.419ZM72.2881 222.078C64.7033 232.507 60.911 243.884 57.3082 255.261C51.43 273.464 48.7754 286.927 49.5338 290.53C59.394 279.153 74.5635 234.403 72.2881 222.078ZM168.804 247.297C160.65 251.469 161.409 279.153 171.079 284.652C173.734 279.153 172.028 252.796 168.804 247.297ZM363.353 344.761C367.714 340.969 371.127 330.16 369.8 324.282C366.576 331.109 363.922 337.176 363.353 344.761ZM60.5317 331.488C58.0667 328.075 55.9809 325.041 51.6196 324.661C51.8093 330.16 54.8432 332.436 60.5317 331.488ZM353.682 239.143C355.01 234.593 354.63 232.696 351.786 230.611C350.648 234.403 351.028 236.299 353.682 239.143ZM101.869 268.345C99.5932 269.672 98.2659 271.568 98.4555 274.413C103.196 272.516 103.575 271.758 101.869 268.345ZM100.162 84.0353C100.731 90.1031 101.11 95.9813 101.679 102.049C102.248 108.117 102.627 114.185 103.196 120.252C103.386 123.097 101.869 124.803 99.9724 126.32C98.2659 127.648 96.7489 127.458 95.6112 125.941C94.2839 124.045 93.1461 121.959 92.5773 119.873C91.0603 113.426 89.3538 106.79 88.9745 100.153C87.8368 83.2768 87.268 66.5904 86.8887 49.7143C86.6991 38.1476 87.0784 26.5808 87.268 15.2037C87.268 10.4632 87.8368 10.084 92.5773 9.1359C93.715 8.94628 95.0423 7.99818 95.8008 7.05009C98.6451 3.82657 101.679 1.17191 106.419 2.30962C111.16 3.63695 113.056 7.42933 114.004 11.7906C115.9 20.1338 115.711 28.477 113.625 36.6306C111.35 45.5427 108.505 54.4548 105.471 63.1772C104.144 67.1592 104.144 70.1931 105.851 73.9855C112.298 87.4484 116.28 101.67 119.693 116.27C120.072 117.598 120.262 118.925 120.451 120.252C120.641 122.338 120.262 124.234 117.986 124.993C116.28 125.562 114.573 124.424 113.625 121.769C112.867 119.873 112.487 117.598 111.918 115.702C109.264 106.6 106.609 97.3086 103.765 88.2069C103.386 86.69 102.437 85.3626 101.869 83.8457C101.11 83.8457 100.541 84.0353 100.162 84.0353ZM98.4555 55.4029C98.8347 55.4029 99.0243 55.5925 99.4036 55.5925C99.7828 55.2133 100.162 54.6444 100.352 54.2652C104.144 44.2154 107.178 34.1656 107.368 23.3573C107.368 19.5649 106.799 15.7726 106.04 12.1698C105.282 9.1359 103.196 8.56704 101.11 11.0321C97.8866 14.8245 95.8008 19.1857 96.18 24.3054C96.7489 31.3213 97.3178 38.5268 97.697 45.5427C98.0762 48.7662 98.2659 52.1794 98.4555 55.4029ZM65.2722 18.6168C66.0307 21.4611 66.4099 24.495 66.7891 27.5289C67.1684 30.3732 68.3061 31.5109 70.2023 31.5109C72.2881 31.7005 74.1843 30.1836 74.3739 27.5289C74.7531 25.0639 74.5635 22.4092 74.3739 19.7545C73.9947 14.2556 73.2362 8.94628 69.2542 4.58505C66.0307 0.792671 62.0487 -0.345042 57.4978 2.12C54.2743 3.82657 51.9989 6.48123 50.6716 9.70475C49.1546 13.4971 47.6376 17.2895 46.6896 21.2715C41.5698 43.6465 39.8633 66.2112 41.1906 88.9654C41.9491 101.48 45.5518 113.047 52.3781 123.666C55.0328 127.837 58.8252 130.492 63.376 132.198C66.4099 133.336 69.4438 133.147 72.0985 131.061C73.9947 129.544 76.0805 127.458 77.2182 125.372C81.9586 116.46 84.0444 106.979 81.769 96.7398C80.0625 88.7758 73.4258 83.6561 65.2722 84.0353C63.5656 84.0353 62.0487 84.6042 61.2902 86.5004C60.3421 89.5342 61.6694 93.137 64.3241 94.8436C65.4618 95.6021 66.7891 96.1709 67.7372 96.9294C70.7711 99.0152 72.6673 101.859 72.0985 105.841C71.34 110.582 70.5815 115.322 69.6334 120.063C69.2542 121.769 68.1165 123.097 67.1684 124.803C63.5656 123.666 61.6694 121.011 60.3421 118.356C58.0667 113.805 55.7913 109.065 54.4639 104.135C45.5518 74.1751 48.0169 44.405 56.5497 15.0141C57.1186 13.3075 58.0667 11.7906 59.0148 9.89437C62.9968 12.3594 64.3241 15.3933 65.2722 18.6168ZM265.13 17.6687C265.889 20.513 266.837 23.5469 267.027 26.5808C268.733 45.5427 270.06 64.6942 271.577 83.6561C272.336 93.7059 273.094 103.566 274.042 113.616C274.232 115.512 274.991 117.408 276.128 118.925C277.456 120.821 279.921 120.442 280.679 117.977C281.058 116.46 281.058 114.754 280.869 113.047C280.489 108.496 279.731 103.945 279.541 99.3944C278.593 82.5184 277.835 65.8319 276.697 48.9558C275.939 38.3372 275.18 27.7185 272.146 17.4791C271.388 14.4452 270.06 11.4113 268.354 8.75666C265.889 4.96428 262.096 4.39543 258.494 7.23971C256.408 8.94628 254.891 11.2217 252.995 13.3075C252.426 14.066 251.667 14.6348 251.099 15.3933C250.53 12.7387 250.719 10.2736 250.719 7.99818C250.719 6.86047 250.34 5.34352 249.582 4.77466C248.634 4.20581 246.927 4.39543 245.789 4.77466C243.135 5.72276 243.135 7.99818 243.135 10.4632C243.324 23.3573 243.324 36.2514 243.324 49.1455C243.324 70.3828 244.272 91.6201 245.979 112.668C246.168 115.133 246.548 117.598 247.306 119.873C248.444 122.907 252.047 123.097 253.753 120.442C254.322 119.304 254.701 117.787 254.701 116.46C254.701 113.805 254.701 110.961 254.512 108.307C253.374 86.1211 252.426 64.1253 250.909 41.9399C250.34 32.6486 253.753 24.8743 258.304 17.2895C259.252 15.7726 260.769 14.4452 262.665 12.549C263.803 14.8245 264.751 16.1518 265.13 17.6687ZM345.339 40.9918C343.253 37.7683 341.167 34.5448 339.461 31.3213C337.944 28.2874 336.617 24.8743 335.669 21.6507C334.72 18.8065 335.479 15.9622 337.185 13.4971C340.409 9.1359 344.581 8.94628 348.183 13.1179C348.563 13.4971 348.942 14.066 349.321 14.6348C350.269 15.7726 351.786 17.0999 353.113 15.7726C353.872 15.0141 354.251 12.9283 353.872 11.7906C351.596 4.58505 342.874 1.36153 336.427 5.1539C329.032 9.32551 324.86 15.2037 326.188 24.1158C326.377 25.6327 326.567 27.1497 326.756 28.6666C328.463 38.5268 331.876 48.0077 335.669 57.2991C340.219 68.1073 342.116 79.2948 343.443 90.8616C343.822 95.0332 343.633 99.3944 343.443 103.566C343.443 106.979 341.547 109.255 338.323 110.392C336.427 110.961 334.531 111.53 332.635 111.909C331.687 112.099 330.549 112.099 329.411 112.289C327.894 112.668 326.377 113.426 326.188 115.133C325.998 117.029 327.325 118.356 329.032 118.736C331.307 119.115 333.583 119.494 335.669 119.115C344.391 117.408 350.838 112.668 354.63 104.514C357.095 99.0152 358.233 93.3266 358.233 87.0692C357.475 67.5385 354.82 56.5406 345.339 40.9918ZM302.865 12.9283C303.623 15.2037 304.192 17.6687 304.95 19.9442C305.519 21.6507 306.278 23.1677 308.363 22.7884C310.449 22.4092 310.639 20.513 310.449 18.8065C309.88 15.7726 309.312 12.7387 308.553 9.89437C307.795 7.80856 306.846 5.72276 305.519 3.82657C302.296 -0.345042 297.934 -0.155423 295.09 4.20581C293.952 5.91238 293.004 7.61895 292.625 9.51513C291.298 15.9622 289.781 22.2196 289.212 28.6666C288.264 37.9579 288.264 47.4389 287.695 56.7302C287.126 67.5385 286.747 78.3467 288.264 88.9654C289.402 96.5501 290.919 104.135 292.435 111.72C293.194 115.512 295.09 118.736 298.314 121.201C304.002 125.562 310.828 124.424 314.81 118.546C315.379 117.787 315.759 117.029 316.138 116.081C319.172 109.444 319.741 102.428 320.12 95.2228C320.309 92.1889 318.413 89.7239 315.569 88.3965C313.483 87.4484 311.208 87.0692 308.932 86.69C307.984 86.5004 306.088 87.2588 305.898 88.0173C305.519 88.9654 305.898 90.8616 306.657 91.6201C307.984 92.9474 309.691 94.0851 311.587 94.8436C313.294 95.7917 314.242 96.9294 313.673 98.8256C312.725 102.808 311.587 106.79 310.449 110.582C310.07 111.909 308.553 113.047 307.226 114.754C304.571 111.151 304.192 107.738 303.433 104.514C300.589 91.2408 299.262 77.7779 298.503 64.315C297.555 48.7662 297.176 33.0279 298.693 17.4791C298.882 15.2037 299.072 12.7387 301.158 10.084C301.727 11.6009 302.485 12.1698 302.865 12.9283ZM55.7913 570.028C49.9131 567.374 50.8612 561.495 48.7754 557.893C43.0868 557.893 37.5879 557.893 32.0889 557.893C31.8993 559.599 31.5201 560.737 31.5201 561.875C31.5201 564.719 31.8993 567.563 31.8993 570.597C31.8993 572.114 31.8993 573.631 31.5201 575.148C31.1408 577.044 30.0031 578.561 27.9173 578.561C25.8315 578.371 24.8834 576.665 24.5042 574.769C24.3145 574.01 24.3145 573.252 24.3145 572.493C22.608 544.998 23.3664 517.693 24.8834 490.199C25.073 486.596 25.2626 482.993 25.4523 479.201C25.4523 477.494 25.6419 475.788 25.8315 474.271C26.4003 470.668 27.5381 469.151 29.6239 468.961C32.6578 468.772 33.9851 470.858 34.7436 473.323C37.3982 481.855 40.4321 490.388 42.5179 498.921C47.6376 519.779 52.1885 540.637 56.929 561.306C57.3082 562.633 57.4978 563.96 57.3082 565.288C56.929 566.805 56.3601 568.132 55.7913 570.028ZM32.4682 493.801C30.7616 498.732 30.0031 543.861 31.5201 549.929C36.2605 550.497 41.1906 550.877 46.1207 551.445C46.6896 546.326 35.3124 498.732 32.4682 493.801ZM146.808 6.48123C148.704 5.72276 150.221 4.77466 149.653 2.49924C149.084 0.413433 147.187 -0.155423 145.291 0.0341958C142.068 0.223815 138.655 0.413433 135.621 1.17191C133.156 1.74076 131.26 3.44733 130.691 6.102C130.122 7.80856 129.743 9.51513 129.553 11.4113C129.174 19.3753 128.794 27.5289 128.605 35.4929C128.226 51.4209 127.846 67.3489 127.846 83.2768C127.846 93.3266 128.036 103.187 128.605 113.237C128.794 117.029 129.932 120.632 131.07 124.234C131.639 126.51 133.345 128.216 135.621 128.975C141.12 130.492 146.619 128.216 148.894 123.097C150.411 119.684 151.549 116.081 152.497 112.289C153.066 110.013 153.255 107.548 152.118 105.083C146.239 108.875 145.86 116.081 140.93 121.39C140.172 117.977 139.413 115.702 139.224 113.426C137.327 99.3944 137.517 85.3626 137.327 71.1412C137.327 69.245 138.086 68.1073 139.792 67.1592C141.689 66.2112 143.395 64.8838 144.722 63.3669C145.481 62.6084 145.481 60.7122 145.102 59.5745C144.722 58.816 143.205 58.4368 142.068 58.2472C140.74 58.0575 139.603 58.4368 137.707 58.6264C138.275 41.9399 138.844 25.8223 139.413 9.32551C142.257 8.1878 144.533 7.42933 146.808 6.48123ZM170.89 85.173C174.113 82.8976 178.475 82.5184 179.043 78.1571C176.958 74.5544 173.355 76.6402 170.511 76.0713C170.321 74.744 170.131 73.6063 170.131 72.4686C169.942 61.2811 169.752 50.2832 169.942 39.2853C170.131 30.9421 170.511 22.5988 171.079 14.2556C171.459 9.32551 172.217 8.75666 177.147 8.1878C177.526 8.1878 178.095 8.1878 178.475 7.99818C180.181 7.80856 181.888 7.23971 181.888 5.1539C181.888 2.87848 180.181 2.12 178.285 1.93038C176.768 1.93038 175.251 1.74076 173.734 1.93038C168.614 2.12 166.149 3.63695 165.012 8.75666C163.305 15.9622 161.409 23.1677 160.65 30.5628C157.617 56.5406 158.185 82.708 160.84 108.686C161.219 112.099 162.167 115.512 163.495 118.736C166.339 125.183 171.838 126.51 177.716 122.907C181.319 120.632 182.646 117.029 181.129 113.237C179.423 113.805 177.716 114.564 175.061 115.702C172.407 105.273 170.89 95.2228 170.89 85.173ZM212.796 11.4113C216.209 11.6009 219.811 11.9802 223.225 12.1698C225.69 12.3594 227.775 11.7906 229.292 9.70475C230.62 7.99818 230.62 6.48123 228.724 5.53314C227.207 4.77466 225.31 4.20581 223.604 4.01619C215.64 3.0681 207.676 2.49924 199.712 1.55115C199.333 1.55115 198.764 1.55115 198.385 1.55115C196.109 1.93038 192.886 5.1539 192.696 7.42933C192.506 9.51513 193.644 10.6528 196.868 11.9802C200.47 13.3075 200.47 13.3075 200.66 17.0999C201.039 42.6984 201.608 68.297 201.987 93.8955C201.987 98.8256 202.367 103.566 202.746 108.496C202.935 111.72 203.315 114.754 203.883 117.977C204.073 119.684 204.642 121.39 206.728 121.769C210.141 122.528 212.985 120.252 213.175 116.839C213.175 115.702 213.175 114.374 213.175 113.237C212.796 99.2048 212.227 84.9834 211.847 70.9516C211.279 52.1794 210.71 33.4071 210.141 14.6348C210.141 13.6867 210.331 12.549 210.52 11.4113C211.089 11.4113 212.037 11.2217 212.796 11.4113ZM63.7552 480.718C66.0307 500.059 68.1165 519.59 70.3919 538.931C71.34 547.653 72.6673 556.376 73.9947 565.098C74.3739 567.563 74.9427 570.218 78.3559 571.545C79.1144 569.839 79.8728 568.511 80.0625 566.994C80.2521 565.288 80.0625 563.392 79.8728 561.495C77.5974 541.585 75.322 521.675 73.2362 501.765C72.4777 494.75 71.7192 487.923 70.9608 480.907C70.5815 476.546 70.7711 476.546 74.7531 475.029C77.0286 474.271 79.304 473.323 81.3898 472.185C83.0964 471.237 85.5614 470.289 84.6133 468.013C83.8548 465.738 81.3898 466.496 79.304 466.496C78.9247 466.496 78.7351 466.686 78.3559 466.686C75.8908 467.065 73.2362 467.255 70.7711 467.634C64.893 468.772 58.8252 469.72 52.947 471.047C50.8612 471.426 48.965 472.564 47.2584 473.891C44.983 475.598 44.6037 478.063 45.7415 479.959C46.8792 481.666 48.3961 482.045 51.43 480.718C55.0328 479.201 58.8252 478.253 63.1864 477.873C63.5656 479.39 63.7552 480.149 63.7552 480.718ZM172.407 158.366C172.596 162.158 172.596 165.951 172.596 169.743C172.596 171.829 172.407 173.915 172.217 176.19C172.217 179.224 172.976 180.93 174.682 180.741C177.337 180.551 177.526 178.465 177.906 176.569C178.095 175.621 178.095 174.483 178.285 173.346C179.612 168.605 180.371 163.865 182.267 159.504C183.405 156.659 185.68 154.194 187.956 152.108C189.852 150.212 191.748 150.971 192.127 153.625C192.696 156.659 192.696 159.693 192.696 162.727C192.317 169.743 191.748 176.569 191.369 183.585C191.369 185.102 191.179 186.619 191.558 188.136C191.748 188.894 192.886 189.843 193.834 190.032C194.403 190.222 195.351 189.274 195.919 188.515C196.299 187.946 196.488 187.188 196.488 186.429C197.057 176.38 197.816 166.519 198.195 156.47C198.195 154.384 197.626 152.298 196.868 150.402C194.592 145.472 190.041 144.334 185.68 147.368C183.594 148.885 182.077 150.971 180.181 152.867C179.423 153.625 178.664 154.573 177.716 155.711C176.958 154.005 176.578 152.867 175.82 151.54C173.924 147.747 170.7 146.799 167.097 149.264C165.201 150.591 163.684 152.677 161.978 154.384C161.03 155.332 160.461 156.28 158.944 158.176C158.754 155.711 158.754 154.384 158.565 153.057C158.375 151.35 158.565 149.264 156.1 148.885C154.393 148.695 153.445 150.023 153.445 153.246C153.445 161.589 153.635 169.933 153.635 178.276C153.635 179.034 153.445 179.982 153.824 180.551C154.583 181.499 155.531 182.827 156.479 183.016C157.237 183.206 158.565 181.879 158.944 180.93C159.513 179.982 159.513 178.655 159.702 177.328C160.65 170.881 161.409 164.434 165.012 158.745C166.339 156.659 167.477 154.573 170.7 153.436C171.838 155.142 172.407 156.849 172.407 158.366ZM231.189 80.6222C231.189 75.6921 231.189 70.9516 231.189 66.0215C231.189 58.816 231.189 51.4209 231.189 44.2154C231.189 42.3192 230.999 40.423 228.913 39.8541C227.017 39.2853 225.69 40.8022 225.121 42.3192C224.362 44.2154 223.604 46.3012 223.604 48.387C223.035 62.2291 222.466 75.8817 222.277 89.7239C222.277 97.6879 222.845 105.841 223.414 113.805C223.604 117.219 225.121 119.684 228.913 120.442C232.326 121.201 233.274 120.821 233.464 117.408C233.464 116.271 233.464 115.322 233.464 114.185C233.085 102.997 232.516 91.8097 232.137 80.6222C231.568 80.6222 231.378 80.6222 231.189 80.6222ZM233.274 197.617C232.137 196.29 231.189 194.583 229.861 193.445C229.103 192.687 227.775 191.739 227.017 192.118C226.069 192.497 225.31 193.825 225.31 194.962C225.31 196.29 225.879 197.617 226.448 198.755C227.586 200.461 228.913 201.789 230.24 203.116C235.55 208.046 240.101 207.667 244.083 201.599C245.41 199.703 246.358 197.427 247.117 194.962C248.065 191.928 248.634 188.705 249.013 185.671C250.34 174.104 251.288 162.537 252.426 150.781C252.426 150.402 252.616 149.833 252.426 149.454C251.857 148.506 251.099 146.989 250.34 146.989C249.202 146.799 247.685 147.558 246.927 148.316C246.168 149.075 245.979 150.591 245.6 151.729C243.703 157.228 241.997 162.727 239.911 168.036C239.532 169.364 238.394 170.312 237.636 171.639C237.256 171.639 236.877 171.45 236.498 171.45C236.119 169.933 235.55 168.416 235.36 166.899C235.171 164.054 235.55 161.21 235.55 158.176C235.55 155.901 235.929 153.625 235.739 151.35C235.739 149.643 234.981 147.937 232.895 147.937C230.809 147.937 230.24 149.643 230.051 151.35C229.861 156.849 229.292 162.158 229.482 167.657C229.482 169.933 230.43 172.398 231.568 174.483C233.843 178.086 237.067 178.655 241.049 176.759C241.807 176.38 242.566 176.19 243.893 175.621C242.566 184.533 243.135 193.445 236.688 201.03C235.36 199.324 234.222 198.565 233.274 197.617ZM285.799 168.795C285.988 175.052 283.713 180.172 278.783 183.775C272.525 188.705 265.51 186.619 262.855 179.034C262.476 178.086 262.286 176.949 262.096 176C261.148 165.571 263.424 155.901 269.681 147.178C270.44 146.041 271.767 145.093 273.094 144.334C274.611 143.576 276.128 143.955 277.076 145.282C282.765 152.298 285.609 160.072 285.799 168.795ZM274.991 151.54C274.232 151.919 273.853 151.919 273.663 152.108C273.284 152.488 273.094 152.867 272.905 153.246C269.492 159.314 267.785 165.951 267.975 172.777C267.975 174.483 268.543 176.38 269.112 178.086C270.25 180.741 272.146 181.31 274.611 179.603C278.024 177.328 279.921 173.915 279.731 169.933C279.352 165.382 278.214 160.641 277.266 156.09C276.697 154.573 275.749 153.057 274.991 151.54ZM142.068 166.709C142.068 173.346 141.12 178.465 138.844 183.206C136.379 188.515 132.018 191.549 127.657 190.98C123.485 190.411 119.693 186.429 118.745 180.741C118.176 177.517 117.986 174.104 118.365 170.881C118.934 164.244 120.262 157.607 123.296 151.54C126.329 145.661 129.363 142.059 135.621 149.833C139.982 155.142 142.447 161.21 142.068 166.709ZM130.122 151.54C129.553 151.919 129.363 151.919 129.174 152.298C128.794 152.677 128.415 153.246 128.226 153.815C125.192 161.021 123.296 168.416 123.485 176.19C123.485 178.465 124.054 180.741 125.192 182.637C127.088 186.24 130.122 186.429 132.587 183.206C132.966 182.827 133.345 182.258 133.535 181.689C139.034 172.587 137.517 159.883 130.122 151.54ZM345.718 168.605C347.615 172.018 349.321 174.863 351.028 178.086C351.976 179.793 353.493 181.879 351.217 183.396C348.942 184.723 347.615 182.637 346.477 181.12C344.391 178.465 342.495 175.432 339.651 172.587C339.461 173.725 339.082 174.863 338.892 176.19C338.702 178.086 338.702 180.172 338.134 182.068C337.944 183.016 336.617 184.154 335.669 184.154C334.91 184.154 333.583 183.016 333.203 182.068C332.635 181.12 332.824 179.793 332.824 178.465C333.014 170.881 333.203 163.296 333.393 155.711C333.393 154.573 333.772 153.246 334.531 152.298C338.323 148.126 342.874 145.661 348.563 146.799C352.165 147.368 354.441 149.833 355.199 153.436C356.147 157.987 355.199 161.969 351.596 165.003C349.89 166.14 347.994 167.088 345.718 168.605ZM339.651 164.434C342.874 162.727 345.529 161.779 347.615 160.262C349.511 158.935 349.89 155.522 348.752 153.625C347.615 151.919 345.339 151.54 342.684 152.867C340.978 153.625 339.651 154.953 339.651 157.039C339.651 159.124 339.651 161.21 339.651 164.434ZM93.715 176.569C93.715 179.603 93.715 182.827 93.715 185.861C93.715 187.757 94.2839 190.032 91.6292 190.601C90.1123 190.98 88.9745 189.274 88.7849 186.05C88.4057 177.138 88.0264 168.226 87.8368 159.314C87.8368 156.849 88.2161 154.953 90.4915 153.436C92.5773 152.108 94.0942 150.212 96.18 148.885C99.0243 147.178 102.248 146.609 105.282 148.506C108.126 150.402 108.126 153.625 107.936 156.659C107.747 160.262 105.661 162.727 103.006 165.003C97.697 169.743 97.697 169.933 101.3 176.19C102.248 177.897 103.196 179.603 104.334 181.31C104.713 182.068 105.282 182.827 105.661 183.585C106.419 185.102 107.747 187.188 105.471 188.326C103.575 189.274 102.437 187.567 101.489 186.24C99.9724 183.775 98.4555 181.31 96.9385 178.845C96.3697 177.897 95.6112 176.948 95.0423 175.811C94.4735 176.38 94.0942 176.38 93.715 176.569ZM93.5254 166.33C96.9385 164.813 99.214 162.727 101.11 160.262C102.058 158.935 102.437 156.849 102.437 155.142C102.437 151.919 100.921 151.16 98.0762 152.867C93.9046 155.142 92.3877 159.693 93.5254 166.33ZM303.244 174.294C303.054 167.468 303.054 160.641 302.865 154.005C302.865 152.677 303.054 151.35 302.865 149.833C302.675 148.126 301.727 146.609 300.02 146.989C298.883 147.178 297.934 148.506 297.176 149.454C296.797 150.023 296.797 150.971 296.797 151.729C296.607 157.797 296.228 163.865 296.417 169.933C296.607 173.535 297.176 177.138 298.314 180.551C300.02 185.861 304.571 187.188 309.122 183.964C312.345 181.689 314.431 178.465 315.569 174.863C316.896 170.312 318.034 165.571 318.982 160.831C319.551 157.797 319.741 154.763 319.93 151.729C319.93 150.212 319.551 148.695 317.844 148.885C316.896 148.885 315.569 150.023 315.19 150.971C314.431 152.677 314.052 154.763 313.673 156.659C312.345 162.158 311.208 167.657 309.88 172.966C309.122 175.621 307.984 178.086 304.381 179.603C303.813 177.138 303.244 175.621 303.244 174.294ZM69.823 152.867C71.5296 152.298 74.3739 152.298 73.6154 149.454C73.0466 146.989 70.3919 147.558 68.4957 147.937C64.7033 148.506 61.1006 149.454 57.3082 150.023C52.947 150.591 52.5677 150.781 52.7574 154.763C53.3262 164.813 54.2743 174.863 55.0328 185.102C55.0328 186.24 55.2224 187.567 55.7913 188.705C56.3601 189.653 57.3082 190.222 58.2563 190.98C59.0148 190.032 59.9629 189.274 60.1525 188.326C60.5317 186.809 60.1525 185.102 60.1525 183.396C59.7732 179.414 59.5836 175.432 59.2044 171.07C61.4798 170.691 63.376 170.501 65.2722 170.122C66.7891 169.743 68.3061 169.553 69.6334 168.795C70.2023 168.605 70.7711 167.468 70.5815 167.088C70.3919 166.33 69.6334 165.382 69.0646 165.192C67.9269 164.813 66.5995 164.813 65.4618 165.003C63.376 165.003 61.2902 165.192 58.6355 165.382C58.4459 162.158 58.2563 159.314 58.0667 155.901C62.6175 154.573 66.2203 153.815 69.823 152.867ZM133.535 240.85C136.569 241.608 139.982 239.902 141.499 236.299C142.826 233.455 142.826 230.421 141.499 227.577C139.982 224.164 136.948 223.405 133.725 225.112C130.122 227.008 129.743 230.231 129.743 232.128C129.363 237.816 130.691 240.281 133.535 240.85ZM226.258 25.2535C224.742 25.2535 223.793 26.2016 223.604 27.7185C223.414 29.2355 225.121 30.9421 226.827 30.7524C227.775 30.5628 228.534 29.6147 229.103 29.4251C229.103 26.9601 227.775 25.0639 226.258 25.2535ZM107.368 410.18C107.936 409.421 108.316 408.663 108.885 407.904C112.867 401.836 116.659 395.579 121.21 389.89C124.433 385.908 128.415 382.495 132.397 379.272C134.673 377.565 137.707 376.427 140.74 375.859C146.429 374.91 150.221 377.376 152.307 382.874C154.393 388.563 154.393 394.631 153.445 400.699C151.549 412.645 146.619 423.263 140.74 433.692C137.138 440.139 133.156 446.207 129.174 452.465C128.605 453.223 128.226 454.171 127.467 455.498C128.794 455.119 129.553 455.119 130.311 454.93C145.291 450.568 159.323 457.205 165.201 471.616C169.183 481.476 169.373 491.716 168.804 502.145C167.477 526.795 157.427 547.653 141.499 565.857C137.896 570.028 133.725 573.821 128.605 576.096C122.537 578.751 117.038 577.992 111.539 574.389C110.022 573.252 109.074 571.924 108.885 569.839C108.695 563.581 108.126 557.513 108.505 551.256C108.885 546.136 109.833 541.016 112.298 536.466C113.056 535.138 113.815 533.621 115.711 534.19C117.797 534.759 117.797 536.466 117.607 537.983C117.417 539.879 116.848 541.775 116.28 543.671C114.763 549.36 113.246 555.238 113.815 561.116C114.194 567.373 119.503 570.218 125.002 567.184C126.329 566.425 127.467 565.667 128.605 564.719C131.828 561.685 135.242 558.651 137.896 555.048C153.255 535.897 160.65 514.091 159.323 489.251C158.944 483.752 157.996 478.442 155.531 473.323C151.738 465.548 143.395 461.187 135.052 462.894C126.709 464.6 119.314 468.772 114.004 475.598C105.661 486.027 107.368 483.183 107.368 495.129C107.368 501.765 107.557 508.402 107.557 515.228C107.557 517.883 106.799 518.831 104.903 518.641C101.869 518.641 100.352 517.504 100.162 515.039C99.7828 505.558 99.7828 496.077 99.0243 486.596C98.4555 477.684 97.1281 468.772 96.3697 459.86C95.8008 453.223 95.6112 446.776 95.0423 440.139C94.2839 429.521 93.5254 418.902 94.4735 408.283C94.6631 406.198 94.8527 404.112 95.4216 402.026C95.8008 400.509 96.3697 398.992 97.3178 397.665C98.6451 395.958 100.541 394.82 102.817 395.579C105.092 396.337 105.851 398.234 106.04 400.319C106.23 403.353 106.04 406.577 106.04 409.611C106.799 409.99 107.178 409.99 107.368 410.18ZM107.747 468.013C107.936 468.013 108.316 468.203 108.505 468.203C109.453 467.065 110.591 465.927 111.35 464.6C119.503 451.516 127.846 438.433 135.621 424.97C140.74 416.437 144.154 406.956 145.291 396.906C145.671 394.062 145.291 391.028 144.912 388.184C144.722 386.098 142.826 385.15 140.74 386.098C139.603 386.667 138.465 387.236 137.517 388.184C134.673 391.028 131.639 393.872 128.984 396.906C121.21 406.008 113.815 415.11 109.643 426.487C108.126 430.848 106.988 435.209 107.178 439.95C107.557 448.483 107.557 457.015 107.557 465.738C107.557 466.307 107.557 467.065 107.747 468.013ZM186.439 362.775C187.197 360.499 187.766 358.603 188.524 356.707C189.852 352.915 191.748 349.312 194.782 346.468C200.091 341.348 206.917 341.727 211.658 347.416C216.588 353.294 218.105 360.31 218.484 367.705C219.432 386.477 215.071 404.112 205.78 420.609C203.504 424.591 200.47 427.814 196.868 430.469C195.73 431.227 194.971 432.175 196.109 433.692C202.746 442.604 205.969 452.654 208.434 463.273C211.279 475.977 212.985 488.871 213.554 501.765C213.554 503.472 213.554 505.368 212.985 506.885C211.847 509.919 208.245 510.298 206.538 507.454C205.4 505.558 205.021 503.282 204.642 501.197C203.125 490.009 201.798 478.632 200.091 467.444C198.764 458.912 195.73 450.758 191.369 443.173C190.61 441.656 189.472 440.329 188.524 439.002C188.335 439.002 187.956 439.191 187.766 439.191C187.766 439.95 187.576 440.898 187.576 441.656C187.956 458.153 188.335 474.65 188.524 491.147C188.524 496.266 188.335 501.386 188.335 506.316C188.335 507.264 188.145 508.212 187.766 508.971C187.197 510.677 186.818 512.763 184.353 512.953C180.56 513.143 178.854 512.384 178.095 509.35C176.958 504.041 176.01 498.732 175.82 493.422C175.441 476.736 175.441 460.239 175.251 443.552C174.872 423.642 174.113 403.733 173.734 383.823C173.544 378.892 173.924 373.962 174.303 369.032C174.493 366.947 175.251 364.861 176.389 363.154C178.285 359.741 181.129 359.172 184.542 361.258C184.922 361.637 185.49 362.206 186.439 362.775ZM187.576 425.728C191.748 423.263 195.161 420.798 197.436 416.816C205.969 401.836 209.951 385.529 209.382 368.274C209.193 363.533 208.624 358.983 205.78 354.811C203.504 351.398 201.229 351.208 199.143 354.432C197.057 357.466 195.351 360.879 194.403 364.292C189.662 383.633 185.68 402.974 187.197 423.074C187.387 423.832 187.387 424.591 187.576 425.728ZM227.775 453.602C227.775 427.814 232.326 402.974 239.532 378.324C240.67 374.342 241.997 370.549 243.324 366.567C243.893 365.24 244.652 363.723 245.6 362.585C247.875 360.12 250.909 360.499 252.995 363.154C253.753 364.102 254.891 364.861 255.839 365.619C257.166 366.757 258.683 367.705 259.821 369.032C268.354 377.376 272.146 387.805 274.422 399.182C277.835 417.195 277.076 435.02 273.663 453.033C271.957 462.135 270.629 471.237 268.733 480.339C267.216 487.544 264.562 494.56 260.2 500.438C254.322 508.212 245.6 508.781 238.584 501.955C235.171 498.542 233.085 494.56 231.947 490.009C229.103 480.149 228.344 470.099 228.155 459.86C227.586 457.964 227.775 455.688 227.775 453.602ZM253.374 376.617C252.995 376.617 252.805 376.617 252.426 376.617C251.288 380.789 249.392 385.15 248.823 389.322C246.927 402.026 245.22 414.73 243.893 427.624C242.376 443.742 241.428 459.86 242.755 475.977C243.324 482.045 244.652 487.923 245.789 493.801C245.979 494.75 247.117 496.266 248.065 496.456C249.202 496.646 250.719 496.077 251.667 495.129C252.805 493.991 253.943 492.664 254.512 491.147C256.598 485.648 258.873 480.339 260.2 474.65C262.286 464.79 263.613 454.74 265.32 444.88C268.543 426.866 267.595 409.231 262.855 391.787C260.959 385.908 257.356 381.168 253.374 376.617ZM298.503 382.306C298.503 381.358 298.503 380.409 298.503 379.461C299.072 371.308 299.831 363.154 300.399 355C300.589 351.777 299.072 349.881 296.797 349.691C294.521 349.502 292.815 351.398 292.246 354.432C292.246 354.621 292.246 354.811 292.246 354.811C290.729 369.412 289.402 384.012 289.212 398.802C288.643 422.884 287.505 447.155 286.557 471.237C286.368 477.873 285.988 484.51 285.988 490.957C285.988 493.991 287.885 496.077 290.35 496.267C292.625 496.456 294.521 494.75 295.28 491.905C295.469 491.336 295.469 490.768 295.659 490.199C296.038 486.217 296.417 482.235 296.607 478.253C297.555 460.808 298.124 443.173 299.262 425.728C300.21 411.317 303.054 397.096 308.363 383.633C311.208 376.617 314.621 369.98 319.741 364.292C320.309 363.723 321.258 363.344 321.826 362.775C322.206 363.533 322.774 364.292 322.774 365.24C322.774 372.635 323.343 380.03 322.774 387.236C320.499 411.317 317.655 435.399 315.19 459.291C314.052 469.341 313.294 479.201 314.431 489.251C314.621 490.768 315 492.284 315.759 493.612C317.465 496.456 320.309 496.456 321.637 493.422C322.395 491.526 322.964 489.251 322.964 486.975C323.533 479.58 323.533 471.995 324.291 464.411C326.188 445.638 328.463 426.866 330.549 408.094C332.066 394.82 333.393 381.358 332.445 367.895C332.255 364.292 331.687 360.499 330.359 357.086C328.653 351.967 323.533 350.26 318.792 352.915C316.517 354.242 314.242 356.328 312.535 358.414C307.226 364.671 303.623 371.687 300.589 379.272C300.21 380.22 299.641 381.168 299.262 382.116C298.882 382.306 298.693 382.306 298.503 382.306ZM352.165 509.729C350.269 505.558 348.752 501.386 346.666 497.404C345.718 495.508 344.012 493.233 341.547 493.991C339.082 494.75 339.082 497.404 339.461 499.49C340.409 506.695 342.495 513.522 346.856 519.59C350.459 524.52 356.337 524.709 360.509 520.158C361.836 518.831 362.784 517.125 363.543 515.418C364.87 512.384 366.197 509.161 366.766 505.937C368.473 497.783 369.99 489.819 371.317 481.476C374.54 459.48 377.385 437.674 380.419 415.678C381.746 406.577 383.073 397.475 384.021 388.373C384.211 386.667 384.021 384.581 383.263 383.064C381.746 379.651 377.385 379.272 375.109 382.306C374.351 383.443 373.782 384.771 373.592 386.098C373.023 388.753 372.455 391.407 372.075 394.062C370.748 405.818 369.421 417.385 368.093 429.141C367.524 434.64 365.818 439.76 362.784 444.501C361.267 446.966 360.509 446.966 358.802 444.69C355.958 441.087 353.872 437.105 352.734 432.555C350.459 424.97 349.89 417.006 349.89 409.231C349.89 400.13 350.08 391.218 349.89 382.116C349.89 380.409 349.511 378.703 348.942 377.186C348.373 375.669 346.666 374.531 345.149 375.1C343.822 375.479 342.684 376.617 341.926 377.755C341.357 378.703 341.357 380.03 341.357 381.358C341.167 390.08 340.599 398.992 340.599 407.715C340.788 415.11 341.167 422.505 342.305 429.71C343.633 439.002 347.425 447.345 354.251 453.981C356.337 456.067 358.802 457.205 361.836 456.826C364.68 456.447 364.87 456.447 364.491 459.48C362.594 472.564 360.698 485.648 358.612 498.542C358.044 502.334 356.527 505.937 355.389 509.729C355.199 510.488 354.63 511.246 353.872 512.574C353.303 511.436 352.545 510.677 352.165 509.729ZM278.214 519.969C277.835 518.073 277.645 516.176 277.076 514.28C276.697 512.384 275.559 510.867 273.474 511.057C271.198 511.246 270.44 512.953 270.25 514.849C270.06 516.366 270.25 517.693 270.44 519.21C271.767 529.07 272.905 539.12 274.232 548.98C274.611 552.583 276.507 554.479 278.973 554.29C281.438 554.1 282.765 551.825 282.765 548.222C282.575 544.43 282.386 540.448 282.386 536.655C282.575 529.45 284.851 523.192 289.97 517.883C292.625 515.228 294.521 515.418 295.849 518.831C296.986 521.486 297.555 524.52 297.745 527.364C298.314 534.001 298.314 540.448 298.883 547.084C299.072 549.36 300.02 551.635 301.158 553.721C302.106 555.617 303.623 555.428 304.571 553.721C305.519 552.014 306.467 550.118 306.467 548.222C306.467 539.879 306.278 531.536 305.898 523.192C305.709 518.641 303.813 514.28 300.589 510.867C296.607 506.695 292.056 506.127 287.695 509.919C284.851 512.194 282.765 515.418 280.489 518.262C279.921 518.831 279.541 519.59 279.162 520.158C278.783 519.969 278.404 519.969 278.214 519.969ZM225.121 540.637C225.31 534.759 226.638 528.881 229.482 523.382C230.809 521.107 232.516 519.021 234.602 517.314C236.877 515.418 239.721 515.039 242.566 515.987C251.288 518.831 256.977 524.52 258.683 533.621C260.39 543.102 259.063 552.014 252.047 559.22C246.358 565.098 238.394 564.908 232.516 559.41C227.396 554.479 225.31 548.222 225.121 540.637ZM252.047 539.879C252.616 533.811 248.634 528.881 244.652 524.14C244.272 523.761 243.514 523.572 242.945 523.572C240.29 523.192 238.394 524.14 237.067 526.606C234.791 530.777 233.274 535.138 232.895 539.879C232.516 544.809 233.464 549.36 237.067 553.152C240.67 556.945 245.031 556.755 248.254 552.583C251.099 548.98 252.047 544.999 252.047 539.879ZM191.748 528.312C193.454 525.278 195.919 524.709 198.385 527.174C200.091 528.881 201.418 530.967 202.746 533.242C204.263 535.518 205.78 536.655 207.676 535.897C209.382 535.138 210.331 533.052 209.572 530.587C208.624 527.174 206.917 524.14 204.263 521.675C197.057 515.039 188.524 516.366 183.974 525.278C179.233 534.569 179.612 543.861 183.594 553.152C186.059 559.03 190.8 563.012 196.488 565.667C200.85 567.563 204.832 566.805 208.434 563.771C212.037 560.737 213.744 556.565 213.175 551.825C212.985 550.877 212.227 549.549 211.468 549.17C210.899 548.981 209.382 549.549 208.814 550.308C207.676 551.446 206.538 552.962 205.59 554.479C202.935 558.272 200.66 558.651 197.057 556.186C190.989 552.204 189.283 546.136 188.904 539.31C189.093 535.328 189.852 531.725 191.748 528.312ZM321.068 511.246C322.016 518.641 323.154 526.037 324.291 533.432C324.671 536.086 326.377 537.414 328.273 537.224C330.359 537.034 331.497 535.138 331.307 532.294C331.118 530.777 331.118 529.071 330.928 527.554C329.98 520.727 329.221 513.711 328.084 506.885C327.705 504.42 326.188 503.282 324.291 503.282C322.395 503.472 321.258 504.989 321.258 507.454C321.258 508.592 321.447 509.919 321.447 511.057C321.447 511.246 321.258 511.246 321.068 511.246ZM327.705 556.565C328.653 558.461 330.359 558.841 331.687 557.324C332.824 555.807 333.772 553.911 334.152 552.204C334.72 549.36 332.824 546.895 330.549 546.705C328.084 546.515 326.188 548.791 326.188 552.583C326.377 553.342 326.946 555.048 327.705 556.565Z" fill="#C2343E"/>
</svg>
