<!-- <svg width="401" height="613" viewBox="0 0 401 613" fill="none" xmlns="http://www.w3.org/2000/svg"> -->
<svg width="401" viewBox="0 0 401 613" fill="none" xmlns="http://www.w3.org/2000/svg">
<path d="M295.623 263.121C295.433 264.448 295.433 265.207 295.054 265.776C292.778 271.085 288.228 273.929 282.918 275.257C278.557 276.394 274.954 274.498 272.679 270.895C270.783 267.672 269.455 264.069 268.507 260.466C266.801 253.261 267.369 245.676 267.749 238.281C267.938 235.057 268.128 231.834 268.128 228.8C268.128 226.714 268.318 223.87 265.663 222.922C263.387 222.163 261.87 224.439 260.543 225.956C258.268 228.61 256.182 231.455 254.475 234.489C248.976 243.211 245.753 252.882 243.857 262.931C243.667 263.879 243.477 264.638 243.288 265.586C242.529 268.999 241.202 270.326 239.116 270.137C237.22 269.947 236.272 268.43 236.082 265.207C236.082 263.311 236.082 261.604 236.082 259.708C236.082 247.951 236.082 236.005 236.082 224.249C236.082 221.026 235.703 217.802 235.514 214.389C235.134 214.199 234.945 214.199 234.565 214.01C232.669 216.096 230.773 218.181 228.877 220.077C226.981 221.974 224.895 223.68 222.43 225.956C223.188 227.662 224.136 229.369 224.895 231.075C229.635 240.746 230.015 250.416 225.084 259.897C223.947 262.173 222.43 264.259 220.534 266.155C215.414 270.895 209.156 270.516 204.416 265.396C201.572 262.362 200.055 258.57 199.107 254.398C198.348 250.796 197.779 247.383 196.831 243.021C192.47 247.003 187.73 250.037 187.161 256.295C186.402 264.259 183.748 271.654 178.817 278.101C176.732 280.755 174.077 283.221 171.422 285.306C168.957 287.203 166.113 287.771 163.458 285.686C160.804 283.6 160.424 280.566 161.752 277.911C163.458 274.308 165.355 270.895 167.63 267.861C171.233 262.931 175.215 258.38 179.197 253.83C181.283 251.365 181.851 248.9 181.472 245.866C180.903 239.229 179.386 232.972 176.921 226.904C176.542 225.766 175.784 224.818 174.835 222.732C173.887 225.387 173.129 227.093 172.75 228.99C168.768 242.263 164.975 255.536 160.424 268.43C158.149 275.446 154.925 282.272 151.512 288.909C149.995 291.753 147.72 294.598 145.445 296.683C139.377 302.182 131.982 300.286 128.948 292.701C126.483 286.254 126.483 279.618 127.81 272.981C128.948 267.293 130.654 261.794 132.171 255.915C131.223 256.105 130.465 256.295 129.706 256.484C124.207 258.191 119.656 256.674 117.191 251.554C115.864 248.9 115.485 245.866 114.726 242.832C114.347 241.125 114.537 239.229 114.347 236.385C113.209 238.091 112.641 238.85 112.072 239.608C109.607 243.78 107.71 248.331 104.866 252.313C102.78 255.157 100.315 258.001 97.2814 260.087C91.2136 264.448 84.9562 263.879 79.6469 258.57C79.078 258.001 78.6988 257.053 77.9403 255.915C74.5272 258.949 71.8725 261.604 68.8386 263.69C63.5292 267.482 61.2539 272.033 60.8746 278.859C60.3058 288.34 58.0303 297.632 56.3238 307.112C54.8068 314.887 50.2559 320.955 44.1881 325.885C39.6373 329.487 34.7072 329.298 29.5875 327.212C24.8471 325.126 23.1405 320.955 22.7612 316.214C22.382 311.284 23.899 306.544 25.9848 302.182C29.7772 294.029 35.2761 287.203 41.1543 280.755C42.6712 279.239 44.1882 277.722 45.7051 276.205C51.0144 271.085 51.2041 271.085 49.6871 264.069C48.3598 257.812 46.6532 251.744 45.1362 245.676C44.757 245.676 44.3778 245.486 43.9986 245.486C43.4297 246.624 42.8608 247.572 42.4816 248.71C39.4477 255.536 36.4138 262.552 33.1903 269.378C30.7252 274.308 27.3121 278.67 22.9509 281.893C18.7793 284.927 14.2284 287.013 8.91906 285.875C6.64363 285.496 4.3682 284.358 2.66164 282.841C1.52392 281.893 1.1447 279.618 0.955078 277.911C0.955078 277.153 1.90316 276.015 2.66164 275.636C3.23049 275.446 4.55785 276.015 4.93708 276.584C6.0748 278.48 7.40213 280.376 9.67755 280.187C12.3322 279.807 15.3661 279.618 17.4519 278.101C20.6754 275.825 23.7093 273.171 25.7951 269.947C33.0007 259.139 37.7411 247.193 40.5854 234.489C41.1542 232.023 40.3958 230.127 39.4477 227.852C37.3619 223.111 36.2242 218.181 36.793 212.872C37.1722 208.89 39.2581 206.235 42.8608 204.339C45.8947 202.822 48.1702 203.391 49.6871 206.235C50.6352 207.942 51.2041 209.838 51.3937 211.734C51.5833 214.01 51.7729 216.475 51.204 218.561C49.8767 222.922 51.0144 226.904 52.9106 230.886C56.8926 239.798 59.7369 249.089 60.685 258.76C60.685 259.518 61.0642 260.087 61.4435 261.225C62.5812 260.466 63.5293 260.087 64.2877 259.518C66.5632 257.622 68.649 255.347 71.114 253.45C73.9583 251.175 74.7168 248.9 73.7687 245.297C71.4932 236.574 73.0102 228.041 77.3714 220.267C79.4572 216.664 82.1119 213.63 86.0939 211.924C91.5928 209.648 96.1437 211.924 97.2814 217.992C98.0399 222.163 97.0918 226.145 95.7645 230.127C93.6786 236.385 89.8863 241.694 85.9043 246.814C84.7665 248.141 83.6289 249.658 82.6808 250.985C84.9562 254.778 87.042 255.536 90.0759 253.45C92.5409 251.744 95.006 249.658 96.5229 247.193C101.643 239.419 106.383 231.265 111.124 223.111C113.589 218.75 115.864 214.389 118.519 210.028C121.553 205.098 125.724 201.116 131.223 198.461C137.86 195.237 143.169 196.565 147.341 202.822C150.944 208.132 152.46 214.199 153.409 220.267C153.788 222.163 153.977 224.249 154.167 226.145C154.167 228.041 153.788 229.938 151.512 230.317C149.806 230.696 148.478 229.369 147.91 227.093C147.341 224.059 147.151 221.026 146.393 218.181C145.634 214.389 144.686 210.786 141.842 207.942C138.998 205.098 136.532 204.908 133.499 207.373C132.171 208.321 131.034 209.648 130.085 210.976C123.259 220.267 120.036 230.507 120.794 242.073C120.984 244.159 121.363 246.245 122.311 248.141C123.828 251.554 126.483 251.933 129.327 249.468C130.465 248.52 131.602 247.383 132.361 246.055C135.016 242.073 137.67 237.902 140.325 233.92C140.894 232.972 141.273 232.023 141.842 231.075C142.79 229.558 143.928 228.421 146.013 229.179C147.72 229.748 148.289 231.455 147.53 233.73C145.634 239.229 143.548 244.538 141.463 249.848C138.429 257.812 135.395 265.776 134.067 274.119C133.688 277.153 133.499 280.187 133.688 283.221C133.688 285.306 134.067 287.392 136.532 289.288C137.86 288.34 139.756 287.392 140.894 285.875C142.98 283.41 144.876 280.755 146.393 278.101C157.201 259.897 164.217 240.367 168.009 219.509C168.388 217.612 168.009 215.716 167.63 213.82C167.061 210.786 166.113 207.942 165.355 205.098C165.165 204.15 164.975 203.391 164.975 202.443C164.786 199.219 166.113 196.754 168.199 195.996C170.664 195.048 172.75 196.375 174.835 199.409C176.352 201.684 177.301 204.339 177.111 207.183C176.921 210.217 177.869 212.872 179.007 215.527C182.61 223.68 186.023 232.023 187.35 240.936C187.35 241.315 187.73 241.694 188.298 242.642C192.66 238.281 197.969 235.437 198.727 228.421C199.296 224.059 200.813 219.888 202.141 215.716C202.709 214.01 203.847 212.493 204.985 211.165C206.123 209.838 207.829 209.08 209.536 210.028C210.673 210.786 211.622 212.303 211.811 213.441C212.19 215.527 212.001 217.612 212.001 219.698C216.362 222.163 219.965 221.026 222.999 217.612C225.274 214.958 227.55 212.303 229.825 209.648C230.963 208.321 231.721 206.804 232.859 205.666C236.841 201.874 243.098 203.201 244.426 208.511C245.563 212.682 245.753 217.233 246.132 221.594C246.322 225.576 246.132 229.748 246.132 235.057C247.649 233.54 248.408 232.972 248.787 232.213C251.441 228.61 253.717 225.008 256.561 221.594C258.078 219.698 260.164 218.181 262.25 217.044C265.852 215.147 272.11 215.906 275.144 220.457C277.23 223.491 278.747 226.904 278.936 230.507C279.505 237.522 279.695 244.728 279.884 251.744C280.074 254.778 279.695 257.812 280.074 260.846C280.643 265.965 283.297 267.861 288.227 266.155C290.503 265.586 292.589 264.448 295.623 263.121ZM216.931 261.225C218.258 259.329 219.396 258.001 220.154 256.484C223.947 248.52 223.378 240.746 219.396 232.972C217.879 230.127 216.552 227.662 212.57 228.8C211.432 229.179 209.915 228.8 208.208 228.8C207.26 238.85 207.829 248.52 213.138 257.243C213.897 258.76 215.414 259.708 216.931 261.225ZM51.204 283.031C50.8248 283.031 50.4456 282.841 50.0663 282.841C49.6871 283.221 49.1183 283.6 48.739 283.979C43.2401 290.616 38.1203 297.632 34.8968 305.785C33.7591 308.819 32.811 312.043 32.2422 315.456C31.8629 316.973 32.6214 318.869 33.0006 320.955C38.4996 319.058 41.9127 315.835 44.3778 311.474C47.222 306.354 49.3078 300.665 50.0663 294.787C50.6352 290.805 50.8248 287.013 51.204 283.031ZM79.8365 242.642C80.0261 242.642 80.2157 242.642 80.2157 242.642C86.2835 236.764 90.2655 229.558 91.2136 221.026C91.4032 219.698 90.6448 218.371 90.4552 216.854C81.9223 218.75 76.0441 233.73 79.8365 242.642ZM178.249 265.207C171.802 270.137 168.009 275.825 168.199 279.997C173.508 276.205 176.542 271.085 178.249 265.207ZM46.0843 210.028C45.7051 210.028 45.3259 210.028 44.9467 210.028C43.9986 211.924 44.1881 213.63 46.0843 215.906C46.0843 213.63 46.0843 211.924 46.0843 210.028ZM171.233 203.012C170.853 203.012 170.285 203.201 169.905 203.201C170.285 204.339 170.474 205.287 170.854 206.425C171.233 206.425 171.422 206.235 171.802 206.235C171.802 205.098 171.422 204.15 171.233 203.012ZM41.7231 526.691C40.775 527.07 40.3958 527.07 40.2062 527.26C33.7591 532.569 26.1744 530.863 23.1405 522.899C21.6235 518.917 21.0547 514.745 20.6754 510.573C20.2962 507.729 20.6754 504.885 20.865 502.041C21.0547 500.334 21.8131 499.196 23.7093 499.007C25.4159 498.817 26.5536 499.955 27.1224 501.472C27.5017 502.989 27.6913 504.695 27.881 506.402C28.2602 510.005 28.6394 513.607 29.0186 517.21C29.2083 518.727 29.7771 520.244 30.5356 521.382C31.6733 523.278 33.3799 523.278 34.5176 521.382C35.2761 520.054 36.0346 518.348 36.4138 516.831C37.5515 512.659 38.4996 508.298 39.2581 503.937C40.0166 499.575 40.5854 498.248 42.4816 498.248C44.9466 498.438 46.8428 500.524 47.0324 503.937C47.6013 510.953 47.9805 517.779 48.3598 524.795C48.5494 526.312 48.5494 528.018 48.739 529.535C49.1183 529.535 49.4975 529.725 49.6871 529.725C51.9625 526.122 54.238 522.709 56.1341 519.106C56.703 517.969 56.3238 516.072 56.3238 514.745C55.7549 509.436 55.3756 504.126 57.4614 499.007C58.4095 496.542 59.7369 494.077 61.4435 491.991C64.0981 488.767 66.9424 488.957 70.1659 491.612C73.1998 494.077 74.5272 497.3 73.3895 500.903C72.0621 505.643 70.1659 510.384 68.4594 514.935C67.8905 516.641 66.7528 518.158 65.8047 519.675C64.2878 522.519 64.4774 523.467 66.3736 525.174C68.2697 526.881 70.7348 527.07 72.6309 525.364C73.9583 524.226 75.096 522.709 75.8545 521.002C77.5611 517.779 79.2676 514.555 80.4053 511.142C83.6288 502.609 89.507 495.783 94.6267 488.578C95.3852 487.63 96.3333 486.871 97.2814 486.113C99.3672 484.785 101.453 484.596 103.728 485.923C105.814 487.25 107.521 490.284 106.573 492.56C106.004 494.266 106.573 495.404 106.762 496.731C108.09 503.557 109.227 510.384 110.555 517.21C111.692 522.519 112.83 527.829 114.347 533.138C115.485 537.12 117.381 540.723 120.415 543.377C123.07 542.998 123.449 540.912 124.207 539.206C127.431 532 128 524.226 128.948 516.641C129.327 513.418 129.327 510.005 129.706 506.591C130.085 503.747 129.327 501.472 127.241 499.196C124.207 496.352 122.69 492.37 122.311 488.198C122.121 487.061 122.121 485.733 122.501 484.596C123.449 480.614 127.431 479.097 130.465 481.751C131.982 483.079 133.309 484.975 134.067 486.871C135.205 489.526 135.774 492.37 136.722 495.025C138.429 500.713 142.031 502.989 147.91 502.23C151.702 501.661 153.029 502.989 152.46 506.781C151.702 510.573 150.754 514.555 150.185 518.348C149.237 524.605 149.237 531.052 150.564 537.31C150.943 538.637 151.323 539.964 151.892 541.102C153.788 544.894 157.58 546.222 161.373 544.326C164.406 542.998 166.492 540.723 167.63 537.499C168.199 535.982 168.957 534.655 170.854 535.413C172.56 536.172 173.319 537.499 172.75 539.395C171.043 546.791 160.804 553.048 153.409 551.152C150.754 550.583 149.237 548.687 148.099 546.601C144.876 541.292 142.79 535.603 142.6 529.346C142.411 522.33 142.6 515.503 142.6 507.919C140.704 507.16 138.239 506.212 135.395 505.264C134.636 512.28 133.878 518.727 133.119 525.174C132.171 531.621 131.034 538.068 127.431 543.757C123.828 549.256 118.708 550.583 113.589 546.601C110.934 544.515 108.469 541.671 106.952 538.637C104.677 533.517 103.349 528.018 101.643 522.709C101.263 521.192 100.884 519.675 100.505 517.21C99.3672 519.106 98.6088 520.054 98.0399 521.002C96.7126 523.088 95.1956 525.174 92.3513 524.795C89.1278 524.416 88.3693 521.761 87.8004 519.296C87.2316 517.02 87.042 514.555 86.6628 511.332C85.7147 512.849 84.9562 513.418 84.577 514.366C83.06 517.589 81.7327 520.813 80.0261 523.847C75.096 532.759 69.4074 533.896 60.685 527.829C59.168 529.725 57.6511 531.811 55.9445 533.707C50.8248 539.395 48.3598 545.842 48.5494 553.806C48.9286 566.89 46.4636 579.784 42.1024 592.109C40.3958 596.85 37.9307 601.211 35.2761 605.383C34.1384 607.469 32.0525 609.175 30.1564 610.502C25.7951 613.536 21.2443 611.83 19.7273 606.9C18.4 602.539 18.5896 598.177 19.3481 593.816C20.6754 586.042 23.3301 578.836 26.7432 571.82C30.9149 563.098 35.4657 554.565 40.0166 546.032C41.5335 543.188 42.292 540.154 42.1024 536.93C41.9128 533.707 41.9127 530.294 41.7231 526.691ZM24.8471 600.642C25.2263 600.832 25.7951 601.022 26.1743 601.211C27.3121 600.073 28.6394 599.125 29.3979 597.798C30.9148 595.523 32.2422 593.058 33.1903 590.593C37.1723 581.112 39.4477 571.062 40.9646 560.822C41.1543 559.874 40.9646 558.926 40.9646 557.789C40.3958 558.168 40.0165 558.168 39.8269 558.357C33.5695 569.734 28.2602 581.301 25.2263 593.816C24.847 596.091 25.0367 598.367 24.8471 600.642ZM93.2994 517.4C93.6787 517.4 93.8683 517.4 94.2475 517.589C97.471 510.194 98.988 502.041 102.211 494.456C98.2295 493.697 96.5229 494.645 95.006 498.438C92.9202 503.747 91.7825 509.436 92.3513 515.314C92.541 515.883 93.1098 516.641 93.2994 517.4ZM62.2019 507.729C64.2877 504.316 65.6151 500.903 65.2358 496.542C62.0123 499.765 61.0642 502.989 62.2019 507.729ZM128.948 492.56C129.517 492.37 129.896 492.18 130.465 492.18C129.896 490.474 129.327 488.957 128.758 487.25C128.379 487.44 128 487.44 127.62 487.63C128 489.336 128.568 491.043 128.948 492.56ZM320.083 491.422C323.117 491.043 325.582 490.663 328.237 490.474C332.788 490.095 334.684 491.612 334.874 496.162C334.874 497.869 334.494 499.386 334.115 501.092C331.65 511.332 329.185 521.761 326.91 532C325.962 536.172 325.393 540.344 325.393 544.515C325.393 547.739 326.341 551.152 327.668 554.186C329.185 557.599 331.461 558.168 334.684 556.461C336.58 555.513 338.097 553.996 339.425 552.289C345.303 545.274 351.181 538.068 357.059 530.863C358.197 529.535 359.145 526.881 361.041 528.208C363.316 529.725 361.42 531.811 360.472 533.328C355.163 540.533 349.664 547.549 344.355 554.755C341.7 558.357 338.666 561.391 334.874 563.667C333.357 564.615 331.65 565.563 329.944 566.132C324.445 568.028 319.325 566.132 316.101 561.202C313.068 556.651 312.119 551.341 312.119 546.032C311.74 532 315.153 518.727 321.411 506.212C322.738 503.747 324.065 501.092 325.582 497.869C323.117 497.869 321.032 497.49 319.325 498.059C318.187 498.438 317.05 499.765 316.291 501.092C313.447 506.591 310.792 512.28 307.758 517.779C305.293 521.951 302.449 525.743 299.605 529.725C299.036 530.483 298.467 531.052 297.708 531.811C289.555 539.206 279.505 536.551 276.471 525.932C275.333 522.14 275.333 518.158 275.144 514.176C274.954 511.711 274.954 509.815 272.11 508.867C270.214 508.108 268.886 506.212 266.801 504.506C266.421 506.591 266.042 508.108 265.853 509.625C264.904 517.4 263.008 524.795 259.595 531.811C258.457 533.896 257.32 536.172 255.803 537.879C251.441 542.998 246.132 542.05 244.046 535.793C242.719 532.19 242.529 528.018 241.961 524.226C241.771 522.899 241.771 521.382 240.823 519.675C240.064 520.813 239.306 522.14 238.547 523.278C235.703 527.26 233.238 531.431 229.825 534.845C223.757 541.102 216.362 539.775 212.38 532C211.432 529.914 210.673 527.829 210.105 525.553C209.536 523.467 209.346 521.382 208.777 518.917C207.64 518.727 206.502 518.537 205.364 518.537C200.813 518.158 197.969 515.314 196.073 511.521C195.694 510.953 195.314 510.005 195.504 509.436C195.883 508.488 196.452 507.16 197.4 506.781C197.779 506.591 199.296 507.35 199.865 508.108C200.624 509.056 201.003 510.194 201.761 511.142C203.089 512.849 204.795 513.797 206.881 513.418C209.156 513.038 209.536 511.142 209.915 509.436C210.863 503.558 212.759 498.059 215.983 492.939C218.069 489.526 220.534 486.492 224.136 484.406C228.498 481.941 232.1 483.837 231.531 488.767C231.152 492.37 229.825 496.162 228.308 499.576C226.222 504.506 222.809 508.677 218.637 512.09C216.552 513.987 215.983 515.883 216.741 518.537C218.258 523.657 220.344 528.398 225.084 532.19C226.601 530.673 228.118 529.535 229.256 528.018C235.134 520.054 239.685 511.332 242.909 502.041C243.288 501.282 243.477 500.334 243.857 499.576C245.184 497.679 247.459 497.49 248.787 499.576C249.356 500.524 249.924 501.851 250.114 502.989C251.252 508.867 252.39 514.935 253.527 520.813C253.907 522.899 254.475 525.174 255.044 527.26C255.423 527.26 255.613 527.26 255.992 527.26C256.561 526.312 257.13 525.364 257.509 524.416C260.354 516.831 261.112 508.867 262.06 500.903C262.25 499.007 262.629 496.921 263.387 495.214C264.715 492.37 267.369 492.37 269.076 494.835C270.214 496.542 270.783 498.438 271.731 500.144C272.868 502.609 272.868 502.609 276.092 504.506C276.661 502.989 277.04 501.661 277.609 500.334C278.747 496.921 279.884 493.508 281.401 490.095C282.729 487.25 285.194 485.354 288.417 484.975C292.21 484.596 294.485 486.871 293.537 490.474C292.778 493.697 291.261 496.731 289.555 499.576C288.038 502.041 285.762 504.316 283.487 506.402C281.78 507.919 281.022 509.815 281.022 511.901C280.832 515.693 281.78 519.106 283.487 522.33C285.952 527.07 290.313 528.208 294.295 524.226C298.277 520.054 301.88 515.503 305.104 510.763C307.948 506.402 309.654 501.282 311.74 497.3C309.844 494.077 307.948 491.801 307 489.146C306.241 487.25 306.431 484.975 307 482.889C307.948 478.907 311.93 477.769 315.343 480.045C317.618 481.562 318.946 483.648 319.515 486.302C319.515 487.819 319.704 489.336 320.083 491.422ZM226.412 489.905C220.913 493.128 216.741 500.524 216.931 506.781C221.671 502.041 224.895 496.921 226.412 489.905ZM313.068 485.544C312.688 485.733 312.309 485.733 311.93 485.923C311.551 487.44 311.74 488.767 314.395 490.284C313.826 488.009 313.447 486.681 313.068 485.544ZM287.659 492.18C285.383 493.508 285.383 493.508 285.194 496.352C286.142 494.835 286.9 493.697 287.659 492.18ZM176.921 141.196C177.3 112.374 176.921 83.552 179.197 54.9196C179.197 53.7819 178.817 52.0753 178.059 51.3168C176.732 50.1791 174.646 50.5583 173.508 51.8857C172.181 53.4026 170.853 55.2988 170.285 57.195C169.526 59.66 169.337 62.3147 169.147 64.7797C168.768 72.3645 169.147 79.9492 168.388 87.534C166.492 109.53 165.355 131.715 165.544 153.901C165.544 158.831 165.923 163.571 166.303 168.501C166.492 170.777 167.061 173.052 167.63 175.138C168.199 177.034 169.337 178.551 171.612 178.172C173.508 177.793 175.594 177.034 175.973 174.759C176.352 173.052 176.352 171.535 176.352 169.829C176.352 164.898 176.542 159.779 176.542 154.849C176.542 152.952 176.921 151.436 179.007 151.246C183.937 150.677 188.867 150.108 193.987 149.539C194.177 151.246 194.177 152.573 194.366 153.901C194.556 158.831 194.745 163.95 195.125 168.88C195.314 171.345 194.935 174.379 198.159 175.327C199.865 175.707 200.813 173.431 200.624 168.88C200.434 164.14 199.865 159.589 199.865 154.849C200.055 123.372 199.865 91.7056 202.52 60.2289C202.52 59.0912 202.899 57.9535 202.52 57.0054C202.141 56.2469 201.382 55.1092 200.624 54.9196C199.865 54.7299 198.538 55.678 198.159 56.4365C197.59 57.7638 197.4 59.2808 197.21 60.7977C196.262 78.8115 195.314 96.8253 194.745 114.839C194.366 122.803 194.556 130.577 194.556 138.541C194.556 140.248 194.366 141.765 194.366 143.472C193.418 143.661 192.66 144.04 191.901 144.04C187.161 144.42 182.61 144.799 177.301 145.368C177.301 143.661 176.921 142.523 176.921 141.196ZM35.2761 370.635C36.4138 369.497 37.5515 368.359 38.6892 367.222C42.6712 363.05 47.0324 359.258 52.3418 356.793C56.1341 354.896 60.3058 353.759 63.9085 356.603C67.5113 359.447 67.3216 363.809 66.3736 367.98C65.2358 372.91 62.9604 377.461 59.9265 381.443C56.3238 385.994 52.3418 390.545 48.3598 394.906C47.4117 396.044 46.4636 397.181 44.9467 398.888C47.2221 398.888 48.3598 398.888 49.6871 398.888C61.6331 399.078 69.7867 407.042 69.7867 418.988C69.9763 429.417 67.132 439.087 61.0642 447.62C55.9445 454.826 49.8767 461.083 41.9127 465.444C38.8788 467.151 35.4657 468.288 31.8629 467.909C25.2263 467.151 22.1924 463.548 23.5197 457.101C24.2782 453.119 26.1744 449.327 27.881 445.724C28.2602 444.586 29.5875 443.828 30.7252 442.69C32.6214 445.724 31.8629 448.189 31.1044 450.464C30.346 452.74 29.2083 455.015 28.6394 457.291C27.6913 461.273 29.7771 463.548 33.9487 462.789C35.4657 462.6 37.1722 461.841 38.4996 461.083C52.721 452.171 62.0123 439.846 63.7189 422.59C63.9085 420.315 63.9085 418.039 63.5293 415.764C62.5812 408.938 57.4615 404.387 50.6352 404.008C42.292 403.439 32.811 408.938 29.3979 416.333C28.6394 417.85 28.4498 419.746 28.2602 421.642C27.8809 424.676 27.6913 427.71 27.3121 430.744C27.1225 432.071 26.7432 433.399 25.2263 433.019C24.2782 432.83 22.9509 432.071 22.382 431.313C21.4339 429.606 20.8651 427.71 20.4858 425.814C19.7273 421.263 18.7792 416.522 18.7792 411.972C18.7792 400.974 19.7273 389.786 22.9509 379.168C23.899 375.944 25.2263 372.91 26.364 369.876C26.7432 368.928 27.3121 367.98 27.881 367.032C29.2083 365.325 30.7252 363.429 33.0006 364.188C35.2761 364.946 34.5176 367.222 34.5176 368.928C34.5176 369.497 34.5176 370.066 34.7072 370.635C34.7072 370.445 34.8968 370.635 35.2761 370.635ZM30.7252 404.577C32.6214 403.06 33.7591 402.301 34.7072 401.163C39.0684 396.613 43.6193 392.251 47.7909 387.321C51.3937 383.15 54.6172 378.978 57.4614 374.238C59.168 371.393 60.3058 367.98 60.8746 364.567C61.6331 360.585 59.7369 359.447 56.1341 360.964C54.8068 361.533 53.6691 362.292 52.721 363.05C49.4975 365.325 46.6532 367.98 43.4297 370.256C32.4318 378.788 30.346 390.545 30.7252 404.577ZM327.858 104.789C327.099 120.148 325.014 133.801 320.083 146.885C317.618 153.332 314.395 159.21 309.654 164.33C307.569 166.605 305.104 167.743 302.07 167.553C298.656 167.363 296.381 165.657 295.623 162.244C295.054 160.158 295.054 158.072 294.864 155.986C294.485 145.557 294.485 135.128 294.106 124.699C293.537 108.013 292.968 91.3264 292.589 74.6399C292.399 67.4344 292.778 60.4185 293.158 53.213C293.347 48.4725 296.95 46.9556 300.742 49.6102C315.722 59.66 324.824 73.3126 326.531 91.3264C327.099 96.4461 327.479 101.376 327.858 104.789ZM306.241 158.072C306.621 158.262 306.81 158.262 307.189 158.451C308.327 156.934 309.465 155.417 310.413 153.711C315.533 145.178 317.998 135.697 319.704 125.837C321.98 113.512 322.548 101.187 320.273 88.8613C318.946 81.2766 316.291 74.2607 311.74 68.0033C309.844 65.3486 307.379 63.0732 304.724 60.0393C304.155 62.1251 303.776 63.2628 303.587 64.4005C301.69 82.9831 302.07 101.566 303.018 120.148C303.776 131.905 304.724 143.661 305.672 155.418C306.052 156.366 306.241 157.124 306.241 158.072ZM356.301 147.454C351.56 148.781 347.578 149.919 343.407 151.056C340.942 151.625 340.183 153.142 339.993 155.607C339.804 159.399 339.045 163.002 338.476 166.795C338.097 169.07 336.77 170.208 334.494 170.397C332.029 170.587 330.133 169.639 329.564 167.363C328.996 165.278 328.806 162.813 328.996 160.537C329.754 150.867 330.702 141.196 331.65 131.526C332.978 115.977 334.494 100.428 335.822 84.8793C336.58 75.7776 336.96 66.6759 337.718 57.5742C337.908 55.678 338.097 53.4026 340.183 53.4026C341.7 53.4026 343.596 54.5403 344.923 55.4884C345.682 56.0573 346.061 57.5742 346.44 58.7119C352.129 76.5361 356.111 94.7395 358.197 113.322C360.093 129.629 361.989 145.747 363.885 162.054C364.075 163.381 364.265 164.898 363.885 166.036C363.506 166.984 362.558 168.312 361.61 168.312C360.662 168.312 359.524 167.363 358.955 166.415C358.386 165.847 358.576 164.709 358.386 163.761C357.818 159.589 357.438 155.417 356.87 151.056C356.68 150.298 356.49 148.97 356.301 147.454ZM346.251 79.3804C345.682 79.3804 345.303 79.3804 344.734 79.3804C344.355 84.8793 343.975 90.1887 343.596 95.6876C343.217 101.376 343.027 106.875 342.838 112.564C342.458 118.063 342.079 123.372 341.89 128.871C341.7 134.37 339.993 139.869 341.321 145.368C346.251 144.42 350.802 143.472 356.111 142.523C353.456 121.476 350.991 100.238 346.251 79.3804ZM244.236 105.927C243.098 119.58 242.15 133.422 240.633 147.074C240.064 151.815 238.168 156.366 236.651 160.916C236.082 162.813 234.755 164.33 233.428 165.847C229.446 170.397 222.999 170.397 219.206 165.657C217.31 163.192 215.793 160.158 214.845 157.314C213.518 152.573 212.759 147.454 212.19 142.523C210.105 121.097 210.105 99.48 212.949 78.0531C213.897 71.606 215.035 65.159 218.258 59.2808C219.775 56.6261 221.861 54.1611 224.136 51.8857C225.843 50.1791 227.929 50.3687 230.394 51.3168C237.599 54.1611 241.012 59.8497 241.771 66.8655C242.719 74.6399 243.098 82.6039 243.667 90.3783C243.857 95.3084 243.667 100.428 243.667 105.358C243.857 105.927 244.046 105.927 244.236 105.927ZM238.168 103.652C237.789 93.2226 237.789 85.2586 237.41 77.2946C237.22 73.6918 236.651 70.0891 235.893 66.4863C235.513 64.4005 234.376 62.5043 233.428 60.7977C232.669 59.2808 231.152 59.2808 230.015 60.2289C229.066 61.177 228.118 62.3147 227.549 63.4524C226.222 67.0552 224.516 70.8475 223.757 74.6399C219.396 95.498 218.827 116.735 219.585 137.973C219.775 144.42 221.482 150.867 222.809 157.124C223.188 159.4 224.326 162.244 226.981 162.623C229.825 163.002 230.773 159.968 231.721 157.883C234.376 152.573 235.513 146.885 235.893 141.196C236.651 128.112 237.41 114.649 238.168 103.652ZM291.261 367.601C293.726 365.515 295.433 363.808 297.329 362.481C299.984 360.775 302.639 358.689 305.483 357.551C312.499 354.517 317.05 358.12 316.101 365.515C315.153 373.1 311.551 379.547 306.621 385.425C305.862 386.373 305.104 387.321 304.345 388.269C304.155 388.459 304.345 388.838 304.155 389.407C305.862 389.786 307.758 390.165 309.465 390.545C313.636 391.493 316.481 393.958 318.187 397.75C320.273 402.491 320.652 407.421 319.894 412.541C317.618 429.037 310.982 443.638 298.657 455.205C293.726 459.756 288.228 463.738 281.97 465.823C277.798 467.151 273.627 468.099 270.024 464.686C266.421 461.273 265.663 456.722 266.611 452.171C268.128 445.155 275.523 438.518 282.729 437.949C283.677 437.949 284.625 437.949 285.383 438.329C286.9 438.897 287.09 440.794 285.762 441.552C284.814 442.121 283.487 442.5 282.539 443.069C279.884 444.586 277.04 445.913 274.954 447.81C271.92 450.464 270.972 454.257 272.11 458.239C272.868 460.893 274.385 462.031 277.23 461.652C278.936 461.462 280.832 460.893 282.349 460.135C288.796 457.48 293.916 453.119 298.657 447.999C308.137 437.57 313.068 425.245 314.964 411.592C315.533 407.8 315.343 404.008 313.826 400.405C312.688 397.75 310.982 396.233 308.137 395.664C302.828 394.716 297.898 395.096 293.726 399.078C292.589 400.215 291.451 401.163 290.313 402.111C288.607 403.439 287.848 405.145 287.659 407.231C287.279 410.834 286.9 414.437 286.331 418.039C286.142 419.177 285.194 420.884 284.245 421.073C282.539 421.642 281.591 420.125 281.212 418.608C280.832 416.902 280.263 415.006 280.263 413.299C280.263 404.956 280.074 396.613 280.832 388.269C281.591 379.926 283.297 371.772 284.625 363.619C284.814 362.102 285.383 360.585 285.952 359.258C286.711 357.93 287.469 356.413 289.365 356.793C291.261 357.172 291.261 358.878 291.261 360.395C291.261 362.481 291.261 364.567 291.261 367.601ZM288.796 393.958C290.693 392.82 291.83 392.441 292.399 391.872C296.381 388.08 300.363 384.477 303.966 380.305C307.569 376.134 310.034 371.204 310.602 365.515C310.792 364.377 310.413 363.24 310.223 362.292C309.465 362.102 309.086 361.912 308.896 362.102C300.553 364.946 294.864 370.824 290.313 378.03C290.124 378.22 290.124 378.599 290.124 378.978C289.744 383.529 289.365 388.08 288.796 393.958ZM382.089 117.115C380.193 132.853 378.107 148.591 376.021 164.519C375.831 166.036 375.642 167.553 375.831 169.07C376.021 170.966 377.348 172.294 379.055 172.294C380.382 172.294 382.089 171.725 382.847 170.587C383.795 169.449 384.364 167.553 384.554 166.036C386.829 152.384 388.915 138.731 391.001 125.268C393.276 110.667 395.172 95.8772 397.448 81.2766C398.396 74.6399 399.534 68.1929 400.671 61.5562C401.24 57.9535 400.292 56.4365 397.827 55.8677C395.172 55.2988 393.845 56.2469 392.518 59.66C391.949 61.177 391.38 62.8836 391.19 64.4005C389.484 73.3126 387.777 82.2247 385.881 91.1367C385.502 93.4122 385.312 95.8772 382.658 96.4461C380.193 97.0149 378.865 94.7395 377.728 93.2226C372.987 87.3444 370.332 80.3285 368.626 73.123C367.488 68.3825 366.919 63.642 366.161 58.7119C365.592 55.678 364.454 54.5403 361.8 54.5403C359.524 54.5403 358.576 55.678 358.007 58.7119C357.818 59.66 357.818 60.6081 357.818 61.3666C358.576 80.3285 364.644 96.2565 381.899 106.496C382.468 106.875 382.847 107.254 383.606 107.634C382.847 110.857 382.468 113.891 382.089 117.115ZM77.7507 152.004C77.9403 155.038 78.1299 158.072 78.3195 161.106C78.5091 162.623 78.8884 164.14 79.4572 165.467C79.8365 166.226 81.1638 166.795 81.9223 166.795C82.4912 166.795 83.4392 165.657 83.6289 165.088C84.0081 163.571 83.8185 162.054 83.8185 160.537C83.8185 144.04 83.4393 127.544 83.8185 111.047C84.1977 94.7395 85.1458 78.6219 85.7147 62.3147C85.7147 61.177 85.9043 60.0393 85.5251 59.0912C85.1458 58.1431 84.1977 56.8158 83.2496 56.6261C82.4911 56.6261 81.1638 57.7638 80.7846 58.7119C80.2157 59.66 80.4053 60.9874 80.4053 62.3147C79.4572 86.7755 78.5091 111.426 77.561 135.887C77.561 137.593 77.3715 139.49 77.1818 141.575C71.6829 141.386 66.7528 141.006 61.6331 140.817C61.4435 139.3 61.2538 138.162 61.2538 137.214C61.6331 124.32 62.2019 111.426 62.5812 98.5319C62.7708 93.6018 62.9604 88.4821 62.9604 83.552C62.9604 81.8454 62.7708 79.9492 60.8746 79.3804C58.7888 78.8115 57.2718 80.5181 56.703 82.035C55.7549 84.5001 55.186 86.9651 54.9964 89.4302C54.0483 104.22 53.1003 119.011 52.5314 133.991C52.1522 142.334 52.1521 150.677 52.1521 159.02C52.1521 160.727 52.5314 162.623 53.2899 164.33C54.238 166.415 56.3238 166.984 58.22 166.795C60.4954 166.605 60.3057 164.519 60.4954 163.002C60.685 159.399 60.685 155.797 60.685 152.004C60.685 150.487 61.0642 148.781 61.2538 147.074C66.5631 147.074 71.4933 147.074 76.9922 147.074C77.5611 149.16 77.7507 150.677 77.7507 152.004ZM111.124 154.469C111.882 158.451 112.641 162.623 114.347 166.226C117.191 172.673 123.638 173.242 127.431 167.363C129.327 164.519 130.654 160.916 131.413 157.314C134.447 142.903 133.688 128.492 129.896 114.46C127.241 104.789 123.449 95.498 120.225 86.017C118.898 82.2247 118.139 78.0531 117.571 74.0711C117.002 69.7098 118.519 65.7278 121.742 62.5043C124.018 60.2289 125.914 60.2289 128 62.5043C129.137 63.642 129.706 65.3486 130.465 66.6759C131.223 68.1929 132.171 69.5202 133.878 68.7617C135.964 68.0033 135.774 66.2967 135.395 64.5901C134.447 61.177 132.551 58.3327 129.327 56.4365C125.724 54.3507 120.605 54.5403 117.95 57.195C112.072 63.0732 108.469 70.0891 109.417 78.8115C110.555 87.9132 112.83 96.6357 115.864 105.169C117.76 110.478 119.467 116.166 120.794 121.665C122.88 130.577 121.742 139.869 121.173 148.781C120.984 152.004 120.415 155.038 119.846 158.262C119.656 159.21 119.088 159.968 118.329 161.106C115.864 156.745 116.623 151.815 112.641 148.781C110.934 150.487 110.744 152.573 111.124 154.469ZM49.3079 64.4005C55.5653 63.4524 62.0123 62.6939 68.2697 61.7458C69.4074 61.5562 70.7348 61.3666 71.6829 60.7977C72.4413 60.2289 73.1998 59.0912 73.1998 58.3327C73.0102 57.5742 71.8725 56.6261 71.114 56.4365C69.0282 56.2469 66.9424 56.2469 64.8566 56.4365C52.721 57.5742 40.775 58.9016 28.6394 60.0393C27.5017 60.2289 26.1743 60.2289 25.2263 60.7977C24.4678 61.177 23.5197 62.5043 23.7093 63.2628C23.8989 64.2109 25.0367 65.159 25.9848 65.5382C26.9329 65.9175 28.0705 65.5382 29.2083 65.5382C31.4837 65.5382 33.5695 65.5382 36.0345 65.5382C36.0345 66.4863 36.2242 67.2448 36.2242 68.0033C36.0346 79.0012 35.6553 90.1887 35.4657 101.187C35.0865 115.977 34.5176 130.957 34.328 145.747C34.1384 152.384 34.5176 159.02 34.8968 165.657C34.8968 167.363 35.4657 169.26 36.2242 170.966C37.1723 173.242 38.6892 173.621 41.1543 172.673C44.3778 171.345 44.5674 168.501 44.757 165.847C45.1363 155.797 45.7051 145.937 45.7051 135.887C45.5155 118.252 44.9466 100.618 44.757 83.1728C44.757 77.2946 45.1362 71.4164 45.3259 64.9694C46.6532 64.7797 47.9805 64.5901 49.3079 64.4005ZM197.4 448.947C196.642 448.758 195.504 448.947 194.935 449.516C194.556 450.085 194.556 451.412 194.935 451.981C197.4 457.101 204.416 458.049 208.208 453.688C211.053 450.275 212.38 446.293 213.328 442.121C217.689 422.021 217.879 402.111 210.863 382.581C209.536 378.788 208.398 374.996 207.64 371.204C207.26 369.307 207.64 367.032 208.019 364.946C208.588 362.671 210.105 361.154 212.57 360.964C215.035 360.775 216.552 362.481 217.31 364.567C217.879 365.894 217.689 367.601 218.258 368.928C218.637 369.687 219.396 370.824 220.154 371.014C220.913 371.014 222.051 370.256 222.619 369.497C223.188 368.739 223.378 367.411 223.378 366.463C223.378 361.912 219.396 356.982 215.224 356.034C210.673 354.896 206.691 356.982 203.847 361.343C200.055 367.222 198.917 373.669 199.486 380.495C200.055 387.7 200.624 395.096 201.951 402.111C203.847 413.109 205.554 423.918 204.795 435.105C204.416 440.225 204.416 445.345 202.52 450.844C200.434 450.085 198.917 449.327 197.4 448.947ZM123.07 366.653C123.638 368.549 124.207 370.635 124.966 372.531C125.535 373.858 126.293 375.186 128 374.427C128.758 374.048 129.706 372.721 129.706 371.583C129.706 367.98 128.569 364.757 126.293 361.912C123.07 357.93 118.708 356.982 114.726 360.395C112.261 362.671 109.796 365.515 108.279 368.549C106.004 373.858 103.918 379.547 102.78 385.235C99.1776 403.818 98.4191 422.59 99.1776 441.363C99.1776 444.207 99.5568 447.051 100.126 449.895C100.505 452.171 101.263 454.446 102.211 456.342C104.677 460.704 108.848 461.273 112.261 457.67C113.778 455.963 115.106 454.067 115.864 451.981C118.139 446.293 120.225 440.604 122.121 434.915C123.449 430.744 122.69 429.417 118.329 428.658C117.381 428.468 116.433 428.279 115.674 428.468C114.537 428.658 113.02 429.227 112.83 429.985C112.641 430.744 113.589 432.071 114.158 433.019C114.537 433.588 115.295 433.967 115.864 434.347C114.726 441.173 111.503 447.62 107.9 450.085C107.521 447.241 106.952 444.586 106.952 441.931C106.383 429.227 106.383 416.522 107.9 403.818C109.417 392.251 112.261 381.253 118.329 371.204C119.277 369.497 120.605 368.17 121.742 366.463C122.311 366.463 122.69 366.653 123.07 366.653ZM235.134 371.204C230.015 396.044 228.118 421.263 227.549 446.672C227.549 448.947 227.739 451.223 228.118 453.498C228.687 456.342 230.204 457.291 233.428 457.101C236.082 456.911 237.22 455.584 237.41 452.55C237.41 451.602 237.41 450.654 237.41 449.895C237.789 441.742 237.599 433.588 238.358 425.435C240.064 409.317 242.34 393.199 244.426 377.082C244.805 374.048 245.563 371.204 246.322 368.17C246.891 366.084 248.218 364.946 250.493 364.567C252.769 364.377 255.044 363.998 257.13 363.429C258.268 363.05 259.785 361.912 259.785 360.964C259.974 359.068 258.078 358.499 256.561 358.689C249.735 359.637 242.719 360.585 235.893 361.723C234.186 362.102 231.911 363.05 232.1 365.136C232.29 366.463 233.807 367.601 235.324 369.307C235.513 369.687 235.324 370.445 235.134 371.204ZM259.405 109.909C259.595 108.392 259.595 106.875 259.595 105.358C259.974 91.1367 260.543 76.9153 260.922 62.6939C260.922 60.4185 260.543 58.1431 259.974 56.0573C259.405 53.9715 257.509 53.4026 255.613 53.7819C253.717 53.9715 252.2 54.9196 251.821 57.0054C251.631 58.1431 251.631 59.4704 251.631 60.6081C251.441 75.7776 251.441 90.9471 251.252 106.117C251.062 122.234 250.873 138.162 250.683 154.28C250.683 157.503 251.062 160.916 251.631 164.14C252.01 166.795 253.527 169.07 256.372 169.829C258.837 170.397 261.491 170.587 263.956 170.777C265.663 170.777 267.18 170.018 267.18 168.312C267.18 167.553 265.852 166.415 265.094 165.847C264.525 165.467 263.767 165.088 263.008 165.088C258.457 164.33 258.268 163.571 258.457 158.831C258.457 142.334 258.837 126.027 259.405 109.909C259.216 109.909 259.216 109.909 259.405 109.909ZM156.063 368.549C156.822 369.876 157.58 371.393 159.476 370.635C161.183 369.876 161.183 367.98 160.424 366.653C159.097 363.998 157.58 361.343 155.494 359.258C153.029 356.793 149.427 356.603 146.962 359.258C144.686 361.533 142.6 364.377 141.463 367.411C139.946 371.014 138.998 374.996 138.429 378.788C134.826 397.75 135.205 416.902 135.774 435.864C135.964 440.035 137.291 444.207 138.239 448.378C138.998 451.602 141.842 452.36 144.307 453.119C146.962 453.877 148.668 452.171 149.995 450.275C154.736 442.88 156.253 434.536 156.063 426.003C156.063 422.97 153.788 421.263 150.944 421.453C149.806 421.453 148.289 422.021 147.91 422.78C147.53 423.538 148.289 425.245 149.047 425.624C150.944 426.762 151.133 428.468 150.944 430.365C149.995 434.726 149.047 438.898 148.099 443.259C147.91 444.207 146.962 444.776 146.013 446.482C144.876 444.017 143.738 442.5 143.169 440.604C142.6 438.329 142.221 435.864 142.031 433.399C140.325 419.936 141.463 406.662 144.497 393.579C146.203 386.184 148.858 379.168 151.133 371.962C151.702 370.066 152.65 367.98 155.305 367.032C155.494 367.601 155.874 368.17 156.063 368.549ZM171.991 436.243C172.37 429.985 172.939 423.918 173.129 417.66C173.318 414.816 173.887 412.73 176.921 411.782C178.438 411.213 180.334 410.075 179.386 408.179C179.007 407.421 177.111 407.421 175.973 407.042C175.594 406.852 175.215 406.852 174.267 406.662C174.456 404.387 174.456 401.922 174.646 399.457C175.404 391.682 175.973 384.098 177.301 376.513C178.628 367.222 177.301 368.17 186.213 366.084C188.109 365.705 188.678 364.567 188.678 362.86C188.678 360.964 187.919 359.637 186.023 359.068C181.662 357.93 175.025 360.585 173.319 364.757C171.612 368.549 170.095 372.721 169.147 376.703C166.113 389.407 165.544 402.491 164.596 415.385C163.838 425.435 163.269 435.674 164.596 445.724C164.975 447.999 165.734 450.464 166.682 452.55C168.009 455.205 170.474 456.532 173.129 455.394C175.973 454.257 178.628 452.171 181.093 450.275C181.662 449.895 181.851 447.81 181.472 447.43C180.714 446.862 179.386 446.482 178.249 446.672C176.921 446.862 175.594 447.81 173.698 448.568C172.181 444.586 171.802 440.414 171.991 436.243ZM273.627 119.011C273.437 132.094 273.058 144.988 273.058 158.072C273.058 161.296 273.816 164.709 274.954 167.743C276.092 171.345 277.988 172.104 281.591 170.966C283.866 170.397 284.435 169.26 284.056 165.467C282.729 154.09 282.16 142.713 282.918 131.526C284.056 113.133 281.401 94.9291 281.022 76.5361C281.022 74.6399 280.453 73.3126 278.367 72.9333C276.661 72.5541 274.575 74.0711 274.196 76.1569C273.816 77.8634 274.006 79.3804 274.006 81.087C273.816 93.7914 273.816 106.496 273.627 119.011C273.816 119.011 273.627 119.011 273.627 119.011ZM89.3174 143.472C89.3174 149.16 88.9382 154.659 89.1278 160.348C89.1278 162.433 89.8863 164.519 90.6447 166.415C91.5928 168.501 95.3852 170.397 97.0918 169.639C99.5569 168.501 98.6087 166.226 98.6087 164.519C98.6087 164.14 98.6087 163.95 98.4191 163.571C98.2295 158.072 97.6607 152.763 98.0399 147.264C99.1776 125.268 100.505 103.462 101.832 81.4662C102.022 77.2946 99.7465 75.7776 96.1437 77.8634C94.8164 78.6219 93.6787 80.1389 93.1098 81.6558C92.3513 83.7416 91.7824 86.017 91.5928 88.2925C90.6447 101.376 89.8863 114.27 89.1278 128.112C89.3174 132.474 89.3174 137.973 89.3174 143.472ZM334.115 403.628C334.494 400.784 335.822 399.267 338.287 398.319C338.856 398.129 339.614 398.129 339.993 397.561C340.752 396.802 342.079 395.664 341.89 394.906C341.7 393.579 340.562 392.251 339.614 391.303C338.856 390.734 337.339 390.924 335.822 390.734C335.822 389.597 335.822 388.459 335.822 387.511C336.201 381.443 336.77 375.375 337.339 369.307C337.528 366.463 337.718 363.808 341.131 362.86C341.89 362.671 342.838 360.964 342.648 360.395C342.269 359.447 341.131 358.31 340.183 358.31C337.908 358.12 335.632 358.31 333.357 358.689C327.668 359.826 327.479 360.206 327.289 365.705C326.53 381.822 325.772 397.75 325.014 413.868C324.634 420.884 324.634 427.9 324.634 434.726C324.634 440.414 327.099 441.931 332.598 440.225C333.357 440.035 334.115 439.656 334.684 439.277C336.391 438.329 338.666 437.76 338.097 435.295C337.528 433.019 335.253 433.588 333.546 433.399C333.357 433.399 333.357 433.209 332.598 433.019C332.409 423.349 333.167 413.489 334.115 403.628ZM363.317 360.964C366.161 359.826 367.867 361.343 369.195 363.619C369.574 364.188 371.091 364.757 371.849 364.377C373.366 363.808 373.556 362.481 373.177 360.964C372.229 357.172 367.867 354.328 364.075 355.276C361.61 355.844 359.145 356.982 357.438 358.689C353.456 362.86 351.371 367.98 352.888 373.669C354.025 378.03 355.921 382.202 357.818 386.184C361.42 393.199 364.075 400.595 365.402 408.369C366.35 414.437 365.782 420.125 363.506 425.814C361.61 430.744 358.007 434.157 352.508 434.915C351.75 434.915 350.802 434.916 350.233 435.295C349.474 435.674 348.526 436.622 348.716 437.191C348.716 438.139 349.474 439.277 350.233 439.656C351.56 440.035 353.267 440.035 354.594 439.846C361.231 438.708 365.402 434.536 368.057 428.658C375.263 412.541 376.021 396.802 365.592 381.633C363.696 378.788 361.8 375.754 360.093 372.721C359.145 371.204 358.766 369.307 358.576 368.359C358.766 364.946 360.851 362.102 363.317 360.964ZM383.227 363.808C382.658 381.064 382.089 398.319 381.52 415.574C381.33 421.263 381.141 426.762 381.141 432.45C381.141 434.347 381.52 436.432 382.089 438.329C382.658 440.414 384.554 441.363 386.64 441.173C389.105 440.983 389.484 439.087 389.484 437.191C389.674 434.916 389.484 432.64 389.674 430.365C390.053 408.179 390.432 386.184 390.811 363.998C390.811 362.86 391.19 361.723 391.19 360.585C392.518 360.206 393.466 359.826 394.604 359.637C395.931 359.258 397.258 358.689 397.069 356.793C396.879 355.086 395.172 354.896 393.845 355.086C389.863 355.465 386.071 356.034 382.089 356.603C381.52 356.603 380.761 356.603 380.382 356.982C379.624 357.741 378.486 358.499 378.296 359.637C378.107 360.206 379.434 361.343 380.193 361.723C380.951 362.102 381.899 362.102 382.658 362.292C383.226 362.86 383.416 363.429 383.227 363.808ZM340.183 285.306C343.217 288.719 347.199 289.099 350.612 286.065C352.129 284.548 353.646 282.652 354.404 280.566C355.542 277.722 356.111 274.688 356.49 271.843C357.249 263.879 356.111 256.105 354.404 248.331C354.215 247.193 353.646 246.055 353.267 244.918C352.698 243.59 351.56 242.452 350.233 243.021C349.474 243.401 348.905 244.918 348.905 246.055C349.095 248.9 349.854 251.744 350.233 254.588C351.371 261.414 352.319 268.051 350.612 274.877C350.043 276.963 349.285 279.239 347.957 281.135C346.82 283.031 345.113 282.841 343.975 280.945C342.838 279.239 341.89 277.153 341.321 275.257C340.373 271.275 339.993 267.293 339.235 263.121C339.045 262.173 339.425 260.845 338.856 260.087C338.287 259.139 337.149 257.622 336.201 257.622C335.253 257.622 334.115 258.949 333.546 260.087C333.167 260.845 333.357 262.173 333.167 263.121C332.788 266.534 332.598 270.137 332.029 273.55C331.65 275.825 330.892 278.29 329.754 280.376C328.427 282.841 326.53 282.652 325.393 280.376C324.065 277.722 322.928 274.877 322.169 271.843C320.463 265.965 320.842 260.087 321.6 254.209C321.79 252.123 322.169 250.037 321.98 247.951C321.98 247.193 320.842 246.055 320.083 245.866C319.325 245.676 318.187 246.624 317.618 247.193C317.239 247.572 317.05 248.52 316.86 249.279C315.722 255.915 314.964 262.552 316.101 269.189C317.05 273.929 318.377 278.67 320.652 282.841C323.876 289.288 330.323 289.288 334.305 283.41C335.063 282.462 335.632 281.324 336.58 279.807C337.908 282.083 338.856 283.789 340.183 285.306ZM86.0939 406.283C86.2835 403.249 86.4731 400.215 86.4731 397.181C86.6628 393.579 86.6627 389.976 86.8523 386.373C86.8523 384.667 86.2835 383.339 84.577 382.96C82.6808 382.581 81.7326 383.908 81.1638 385.425C80.5949 387.132 80.0261 388.838 79.8365 390.734C78.1299 408.559 76.2337 426.572 74.7168 444.586C74.3375 448.378 75.096 452.171 75.2857 455.963C75.2857 456.911 75.6649 458.049 76.0441 458.997C76.9922 461.083 78.6988 462.031 80.7846 461.652C82.8704 461.273 83.06 459.566 83.06 457.859C84.1977 440.414 84.9562 423.349 86.0939 406.283C85.9043 406.283 85.9043 406.283 86.0939 406.283ZM338.666 229.938C334.684 229.938 331.271 229.938 327.479 229.938C327.099 230.886 326.72 232.023 326.151 232.782C325.582 233.54 324.445 234.299 323.686 234.299C322.928 234.109 322.169 233.161 321.6 232.213C321.411 231.834 321.411 231.265 321.221 230.886C320.273 220.077 320.273 209.459 323.876 199.03C324.634 196.944 325.582 194.669 326.72 192.962C329.944 188.222 335.063 188.222 338.287 192.962C339.804 195.048 340.752 197.513 341.321 199.978C342.269 203.581 342.838 207.373 343.027 211.165C343.596 218.181 343.786 225.008 344.165 232.023C344.165 233.92 344.923 236.574 342.269 236.954C339.614 237.333 339.614 234.678 339.235 232.782C339.235 231.644 339.045 230.886 338.666 229.938ZM338.476 223.87C337.908 215.337 338.287 207.373 335.822 199.599C335.253 197.702 334.874 195.806 332.409 195.237C327.668 199.978 324.445 216.664 327.099 224.249C328.996 224.249 331.081 224.249 333.167 224.249C334.874 224.059 336.391 224.059 338.476 223.87ZM352.698 202.443C350.612 206.994 352.129 211.165 355.353 214.579C357.059 216.285 359.145 217.612 361.231 218.75C362.937 219.888 365.023 220.457 366.919 221.594C368.247 222.543 369.953 223.491 370.522 224.818C371.28 226.335 371.47 228.421 370.712 229.938C370.143 231.075 368.057 231.644 366.54 232.023C365.213 232.213 363.885 231.644 362.558 231.265C360.852 230.886 358.955 230.317 357.249 230.127C356.301 230.127 355.163 230.886 354.215 231.265C354.594 232.213 354.973 233.54 355.542 233.92C358.386 235.247 361.42 236.385 364.454 237.143C369.005 238.281 373.366 236.574 375.452 232.972C377.917 228.99 377.348 225.008 374.694 221.405C372.987 219.129 370.522 217.612 368.057 216.096C365.592 214.389 362.558 213.441 360.283 211.545C355.921 208.132 356.301 203.77 360.851 200.736C363.127 199.219 365.402 199.03 367.678 200.547C369.005 201.305 370.143 202.443 371.091 203.391C372.229 204.529 373.366 205.666 374.883 204.339C376.211 203.201 376.021 201.495 375.073 200.168C372.418 196.375 368.626 194.289 364.265 193.72C358.955 194.858 354.973 197.702 352.698 202.443ZM344.923 515.693C345.492 516.831 345.872 518.348 346.82 518.917C348.337 519.675 349.285 518.348 349.854 517.02C350.043 516.641 350.233 516.262 350.422 515.693C357.249 499.386 363.885 483.268 370.712 466.961C370.901 466.582 371.091 466.203 371.28 465.634C371.849 464.117 372.229 462.6 370.712 461.462C369.005 460.324 367.109 460.704 365.782 462.031C364.644 463.169 363.696 464.686 363.127 466.203C357.438 480.424 351.75 494.645 346.251 508.867C345.492 510.763 345.303 512.659 344.923 513.987C344.923 515.124 344.734 515.503 344.923 515.693ZM370.522 256.864C371.47 251.175 371.47 251.175 377.348 250.227C378.296 250.037 379.624 249.279 380.003 248.331C380.572 246.814 379.245 245.676 377.728 245.486C375.263 245.107 372.987 244.918 370.522 244.728C368.247 244.538 367.109 245.676 366.73 247.762C365.023 258.001 362.368 268.241 363.317 278.859C363.506 280.945 363.885 283.031 364.644 284.927C366.35 288.909 370.522 290.805 374.883 289.478C376.59 288.909 378.676 288.34 378.486 286.065C378.107 283.6 376.021 284.548 374.504 284.548C370.901 284.737 369.764 283.979 369.005 280.566C368.436 277.153 368.057 273.74 369.195 270.326C370.522 270.137 371.849 270.326 372.797 269.947C373.746 269.568 374.694 268.809 374.883 268.051C375.073 267.293 374.125 266.155 373.366 265.586C372.418 264.828 371.091 264.828 369.384 264.069C369.764 261.414 370.143 259.139 370.522 256.864ZM262.06 421.453C263.198 420.504 264.146 419.556 265.284 418.608C266.611 420.504 266.042 422.021 265.473 423.538C264.525 425.814 264.336 427.71 265.853 429.985C266.611 431.123 266.99 432.64 264.336 433.778C263.767 432.83 263.008 431.502 262.25 430.365C260.543 430.934 259.405 431.313 258.078 431.692C254.096 432.45 250.493 429.985 250.114 425.814C249.735 421.642 251.252 418.039 253.906 415.006C255.423 413.109 255.803 411.213 255.992 408.748C256.182 405.335 256.94 401.922 258.078 398.698C258.457 397.181 259.785 395.854 261.112 394.906C263.767 392.82 266.421 393.768 267.559 396.992C268.697 400.595 268.507 403.818 266.232 406.852C265.473 407.8 264.715 408.748 263.767 409.507C258.837 414.247 258.837 414.437 262.06 421.453ZM256.94 417.85C256.561 417.85 255.992 417.66 255.613 417.66C254.855 419.556 254.096 421.453 253.527 423.349C253.148 425.055 253.148 426.762 254.855 427.71C256.94 428.848 258.647 428.279 260.164 426.383C259.026 423.538 257.888 420.694 256.94 417.85ZM263.387 397.561C259.785 400.026 258.647 403.249 259.785 407.61C264.525 404.577 265.473 401.922 263.387 397.561ZM39.6373 13.7723C39.4477 10.928 40.0166 8.08374 40.0166 5.23946C40.0166 4.48098 39.2581 3.53289 38.8788 2.77441C38.31 3.34327 37.3619 3.91213 37.1723 4.48098C35.8449 9.97993 35.845 15.2893 38.31 20.409C40.5854 25.339 43.24 25.9079 47.9805 22.874C48.1701 22.6844 48.5494 22.6844 48.739 22.6844C53.8587 26.4768 57.8407 25.1494 59.1681 18.892C60.1162 14.3412 60.3058 9.79031 58.22 5.61869C57.8407 4.86022 56.8926 4.29136 56.1341 3.72251C55.7549 3.91213 55.5653 3.91213 55.1861 4.10174C55.3757 5.42908 55.5653 6.94603 55.5653 8.27336C55.7549 11.1176 56.1341 13.9619 55.9445 16.8062C55.9445 18.7024 55.3757 20.7882 52.5314 21.5467C51.9625 20.0297 51.0144 18.7024 50.8248 17.1854C50.4455 15.4789 50.8248 13.5827 50.6352 11.6865C50.6352 10.1695 51.0144 8.27336 48.3598 7.13564C47.9805 8.27336 47.222 9.22145 47.0324 10.1695C46.8428 11.6865 47.0325 13.2034 46.8428 14.7204C46.4636 17.1854 46.2739 19.8401 43.4297 21.5467C40.5854 19.8401 39.8269 16.8062 39.6373 13.7723ZM165.544 327.212C166.871 331.953 170.664 335.366 170.664 341.054C165.923 338.779 166.113 333.47 162.889 331.004C160.614 334.418 163.269 338.779 159.856 342.571C159.476 340.675 158.907 339.537 158.907 338.21C158.907 332.142 159.097 326.074 159.287 320.007C159.476 316.593 163.269 313.37 166.682 313.56C168.768 313.749 170.095 314.887 170.664 316.783C171.422 319.817 171.043 322.851 168.578 325.126C167.44 325.695 166.682 326.264 165.544 327.212ZM166.682 317.162C162.51 318.3 161.562 320.386 163.648 323.989C167.82 321.903 168.009 321.144 166.682 317.162ZM294.106 327.591C294.675 331.194 297.898 333.469 297.519 337.451C293.726 336.503 293.537 332.521 290.693 330.436C289.934 332.901 289.365 335.366 288.607 338.4C287.659 337.072 286.9 336.503 286.9 335.935C287.09 329.108 287.659 322.472 288.607 316.404C290.882 315.456 292.778 314.887 294.295 314.128C295.812 313.37 297.708 312.611 298.846 313.939C299.794 315.076 300.553 316.783 300.553 318.3C300.553 321.523 298.846 323.989 296.381 325.885C295.433 326.454 294.864 327.022 294.106 327.591ZM292.968 323.609C297.14 320.955 297.519 320.196 296.381 316.593C293.537 317.921 292.778 320.196 292.968 323.609ZM98.2295 5.23946C99.936 4.6706 101.074 4.10174 102.401 3.72251C105.245 2.58479 106.952 2.77441 107.71 5.61869C109.796 11.6865 110.175 17.9439 108.659 24.2013C108.659 24.3909 108.279 24.5806 107.71 24.7702C104.866 23.0636 106.952 19.6505 105.245 17.1854C103.539 17.5647 101.453 17.9439 99.3672 18.3231C98.7983 20.409 98.4191 22.3051 97.8503 24.2013C97.6607 24.7702 96.7126 25.339 96.1437 25.339C95.5749 25.339 95.1956 24.3909 94.8164 23.8221C94.6267 23.6325 94.8164 23.2532 94.8164 22.874C95.9541 16.8062 97.0918 10.928 98.2295 5.23946ZM105.056 7.13564C104.677 7.13564 104.297 7.13564 103.918 7.13564C102.211 9.03183 100.884 11.3073 101.074 14.5308C102.78 14.3412 104.297 14.1515 106.193 13.7723C105.625 11.3073 105.245 9.22145 105.056 7.13564ZM105.625 342.571C103.539 338.968 101.643 335.935 99.3672 332.142C98.6087 335.935 97.8502 338.968 97.2814 342.002C96.9021 342.002 96.7125 342.002 96.3333 342.002C95.954 341.244 95.3852 340.485 95.3852 339.917C95.5748 332.901 95.954 326.074 96.3333 319.058C96.3333 317.542 100.884 315.076 102.78 315.266C104.677 315.456 106.194 317.542 105.625 320.196C105.245 322.092 104.297 323.989 103.16 325.505C101.643 327.402 101.643 329.298 102.78 331.384C103.918 333.469 105.056 335.745 106.004 337.831C106.762 338.779 107.521 340.106 105.625 342.571ZM102.401 318.679C99.9361 319.817 99.5568 321.334 100.126 323.42C102.022 322.472 102.78 321.144 102.401 318.679ZM227.739 338.968C227.739 336.503 227.549 334.797 227.739 333.28C228.118 327.781 228.498 322.282 228.877 316.593C229.066 314.697 230.963 312.991 233.617 312.422C236.272 311.853 238.168 312.611 239.116 315.076C240.444 318.3 239.875 321.334 237.789 323.989C237.03 324.937 236.082 325.505 234.945 326.454C235.513 330.625 237.789 334.607 237.41 339.348C234.755 338.4 234.565 336.314 233.997 334.797C233.238 333.28 233.428 331.194 231.721 329.867C229.825 332.521 231.531 336.314 227.739 338.968ZM231.911 323.04C235.893 321.903 237.22 320.196 236.462 317.352C236.272 316.593 235.513 315.456 234.945 315.456C234.186 315.456 232.669 316.214 232.669 316.783C232.1 318.679 232.1 320.765 231.911 323.04ZM116.623 25.339C116.433 23.6325 116.054 22.1155 116.243 20.7882C116.622 16.2373 117.002 11.6865 117.571 7.32526C117.95 3.72251 120.225 1.44708 123.638 0.878226C127.62 0.30937 130.275 3.15365 128.948 6.94603C128.379 8.65259 127.052 10.3592 125.914 11.8761C125.155 12.8242 124.207 13.3931 123.259 14.1515C123.259 18.3232 128.189 20.409 127.431 24.9598C123.638 24.0117 122.88 20.0297 120.415 18.1335C118.708 20.2193 120.036 23.6325 116.623 25.339ZM120.605 10.928C123.449 10.928 124.587 9.22145 125.345 7.51488C125.724 6.56679 125.724 4.86022 125.155 4.48098C123.828 3.34327 122.121 4.10174 121.553 5.61869C120.984 7.13564 120.984 9.03183 120.605 10.928ZM252.958 330.815C252.958 325.695 253.906 321.903 255.803 318.49C256.561 317.162 257.509 316.025 258.647 315.076C260.733 313.56 262.06 313.939 263.767 315.835C268.886 321.903 267.559 333.09 260.922 337.641C257.509 339.917 254.855 338.968 253.717 334.986C253.148 333.28 253.148 331.573 252.958 330.815ZM257.699 335.176C264.525 331.763 266.042 323.23 260.922 318.3C256.561 321.713 255.044 329.487 257.699 335.176ZM151.323 340.865C150.754 339.158 150.185 337.262 149.616 335.366C145.824 334.228 145.445 337.451 144.686 341.244C143.548 339.348 142.79 338.589 142.6 337.831C142.221 331.384 142.98 324.937 144.876 318.679C145.065 317.921 145.634 316.973 146.203 316.404C148.099 314.128 149.806 314.508 150.754 317.352C151.133 318.3 151.323 319.438 151.512 320.386C152.081 325.695 152.65 331.194 153.219 336.693C153.409 338.02 153.029 339.537 152.84 340.865C152.46 340.675 151.892 340.865 151.323 340.865ZM145.824 331.573C146.203 331.953 146.582 332.142 146.962 332.521C147.72 331.953 149.427 331.384 149.427 331.004C149.427 327.971 149.806 324.937 147.341 322.092C146.772 325.126 146.393 328.35 145.824 331.573ZM338.097 315.456C337.908 320.007 337.908 324.557 337.908 329.108C337.908 329.488 337.908 329.677 338.097 329.867C338.476 330.246 339.045 330.815 339.425 330.815C339.804 330.815 340.562 330.436 340.752 330.056C341.131 328.919 341.321 327.781 341.7 326.643C342.458 323.989 343.217 321.334 344.165 318.869C344.734 317.542 346.251 316.593 347.578 315.076C350.802 321.713 347.009 328.539 350.422 334.986C351.181 333.849 351.56 333.28 351.75 332.901C351.939 328.35 352.129 323.799 352.319 319.248C352.319 318.11 352.129 316.783 351.56 315.645C350.233 312.043 347.389 311.284 344.355 313.56C343.407 314.318 342.648 315.076 341.7 316.025C340.752 315.266 339.804 314.508 338.856 313.56C338.476 314.508 338.097 315.076 338.097 315.456ZM194.745 1.6367C194.745 1.25746 193.418 1.06784 192.28 0.498988C192.28 4.29136 192.28 7.51488 192.28 11.1176C190.195 11.1176 188.488 11.1176 186.023 11.1176C186.023 9.03183 186.213 7.13564 186.023 5.23946C185.833 3.34327 186.402 0.878226 182.989 0.498988C182.989 6.75641 182.989 12.8242 182.989 18.7024C182.989 19.4609 183.179 20.2193 183.558 20.7882C183.748 21.1674 184.127 21.357 184.696 21.7363C186.213 20.409 186.213 18.7024 186.213 17.1854C186.213 15.2893 186.971 14.3412 188.867 14.1515C190.005 14.1515 191.143 14.1515 192.28 14.1515C193.418 16.6166 192.28 19.8401 195.883 22.4948C196.073 14.91 195.883 8.27336 194.745 1.6367ZM356.87 27.0456C355.542 25.9079 354.594 24.9598 353.267 24.0117C352.887 27.4248 353.646 29.1314 355.732 29.8899C357.818 30.6484 359.524 29.8899 360.851 27.9937C361.42 27.2352 362.179 26.0975 362.368 25.1494C363.127 19.2712 363.885 13.5827 364.454 7.7045C364.644 6.37717 364.075 5.23946 361.989 5.23946C361.8 5.99793 361.42 6.94603 361.231 7.89412C361.041 9.22145 361.041 10.7384 360.662 11.8761C360.283 12.8242 358.766 14.1515 358.197 13.9619C357.059 13.5827 355.921 12.445 355.542 11.4969C355.163 9.97993 355.542 8.27336 355.353 6.56679C355.353 5.80831 354.784 4.86022 354.215 3.72251C349.854 10.7384 352.319 16.427 360.283 17.9439C360.093 21.1674 360.472 24.5806 356.87 27.0456ZM215.224 0.30937C214.466 1.6367 213.897 2.20556 213.707 2.77441C212.949 8.27336 213.518 18.1335 214.466 20.5986C216.552 19.4609 216.362 19.4609 216.931 17.5647C218.069 14.1515 219.206 10.7384 220.534 7.32526C221.102 5.99793 222.051 4.29136 224.326 4.6706C226.412 9.41107 223.947 14.7204 226.222 19.8401C226.981 19.2712 227.549 19.0816 227.549 18.7024C228.877 13.7723 228.687 8.84221 227.549 3.91213C226.981 0.878226 224.136 0.119751 221.482 1.82632C219.965 2.77441 218.827 4.29136 217.31 5.80831C216.741 3.72251 215.983 2.39518 215.224 0.30937ZM365.213 330.246C361.61 329.867 360.472 332.332 358.955 335.555C358.197 334.038 357.438 333.28 357.438 332.521C357.249 326.643 358.386 320.955 361.041 315.835C361.61 314.887 363.127 313.56 364.075 313.749C365.023 313.749 366.35 315.266 366.54 316.404C367.678 321.903 368.436 327.402 369.195 332.901C369.384 333.659 368.626 334.418 367.867 336.124C366.73 333.469 365.971 331.953 365.213 330.246ZM360.472 327.212C365.402 326.454 365.782 324.937 362.748 319.058C361.989 321.903 361.42 324.368 360.472 327.212ZM211.053 329.108C212.001 325.316 212.949 321.334 213.897 317.352C214.466 315.266 215.983 314.697 218.069 314.697C220.154 314.508 220.913 315.835 221.671 317.352C224.516 323.989 223.188 330.436 219.965 336.503C218.069 339.917 214.845 339.727 212.949 336.314C212.001 334.038 211.811 331.573 211.053 329.108ZM217.879 317.352C213.897 323.799 213.518 331.763 216.741 334.986C220.723 330.246 221.292 322.851 217.879 317.352ZM303.966 14.5308C304.155 10.5488 304.914 7.32526 307.758 5.23946C309.086 4.29136 310.792 3.15365 312.309 4.48098C315.153 6.75641 318.756 8.84221 319.325 13.0138C319.704 15.0996 319.515 17.1854 318.946 19.2712C318.187 22.3051 316.101 24.2013 312.688 24.5806C309.086 24.9598 306.81 23.0636 305.483 20.0297C304.724 17.9439 304.345 15.8581 303.966 14.5308ZM310.223 7.13564C306.621 10.7384 306.052 16.0477 309.086 19.4609C311.171 21.9259 314.205 21.5467 315.912 18.892C317.618 16.0477 316.86 12.0657 314.205 9.79031C313.068 8.84221 311.74 8.27336 310.223 7.13564ZM129.327 340.865C128.948 339.917 128.379 339.158 128.379 338.21C128.758 331.573 129.137 324.937 129.896 318.3C130.275 314.887 133.878 312.611 137.101 312.991C139.756 313.37 141.273 315.835 140.514 318.869C139.756 321.713 137.86 323.799 135.395 324.937C132.171 326.264 131.602 328.539 131.602 331.384C131.602 333.28 131.602 335.366 131.413 337.262C131.223 338.4 130.844 339.727 130.465 340.865C130.085 340.865 129.706 340.865 129.327 340.865ZM132.55 322.472C136.912 320.386 137.291 319.817 136.532 316.593C133.119 316.783 132.93 319.248 132.55 322.472ZM79.2676 340.296C79.2676 338.968 78.8884 337.451 79.078 336.124C79.2676 332.521 79.8365 328.919 80.0261 325.316C80.0261 323.989 79.4572 322.472 79.2676 321.144C79.078 320.007 78.8884 318.679 79.4572 317.921C81.3534 315.266 84.1977 314.128 87.4212 314.697C91.5929 315.266 93.2994 320.007 90.4552 323.42C89.5071 324.557 88.3693 325.695 87.042 326.264C83.4392 327.971 81.9223 330.625 82.1119 334.607C82.1119 336.124 81.7327 337.641 81.3534 338.968C81.1638 339.537 80.595 339.917 80.0261 340.485C79.8365 340.485 79.4572 340.296 79.2676 340.296ZM83.6289 323.42C84.0081 323.609 84.3873 323.799 84.577 323.989C85.7147 323.04 87.042 322.282 87.9901 321.334C88.5589 320.765 88.7486 319.627 88.3693 318.869C87.9901 318.3 86.8524 317.542 86.2835 317.731C85.525 317.921 84.3873 318.679 84.1977 319.627C83.6288 320.765 83.6289 322.092 83.6289 323.42ZM138.239 2.96403C137.481 3.34327 136.722 4.29136 136.722 5.04984C136.343 10.3592 135.774 15.6685 135.774 20.7882C135.774 23.4429 137.67 25.1494 140.325 25.7183C142.98 26.0975 145.255 25.9079 146.772 23.2532C146.393 22.874 146.203 22.4948 146.013 22.4948C145.065 22.4948 143.928 22.4948 142.79 22.4948C139.946 22.4948 138.998 21.7363 138.808 19.2712C138.429 16.0477 139.187 15.0996 142.031 14.3412C143.359 13.9619 145.065 14.5308 146.013 11.8761C143.928 11.4969 141.842 10.928 139.566 10.5488C139.756 8.84221 139.946 7.13564 140.135 5.80831C142.79 5.04984 145.065 4.29136 147.151 3.53289C143.928 1.6367 139.946 1.6367 138.239 2.96403ZM268.128 15.4789C268.318 18.7024 266.611 21.9259 269.266 25.5287C270.024 24.0117 270.593 22.874 270.783 21.9259C271.162 17.1854 271.541 12.6346 271.731 7.89412C271.731 4.48098 270.403 2.20556 268.507 2.01594C265.663 1.6367 263.956 3.72251 263.008 5.99793C261.302 10.5488 259.785 15.0996 258.457 19.6505C258.078 20.7882 258.647 22.1155 258.647 23.2532C259.026 23.2532 259.405 23.4429 259.974 23.4429C262.06 20.7882 261.491 17.3751 262.629 14.3412C263.956 11.3073 264.336 7.89412 267.559 5.23946C269.076 9.22145 268.128 12.2553 268.128 15.4789ZM242.34 18.892C243.288 19.8401 244.046 21.357 246.132 20.9778C246.322 16.9958 242.529 15.0996 241.392 12.2554C243.098 8.46298 247.459 6.75641 247.839 1.82632C243.667 1.82632 243.477 6.94603 240.254 7.32526C238.927 5.42908 241.392 2.96403 239.306 1.25746C236.651 3.34327 235.513 7.32526 234.945 17.1854C234.945 18.7024 234.186 20.7882 236.841 22.1155C237.41 20.0297 237.979 18.1335 238.927 15.2893C240.444 16.8062 241.392 17.9439 242.34 18.892ZM273.816 323.799C273.816 320.955 275.523 317.921 272.868 314.508C272.11 316.025 271.351 316.973 271.351 317.921C271.162 322.661 270.972 327.591 270.972 332.332C270.972 333.28 271.351 334.418 271.731 335.366C272.868 337.641 274.765 337.831 276.471 336.124C277.04 335.555 277.419 334.986 277.798 334.418C281.022 328.919 282.729 323.04 283.108 316.783C283.108 316.025 282.539 315.076 282.16 314.128C281.78 314.128 281.401 314.128 281.022 314.128C278.747 320.007 279.315 327.212 274.385 332.711C273.248 329.487 274.006 326.643 273.816 323.799ZM176.732 333.09C176.732 334.418 177.3 335.745 177.869 336.883C178.817 338.589 180.524 339.158 182.61 338.968C184.316 338.779 185.454 338.21 185.644 336.503C180.145 335.366 180.334 335.176 179.955 331.763C179.386 328.35 181.472 326.643 183.937 324.557C182.42 323.609 181.472 323.04 180.524 322.282C179.766 318.49 180.524 315.456 184.506 314.318C184.885 314.128 185.075 313.18 186.023 311.853C182.989 312.232 180.524 312.611 177.49 312.991C177.111 320.196 176.732 326.643 176.732 333.09ZM75.096 2.96403C74.7168 2.39518 74.5272 2.01594 74.3376 2.01594C73.7687 1.82632 73.1998 1.6367 72.6309 1.6367C68.8386 1.44708 67.7009 2.58479 67.5113 6.56679C67.3217 9.22145 66.9424 12.0657 66.9424 14.7204C66.9424 17.7543 67.3216 20.7882 68.0801 23.6325C68.649 25.7183 70.5452 26.6664 72.8206 26.2871C75.4752 25.9079 76.8026 24.3909 76.9922 21.357C75.096 21.9259 73.3894 22.3051 71.114 23.0636C70.7348 21.357 70.3555 19.8401 70.1659 18.3231C69.7867 16.0477 70.1659 14.5308 72.8206 13.9619C73.579 13.7723 74.3375 12.8242 75.4752 11.8761C73.579 11.3073 72.2517 10.928 71.114 10.5488C69.4074 6.37717 71.8725 4.48098 75.096 2.96403ZM313.447 336.503C313.447 337.072 314.395 337.641 314.774 338.4C315.153 338.4 315.343 338.21 315.722 338.21C315.912 335.935 316.291 333.469 316.291 331.194C316.291 328.729 316.86 327.212 319.704 326.643C320.652 326.454 321.6 325.695 322.359 325.316C322.169 324.937 322.169 324.747 321.98 324.368C320.273 324.178 318.567 323.799 317.05 323.609C315.722 316.973 315.912 316.783 322.169 316.025C323.497 315.835 325.203 316.404 326.151 313.939C322.169 312.801 318.377 313.56 313.636 313.749C313.447 321.334 313.257 328.919 313.447 336.503ZM283.866 4.6706C282.16 5.04984 280.264 5.61869 278.936 6.56679C275.713 9.03183 275.144 12.6346 275.333 16.427C275.523 20.0297 276.661 21.9259 279.505 22.6844C282.16 23.4429 285.952 22.1155 287.469 19.6505C288.417 18.1335 288.796 16.427 287.848 14.91C286.9 13.5827 285.952 11.8761 283.108 12.6346C283.677 14.3412 284.246 15.6685 284.814 17.1854C283.677 19.0816 282.16 19.8401 280.263 19.0816C278.178 18.3232 278.557 16.427 278.557 14.91C278.747 10.1695 280.643 8.27336 286.711 7.51488C286.711 5.42908 285.573 4.48098 283.866 4.6706ZM121.363 326.074C120.605 325.885 119.846 325.505 119.088 325.505C118.139 325.316 117.002 325.505 115.674 325.505C115.864 323.04 116.054 320.765 116.054 319.058C118.139 317.162 121.363 318.49 122.501 314.697C120.036 314.887 117.95 314.697 115.864 315.076C114.347 315.266 113.02 316.214 112.83 318.11C112.641 323.609 112.451 329.108 112.641 334.418C112.83 337.451 115.106 339.158 117.76 338.968C118.519 338.968 119.088 338.02 120.036 337.262C114.916 334.607 114.916 334.607 115.674 329.677C117.571 328.919 119.467 328.16 121.173 327.212C121.363 326.833 121.363 326.454 121.363 326.074ZM209.915 312.611C205.364 311.853 202.52 313.939 202.141 318.49C201.761 324.747 201.382 330.815 201.003 337.072C201.003 337.831 201.572 338.589 201.951 339.917C204.416 337.072 204.416 334.038 204.606 331.384C204.985 328.919 205.174 326.264 208.398 324.937C205.554 323.23 204.795 320.955 205.174 318.3C205.364 314.697 209.915 316.404 210.673 313.56C210.484 313.18 210.105 312.611 209.915 312.611ZM380.761 13.3931C379.813 15.6685 379.244 17.9439 378.107 19.6505C375.831 23.0636 371.47 22.6844 369.764 18.892C368.057 15.4789 369.574 9.60069 372.608 7.32526C374.504 5.80831 376.779 5.80831 378.107 7.89412C379.434 9.41107 380.003 11.4969 380.761 13.3931ZM375.262 9.22145C371.28 13.2034 371.091 15.6685 374.125 18.7024C377.917 15.8581 378.296 13.2034 375.262 9.22145ZM171.233 4.86022C170.853 7.32526 170.474 9.97993 170.285 12.6346C170.095 15.2893 169.147 18.1335 172.181 21.5467C172.75 19.2712 173.129 17.9439 173.319 16.6166C173.698 14.1515 173.887 11.8761 173.887 9.41107C174.077 5.80831 175.025 2.96403 179.007 2.20556C179.197 2.20556 179.197 1.6367 179.386 0.878226C174.456 -0.0698678 169.716 0.30937 164.596 2.01594C166.492 5.80831 169.526 2.77441 171.233 4.86022ZM384.933 18.5128C385.123 18.892 385.312 19.2712 385.502 19.8401C387.398 23.0636 391.001 23.4429 392.707 20.0297C394.224 17.1854 394.793 13.7723 395.552 10.5488C395.741 9.79031 395.172 8.65259 394.793 7.32526C391.19 10.7384 393.466 16.427 389.105 19.0816C385.502 15.4789 389.105 11.1176 386.64 7.32526C384.175 10.7384 383.795 14.5308 384.933 18.5128ZM375.262 315.456C375.073 320.955 374.883 326.264 374.694 331.763C374.694 332.521 375.073 333.659 375.642 334.228C377.159 335.935 383.037 335.176 385.123 332.711C382.658 332.332 380.382 331.953 378.107 331.573C378.107 328.35 378.296 325.505 378.107 322.661C377.917 319.817 379.245 316.593 376.4 313.56C375.831 314.508 375.262 314.887 375.262 315.456ZM96.3333 69.3306C97.8502 70.4683 99.7465 69.5202 100.695 68.1929C101.832 66.4863 103.16 64.5901 103.539 62.6939C104.108 59.2808 101.074 57.3846 98.0399 59.0912C95.5749 60.4185 94.8164 62.8836 94.6267 66.2967C94.8164 67.0552 95.3852 68.5721 96.3333 69.3306ZM328.427 22.6844C329.564 19.6505 328.047 15.4789 332.029 13.7723C331.461 13.2034 331.271 12.8242 331.081 12.8242C328.996 12.6346 328.237 11.4969 328.237 9.41107C328.237 7.32526 329.754 6.94603 331.081 6.37717C332.029 5.99793 332.978 5.23946 334.684 4.48098C330.512 3.34327 327.858 4.48098 325.203 6.18755C325.203 15.2893 326.151 20.5986 328.427 22.6844ZM338.097 532.759C335.822 532.569 333.167 535.413 333.167 538.258C333.167 540.723 334.874 542.809 337.149 542.998C339.804 543.188 341.89 540.912 342.079 538.068C342.079 535.413 340.183 532.948 338.097 532.759ZM206.123 2.20556C205.933 1.44708 205.364 0.878226 204.985 0.119751C204.606 0.119751 204.416 0.119751 204.037 0.119751C203.658 1.44708 203.089 2.77441 203.089 4.10174C203.278 9.79031 201.951 15.6685 204.416 21.1674C206.123 18.7024 206.881 7.89412 206.123 2.20556ZM329.944 318.11C329.185 331.573 329.375 333.469 332.029 336.314C333.357 328.729 332.978 321.524 332.788 313.37C330.133 315.835 330.133 315.835 329.944 318.11ZM253.148 8.84221C252.01 16.9958 252.39 20.5986 254.096 23.6325C256.182 20.7882 257.32 8.84221 254.665 4.48098C254.096 5.99793 253.338 7.51488 253.148 8.84221ZM279.695 53.7819C277.419 53.5922 275.333 55.4884 274.954 58.1431C274.765 60.6081 276.092 62.6939 278.178 62.6939C280.264 62.6939 282.539 60.4185 282.729 57.9535C282.918 55.678 281.78 53.9715 279.695 53.7819ZM393.276 333.659C393.087 333.09 392.328 332.521 391.759 332.332C391.38 332.142 390.432 332.711 390.242 333.09C389.294 335.555 387.967 337.831 388.915 340.675C391.949 339.727 394.224 336.124 393.276 333.659ZM86.6628 366.084C85.1458 366.084 83.6289 367.601 83.6289 369.307C83.6289 371.014 84.9562 372.152 86.8523 372.152C88.5589 372.152 89.507 371.204 89.6966 369.687C89.507 367.411 88.1797 365.894 86.6628 366.084Z" fill="#C2343E"/>
</svg>
