<?xml version="1.0" encoding="utf-8"?>
<!-- Generator: Adobe Illustrator 23.0.1, SVG Export Plug-In . SVG Version: 6.00 Build 0)  -->
<svg version="1.1" xmlns="http://www.w3.org/2000/svg" xmlns:xlink="http://www.w3.org/1999/xlink" x="0px" y="0px"
	 viewBox="0 0 1500 2791.7" style="enable-background:new 0 0 1500 2791.7;" xml:space="preserve">
<style type="text/css">
	.st0{fill:#10B57C;}
	.st1{fill:#FFFFFF;}
	.st2{fill:none;}
</style>

<view 
	id="view-bronypalooza-2019" 
	viewBox="0 0 1500 250.3"
/>
<view 
	id="view-hollowpoint"
	viewBox="0 250.3 1500 127.1"
/>
<view 
	id="view-seventh-element"
	viewBox="0 377.4 1500 127.1"
/>
<view 
	id="view-john-kenza"
	viewBox="0 504.4 1500 127.1"
/>
<view 
	id="view-yourenigma"
	viewBox="0 631.5 1500 127.1"
/>
<view 
	id="view-geekbrony"
	viewBox="0 758.6 1500 127.1"
/>
<view 
	id="view-loophoof"
	viewBox="0 885.6 1500 127.1"
/>
<view 
	id="view-elevative" 
	viewBox="0 1012.7 1500 127.1"
/>
<view 
	id="view-flightrush" 
	viewBox="0 1139.8 1500 127.1"
/>
<view 
	id="view-r3ctifier" 
	viewBox="0 1266.8 1500 127.1"
/>
<view 
	id="view-chang31ing" 
	viewBox="0 1393.9 1500 127.1"
/>
<view 
	id="view-strachattack"
	viewBox="0 1521 1500 127.1"
/>
<view 
	id="view-vinyltastic"
	viewBox="0 1648 1500 127.1"
/>
<view 
	id="view-vylet-pony" 
	viewBox="0 1775.1 1500 127.1"
/>
<view 
	id="view-sekrit-gest" 
	viewBox="0 1902.2 1500 127.1"
/>
<view 
	id="view-silva-hound" 
	viewBox="0 2029.3 1500 127.1"
/>
<view 
	id="view-michelle-creber" 
	viewBox="0 2156.3 1500 127.1"
/>
<view 
	id="view-black-gryph0n" 
	viewBox="0 2283.4 1500 127.1"
/>
<view 
	id="view-baasik" 
	viewBox="0 2410.5 1500 127.1"
/>
<view 
	id="view-bp-superband" 
	viewBox="0 2537.5 1500 127.1"
/>
<view 
	id="view-eurobeat-brony" 
	viewBox="0 2664.6 1500 127.1"
/>

<g id="poster">
	<path id="eurobeat-brony" class="st0" d="M791.3,2694h47.5v93.4h23V2694h47.5v-22.2H791.3V2694z M757.8,2671.8l69.9,115.6h-26.2
		l-6.4-10.7H717l-6.4,10.7h-12.7h-13.5H597v-115.6h100.9v22.2H620v25.7h75.8v21.4H620v24.2h77.9l56.6-93.4H757.8z M782.3,2755.3
		l-26.2-43.9l-26.3,43.9H782.3z M574,2730.8c5.1,5.3,8.4,12.5,8.4,21.1c0,19.4-16.1,35.5-35.9,35.5h-82v-115.6h84.5
		c19.7,0,35.7,16.1,35.7,35.7C584.6,2717.3,580.5,2725.4,574,2730.8z M559.1,2751.7c0-6.7-5.8-12.7-12.7-12.7h-59v25.3h59
		C553.4,2764.4,559.1,2758.5,559.1,2751.7z M561.6,2707.5c0-6.7-5.8-12.7-12.7-12.7h-61.5v25.3h61.5
		C556,2720.1,561.6,2714.2,561.6,2707.5z M1016.1,2730.8c5.1,5.3,8.4,12.5,8.4,21.1c0,19.4-16.1,35.5-35.9,35.5h-43.8v-115.6h46.2
		c19.7,0,35.7,16.1,35.7,35.7C1026.8,2717.3,1022.7,2725.4,1016.1,2730.8z M1001.3,2751.7c0-6.7-5.8-12.7-12.7-12.7h-20.7v25.3h20.7
		C995.6,2764.4,1001.3,2758.5,1001.3,2751.7z M1003.8,2707.5c0-6.7-5.8-12.7-12.7-12.7h-23.2v25.3h23.2
		C998.2,2720.1,1003.8,2714.2,1003.8,2707.5z M1110.3,2755.3l19.7,32.1h-25.2l-15.1-24.7c-1.8,0.2-3.6,0.3-5.4,0.3h-22.6v24.3h-23
		v-115.6h44.8c27.8,0,47.4,21.2,47.4,45.6C1130.8,2732.8,1122.9,2746.9,1110.3,2755.3z M1107.8,2717.5c0-13.2-10.7-22.7-23.7-22.7
		h-22.5v45.2h22.5C1097.1,2740,1107.8,2730.5,1107.8,2717.5z M1445.7,2712.4l-26.3-40.6h-26.6l41.5,61.2v54.5h23V2733l41.5-61.2
		H1472L1445.7,2712.4z M451.6,2729.7c0,33.1-23.2,59.7-70.1,59.7c-47.5,0-70.7-27-70.7-59.7s23.4-59.9,70.7-59.9
		C428.4,2669.8,451.6,2696.9,451.6,2729.7z M428.6,2729.7c0-20.2-13.2-36.8-47.2-36.8c-34.5,0-47.5,16.6-47.5,36.8
		c0,20.2,13,36.7,47.7,36.7C415.4,2766.3,428.6,2749.9,428.6,2729.7z M1365.2,2737.2l-69.9-65.5h-3.3v115.6h23v-65.5l69.9,65.5h3.3
		v-115.6h-23V2737.2z M1279.2,2729.7c0,33.1-23.2,59.7-70.1,59.7c-47.5,0-70.7-27-70.7-59.7s23.4-59.9,70.7-59.9
		C1256,2669.8,1279.2,2696.9,1279.2,2729.7z M1256.2,2729.7c0-20.2-13.2-36.8-47.2-36.8c-34.5,0-47.5,16.6-47.5,36.8
		c0,20.2,13,36.7,47.7,36.7C1243,2766.3,1256.2,2749.9,1256.2,2729.7z M12.4,2787.4H75v-22.2H35.4V2741h37.5v-21.4H35.4V2694H75
		v-22.2H12.4V2787.4z M283.7,2755.3l19.7,32.1h-25.2l-15.1-24.7c-1.8,0.2-3.6,0.3-5.4,0.3h-12.5v24.3h-23v-115.6h34.7
		c27.8,0,47.4,21.2,47.4,45.6C304.2,2732.8,296.3,2746.9,283.7,2755.3z M281.2,2717.5c0-13.2-10.7-22.7-23.7-22.7h-12.3v45.2h12.3
		C270.5,2740,281.2,2730.5,281.2,2717.5z M187.2,2734.3c0,18.8-13.2,32.1-38.7,32.1c-25.3,0-38.7-13.3-38.7-32.1v-62.5h-23v64.2
		c0,26.6,21.9,53.1,61.7,53.1c40,0,61.5-26.5,61.5-53.1l0.2-64.2h-23V2734.3z"/>
	<path id="bp-superband" class="st0" d="M1052.7,2603.8c5.1,5.3,8.4,12.5,8.4,21.1c0,19.4-16.1,35.5-35.9,35.5h-43.8v-115.6h46.2
		c19.7,0,35.7,16.1,35.7,35.7C1063.4,2590.3,1059.3,2598.4,1052.7,2603.8z M1037.9,2624.7c0-6.7-5.8-12.7-12.7-12.7h-20.7v25.3h20.7
		C1032.1,2637.4,1037.9,2631.4,1037.9,2624.7z M1040.4,2580.4c0-6.7-5.8-12.7-12.7-12.7h-23.2v25.3h23.2
		C1034.8,2593.1,1040.4,2587.2,1040.4,2580.4z M666.1,2544.7c27.8,0,47.4,21.2,47.4,45.6c0,24.3-19.4,45.1-46.6,45.7h-12.5v24.3h-23
		v-115.6H666.1z M666.8,2567.8h-12.3v45.2h12.3c13,0,23.7-9.5,23.7-22.5C690.5,2577.3,679.8,2567.8,666.8,2567.8z M832.4,2566.9
		v-22.2H726.8v115.6h105.6v-22.2h-82.6v-24.7h79.3v-21.4h-79.3v-25.2H832.4z M127.3,2605.4c4.3,4.9,6.9,10.9,6.9,19.4
		c0,19.4-16.1,35.5-35.9,35.5H20.2v-115.6h85.5c19.7,0,35.7,16.1,35.7,35.7C141.5,2590.3,136.9,2600,127.3,2605.4z M111.1,2624.7
		c0-6.7-5.8-12.7-12.7-12.7H43.3v25.3h55.1C105.3,2637.4,111.1,2631.4,111.1,2624.7z M118.5,2580.4c0-6.7-5.8-12.7-12.7-12.7H43.3
		v25.3h62.5C112.9,2593.1,118.5,2587.2,118.5,2580.4z M518.7,2544.7v69.6c0,26.6,21.4,48,48,48c26.8,0,48.2-21.4,48.2-48v-69.6h-23
		v69.6c0,13.8-11.2,25-25.2,25c-13.8,0-25-11.2-25-25v-69.6H518.7z M1436.6,2660.4h-30.9v-115.6h30.9c33.2,0,59.9,25,59.9,57.9
		C1496.5,2635.5,1469.9,2660.4,1436.6,2660.4z M1428.7,2638.2h7.9c20.4,0,36.8-15.5,36.8-35.5c0-20.2-16.6-35.7-36.8-35.7h-7.9
		V2638.2z M175.5,2660.4h-23v-115.6h146.4c35.2,0,56.4,19.4,56.4,45.7c0,26.2-21.2,45.6-56.4,45.6H175.5V2660.4z M175.5,2613h123.4
		c23.2,0,32.6-9.2,32.6-22.5c0-13.5-9.4-22.7-32.6-22.7H175.5V2613z M964.4,2660.4h-25.2l-15.1-24.7c-1.8,0.2-3.6,0.3-5.4,0.3h-45.6
		v24.3h-23v-115.6h67.8c27.8,0,47.4,21.2,47.4,45.6c0,15.5-7.9,29.6-20.6,38L964.4,2660.4z M942.2,2590.5
		c0-13.2-10.7-22.7-23.7-22.7h-45.4v45.2h45.4C931.5,2613,942.2,2603.5,942.2,2590.5z M510.2,2625.8c0-22.7-13.7-31.4-57.2-34.9
		c-30.8-3.3-37.5-6.6-37.5-14.3c0-5.4,3.6-11.8,33.4-11.8c28.8,0,44.7,12.2,44.7,12.2l13.7-19.2c0,0-15-15-57.6-15
		c-38.5,0-57.2,13.3-57.2,33.9c0,23,16.9,32.6,58.4,36.4c32.4,3,36.4,7.7,36.4,14.6c0,7.1-5.4,12.7-33.9,12.7
		c-32.7,0-50.2-13.2-50.2-13.2l-11.8,18.3c0,0,16.6,16.9,61.2,16.9C491.7,2662.4,510.2,2648.5,510.2,2625.8z M1368.7,2544.7h23
		v115.6h-3.3l-69.9-65.5v65.5h-5.6h-17.4h-16l-13.7-12.3h-165.5l-13.7,12.3h-33.1l128-115.6h3.3l110.6,99.9v-99.9h3.3l69.9,65.5
		V2544.7z M1244,2628.3l-49.2-44.4l-11.5-11.7l-11.7,11.7l-49.4,44.4H1244z"/>
	<path id="baasik" class="st0" d="M1141.4,2439.9v71.2h157.1v22.2H961.3v-22.2h157.1v-71.2h-134v0.3H753.1
		c-17.3,0-22.4,3.8-22.4,9.7c0,6.9,4.4,11,29,12.3l94.9,5.4c42.9,2.5,55.9,10,55.9,31.9c0,19.9-14.6,33.7-58.1,33.7h-156h-30.3H663
		l-13.7-12.3H483.9l-13.5,12.2l0.2,0.1h-0.3h-33.1l-13.7-12.3H258l-13.7,12.3h-33.1l128-115.6h3.3l111.3,100.6l111.3-100.6h3.3
		l103.2,93.3h188.2c17.8,0,22.9-3.8,22.9-10.7c0-7.4-6.3-10.2-36-11.8l-92.5-5.1c-30.8-1.6-50.2-10.7-50.2-33.6
		c0-17.6,15.5-32.1,58.2-32.1h199h23.1h314.2v22.2H1141.4z M401.6,2501.3l-49.2-44.4l-11.5-11.7l-11.7,11.7l-49.4,44.4H401.6z
		 M627.5,2501.3l-49.2-44.4l-11.5-11.7l-11.7,11.7l-49.4,44.4H627.5z M175.4,2533.4H12.4v-115.6h165.5c24.7,0,40.6,16,40.6,35.7
		c0,10.9-4.9,18.6-12.5,23.7c6.1,5.3,10,12.5,10,20.9C216.1,2517.7,200.1,2533.4,175.4,2533.4z M35.4,2466.1h142
		c11.8,0,17.4-5.8,17.4-12.7c0-6.9-5.6-12.7-17.4-12.7h-142V2466.1z M174.9,2510.3c11.8,0,17.4-5.4,17.4-12.3
		c0-6.9-5.6-11.5-17.4-11.5H35.4v23.9H174.9z M1340,2487.2h45.7c2.8,0,5.5-0.3,8.2-0.7l62.4,46.8h38.3l-77.4-58l77.4-57.7h-38.3
		l-31.9,23.8l-23.8,17.8c-4.1,3.2-9.3,5-15,5H1340v-46.5h-23v115.6h23V2487.2z"/>
	<path id="black-gryph0n" class="st0" d="M129.6,2290.7v93.4h47v3l47-96.4h3.3l56.4,115.6h-24.5l-5.4-10.7H197l-5.3,10.7h-15.1h-9.4
		h-60.6v-115.6H129.6z M207.5,2374.3h35.4l-17.6-39.6L207.5,2374.3z M83.6,2349.8c5.1,5.3,8.4,12.5,8.4,21.1
		c0,19.4-16.1,35.5-35.9,35.5H12.4v-115.6h46.2c19.7,0,35.7,16.1,35.7,35.7C94.3,2336.3,90.2,2344.3,83.6,2349.8z M68.8,2370.6
		c0-6.7-5.8-12.7-12.7-12.7H35.4v25.3h20.7C63,2383.3,68.8,2377.4,68.8,2370.6z M71.2,2326.4c0-6.7-5.8-12.7-12.7-12.7H35.4v25.3
		h23.2C65.7,2339.1,71.2,2333.1,71.2,2326.4z M962.1,2406.3v-54.5l55.9-61.2h-28.3l-39.2,43.6l-39.3-43.6H883l56.1,61.2v54.5H962.1z
		 M869.9,2374.3l19.7,32.1h-25.2l-15.1-24.7c-1.8,0.2-3.6,0.3-5.4,0.3h-45.6v24.3h-23v-115.6H843c27.8,0,47.4,21.2,47.4,45.6
		C890.4,2351.7,882.5,2365.9,869.9,2374.3z M867.4,2336.4c0-13.2-10.7-22.7-23.7-22.7h-45.4v45.2h45.4
		C856.7,2359,867.4,2349.4,867.4,2336.4z M1213.2,2406.3v-115.6h-23v47.9H1140v-47.9h-23v115.6h23V2360h50.2v46.4H1213.2z
		 M347.2,2313.7H478v-23H347.2c-43.9,0-67.3,23.2-67.3,57.9c0,34.4,23.4,57.7,67.3,57.7H478v-23H347.2c-29.4,0-44.3-13.2-44.3-34.7
		C303,2326.7,317.8,2313.7,347.2,2313.7z M1284.9,2408.3c-33.2,0-60-27-60-59.7c0-32.9,27-59.9,60-59.9c33.1,0,59.9,27.1,59.9,59.9
		C1344.8,2381.5,1318,2408.3,1284.9,2408.3z M1321.8,2348.6c0-20.2-16.6-36.8-37-36.8c-20.2,0-36.8,16.8-36.8,37
		c0,20.1,16.6,36.5,36.8,36.5C1305.1,2385.3,1321.8,2368.8,1321.8,2348.6z M1363.2,2290.7h-3.3v115.6h23v-72.1l99.4,72.1h3.3v-115.6
		h-23v72.1L1363.2,2290.7z M516,2368.8l12-9.7l51.3,47.2h36.2l-69.1-61.7l67.6-54h-34.9l-63.2,47v-47h-23v115.6h23V2368.8z
		 M698.9,2406.3h57.6v-57.7h-20.9v35.5h-36.7c-22.9,0-36.7-15.8-36.7-35.9c0-19.7,13.8-35.4,36.5-35.4h54.3v-22.2h-55.1
		c-35,0-58.9,25.2-58.9,57.6C639.1,2381.3,663.1,2406.3,698.9,2406.3z M1047.9,2406.3h-23v-115.6h34.7c27.8,0,47.4,21.2,47.4,45.6
		c0,24.3-19.4,45.1-46.6,45.7h-12.5V2406.3z M1047.9,2359h12.3c13,0,23.7-9.5,23.7-22.5c0-13.2-10.7-22.7-23.7-22.7h-12.3V2359z"/>
	<path id="michelle-creber" class="st0" d="M872.3,2185.9v-22.2h-62.7v115.6h62.7v-22.2h-39.6v-24.2h37.5v-21.4h-37.5v-25.7H872.3z
		 M477.1,2279.3v-115.6h-23v47.9H347.7v-47.9h-23v115.6h23v-46.4h106.4v46.4H477.1z M1221.2,2185.9v-22.2h-123v115.6h123v-22.2h-100
		v-24.2h100v-21.4h-100v-25.7H1221.2z M194.4,2221.3c0,33.1,24,58.1,59.9,58.1h54.3v-22.2h-54.3c-22.9,0-36.7-15.8-36.7-35.9
		c0-19.7,13.8-35.4,36.5-35.4h54.3v-22.2h-55.1C218.2,2163.7,194.4,2188.9,194.4,2221.3z M181.4,2163.7h-23v115.6h23V2163.7z
		 M1468,2247.3l19.7,32.1h-25.2l-15.1-24.7c-1.8,0.2-3.6,0.3-5.4,0.3h-12.5v24.3h-23v-115.6h34.7c27.8,0,47.4,21.2,47.4,45.6
		C1488.6,2224.7,1480.7,2238.9,1468,2247.3z M1465.5,2209.4c0-13.2-10.7-22.7-23.7-22.7h-12.3v45.2h12.3
		C1454.8,2232,1465.5,2222.4,1465.5,2209.4z M1307,2222.7c5.1,5.3,8.4,12.5,8.4,21.1c0,19.4-16.1,35.5-35.9,35.5h-43.8v-115.6h46.2
		c19.7,0,35.7,16.1,35.7,35.7C1317.6,2209.3,1313.5,2217.3,1307,2222.7z M1292.1,2243.6c0-6.7-5.8-12.7-12.7-12.7h-20.7v25.3h20.7
		C1286.4,2256.3,1292.1,2250.4,1292.1,2243.6z M1294.6,2199.4c0-6.7-5.8-12.7-12.7-12.7h-23.2v25.3h23.2
		C1289,2212,1294.6,2206.1,1294.6,2199.4z M1330,2279.3h62.7v-22.2H1353v-24.2h37.5v-21.4H1353v-25.7h39.6v-22.2H1330V2279.3z
		 M43.4,2214.2l31.6,65.1h3.3l31.6-65.1l17.9,65.1h23.2l-32.2-115.6h-9l-33.1,66.5l-33.1-66.5h-9L2.2,2279.3h23.2L43.4,2214.2z
		 M595.6,2257.1H513v-24.7h79.3v-21.4H513v-25.2h82.6v-22.2H490v115.6h105.6V2257.1z M671,2257.1h-38v-93.4h-23v115.6h61V2257.1z
		 M979.1,2185.9h13.3v-22.2h-14.1c-35,0-58.9,25.2-58.9,57.6c0,33.1,24,58.1,59.9,58.1h13.3v-22.2h-13.3
		c-22.9,0-36.7-15.8-36.7-35.9C942.6,2201.5,956.4,2185.9,979.1,2185.9z M801.4,2257.1h-99.2v-93.4h-23v115.6h122.2V2257.1z
		 M1027.6,2279.3h-23v-115.6h34.7c27.8,0,47.4,21.2,47.4,45.6c0,15.5-7.9,29.6-20.6,38l19.7,32.1h-25.2l-15.1-24.7
		c-1.8,0.2-3.6,0.3-5.4,0.3h-12.5V2279.3z M1027.6,2232h12.3c13,0,23.7-9.5,23.7-22.5c0-13.2-10.7-22.7-23.7-22.7h-12.3V2232z"/>
	<path id="silva-hound" class="st0" d="M540.8,2152.3l70.1-115.6h3.3l69.9,115.6H658l-6.4-10.7h-78.1l-6.4,10.7H540.8z
		 M586.2,2120.2h52.5l-26.2-43.9L586.2,2120.2z M168.1,2129.9H12.7v22.4h148.1c43.4,0,58.1-13.8,58.1-33.7c0-21.9-13-29.4-55.9-31.9
		l-94.9-5.4c-24.5-1.3-29-5.4-29-12.3c0-5.9,5.1-9.7,22.4-9.7h154.8v-22.5H70.6c-42.8,0-58.2,14.5-58.2,32.1
		c0,22.9,19.4,31.9,50.2,33.6l92.5,5.1c29.8,1.6,36,4.4,36,11.8C191,2126.2,185.9,2129.9,168.1,2129.9z M290.5,2036.7h-23v115.6
		h206.1v-22.2H290.5V2036.7z M882.6,2036.7h-23v47.9h-88.4v-47.9h-23v115.6h23v-46.4h88.4v46.4h23V2036.7z M228.7,2036.7v115.6h23
		v-115.6H228.7z M1331.7,2108.7l-99.4-72.1h-3.3v115.6h23v-72.1l99.4,72.1h3.3v-115.6h-23V2108.7z M1491.1,2094.6
		c0,32.9-26.7,57.7-59.9,57.7h-63.7v-115.6h63.7C1464.5,2036.7,1491.1,2061.7,1491.1,2094.6z M1468.1,2094.6
		c0-20.2-16.6-35.7-36.8-35.7h-40.6v71.2h40.6C1451.6,2130.1,1468.1,2114.6,1468.1,2094.6z M513.4,2152.3l70.1-115.6h-26.2l-45.6,76
		l-45.4-76h-26.2l69.9,115.6H513.4z M953.2,2154.3c-33.2,0-60-27-60-59.7c0-32.9,27-59.9,60-59.9c33.1,0,59.9,27.1,59.9,59.9
		C1013.1,2127.5,986.3,2154.3,953.2,2154.3z M990,2094.6c0-20.2-16.6-36.8-37-36.8c-20.2,0-36.8,16.8-36.8,37
		c0,20.1,16.6,36.5,36.8,36.5C973.4,2131.3,990,2114.8,990,2094.6z M1194.7,2092.6c0,21.6-16.5,36.7-47.5,36.7H1092
		c-31.1,0-47.5-15.1-47.5-36.7v-55.9h-23v55.9c0,34.4,25,59.7,70.6,59.7h55.1c45.6,0,70.6-25.3,70.6-59.7v-55.9h-23V2092.6z"/>
	<path id="sekrit-gest" class="st0" d="M164.1,1909.1h24.5v115.1h-24.5V1909.1z M210.8,1909.1v24.5h63.8
		c-11.1,9.2-19.7,20.4-26.1,33.6c-6.3,13.2-9.5,27.3-9.5,42.3v14.7h24.5v-14.7c0-13.8,3.4-26.5,10.2-38.1c1.2-2.1,2.7-4.1,4.1-6.1
		l14.1,14.1c-0.4,0.6-0.9,1.2-1.2,1.8c-5,8.6-7.6,18-7.6,28.3v14.7h24.5v-14.7c0-5.7,1.4-11,4.3-15.9c2.8-4.9,6.7-8.8,11.6-11.7
		c4.9-2.9,10.2-4.3,15.9-4.3h71.1v-24.5h-71.1c-10.2,0-19.6,2.5-28.2,7.6c-0.7,0.4-1.3,0.9-1.9,1.3l-14.1-14.1c2-1.5,4-2.9,6.2-4.2
		c11.6-6.8,24.2-10.2,38-10.2h71.1v-24.5h-71.1H210.8z M703.1,1926.7l-19.8-14.4l-62.8,92.2l10.4,19.2h95.9v-24.4h-72.4
		L703.1,1926.7z M894.2,1909.1H963v24.5h-68.8c-5.7,0-11,1.4-15.9,4.3c-4.9,2.9-8.8,6.8-11.6,11.7c-1.8,3.1-2.9,6.3-3.6,9.7
		c1.5,0.6,2.9,1.3,4.3,2.1c5.2,3.1,9.4,7.2,12.5,12.5c3.1,5.2,4.6,11,4.6,17.2c0,6.2-1.5,11.9-4.6,17.2c-3.1,5.3-7.2,9.4-12.5,12.5
		c-5.2,3-10.9,4.6-17.1,4.6c-6.3,0-12-1.5-17.2-4.6c-5.2-3.1-9.5-7.2-12.8-12.5c-3.3-5.2-4.9-10.9-4.9-17.1c0-6.3,1.6-12,4.9-17.2
		c3.3-5.2,7.5-9.4,12.8-12.5c1.4-0.8,2.8-1.5,4.3-2.1c-0.7-3.5-1.8-6.8-3.6-9.9c-2.8-4.9-6.7-8.8-11.6-11.6
		c-4.9-2.8-10.2-4.3-16-4.3h-68.7v-24.5h68.7c8.8,0,17.1,1.9,24.7,5.8c7.7,3.9,14.1,9.2,19.3,15.9c5.2-6.8,11.6-12.1,19.3-15.9
		C877.1,1911,885.4,1909.1,894.2,1909.1z M860,1991c0-2.6-1-4.9-2.9-6.8c-1.9-1.9-4.2-2.9-6.8-2.9c-2.7,0-5.1,1-7,2.9
		c-1.9,1.9-2.9,4.2-2.9,6.8c0,2.7,1,5.1,2.9,7c1.9,1.9,4.2,2.9,7,2.9c2.6,0,4.9-1,6.8-2.9C859,1996,860,1993.7,860,1991z
		 M1499.3,1909.1v24.5h-36.2c-5.7,0-11,1.4-15.9,4.3c-4.9,2.9-8.8,6.8-11.6,11.7c-1.8,3.1-2.9,6.3-3.6,9.7c1.5,0.6,2.9,1.3,4.3,2.1
		c5.2,3.1,9.4,7.2,12.5,12.5c3.1,5.2,4.6,11,4.6,17.2c0,6.2-1.5,11.9-4.6,17.2c-3.1,5.3-7.2,9.4-12.5,12.5c-5.2,3-10.9,4.6-17.1,4.6
		c-6.3,0-12-1.5-17.2-4.6c-5.2-3.1-9.5-7.2-12.8-12.5c-3.3-5.2-4.9-10.9-4.9-17.1c0-6.3,1.6-12,4.9-17.2c3.3-5.2,7.5-9.4,12.8-12.5
		c1.4-0.8,2.8-1.5,4.3-2.1c-0.7-3.5-1.8-6.8-3.6-9.9c-2.8-4.9-6.7-8.8-11.6-11.6s-10.2-4.3-16-4.3H1339v-24.5h36.1
		c8.8,0,17.1,1.9,24.7,5.8c7.7,3.9,14.1,9.2,19.3,15.9c5.2-6.8,11.6-12.1,19.3-15.9c7.7-3.9,15.9-5.8,24.7-5.8H1499.3z M1428.9,1991
		c0-2.6-1-4.9-2.9-6.8c-1.9-1.9-4.2-2.9-6.8-2.9c-2.7,0-5.1,1-7,2.9c-1.9,1.9-2.9,4.2-2.9,6.8c0,2.7,1,5.1,2.9,7
		c1.9,1.9,4.2,2.9,7,2.9c2.6,0,4.9-1,6.8-2.9C1428,1996,1428.9,1993.7,1428.9,1991z M120.9,1961c-7.4-4.4-15.6-6.6-24.5-6.6H53.4
		c-4.5,0-8.7-1-12.5-2.9c-3.8-2-7.1-4.6-9.8-8c-2.4-3-4-6.3-5-9.9h27.2h42.9h41.5v-24.5H96.4H53.4H0v16c0,8.4,1.8,16.3,5.5,23.6
		c3.7,7.3,8.6,13.5,14.9,18.5c-5,4.5-8.9,9.9-11.7,16.2c-2.8,6.3-4.3,12.9-4.3,20v20.8h24.5v-20.8c0-4.4,1.1-8.5,3.3-12.3
		c2.2-3.8,5.2-6.8,9-9c3.8-2.2,7.9-3.3,12.3-3.3h42.9c4.4,0,8.5,1.1,12.2,3.3c3.7,2.2,6.7,5.2,8.9,9c2.2,3.8,3.3,7.9,3.3,12.3v20.8
		h24.5v-20.8c0-8.9-2.2-17.1-6.6-24.5C134.3,1971.4,128.3,1965.4,120.9,1961z M1306.4,1961c-7.4-4.4-15.6-6.6-24.5-6.6h-42.6
		c-4.5,0-8.7-1-12.5-2.9c-3.8-2-7.1-4.6-9.8-8c-2.4-3-4-6.3-5-9.9h27.2h42.6h41.5v-24.5h-41.5h-42.6h-53.4v16
		c0,8.4,1.8,16.3,5.5,23.6c3.7,7.3,8.6,13.5,14.9,18.5c-5,4.5-8.9,9.9-11.7,16.2c-2.8,6.3-4.3,12.9-4.3,20v20.8h24.5v-20.8
		c0-4.4,1.1-8.5,3.3-12.3c2.2-3.8,5.2-6.8,9-9c3.8-2.2,7.9-3.3,12.3-3.3h42.6c4.4,0,8.5,1.1,12.2,3.3c3.7,2.2,6.7,5.2,8.9,9
		c2.2,3.8,3.3,7.9,3.3,12.3v20.8h24.5v-20.8c0-8.9-2.2-17.1-6.6-24.5C1319.8,1971.4,1313.8,1965.4,1306.4,1961z M577.9,1925.1
		c0,5.3-1.3,10.2-4,14.6c-2.6,4.5-6.2,8-10.6,10.7c-4.4,2.7-9.2,4-14.4,4h-66.9c-5.3,0-10.1-1.3-14.5-4c-4.4-2.7-7.9-6.3-10.5-10.7
		c-2.6-4.4-3.9-9.3-3.9-14.6v-16h-24.5v16c0,8.2,1.7,16,5.2,23.2c3.5,7.2,8.2,13.4,14.3,18.4c-6.1,5-10.8,11.1-14.3,18.4
		c-3.5,7.2-5.2,15-5.2,23.2v16h24.5v-16c0-5.3,1.3-10.2,3.9-14.6c2.6-4.5,6.1-8,10.5-10.7c4.4-2.7,9.2-4,14.5-4H549
		c5.2,0,10,1.3,14.4,4c4.4,2.7,7.9,6.3,10.6,10.7c2.6,4.4,4,9.3,4,14.6v16h24.4v-16c0-8.2-1.7-16-5.2-23.2
		c-3.5-7.2-8.2-13.4-14.3-18.4c6.1-5,10.8-11.1,14.3-18.4c3.5-7.2,5.2-15,5.2-23.2v-16h-24.4V1925.1z M1068.7,1969.9
		c-6.8,0-13.2-1.7-18.9-5.1c-5.8-3.4-10.4-8-13.7-13.7c-3-5.1-4.6-10.7-4.9-16.7h67.4v-24.5H984v24.5h22.8c0.4,10.3,3,20,8.2,28.8
		c5.6,9.5,13.1,17.1,22.6,22.7c9.5,5.6,19.9,8.4,31.1,8.4h29.8v6.2H984.2v24.5h114.4h16h8.5v-55.1h-24.5H1068.7z M1142.5,2025h24.5
		v-115.1h-24.5V2025z"/>
	<path id="vylet-pony" class="st0" d="M891.7,1897.1h-23v-115.6h87.5c27.8,0,47.4,21.2,47.4,45.6c0,24.3-19.4,45.1-46.6,45.7h-65.3
		V1897.1z M891.7,1849.7h65.1c13,0,23.7-9.5,23.7-22.5c0-13.2-10.7-22.7-23.7-22.7h-65.1V1849.7z M612.1,1874.9H450.8v-24.2h161.2
		v-21.4H450.8v-25.7h150.1h11.1h87.5v93.4h23v-93.4h87.2v-22.2H612.1h-11.1H427.8v115.6h184.2V1874.9z M1435.9,1897.1v-54.5
		l55.9-61.2h-28.3l-39.2,43.6l-39.3-43.6h-28.3l56.1,61.2v54.5H1435.9z M1257.1,1781.4h-3.3v115.6h23v-65.5l69.9,65.5h3.3v-115.6
		h-23v65.5L1257.1,1781.4z M126,1781.4l-45.6,76l-45.4-76H8.8l69.9,115.6h3.3l68.1-112.4l53.1,58v54.5h23v-54.5l55.9-61.2H254
		l-39.2,43.6l-39.3-43.6h-23.4h-4.9H126z M419,1874.9H315.3v-93.4h-23v115.6H419V1874.9z M1085.1,1897.1
		c-52.9,0-76.3-23.4-76.3-57.7c0-34.7,23.4-57.9,67.3-57.9h99.5c43.9,0,67.3,23.4,67.3,57.7c0,34.7-23.4,57.9-58.3,57.9H1085.1z
		 M1076.1,1874h99.5c29.4,0,44.3-13,44.3-34.9c0-21.6-14.8-34.7-44.3-34.7h-99.5c-29.4,0-44.3,13-44.3,34.9
		C1031.9,1860.9,1046.7,1874,1076.1,1874z"/>
	<path id="vinyltastic" class="st0" d="M712.9,1770v-93.4h-87.2v-22.2h197.4v22.2h-87.2v93.4H712.9z M473.4,1770h23v-54.5l55.9-61.2
		h-28.3l-39.2,43.6l-39.3-43.6h-28.3l56.1,61.2V1770z M1055.1,1735.5c0-22.7-13.7-31.4-57.2-34.9c-30.8-3.3-37.5-6.6-37.5-14.3
		c0-5.4,3.6-11.8,33.4-11.8c28.8,0,44.7,12.2,44.7,12.2l13.7-19.2c0,0-15-15-57.6-15c-38.5,0-57.2,13.3-57.2,33.9
		c0,23,16.9,32.6,58.4,36.4c32.4,3,36.4,7.7,36.4,14.6c0,7.1-5.4,12.7-33.9,12.7c-32.7,0-50.2-13.2-50.2-13.2l-11.8,18.3
		c0,0,16.6,16.9,61.2,16.9C1036.7,1772,1055.1,1758.2,1055.1,1735.5z M814.6,1770h-26.2l70.1-115.6h3.3l69.9,115.6h-26.2l-6.4-10.7
		H821L814.6,1770z M833.8,1738h52.5l-26.2-43.9L833.8,1738z M670,1747.8h-84.5v-93.4h-23V1770H670V1747.8z M1364,1747.8h-80.6v-71.2
		h80.6v-22.2h-181.9h-2.3H1064v22.2h47.5v93.4h23v-93.4h45.2h2.3h78.3v71.2h-80.6v22.2H1364V1747.8z M1430.8,1676.6h54.3v-22.2H1430
		c-35,0-58.9,25.2-58.9,57.6c0,33.1,24,58.1,59.9,58.1h54.3v-22.2H1431c-22.9,0-36.7-15.8-36.7-35.9
		C1394.3,1692.2,1408.1,1676.6,1430.8,1676.6z M177.1,1770v-115.6h-23V1770H177.1z M79.9,1770l70.1-115.6h-26.2l-45.6,76l-45.4-76
		H6.7L76.6,1770H79.9z M192.9,1654.4V1770h23v-82.6l191.3,82.6h3.3v-115.6h-23v82.6l-191.3-82.6H192.9z"/>
	<path id="strachattack" class="st0" d="M432.3,1643h-26.2l70.1-115.6h3.3l69.9,115.6h-26.2l-6.4-10.7h-78.1L432.3,1643z
		 M451.6,1610.9h52.5l-26.2-43.9L451.6,1610.9z M606.1,1643h54.3v-22.2h-54.3c-22.9,0-36.7-15.8-36.7-35.9
		c0-19.7,13.8-35.4,36.5-35.4h54.3v-22.2h-55.1c-35,0-58.9,25.2-58.9,57.6C546.2,1618,570.2,1643,606.1,1643z M779.1,1575.2h-79.6
		v-47.9h-23V1643h23v-46.4h79.6v46.4h23v-115.6h-23V1575.2z M954.5,1643h-26.2l-6.4-10.7h-78.1l-6.4,10.7h-26.2l70.1-115.6h3.3
		L954.5,1643z M909.1,1610.9l-26.2-43.9l-26.3,43.9H909.1z M1463.6,1527.4l-63.2,47v-47h-23V1643h23v-37.5l12-9.7l51.3,47.2h36.2
		l-69.1-61.7l67.6-54H1463.6z M1086.3,1643v-93.4h47.5v-22.2H1046h-30.3h-87.8v22.2h47.5v93.4h23v-93.4h17.3h30.3h17.3v93.4H1086.3z
		 M1306.9,1549.6h54.3v-22.2H1306c-35,0-58.9,25.2-58.9,57.6c0,33.1,24,58.1,59.9,58.1h54.3v-22.2H1307c-22.9,0-36.7-15.8-36.7-35.9
		C1270.3,1565.2,1284.2,1549.6,1306.9,1549.6z M187.7,1643h23v-93.4h47.5v-22.2H140.2v22.2h47.5V1643z M1133.3,1643h-26.2
		l70.1-115.6h3.3l69.9,115.6h-26.2l-6.4-10.7h-78.1L1133.3,1643z M1152.6,1610.9h52.5l-26.2-43.9L1152.6,1610.9z M294.8,1643h-23
		v-115.6h82.7c27.8,0,47.4,21.2,47.4,45.6c0,15.5-7.9,29.6-20.6,38l19.7,32.1h-25.2l-15.1-24.7c-1.8,0.2-3.6,0.3-5.4,0.3h-60.5V1643
		z M294.8,1595.6h60.4c13,0,23.7-9.5,23.7-22.5c0-13.2-10.7-22.7-23.7-22.7h-60.4V1595.6z M74.4,1623c-32.7,0-50.2-13.2-50.2-13.2
		l-11.8,18.3c0,0,16.6,16.9,61.2,16.9c39.3,0,57.7-13.8,57.7-36.5c0-22.7-13.7-31.4-57.2-34.9c-30.8-3.3-37.5-6.6-37.5-14.3
		c0-5.4,3.6-11.8,33.4-11.8c28.8,0,44.7,12.2,44.7,12.2l13.7-19.2c0,0-15-15-57.6-15c-38.5,0-57.2,13.3-57.2,33.9
		c0,23,16.9,32.6,58.4,36.4c32.4,3,36.4,7.7,36.4,14.6C108.3,1617.4,102.8,1623,74.4,1623z"/>
	<path id="chang31ing" class="st0" d="M1127.4,1516v-115.6h-23V1516H1127.4z M393,1516h-26.2l70.1-115.6h3.3l69.9,115.6H484
		l-6.4-10.7h-78.1L393,1516z M412.3,1483.9h52.5l-26.2-43.9L412.3,1483.9z M720.9,1422.6h54.3v-22.2h-55.1
		c-35,0-58.9,25.2-58.9,57.6c0,33.1,24,58.1,59.9,58.1h57.6v-57.7h-20.9v35.5h-36.7c-22.9,0-36.7-15.8-36.7-35.9
		C684.4,1438.2,698.2,1422.6,720.9,1422.6z M844.4,1495.4c-27.8,0-41.5-12.5-41.5-12.5l-16.5,15.8c0,0,14,19.2,57.6,19.2
		c35.7,0,54.3-16.1,54.3-36.7c0-9.5-3.8-17.1-11.5-22.5c7.4-6.1,11.4-14.3,11.4-24.2c0-20.7-21.7-36.2-54.1-36.2
		c-25.5,0-43.1,5.4-57.2,15.6l12.8,18.4c9.9-6.7,25.7-10.9,42.9-10.9c19.7,0,28.1,7.2,28.1,14.8c0,7.4-3.9,13.5-21.4,13.5h-29.8
		v19.9h31.1c16.1,0,20.1,5.6,20.1,12.3C870.8,1489.4,864,1495.4,844.4,1495.4z M644.9,1516v-115.6h-23v72.1l-99.4-72.1h-3.3V1516h23
		V1444l99.4,72.1H644.9z M912.4,1493.8v22.2h184.2v-22.2h-40.8v-93.4H912.4v22.2h120.4v71.2H912.4z M143.5,1516h23v-46.4h171.6v46.4
		h23v-115.6h-23v47.9H166.5v-47.9h-23V1516z M1337.8,1482.9l-191.3-82.6h-3.3V1516h23v-82.6l191.3,82.6h3.3v-115.6h-23V1482.9z
		 M1433.6,1422.6h50.1v-22.2h-51c-35,0-58.9,25.2-58.9,57.6c0,33.1,24,58.1,59.9,58.1h53.4v-57.7h-20.9v35.5h-32.5
		c-22.9,0-36.7-15.8-36.7-35.9C1397,1438.2,1410.9,1422.6,1433.6,1422.6z M69.2,1422.6h61.3v-22.2H68.4c-35,0-58.9,25.2-58.9,57.6
		c0,33.1,24,58.1,59.9,58.1h61.3v-22.2H69.4c-22.9,0-36.7-15.8-36.7-35.9C32.7,1438.2,46.5,1422.6,69.2,1422.6z"/>
	<path id="r3ctifier" class="st0" d="M700.9,1389h23v-46.4h123v-21.4h-123v-25.7h163.2h80.6v71.2h-80.6v22.2h184.2v-22.2h-80.6
		v-71.2h80.6v-22.2H887.1H700.9V1389z M1267.5,1295.5v-22.2h-184.2V1389h184.2v-22.2h-161.2v-24.2h161.2v-21.4h-161.2v-25.7H1267.5z
		 M422.6,1389h54.3v-22.2h-54.3c-22.9,0-36.7-15.8-36.7-35.9c0-19.7,13.8-35.4,36.5-35.4h30.1h24.2h63v93.4h23v-93.4h87.2v-22.2
		H476.7h-24.2h-30.9c-35,0-58.9,25.2-58.9,57.6C362.7,1364,386.7,1389,422.6,1389z M660.1,1389h23v-115.6h-23V1389z M1467.8,1356.3
		l20.2,32.7h-25.2l-15.6-25.5c-4.4,0.8-9.4,1.2-14.5,1.2H1305v24.3h-23v-115.6h150.8c35.2,0,56.4,19.4,56.4,45.7
		C1489.1,1334.9,1481.4,1348,1467.8,1356.3z M1465.3,1319.1c0-13.5-9.4-22.7-32.6-22.7H1305v45.2h127.7
		C1455.9,1341.6,1465.3,1332.4,1465.3,1319.1z M149.5,1389h-25.2l-15.1-24.7c-1.8,0.2-3.6,0.3-5.4,0.3H35.4v24.3h-23v-115.6h90.6
		c27.8,0,47.4,21.2,47.4,45.6c0,15.5-7.9,29.6-20.6,38L149.5,1389z M127.3,1319.1c0-13.2-10.7-22.7-23.7-22.7H35.4v45.2h68.2
		C116.6,1341.6,127.3,1332.1,127.3,1319.1z M317.6,1366H207.9c-13.5,0-21.2-2-28.5-10.4l-17.6,13.2c0,0,11.4,20.2,37.2,20.2h119.3
		c19.4,0,34.7-13.7,34.7-33.1c0-9.2-4.3-17.1-11-22.7c7.1-5.8,10.9-14.5,10.9-24.7c0-19.7-15-35.2-36.4-35.2H199
		c-25.8,0-37.2,20.2-37.2,20.2l17.6,13.2c7.2-8.4,15-10.4,28.5-10.4h107.8c7.7,0,14.1,4.4,14.1,12.2c0,7.9-5.3,14-14.1,14H206.9
		v21.6h110.5c8.1,0,12.7,4.1,12.7,10.9C330.1,1361.2,326,1366,317.6,1366z"/>
	<path id="flightrush" class="st0" d="M1070.6,1146.3v64.2c0,26.7,21.9,53.1,61.7,53.1c40,0,61.5-26.5,61.5-53.1l0.2-64.2h-23v62.5
		c0,18.8-13.2,32.1-38.7,32.1c-25.3,0-38.7-13.3-38.7-32.1v-62.5H1070.6z M1036,1229.2l20.2,32.7h-25.2l-15.6-25.5
		c-4.4,0.8-9.4,1.2-14.5,1.2H877.6v24.3h-23v-115.6H1001c35.2,0,56.4,19.4,56.4,45.7C1057.4,1207.8,1049.7,1221,1036,1229.2z
		 M1033.5,1192.1c0-13.5-9.4-22.7-32.6-22.7H877.6v45.2H1001C1024.2,1214.6,1033.5,1205.4,1033.5,1192.1z M796.8,1262v-93.4h47.5
		v-22.2H726.2v22.2h47.5v93.4H796.8z M689.7,1194.2h-79.6v-47.9h-23V1262h23v-46.4h79.6v46.4h23v-115.6h-23V1194.2z M438.3,1169.4
		h130.8v-23H438.3c-43.9,0-67.3,23.2-67.3,57.9c0,34.4,23.4,57.7,67.3,57.7h130.8v-57.7h-20.9v34.7H438.3
		c-29.4,0-44.3-13.2-44.3-34.7C394.1,1182.4,408.9,1169.4,438.3,1169.4z M1487,1262v-115.6h-23v47.9h-90v-47.9h-23V1262h23v-46.4h90
		v46.4H1487z M362.2,1262v-115.6h-23V1262H362.2z M232.4,1146.3V1262h96.1v-22.2h-73v-93.4H232.4z M12.4,1262h23v-46.4h179.2v-21.4
		H35.4v-25.7h179.2v-22.2H12.4V1262z M1331.1,1227.4c0-22.7-13.7-31.4-57.2-34.9c-30.8-3.3-37.5-6.6-37.5-14.3
		c0-5.4,3.6-11.8,33.4-11.8c28.8,0,44.7,12.2,44.7,12.2l13.7-19.2c0,0-15-15-57.6-15c-38.5,0-57.2,13.3-57.2,33.9
		c0,23,16.9,32.6,58.4,36.4c32.4,3,36.4,7.7,36.4,14.6c0,7.1-5.4,12.7-33.9,12.7c-32.7,0-50.2-13.2-50.2-13.2l-11.8,18.3
		c0,0,16.6,16.9,61.2,16.9C1312.7,1263.9,1331.1,1250.1,1331.1,1227.4z"/>
	<path id="elevative" class="st0" d="M752.3,1019.3l-70,115.5H679l-69.9-115.5h26.1l45.4,75.9l45.5-75.9H752.3z M496.3,1134.8h93.6
		v-22.2h-70.5v-25h70.5v-21.4h-70.5v-24.8h70.5v-22.2h-93.6V1134.8z M12.4,1134.8h225.5v-22.2H35.4V1088h199.2v-21.4H35.4v-25.1
		h202.5v-22.2H12.4V1134.8z M273.4,1019.3h-23v115.5h234.1v-22.2H273.4V1019.3z M1487.3,1041.5v-22.2h-184.1v115.5h184.1v-22.2
		h-161.1v-24.2h161.1v-21.4h-161.1v-25.6H1487.3z M1239.2,1087.8l-29.6-68.5c-22.2,0-347.5,0-368.4,0v22.2h47.5v93.4h23v-93.4
		c18.8,0,137.4,0,155,0v71.2H959.2v22.2h238v-22.2h-107.5v-71.2h105.8l42,93.4h3.3l51.9-115.5h-24L1239.2,1087.8z M786.1,1019.3
		l69.9,115.5h-26.1l-6.4-10.7h-78.1l-6.4,10.7h-26.1l70-115.5H786.1z M810.6,1102.8l-26.1-43.9l-26.3,43.9H810.6z"/>
	<path id="Loophoof" class="st0" d="M271.3,1009.9c-47.5,0-70.7-27-70.7-59.7c0-32.7,23.4-59.9,70.7-59.9c32,0,52.9,12.6,63,31.1
		c9.8-18.1,30.3-29.1,60.5-29.1h99.5c43.9,0,67.3,23.4,67.3,57.7c0,34.7-23.4,57.9-67.3,57.9h-99.5c-30.1,0-50.6-11-60.4-29
		C324.3,997.4,303.4,1009.9,271.3,1009.9z M350.6,950.2c0,21.6,14.8,34.7,44.3,34.7h99.5c29.4,0,44.3-13,44.3-34.9
		c0-21.6-14.8-34.7-44.3-34.7h-99.5C365.4,915.3,350.6,928.3,350.6,950.2z M271.3,986.9c33.9,0,47-16.5,47-36.7
		c0-20.2-13.2-36.8-47.2-36.8c-34.5,0-47.5,16.6-47.5,36.8C223.6,970.4,236.6,986.9,271.3,986.9z M12.4,892.3v115.6h184.2v-22.2
		H35.4v-93.4H12.4z M572.5,892.3h171.8c35.2,0,56.4,19.4,56.4,45.7c0,26.2-21.2,45.6-56.4,45.6H595.5v24.3h-23V892.3z M595.5,960.6
		h148.8c23.2,0,32.6-9.2,32.6-22.5c0-13.5-9.4-22.7-32.6-22.7H595.5V960.6z M1212.7,890.3c46.9,0,70.1,27.1,70.1,59.9
		c0,33.1-23.2,59.7-70.1,59.7c-31,0-51.6-11.5-62.2-28.6c-10.5,17.1-29.4,28.6-51,28.6c-33.2,0-60-27-60-59.7
		c0-32.9,27-59.9,60-59.9c21.6,0,40.5,11.6,51,28.7C1161.1,901.9,1181.8,890.3,1212.7,890.3z M1136.4,950.2
		c0-20.2-16.6-36.8-37-36.8c-20.2,0-36.8,16.8-36.8,37c0,20.1,16.6,36.5,36.8,36.5C1119.7,986.9,1136.4,970.4,1136.4,950.2z
		 M1212.5,913.3c-34.5,0-47.5,16.6-47.5,36.8c0,20.2,13,36.7,47.7,36.7c33.9,0,47-16.5,47-36.7
		C1259.7,930,1246.6,913.3,1212.5,913.3z M1005.9,940.2H834.3v-47.9h-23v115.6h23v-46.4h171.6v46.4h23V892.3h-23V940.2z
		 M1295.6,1007.9h23v-46.4h168.5v-21.4h-168.5v-25.7h168.5v-22.2h-191.6V1007.9z"/>
	<path id="geekbrony" class="st0" d="M921.1,765.3c27.8,0,47.4,21.2,47.4,45.6c0,15.5-7.9,29.6-20.6,38l19.7,32.1h-25.2l-15.1-24.7
		c-1.8,0.2-3.6,0.3-5.4,0.3h-57v24.3h-23V765.3H921.1z M921.7,788.3h-56.9v45.2h56.9c13,0,23.7-9.5,23.7-22.5
		C945.4,797.8,934.7,788.3,921.7,788.3z M667.3,765.3l-63.2,47v-47h-23v115.6h23v-37.5l12-9.7l51.3,47.2h36.2l-69.1-61.7l67.6-54
		H667.3z M1345.2,880.9V765.3h-23v72.1l-99.4-72.1h-3.3v115.6h23v-72.1l99.4,72.1H1345.2z M180.3,880.9h184.2v-22.2H203.3v-24.2
		h161.2v-21.4H203.3v-25.7h161.2v-22.2H180.3V880.9z M709.5,765.3h85.5c19.7,0,35.7,16.1,35.7,35.7c0,9.9-4.6,19.6-14.1,25
		c4.3,4.9,6.9,10.9,6.9,19.4c0,19.4-16.1,35.5-35.9,35.5h-78.1V765.3z M732.6,813.6h62.5c7.1,0,12.7-5.9,12.7-12.7
		c0-6.7-5.8-12.7-12.7-12.7h-62.5V813.6z M732.6,857.9h55.1c6.9,0,12.7-5.9,12.7-12.7c0-6.7-5.8-12.7-12.7-12.7h-55.1V857.9z
		 M379,880.9h184.2v-22.2H402.1v-24.2h161.2v-21.4H402.1v-25.7h161.2v-22.2H379V880.9z M1141.3,765.3c43.9,0,67.3,23.4,67.3,57.7
		c0,34.7-23.4,57.9-67.3,57.9h-99.5c-43.9,0-67.3-23.4-67.3-57.7c0-34.7,23.4-57.9,67.3-57.9H1141.3z M1141.3,788.3h-99.5
		c-29.4,0-44.3,13-44.3,34.9c0,21.6,14.8,34.7,44.3,34.7h99.5c29.4,0,44.3-13,44.3-34.9C1185.6,801.5,1170.8,788.3,1141.3,788.3z
		 M9.1,822.8c0,33.1,24,58.1,59.9,58.1h95.8v-57.7H144v35.5H69c-22.9,0-36.7-15.8-36.7-35.9c0-19.7,13.8-35.4,36.5-35.4h92.5v-22.2
		H68C33,765.3,9.1,790.4,9.1,822.8z M1419.5,808.9l-39.3-43.6h-28.3l56.1,61.2v54.5h23v-54.5l55.9-61.2h-28.3L1419.5,808.9z"/>
	<path id="yourenigma" class="st0" d="M928.1,638.3v115.6h23V638.3H928.1z M810.2,681.9l99.4,72.1h3.3V638.3h-23v72.1l-99.4-72.1
		h-3.3v115.6h23V681.9z M254.1,638.3v55.9c0,34.4,25,59.7,70.6,59.7h32.2c45.6,0,70.6-25.3,70.6-59.7v-55.9h-23v55.9
		c0,21.6-16.5,36.7-47.5,36.7h-32.2c-31.1,0-47.5-15.1-47.5-36.7v-55.9H254.1z M64.4,753.9h23v-54.5l55.9-61.2h-28.3l-39.2,43.6
		l-39.3-43.6H8.3l56.1,61.2V753.9z M620.3,721.2l20.2,32.7h-25.2l-15.6-25.5c-4.4,0.8-9.4,1.2-14.5,1.2H461.9v24.3h-23V638.3h146.4
		c35.2,0,56.4,19.4,56.4,45.7C641.7,699.8,633.9,712.9,620.3,721.2z M617.8,684c0-13.5-9.4-22.7-32.6-22.7H461.9v45.2h123.4
		C608.5,706.5,617.8,697.3,617.8,684z M656.3,753.9h113.3v-22.2h-90.2V707h86.9v-21.4h-86.9v-25.2h90.2v-22.2H656.3V753.9z
		 M963.9,696.2c0,34.4,23.4,57.7,67.3,57.7h130.8v-57.7h-20.9v34.7h-109.9c-29.4,0-44.3-13.2-44.3-34.7c0-21.9,14.8-34.9,44.3-34.9
		h130.8v-23h-130.8C987.2,638.3,963.9,661.5,963.9,696.2z M185.4,636.3c33.1,0,59.9,27.1,59.9,59.9c0,32.9-26.8,59.7-59.9,59.7
		c-33.2,0-60-27-60-59.7C125.4,663.3,152.3,636.3,185.4,636.3z M148.4,696.3c0,20.1,16.6,36.5,36.8,36.5c20.4,0,37-16.5,37-36.7
		s-16.6-36.8-37-36.8C165,659.3,148.4,676.1,148.4,696.3z M1416.9,638.3l69.9,115.6h-26.2l-6.4-10.7h-78.1l-6.4,10.7h-16.9h-9.2h-14
		l-21.7-70.1l-44.1,70.1h-3.3l-44.4-70.2l-21.4,70.2h-23.2l34.4-115.6h6.7l49.5,76.5l49.4-76.5h6.7l31.5,105.5l63.9-105.5H1416.9z
		 M1441.4,721.8l-26.2-43.9l-26.3,43.9H1441.4z"/>
	<path id="john-kenza" class="st0" d="M346.2,511.2h-23v115.6h23v-46.4h171.6v46.4h23V511.2h-23v47.9H346.2V511.2z M1051.8,511.2
		v115.6h23v-65.5l69.9,65.5h3.3V511.2h-23v65.5l-69.9-65.5H1051.8z M853.1,626.9h184.2v-22.2H876.1v-24.2h161.2v-21.4H876.1v-25.7
		h161.2v-22.2H853.1V626.9z M727.7,511.2v115.6h23v-37.5l12-9.7l51.3,47.2h36.2l-69.1-61.7l67.6-54h-34.9l-63.2,47v-47H727.7z
		 M1422.1,511.2l69.9,115.6h-26.2l-6.4-10.7h-78.1l-6.4,10.7h-10h-16.1h-191.6v-2.3l134.1-90.3h-132.4v-23h203.3v1.8l-131.8,90.8
		h132.4l56.1-92.6H1422.1z M1446.6,594.8l-26.2-43.9l-26.3,43.9H1446.6z M68.4,587.7l-0.2-76.5h-23v76.5c0,8.9-6.6,16.1-15.5,16.1
		H12.4v23h17.4C51.6,626.9,68.4,609.3,68.4,587.7z M555.3,511.2v115.6h23v-72.1l99.4,72.1h3.3V511.2h-23v72.1l-99.4-72.1H555.3z
		 M312.3,569c0,34.7-23.4,57.9-67.3,57.9h-99.5c-43.9,0-67.3-23.4-67.3-57.7c0-34.7,23.4-57.9,67.3-57.9H245
		C289,511.2,312.3,534.6,312.3,569z M289.3,569c0-21.6-14.8-34.7-44.3-34.7h-99.5c-29.4,0-44.3,13-44.3,34.9
		c0,21.6,14.8,34.7,44.3,34.7H245C274.5,603.9,289.3,590.9,289.3,569z"/>
	<path id="seventh-element" class="st0" d="M924.5,384.2v115.6h61v-22.2h-38v-93.4H924.5z M499.2,499.9h3.3V384.2h-23v65.5
		l-69.9-65.5h-3.3v115.6h23v-65.5L499.2,499.9z M600.9,384.2v115.6h23v-46.4h50.2v46.4h23V384.2h-23v47.9h-50.2v-47.9H600.9z
		 M1142.5,499.9h3.3l31.6-65.1l17.9,65.1h23.2l-32.2-115.6h-9l-33.1,66.5l-33.1-66.5h-9l-32.2,115.6h23.2l17.9-65.1L1142.5,499.9z
		 M1375.6,449.7l-69.9-65.5h-3.3v115.6h23v-65.5l69.9,65.5h3.3V384.2h-23V449.7z M1436.3,499.9h23v-93.4h27.8v-22.2h-78.6v22.2h27.8
		V499.9z M1288.6,477.7h-39.6v-24.2h37.5v-21.4h-37.5v-25.7h39.6v-22.2h-62.7v115.6h62.7V477.7z M65.3,467.6
		c0-19.2-18.8-37.8-18.8-49.5c0-5.9,3.5-11,12.5-11h12.2v-22.9H54.6c-21.6,0-34.4,11.7-34.4,29.1c0,19.4,18.6,38.7,18.6,50.7
		c0,8.6-6.4,12.8-16.1,12.8H12.4v23h16C52.5,499.9,65.3,486.2,65.3,467.6z M245.3,452.8l-29.6-68.6h-9.2h-14.8H85.6v115.6h120.9
		v-22.2h-97.9V453h94.6v-21.4h-94.6v-25.2h93.1l42,93.4h3.3l52-115.6h-24L245.3,452.8z M725.7,499.9H910v-22.2H748.8v-24.2H910
		v-21.4H748.8v-25.7H910v-22.2H725.7V499.9z M993.7,499.9h72.6v-22.2h-49.6v-24.2h47.4v-21.4h-47.4v-25.7h49.6v-22.2h-72.6V499.9z
		 M512.4,406.4h27.8v93.4h23v-93.4H591v-22.2h-78.6V406.4z M302.9,499.9h89.6v-22.2h-66.5v-24.2h64.4v-21.4h-64.4v-25.7h66.5v-22.2
		h-89.6V499.9z"/>
	<path id="hollowpoint" class="st0" d="M1292.7,300.8l99.4,72.1h3.3V257.2h-23v72.1l-99.4-72.1h-3.3v115.6h23V300.8z M1436.3,372.9
		h23v-93.4h27.8v-22.2h-78.6v22.2h27.8V372.9z M563.1,315.1c0-32.9,27-59.9,60-59.9c33.1,0,59.9,27.1,59.9,59.9
		c0,32.9-26.8,59.7-59.9,59.7C589.9,374.8,563.1,347.8,563.1,315.1z M586.2,315.3c0,20.1,16.6,36.5,36.8,36.5
		c20.4,0,37-16.5,37-36.7c0-20.2-16.6-36.8-37-36.8C602.8,278.3,586.2,295,586.2,315.3z M722.5,372.9l32.4-69.8l32.4,69.8h9.7
		l32.2-115.6h-23.2l-17.9,65.1l-31.6-65.1h-3.3l-31.6,65.1l-17.9-65.1h-23.2l32.2,115.6H722.5z M863,372.9h-23V257.2h76
		c27.8,0,47.4,21.2,47.4,45.6c0,24.3-19.4,45.1-46.6,45.7H863V372.9z M863,325.5h53.6c13,0,23.7-9.5,23.7-22.5
		c0-13.2-10.7-22.7-23.7-22.7H863V325.5z M1255.6,257.2h-23v115.6h23V257.2z M972.5,315.1c0-34.7,23.4-57.9,67.3-57.9h111.5
		c43.9,0,67.3,23.4,67.3,57.7c0,34.7-23.4,57.9-67.3,57.9h-111.5C995.8,372.9,972.5,349.5,972.5,315.1z M995.5,315.1
		c0,21.6,14.8,34.7,44.3,34.7h111.5c29.4,0,44.3-13,44.3-34.9c0-21.6-14.8-34.7-44.3-34.7h-111.5
		C1010.3,280.2,995.5,293.2,995.5,315.1z M35.4,326.5h77v46.4h23V257.2h-23v47.9h-77v-47.9h-23v115.6h23V326.5z M565.6,350.6h-74.4
		v-93.4h-23v115.6h97.4V350.6z M148.2,315.1c0-32.7,23.4-59.9,70.7-59.9c46.9,0,70.1,27.1,70.1,59.9c0,33.1-23.2,59.7-70.1,59.7
		C171.4,374.8,148.2,347.8,148.2,315.1z M171.2,315.1c0,20.2,13,36.7,47.7,36.7c33.9,0,47-16.5,47-36.7c0-20.2-13.2-36.8-47.2-36.8
		C184.2,278.3,171.2,294.9,171.2,315.1z M459.3,350.6H324.9v-93.4h-23v115.6h157.5V350.6z"/>
	<path id="bronypalooza-2019" class="st1" d="M1094.3,117.9H998V2h23.1v93.7h73.2V117.9z M1231.9,246.9h59.8v-22.3H1255v-25.1h36.7
		v-21.4H1255v-24.9h36.7V131h-59.8V246.9z M762.3,117.9h-23.1V2h125.3c35.3,0,56.6,19.5,56.6,45.9c0,26.2-21.3,45.7-56.6,45.7H762.3
		V117.9z M762.3,70.4h102.2c23.3,0,32.7-9.2,32.7-22.6c0-13.5-9.4-22.8-32.7-22.8H762.3V70.4z M653.3,117.9h23.1V63.3L732.4,2h-28.4
		l-39.3,43.7L625.4,2H597l56.2,61.4V117.9z M1096.4,60c0-33,27-60,60.2-60c22.1,0,41.4,12.1,51.8,29.9c10.5-17.8,29.8-29.9,52-29.9
		c33.1,0,60,27.2,60,60c0,33-26.9,59.9-60,59.9c-22.2,0-41.5-12-51.9-29.8c-10.4,17.8-29.7,29.8-51.8,29.8
		C1123.3,119.9,1096.4,92.9,1096.4,60z M1223.3,60.2c0,20.1,16.7,36.6,36.9,36.6c20.5,0,37.1-16.5,37.1-36.8s-16.7-36.9-37.1-36.9
		C1239.9,23.1,1223.3,39.9,1223.3,60.2z M1119.5,60.2c0,20.1,16.7,36.6,36.9,36.6c20.5,0,37.1-16.5,37.1-36.8s-16.7-36.9-37.1-36.9
		C1136.2,23.1,1119.5,39.9,1119.5,60.2z M1363,25.1h-41.6V2h76.9L1355,94.8h32.7L1433.1,2h3.3l56.6,116h-24.6l-5.4-10.7h-56.6
		l-5.3,10.7h-4.6h-20h-56.7L1363,25.1z M1416.9,85.8h35.5L1434.7,46L1416.9,85.8z M816.4,246.9h23.1V131h-23.1V246.9z M1302.2,246.9
		h111.3v-22.3h-88.2v-24.7h84.9v-21.4h-84.9v-25.2h88.2V131h-111.3V246.9z M516.9,52.3l70.1,65.6h3.3V2h-23.1v65.6L497.1,2h-3.3v116
		h23.1V52.3z M1467.2,186.7l-39.8-55.7h-3.3v116h21.4v-55.7l39.7,55.7h3.3V131h-21.4V186.7z M1146.8,131H971.6v116h184.7v-22.3
		H994.7v-24.2h161.6V179H994.7v-25.7h152.1h9.5h18.3v93.7h23.1v-93.7h27.9V131h-69.3H1146.8z M273.3,246.9h105.9v-22.3h-82.8v-24.7
		h79.5v-21.4h-79.5v-25.2h82.8V131H273.3V246.9z M930.7,196.6L860.6,131h-3.3v116h23.1v-65.6l70.1,65.6h3.3V131h-23.1V196.6z
		 M683.8,171.7L657.4,131h-3.8h-22.9H486.8h-9.6h-13.5v65.6L393.6,131h-3.3v116h23.1v-65.6l70.1,65.6h3.3v-93.7h72.5v93.7h23.1
		v-93.7h63.4l26.5,39.1v54.6h23.1v-54.6l41.6-61.4h-26.7L683.8,171.7z M780.8,186.7L741,131h-3.3v116h21.4v-55.7l39.7,55.7h3.3V131
		h-21.4V186.7z M271,60C271,25.2,294.4,2,338.5,2h77c44,0,67.5,23.4,67.5,57.9c0,34.8-23.4,58.1-67.5,58.1h-77
		C294.4,117.9,271,94.5,271,60z M294.1,60c0,21.6,14.8,34.8,44.4,34.8h77c29.5,0,44.4-13,44.4-35c0-21.6-14.8-34.8-44.4-34.8h-77
		C309,25.1,294.1,38.1,294.1,60z M163.9,117.9h-23.1V2h73.3c27.9,0,47.5,21.3,47.5,45.7c0,15.5-7.9,29.7-20.6,38.1l19.8,32.2h-25.2
		l-15.2-24.7c-1.8,0.2-3.6,0.3-5.4,0.3h-51.1V117.9z M163.9,70.4h50.9c13,0,23.8-9.6,23.8-22.6c0-13.2-10.7-22.8-23.8-22.8h-50.9
		V70.4z M218.9,201.4L174.4,131h-3.3l-44.2,70.3L105.1,131H86.6h-4.8H7.8v22.3h27.9v93.7h23.1v-93.7h27.9V147l29.8,99.9h6.8
		l49.5-76.7l49.6,76.7h6.8l34.5-116h-23.3L218.9,201.4z M990.2,117.9H965l-2.8-11.9h-21.6l-2.6,11.9H913L948.2,2h6.6L990.2,117.9z
		 M957.7,86.6l-3.8-18.1l-2.5-19.8L949,68.4l-4,18.1H957.7z M85.3,117.9H7V2h85.8c19.8,0,35.8,16.2,35.8,35.8
		c0,9.9-4.6,19.6-14.2,25.1c4.3,4.9,6.9,10.9,6.9,19.5C121.3,101.8,105.1,117.9,85.3,117.9z M30.1,50.5h62.7
		c7.1,0,12.7-5.9,12.7-12.7s-5.8-12.7-12.7-12.7H30.1V50.5z M30.1,94.8h55.3c6.9,0,12.7-5.9,12.7-12.7c0-6.8-5.8-12.7-12.7-12.7
		H30.1V94.8z"/>
</g>
</svg>
