<svg
    width="345px"
    height="89px"
    viewBox="0 0 345 89"
    version="1.1"
    xmlns="http://www.w3.org/2000/svg"
    xmlns:xlink="http://www.w3.org/1999/xlink">
    <g>
      <path
        d="M32.747,25.377 C37.873,28.265 41.341,33.75 41.341,40.053 C41.341,49.355 33.8,56.895 24.498,56.895 L-3.12638804e-13,56.895 L-3.12638804e-13,47.708 L4.593,47.708 L4.593,10.961 L-3.12638804e-13,10.961 L-3.12638804e-13,1.774 L19.905,1.774 C28.361,1.774 35.216,8.629 35.216,17.086 C35.216,20.147 34.295,22.985 32.747,25.377 Z M24.498,47.708 C28.726,47.708 32.154,44.281 32.154,40.053 C32.154,35.825 28.726,32.397 24.498,32.397 L13.78,32.397 L13.78,47.708 L24.498,47.708 Z M13.78,10.961 L13.78,23.21 L19.905,23.21 C23.287,23.21 26.029,20.468 26.029,17.086 C26.029,13.703 23.287,10.961 19.905,10.961 L13.78,10.961 Z M94.931,14.023 C106.77,14.023 116.367,23.62 116.367,35.459 C116.367,47.298 106.77,56.895 94.931,56.895 C83.092,56.895 73.495,47.298 73.495,35.459 C73.495,35.038 73.508,34.619 73.532,34.204 C73.885,34.071 74.235,33.928 74.582,33.764 C79.262,31.561 82.285,26.817 82.285,21.679 C82.285,21.386 82.251,21.143 82.231,20.997 L82.227,20.969 C82.215,20.596 82.155,19.664 81.868,18.464 C85.484,15.68 90.014,14.023 94.931,14.023 Z M94.931,47.708 C101.696,47.708 107.18,42.224 107.18,35.459 C107.18,28.694 101.696,23.21 94.931,23.21 C88.166,23.21 82.682,28.694 82.682,35.459 C82.682,42.224 88.166,47.708 94.931,47.708 Z M155.766,47.708 L160.387,47.708 L160.387,56.895 L145.076,56.895 C145.076,56.895 142.014,56.895 143.058,53.869 C145.076,47.708 148.138,44.767 148.138,35.459 C148.138,26.272 144.025,23.21 138.951,23.21 C133.877,23.21 129.764,27.323 129.764,32.397 L129.764,47.708 L132.827,47.708 L132.827,56.895 L117.515,56.895 L117.515,47.708 L120.578,47.708 L120.578,23.21 L117.515,23.21 L117.515,14.023 L126.702,14.023 C128.199,14.023 129.444,15.099 129.71,16.519 C132.425,14.935 135.581,14.023 138.951,14.023 C149.099,14.023 157.325,20.148 157.325,35.459 C157.325,40.506 156.658,44.548 155.766,47.708 Z M183.354,14.023 L198.666,14.023 L198.666,66.082 C198.666,66.243 198.643,66.403 198.637,66.563 C198.394,69.01 196.471,75.114 192.027,76.394 C190.91,76.671 189.781,76.811 188.669,76.811 C183.724,76.811 179.34,74.126 175.477,70.762 C177.391,71.529 179.639,72.047 182.412,72.147 C186.36,71.842 189.479,68.577 189.479,64.551 L189.479,54.431 C186.776,55.995 183.64,56.895 180.292,56.895 C170.145,56.895 161.918,50.771 161.918,35.459 C161.918,30.413 162.252,26.37 162.698,23.21 L158.856,23.21 L158.856,14.023 L171.105,14.023 C171.105,14.023 173.828,14.053 173.123,17.05 C172.236,20.256 171.105,26.152 171.105,35.459 C171.105,44.646 175.218,47.708 180.292,47.708 C185.366,47.708 189.479,43.596 189.479,38.522 L189.479,23.21 L181.871,23.21 L183.354,14.023 Z M165.473,63.525 C171.588,69.781 180.594,81.29 192.509,78.337 C190.04,80.215 186.934,81.394 183.354,81.394 C171.019,81.394 165.785,76.325 161.811,72.02 L161.81,72.021 C160.699,73.24 160.022,74.862 160.022,76.642 C160.022,80.434 163.095,83.508 166.887,83.508 C167.382,83.508 167.863,83.45 168.328,83.351 C165.829,86.76 161.826,89 157.276,89 C149.692,89 143.545,82.852 143.545,75.269 C143.545,74.641 143.662,73.525 143.656,73.578 C148.954,65.177 157.153,68.121 158.748,68.817 C156.391,65.052 143.36,63.645 140.637,76.8 C140.585,76.289 140.482,75.794 140.482,75.269 C140.482,66.813 147.338,59.958 155.794,59.958 C156.435,59.958 157.066,60.001 157.686,60.078 C158.939,60.223 160.047,60.515 161.062,60.907 C161.083,60.915 161.105,60.922 161.126,60.929 C161.499,61.076 161.86,61.238 162.208,61.411 C162.51,61.553 162.806,61.702 163.097,61.863 C163.11,61.87 163.124,61.878 163.137,61.886 C163.973,62.353 164.743,62.916 165.473,63.525 Z M230.82,49.24 C237.585,49.24 243.552,45.857 247.149,40.699 L256.16,49.71 L249.664,56.206 L246.97,53.512 C242.352,56.612 236.802,58.427 230.82,58.427 C214.753,58.427 201.728,45.402 201.728,29.335 C201.728,13.268 214.753,0.243 230.82,0.243 C236.802,0.243 242.352,2.057 246.97,5.158 L249.664,2.464 L256.16,8.96 L247.149,17.971 C243.552,12.812 237.585,9.43 230.82,9.43 C219.827,9.43 210.915,18.342 210.915,29.335 C210.915,40.328 219.827,49.24 230.82,49.24 Z M243.835,51.877 C244.567,51.454 244.818,50.518 244.395,49.785 C243.972,49.053 243.036,48.802 242.303,49.225 C241.571,49.648 241.32,50.584 241.743,51.316 C242.166,52.049 243.102,52.3 243.835,51.877 Z M230.82,55.364 C231.665,55.364 232.351,54.679 232.351,53.833 C232.351,52.987 231.665,52.302 230.82,52.302 C229.974,52.302 229.289,52.987 229.289,53.833 C229.289,54.679 229.974,55.364 230.82,55.364 Z M219.897,51.316 C220.32,50.584 220.069,49.648 219.336,49.225 C218.604,48.802 217.668,49.053 217.245,49.785 C216.822,50.518 217.073,51.454 217.805,51.877 C218.537,52.3 219.474,52.049 219.897,51.316 Z M210.369,42.91 C211.102,42.487 211.353,41.551 210.93,40.818 C210.507,40.086 209.57,39.835 208.838,40.258 C208.106,40.681 207.855,41.617 208.278,42.349 C208.701,43.082 209.637,43.333 210.369,42.91 Z M206.322,30.866 C207.167,30.866 207.853,30.181 207.853,29.335 C207.853,28.489 207.167,27.804 206.322,27.804 C205.476,27.804 204.79,28.489 204.79,29.335 C204.79,30.181 205.476,30.866 206.322,30.866 Z M208.278,16.32 C207.855,17.052 208.106,17.989 208.838,18.412 C209.57,18.834 210.507,18.584 210.93,17.851 C211.353,17.119 211.102,16.182 210.369,15.76 C209.637,15.337 208.701,15.588 208.278,16.32 Z M217.805,6.793 C217.073,7.215 216.822,8.152 217.245,8.884 C217.668,9.617 218.604,9.867 219.336,9.445 C220.069,9.022 220.32,8.085 219.897,7.353 C219.474,6.621 218.537,6.37 217.805,6.793 Z M230.82,3.305 C229.974,3.305 229.289,3.991 229.289,4.837 C229.289,5.682 229.974,6.368 230.82,6.368 C231.665,6.368 232.351,5.682 232.351,4.837 C232.351,3.991 231.665,3.305 230.82,3.305 Z M241.743,7.353 C241.32,8.085 241.571,9.022 242.303,9.445 C243.036,9.867 243.972,9.617 244.395,8.884 C244.818,8.152 244.567,7.215 243.835,6.793 C243.102,6.37 242.166,6.621 241.743,7.353 Z M270.444,14.023 C282.283,14.023 291.88,23.62 291.88,35.459 C291.88,47.298 282.283,56.895 270.444,56.895 C265.477,56.895 260.905,55.205 257.27,52.37 L258.045,51.595 C259.086,50.554 259.086,48.866 258.045,47.825 L249.715,39.494 C249.715,39.494 249.317,39.142 249.216,38.448 C249.08,37.471 249.008,36.473 249.008,35.459 C249.008,23.62 258.606,14.023 270.444,14.023 Z M270.444,47.708 C277.209,47.708 282.693,42.224 282.693,35.459 C282.693,28.694 277.209,23.21 270.444,23.21 C263.679,23.21 258.195,28.694 258.195,35.459 C258.195,42.224 263.679,47.708 270.444,47.708 Z M48.997,29.335 C37.416,32.792 39.004,9.947 42.864,8.795 C44.9545335,8.17108848 49.7953739,12.9191906 52.1047705,18.2122162 C55.8652419,12.0288153 62.6667282,7.899 70.433,7.899 C70.433,7.899 68.282,8.7 67.37,10.961 C79.5725832,10.961 79.5642402,21.0491067 79.5640017,21.1255632 C79.573,21.313 79.619,21.49 79.619,21.679 C79.619,25.967 77.084,29.639 73.446,31.353 C73.456,31.188 73.495,31.033 73.495,30.866 C73.495,26.6561178 70.0963164,23.239394 65.8933092,23.2101886 C69.91,24.112 72.39,27.996 71.689,31.995 C70.8,32.244 69.872,32.397 68.901,32.397 C68.623,32.397 68.356,32.36 68.083,32.339 C68.589,31.448 68.901,30.432 68.901,29.335 C68.901,26.466 66.942,24.034 64.28,23.369 C60.799451,24.0890495 58.183,27.1722213 58.183,30.866 L58.183,47.708 L61.246,47.708 L61.246,56.895 L45.934,56.895 L45.934,47.708 L48.997,47.708 L48.997,29.335 C50.242,21.32 56.637,14.735 64.98,14.414 C67.837,14.304 70.445,14.631 72.742,15.506 C75.1660886,16.4277522 77.2438683,17.9595256 78.8959215,20.2482427 C77.7986635,18.8998715 78.0213564,19.1924573 79.564,21.126 L79.5640017,21.1255632 L79.564,21.126 C79.354117,20.8308026 79.1350029,20.5426503 78.9070778,20.2619668 C77.2863147,14.9349212 70.2118477,12.0931364 64.14,12.812 C55.654,13.817 49.218,20.844 48.997,29.335 Z M328.296,66.22 C329.128,73.034 334.869,78.331 341.908,78.331 C342.547,78.331 343.158,78.227 343.774,78.143 C341.455,83.651 336.01,87.518 329.659,87.518 C322.81,87.518 317.08,82.991 315.123,76.79 C314.657,78.248 314.347,79.777 314.347,81.394 L314.347,81.393 C293.737,58.35 327.286,46.318 317.481,23.686 C316.502,23.366 315.45,23.21 314.347,23.21 C309.274,23.21 305.16,27.323 305.16,32.397 L305.16,47.708 L308.223,47.708 L308.223,56.895 L292.911,56.895 L292.911,47.708 L295.974,47.708 L295.974,23.21 L292.911,23.21 L292.911,14.023 L302.098,14.023 C303.596,14.023 304.84,15.099 305.106,16.519 C307.821,14.935 310.977,14.023 314.347,14.023 C324.235,14.023 332.295,19.842 332.701,34.305 C332.713,34.671 332.721,35.052 332.721,35.459 C332.721,47.117 330.203,50.936 328.897,56.972 C328.439,59.084 328.128,61.463 328.128,64.551 C328.128,65.123 328.228,65.666 328.296,66.22 Z M318.924,48.665 C321.996,43.69 323.923,38.27 323.479,33.7 C323.159,30.399 322.352,27.831 320.353,25.801 C323.228,35.533 318.911,43.552 315.039,50.697 C311.339,57.524 308.007,63.683 310.264,70.917 C309.799,63.265 315.853,53.637 318.924,48.665 Z M340.177,61.125 C343.116,63.915 344.97,67.835 344.97,72.207 C344.97,74.315 344.541,76.316 343.774,78.143 C343.154,78.101 342.534,78.079 341.909,77.949 C338.169,77.176 335.14,74.938 333.224,71.973 C337.317,71.047 340.377,67.394 340.377,63.02 C340.377,62.37 340.305,61.737 340.177,61.125 Z"
        id="bronycon-logo-mono"
      />
    </g>
  </svg>