
<svg viewBox="0 0 366 227" version="1.1" xmlns="http://www.w3.org/2000/svg" xmlns:xlink="http://www.w3.org/1999/xlink">
    <g id="footer-map" transform="translate(-256.000000, -1405.000000)" fill-rule="nonzero">
        <g id="map-usa-location-baltimore" transform="translate(256.000000, 1405.000000)">
            <path d="M364.133203,28.1100686 C362.831287,27.9038505 362.515967,29.0112579 361.650191,28.1100686 C361.982306,26.6762846 361.033636,26.5209445 361.236265,25.2165204 C360.13752,25.2121904 358.87353,25.3724018 358.340411,24.8030017 C357.651257,20.3928575 355.898575,17.0457378 355.029547,12.8152902 C353.393891,12.7963463 352.630512,11.9048996 351.3053,11.5747341 C350.286198,12.485666 349.491396,13.6201361 347.995521,14.0553049 C346.82851,13.9806118 347.479197,12.09055 345.926434,12.4017715 C344.297821,16.3913607 341.398174,22.6996855 343.443422,27.69655 C342.380977,29.3906775 341.273021,31.0398809 341.374877,33.8971651 C339.889838,33.555092 339.372973,34.8297471 338.47794,33.8971651 C338.067807,35.1409686 338.172372,36.8989643 336.823321,37.204232 C332.532364,37.9636125 327.740254,39.8866908 323.168109,40.9248175 C320.977662,41.4222307 318.69782,41.0590487 316.961391,42.1648323 C314.954069,43.4438174 314.258956,46.3909499 312.823219,48.3654474 C311.82633,49.7369871 309.769704,49.9480765 310.340748,52.086033 C312.251633,52.7479876 311.892428,54.9628023 311.995909,56.2201373 C308.091789,61.8405272 300.828586,59.1028604 294.61645,62.0072337 C294.733476,63.9573748 295.980129,64.7789996 296.685537,66.141338 C291.352181,73.3519346 283.664216,78.210779 275.168988,82.2631538 C273.856779,80.5425047 269.69856,81.6650672 268.962271,79.3696056 C271.113709,77.312296 270.6987,71.6794572 273.927211,71.9284344 C273.527372,66.540784 272.819256,61.4605663 269.376197,59.1136855 C266.665092,59.4368146 267.035133,62.8386011 264.824098,63.6607672 C263.174897,63.9308533 263.638667,62.0889632 263.582321,60.7672189 C268.322962,59.5445243 265.143211,52.2365019 266.065333,50.0195221 C264.974173,50.1450933 264.998012,49.1562207 264.824098,48.3654474 C260.364645,48.3465035 256.551545,43.4010583 254.065824,47.95247 C253.701743,49.2807093 255.429503,48.5191638 255.307059,49.6060035 C253.875657,49.2785443 253.559794,50.0655288 252.824589,50.4324996 C252.511977,52.9487932 253.952049,54.647792 251.582812,54.9801225 C250.950546,52.9947998 253.340371,51.435986 251.582812,50.8460182 C247.781631,55.0012314 247.577919,59.4216595 247.031255,66.5543154 C251.644034,71.0104662 250.27277,82.1646454 244.134859,83.916146 C235.467885,76.1350668 240.326093,60.1231257 242.479699,51.2595369 C240.799074,53.3054801 239.065896,57.4893798 237.100291,57.8736707 C238.491601,53.8889528 241.013622,51.0349162 242.065773,46.7124552 C245.61123,47.6152683 247.628847,44.9452583 251.996196,43.8183658 C255.674391,44.4245712 258.923491,43.7858905 261.513777,43.4053883 C259.639734,43.0730579 259.132621,41.374059 259.44469,38.8577654 C257.235281,38.9200097 255.585538,40.5822033 253.651898,39.6848028 L253.651898,37.204232 C247.627221,37.8743054 244.503275,41.7551024 239.169377,40.9248175 C238.469929,37.5749915 233.731998,36.8892217 232.548734,38.444788 C233.184792,35.772613 235.346525,34.6256941 236.686907,32.6571503 C232.598037,32.7069457 231.157965,35.4013122 229.238412,37.6177507 C226.408656,39.2003797 223.118923,40.3229422 220.548683,42.1648323 C220.106043,40.6027709 218.094386,42.1799875 217.652287,41.3383362 C218.020161,40.4652922 218.911943,40.1167241 218.893522,38.8577654 C216.773508,38.075111 214.047775,42.2119215 211.031644,40.5118401 C214.048858,38.8382803 215.281967,35.0830544 218.065671,33.070669 C220.405109,31.3803302 223.808076,31.7099544 225.514707,28.9365647 C223.077205,28.4559305 219.192047,28.7666107 217.652287,27.2835725 C215.514394,29.4832321 211.189304,29.2542813 210.617718,26.4565352 C207.061425,27.5487874 204.057755,22.4804773 200.686754,25.6294978 C198.971996,25.0000185 197.699879,23.9294165 195.307887,23.9765056 C193.503735,22.747316 195.198446,18.0221615 191.997566,18.1888679 C191.048354,18.6186243 192.193693,21.1408717 191.169715,21.4959348 C129.88759,22.6401475 78.1512196,12.0429196 31.4480547,-5.68434189e-14 C33.3714002,3.02777942 31.6284699,6.68612069 32.2753642,9.0947046 C30.3059666,7.52939568 31.2844348,6.22551284 31.4480547,4.96060035 C29.7825999,4.67535906 30.4316613,6.70181708 28.9650426,6.6141338 C24.7098437,5.90508999 22.36878,3.28325169 19.034078,1.6540747 C18.7355531,5.50726771 18.3833912,11.9514475 20.2758549,14.881801 C19.5547358,14.8509495 18.9885678,14.9743556 18.6201523,15.2953197 C18.1780537,16.8395197 19.6479232,16.4736314 19.4480036,17.7753493 C17.7381223,18.8594827 17.1221099,20.9920266 19.034078,21.9094535 C17.7056151,21.547354 18.1764284,22.981138 17.3789172,23.1494683 C14.5058182,32.5429455 11.1505283,41.4541648 5.79333359,48.3654474 C5.90494182,50.820038 5.34202462,52.6002251 4.96548231,54.5666038 C7.44416007,60.9745195 1.9526021,66.0092718 0,70.6884196 C4.66912456,73.6512485 0.328323217,79.0989781 0.82785128,83.0896499 C1.04402449,84.816794 4.0005588,87.4283484 4.13817282,90.1173023 C4.27253612,92.7440119 4.52284194,93.5591417 6.20671745,95.0779027 C4.01735421,98.6187917 6.15470585,103.212963 8.6897295,104.585043 C8.46055339,106.010167 6.78751363,105.992306 6.62064309,107.479133 C6.78913899,112.909542 12.061273,117.221178 12.4134349,121.947957 C12.5765129,124.12759 10.4315763,125.705889 12.000051,127.735053 C19.2399572,127.529376 20.0255491,133.771668 25.2413372,135.589202 C25.4867669,136.907698 24.464414,136.867645 25.2413372,137.655712 C30.0599951,138.766909 31.7742107,142.979495 31.4480547,149.230447 C36.5218945,151.051228 43.5017427,150.967875 49.2408975,152.124536 C49.2354796,152.94562 48.1118124,152.650094 48.4130462,153.777528 C54.9193722,156.98338 61.0437379,161.415175 67.0337404,164.938744 C74.7525867,169.480954 83.8692447,170.586196 95.5848573,171.966937 C95.7956127,170.523411 95.7712322,168.845521 96.4121668,167.832833 C100.452276,168.481798 104.410034,169.213033 108.826143,169.486367 C111.691658,173.099784 113.875603,177.394099 118.343182,179.407567 C120.680454,181.903835 119.940372,184.617686 120.825653,188.088753 C121.997539,192.679135 127.820129,193.754067 131.584469,196.355879 C134.541545,194.487468 134.166628,189.290339 138.619037,188.915249 C147.381366,189.944716 151.664738,195.448736 153.101559,203.796509 C156.083557,205.364524 156.847477,209.148437 159.72166,210.824703 C157.895294,221.225455 169.627702,223.76394 176.687193,225.292444 C175.380944,219.788965 175.669175,214.346648 176.273809,208.344132 C183.256367,203.608152 191.765681,200.395805 197.376974,194.289368 C203.268371,189.369362 213.639809,193.014172 219.721373,193.048812 C219.486779,190.724123 216.953381,192.976284 216.411052,191.395279 C219.00513,188.995896 221.069882,193.025538 223.445079,193.462872 C223.538266,194.243903 222.979142,194.374345 223.031695,195.115864 C224.472308,195.743179 225.598142,196.685503 227.583252,196.769398 C228.60723,196.001357 229.138723,194.740775 230.893573,194.702887 C232.259961,195.525594 229.867969,196.467919 230.893573,196.769398 C234.174638,195.751839 231.630946,193.618212 234.203895,192.635294 C234.827492,194.601131 240.395442,197.222428 240.823996,194.289368 C239.663487,192.693208 236.233972,193.363823 235.44513,191.395279 C236.742169,190.306274 238.378367,189.940927 237.514216,186.848197 C235.677015,186.666877 236.490238,189.132834 234.203895,188.501731 C236.047598,183.581183 240.361309,184.203085 246.203404,183.954649 C247.019878,183.253724 246.358897,181.078421 247.859107,181.06056 C248.72705,181.742541 249.861011,184.086174 248.27249,184.781145 C255.111474,182.54901 265.072237,180.72011 268.547803,187.261716 C272.215163,186.955907 275.554741,185.444182 275.996298,183.128153 C283.079627,182.389881 282.625068,189.182629 288.409733,189.742287 C291.876089,192.563848 287.927542,200.262115 291.30667,202.970013 C292.320355,201.816058 290.989183,200.18634 291.30667,200.076465 C291.925934,200.146828 292.833428,199.928702 292.961831,200.489983 C293.132494,202.452032 291.399316,202.51157 291.30667,204.210028 C293.459734,206.606704 295.199955,209.414734 296.685537,212.477695 C297.855256,212.819227 297.757734,211.895305 298.754623,212.064718 C299.600353,213.42435 300.042994,215.186675 300.823168,216.611799 C304.457478,215.780973 306.005907,219.749995 307.030427,222.812414 C308.601069,222.303635 311.311632,220.766471 312.409293,221.158881 C311.858837,223.645947 307.716872,224.730621 307.857736,226.533 C310.740588,224.451875 313.387761,222.135846 314.064996,217.851814 C312.594043,217.209345 313.815232,219.255829 312.823219,219.091829 C315.949332,208.25699 309.972875,200.835845 306.202576,194.289368 C306.207993,193.467744 307.331661,193.763269 307.030427,192.635294 C300.769531,187.032224 294.16189,175.813635 297.927314,164.938744 C298.8023,162.410542 301.601716,160.991914 301.651019,158.325151 C305.591439,157.025057 306.617585,152.814636 309.926823,150.884521 C309.691687,145.412976 312.670435,143.152155 317.374775,142.616313 C317.007985,134.430916 327.475861,135.990813 327.719666,130.628601 C327.395677,131.354424 324.13845,131.858332 323.581493,130.628601 C325.30817,132.007177 326.467595,128.41108 324.82327,127.735053 C327.499158,128.503094 330.366839,127.303673 330.616603,124.427986 C329.955623,123.297846 328.091332,125.393043 327.30574,124.014467 C328.778318,124.107563 329.785501,123.73518 330.202678,122.774453 L329.995715,122.153633 L330.616603,122.360934 C328.859045,119.707162 327.45419,116.701032 326.064505,113.679748 C325.124504,113.683537 324.068018,113.570415 323.447129,113.892461 C325.090371,112.526875 321.546539,110.922055 322.340258,109.959704 C322.755809,109.95808 322.833284,110.294199 323.168109,110.373222 C322.928639,107.304849 322.008142,104.917915 319.857787,103.758547 C320.970619,104.043789 320.657466,102.904447 321.099023,102.518533 C318.225382,100.67989 317.777323,93.0119331 320.685639,92.5973319 C318.809429,94.326641 321.882989,96.3931519 319.857787,98.3849696 C321.71341,98.4093261 320.539898,98.9727723 320.685639,101.278518 C322.887463,101.421409 322.433987,104.216449 323.995418,104.998562 C324.601137,103.527973 322.665872,102.52178 323.581493,102.105014 C327.925003,103.630811 322.787232,109.67771 326.064505,112.026756 C326.88748,106.693231 330.719543,101.687706 328.546975,95.9043988 C325.646787,95.0822327 325.231236,91.7762483 323.581493,89.7037837 C324.704076,91.3383732 326.290972,92.5085661 328.960901,92.5973319 C329.13048,93.5932407 328.205649,93.4958149 328.546975,94.664384 C331.655752,91.7297004 334.110049,86.3252711 332.685148,80.1961016 C332.195914,79.1785426 331.122091,81.0426242 330.616603,79.782583 C331.459625,79.6613419 331.427659,78.6643505 332.271222,78.5425682 L332.064801,77.4265008 L332.685148,76.4755161 C335.608091,70.5763799 344.133659,70.2754422 349.236756,66.5543154 C349.753079,65.3137594 349.039003,64.486722 350.891916,64.0742858 C351.127594,65.4117265 350.766222,66.1537868 350.064065,66.5543154 C351.942984,65.5378388 352.846144,63.5465624 355.443473,63.2472485 C355.381709,61.1044207 354.800913,59.480115 352.547077,59.5266629 C352.743204,60.8467834 354.668717,60.4386773 354.616164,62.0072337 C351.034948,65.1746569 350.305702,58.161077 347.581595,59.1136855 C347.835693,55.4667106 347.368672,50.4758 349.236756,45.0583805 C351.540436,45.4556616 353.091032,42.939368 355.029547,41.7518549 C355.332948,40.3186122 354.577697,37.8304638 355.029547,37.6177507 C355.514989,38.2353224 356.749181,38.10488 356.684708,39.2712841 C355.704615,39.8942684 355.157409,39.8985984 355.857399,41.3383362 C357.940572,40.8420056 356.976732,38.0069129 358.340411,36.7912546 C358.224468,37.8710579 358.20063,38.8599304 359.581646,38.444788 C360.365612,36.0096826 359.081034,37.289209 358.753795,35.9642172 C361.873407,37.5051696 367.965265,31.2033399 364.133203,28.1100686" id="country" fill="#071318"></path>
            <g id="target" transform="translate(283.000000, 59.000000)">
                <path d="M30,30 L40,30 L40,40 L30,40 L30,30 Z M32,32 L32,38 L38,38 L38,32 L32,32 Z" id="frame" fill="#39FFF6"></path>
                <g id="lines" fill="#FFC30F">
                    <polygon id="line" transform="translate(55.000000, 35.000000) rotate(90.000000) translate(-55.000000, -35.000000) " points="56 50 54 50 54 20 56 20"></polygon>
                    <polygon id="line" transform="translate(15.000000, 35.000000) rotate(90.000000) translate(-15.000000, -35.000000) " points="16 50 14 50 14 20 16 20"></polygon>
                    <path d="M34,40 L36,40 L36,70 L34,70 L34,40 Z M36,40 L36,70 L34,70 L34,40 L36,40 Z" id="line"></path>
                    <path d="M34,-1.0658141e-14 L36,-1.0658141e-14 L36,30 L34,30 L34,-1.0658141e-14 Z M36,-1.0658141e-14 L36,30 L34,30 L34,-1.0658141e-14 L36,-1.0658141e-14 Z" id="line"></path>
                </g>
            </g>
        </g>
    </g>
</svg>