<svg width="310" height="270" viewBox="0 0 310 270" fill="none" xmlns="http://www.w3.org/2000/svg">
<rect x="64" y="89" width="180" height="100" rx="3" fill="#071318"/>
<rect x="74.1001" y="99.5" width="160" height="78.5" stroke="#FFC30F" stroke-width="3"/>
<line x1="155.6" y1="99.5" x2="155.6" y2="178" stroke="#39FFF6" stroke-opacity="0.25" stroke-width="3" stroke-linecap="round" stroke-dasharray="3 6"/>
<path d="M119.577 145V143.248H115.161V128.248H112.017L107.577 132.4L108.753 133.672L112.977 129.736H113.145V143.248H108.345V145H119.577Z" fill="#FFC30F"/>
<path d="M202.193 143.248H193.097L197.777 139.168C200.009 137.224 201.521 135.352 201.521 132.808C201.521 129.976 199.649 127.96 196.313 127.96C193.025 127.96 191.513 129.928 190.865 131.896L192.665 132.568C193.193 130.84 194.225 129.712 196.265 129.712C198.329 129.712 199.409 130.864 199.409 132.88V133.168C199.409 134.872 198.233 136.432 196.601 137.896L191.009 142.936V145H202.193V143.248Z" fill="#FFC30F"/>
<path d="M264.841 145V143.686H268.441V133.804L264.787 135.91L264.193 134.758L268.297 132.436H269.953V143.686H273.265V145H264.841ZM280.504 145.216C279.736 145.216 279.076 145.072 278.524 144.784C277.972 144.484 277.516 144.058 277.156 143.506C276.796 142.954 276.532 142.276 276.364 141.472C276.196 140.668 276.112 139.75 276.112 138.718C276.112 137.698 276.196 136.786 276.364 135.982C276.532 135.166 276.796 134.482 277.156 133.93C277.516 133.378 277.972 132.958 278.524 132.67C279.076 132.37 279.736 132.22 280.504 132.22C281.272 132.22 281.932 132.37 282.484 132.67C283.036 132.958 283.492 133.378 283.852 133.93C284.212 134.482 284.476 135.166 284.644 135.982C284.812 136.786 284.896 137.698 284.896 138.718C284.896 139.75 284.812 140.668 284.644 141.472C284.476 142.276 284.212 142.954 283.852 143.506C283.492 144.058 283.036 144.484 282.484 144.784C281.932 145.072 281.272 145.216 280.504 145.216ZM280.504 143.902C281.008 143.902 281.44 143.806 281.8 143.614C282.16 143.41 282.448 143.128 282.664 142.768C282.892 142.408 283.06 141.976 283.168 141.472C283.276 140.956 283.33 140.38 283.33 139.744V137.692C283.33 137.068 283.276 136.498 283.168 135.982C283.06 135.466 282.892 135.028 282.664 134.668C282.448 134.308 282.16 134.032 281.8 133.84C281.44 133.636 281.008 133.534 280.504 133.534C280 133.534 279.568 133.636 279.208 133.84C278.848 134.032 278.554 134.308 278.326 134.668C278.11 135.028 277.948 135.466 277.84 135.982C277.732 136.498 277.678 137.068 277.678 137.692V139.744C277.678 140.38 277.732 140.956 277.84 141.472C277.948 141.976 278.11 142.408 278.326 142.768C278.554 143.128 278.848 143.41 279.208 143.614C279.568 143.806 280 143.902 280.504 143.902ZM280.504 139.78C280.084 139.78 279.79 139.696 279.622 139.528C279.466 139.36 279.388 139.156 279.388 138.916V138.52C279.388 138.28 279.466 138.076 279.622 137.908C279.79 137.74 280.084 137.656 280.504 137.656C280.924 137.656 281.212 137.74 281.368 137.908C281.536 138.076 281.62 138.28 281.62 138.52V138.916C281.62 139.156 281.536 139.36 281.368 139.528C281.212 139.696 280.924 139.78 280.504 139.78ZM291.864 131.68H294.186L292.116 136.666H290.91L291.864 131.68Z" fill="#FFC30F"/>
<path d="M150.977 74H142.589V72.452L146.783 68.672C147.395 68.12 147.899 67.556 148.295 66.98C148.691 66.392 148.889 65.774 148.889 65.126V64.91C148.889 64.154 148.691 63.572 148.295 63.164C147.899 62.744 147.311 62.534 146.531 62.534C145.763 62.534 145.169 62.732 144.749 63.128C144.341 63.512 144.035 64.028 143.831 64.676L142.481 64.172C142.601 63.8 142.763 63.44 142.967 63.092C143.183 62.732 143.453 62.414 143.777 62.138C144.101 61.862 144.491 61.64 144.947 61.472C145.415 61.304 145.955 61.22 146.567 61.22C147.191 61.22 147.743 61.31 148.223 61.49C148.715 61.67 149.123 61.922 149.447 62.246C149.783 62.57 150.035 62.954 150.203 63.398C150.383 63.842 150.473 64.328 150.473 64.856C150.473 65.336 150.401 65.786 150.257 66.206C150.125 66.626 149.933 67.028 149.681 67.412C149.441 67.796 149.147 68.174 148.799 68.546C148.463 68.906 148.085 69.266 147.665 69.626L144.155 72.686H150.977V74ZM158.504 74.216C157.736 74.216 157.076 74.072 156.524 73.784C155.972 73.484 155.516 73.058 155.156 72.506C154.796 71.954 154.532 71.276 154.364 70.472C154.196 69.668 154.112 68.75 154.112 67.718C154.112 66.698 154.196 65.786 154.364 64.982C154.532 64.166 154.796 63.482 155.156 62.93C155.516 62.378 155.972 61.958 156.524 61.67C157.076 61.37 157.736 61.22 158.504 61.22C159.272 61.22 159.932 61.37 160.484 61.67C161.036 61.958 161.492 62.378 161.852 62.93C162.212 63.482 162.476 64.166 162.644 64.982C162.812 65.786 162.896 66.698 162.896 67.718C162.896 68.75 162.812 69.668 162.644 70.472C162.476 71.276 162.212 71.954 161.852 72.506C161.492 73.058 161.036 73.484 160.484 73.784C159.932 74.072 159.272 74.216 158.504 74.216ZM158.504 72.902C159.008 72.902 159.44 72.806 159.8 72.614C160.16 72.41 160.448 72.128 160.664 71.768C160.892 71.408 161.06 70.976 161.168 70.472C161.276 69.956 161.33 69.38 161.33 68.744V66.692C161.33 66.068 161.276 65.498 161.168 64.982C161.06 64.466 160.892 64.028 160.664 63.668C160.448 63.308 160.16 63.032 159.8 62.84C159.44 62.636 159.008 62.534 158.504 62.534C158 62.534 157.568 62.636 157.208 62.84C156.848 63.032 156.554 63.308 156.326 63.668C156.11 64.028 155.948 64.466 155.84 64.982C155.732 65.498 155.678 66.068 155.678 66.692V68.744C155.678 69.38 155.732 69.956 155.84 70.472C155.948 70.976 156.11 71.408 156.326 71.768C156.554 72.128 156.848 72.41 157.208 72.614C157.568 72.806 158 72.902 158.504 72.902ZM158.504 68.78C158.084 68.78 157.79 68.696 157.622 68.528C157.466 68.36 157.388 68.156 157.388 67.916V67.52C157.388 67.28 157.466 67.076 157.622 66.908C157.79 66.74 158.084 66.656 158.504 66.656C158.924 66.656 159.212 66.74 159.368 66.908C159.536 67.076 159.62 67.28 159.62 67.52V67.916C159.62 68.156 159.536 68.36 159.368 68.528C159.212 68.696 158.924 68.78 158.504 68.78ZM169.864 60.68H172.186L170.116 65.666H168.91L169.864 60.68Z" fill="#FFC30F"/>
</svg>
