<svg width="310" height="270" viewBox="0 0 310 270" fill="none" xmlns="http://www.w3.org/2000/svg">
<rect x="64" y="89" width="180" height="100" rx="3" fill="#071318"/>
<rect x="74.1001" y="99.5" width="160" height="78.5" stroke="#FFC30F" stroke-width="3"/>
<line x1="155.6" y1="99.5" x2="155.6" y2="178" stroke="#39FFF6" stroke-opacity="0.25" stroke-width="3" stroke-linecap="round" stroke-dasharray="3 6"/>
<path d="M119.577 145V143.248H115.161V128.248H112.017L107.577 132.4L108.753 133.672L112.977 129.736H113.145V143.248H108.345V145H119.577Z" fill="#FFC30F"/>
<path d="M202.193 143.248H193.097L197.777 139.168C200.009 137.224 201.521 135.352 201.521 132.808C201.521 129.976 199.649 127.96 196.313 127.96C193.025 127.96 191.513 129.928 190.865 131.896L192.665 132.568C193.193 130.84 194.225 129.712 196.265 129.712C198.329 129.712 199.409 130.864 199.409 132.88V133.168C199.409 134.872 198.233 136.432 196.601 137.896L191.009 142.936V145H202.193V143.248Z" fill="#FFC30F"/>
<path d="M273.265 145V143.686H269.953V132.436H267.595L264.265 135.55L265.147 136.504L268.315 133.552H268.441V143.686H264.841V145H273.265ZM280.504 145.216C283.564 145.216 284.896 142.822 284.896 138.718C284.896 134.614 283.564 132.22 280.504 132.22C277.444 132.22 276.112 134.614 276.112 138.718C276.112 142.822 277.444 145.216 280.504 145.216ZM280.504 143.902C278.488 143.902 277.678 142.264 277.678 139.744V137.692C277.678 135.172 278.488 133.534 280.504 133.534C282.52 133.534 283.33 135.172 283.33 137.692V139.744C283.33 142.264 282.52 143.902 280.504 143.902ZM280.504 139.78C281.332 139.78 281.62 139.402 281.62 138.916V138.52C281.62 138.034 281.332 137.656 280.504 137.656C279.676 137.656 279.388 138.034 279.388 138.52V138.916C279.388 139.402 279.676 139.78 280.504 139.78ZM293.178 136.666H294.384L296.454 131.68H294.132L293.178 136.666ZM288.858 136.666H290.064L292.134 131.68H289.812L288.858 136.666Z" fill="#FFC30F"/>
<path d="M150.977 72.686H144.155L147.665 69.626C149.339 68.168 150.473 66.764 150.473 64.856C150.473 62.732 149.069 61.22 146.567 61.22C144.101 61.22 142.967 62.696 142.481 64.172L143.831 64.676C144.227 63.38 145.001 62.534 146.531 62.534C148.079 62.534 148.889 63.398 148.889 64.91V65.126C148.889 66.404 148.007 67.574 146.783 68.672L142.589 72.452V74H150.977V72.686ZM158.504 74.216C161.564 74.216 162.896 71.822 162.896 67.718C162.896 63.614 161.564 61.22 158.504 61.22C155.444 61.22 154.112 63.614 154.112 67.718C154.112 71.822 155.444 74.216 158.504 74.216ZM158.504 72.902C156.488 72.902 155.678 71.264 155.678 68.744V66.692C155.678 64.172 156.488 62.534 158.504 62.534C160.52 62.534 161.33 64.172 161.33 66.692V68.744C161.33 71.264 160.52 72.902 158.504 72.902ZM158.504 68.78C159.332 68.78 159.62 68.402 159.62 67.916V67.52C159.62 67.034 159.332 66.656 158.504 66.656C157.676 66.656 157.388 67.034 157.388 67.52V67.916C157.388 68.402 157.676 68.78 158.504 68.78ZM171.178 65.666H172.384L174.454 60.68H172.132L171.178 65.666ZM166.858 65.666H168.064L170.134 60.68H167.812L166.858 65.666Z" fill="#FFC30F"/>
</svg>
