<svg width="32" height="32" viewBox="0 0 32 32" fill="none" xmlns="http://www.w3.org/2000/svg">
<path fill-rule="evenodd" clip-rule="evenodd" d="M19.6859 22.0693C18.2478 28.3238 22.6683 31.7378 28.1078 29.1026C35.4842 25.5286 31.0955 15.6681 25.5048 10.5871C25.7887 5.44744 23.3503 1.00126 16.7009 2.19616C12.7978 2.89496 11.1659 4.86867 10.8369 8.30666L7.78552 7.75188C7.00012 7.60786 6.16165 8.10929 5.89631 8.87743L1.12818 22.7041C0.769977 23.7363 1.18656 24.8271 2.07809 25.1232L12.941 28.7559C14.0157 29.116 15.1009 28.4145 15.3477 27.2089L18.5742 11.3339C18.7519 10.4644 18.139 9.63224 17.2209 9.46688L14.3208 8.93878C16.6505 6.53298 20.0415 7.95459 23.0743 10.8965C22.9112 13.1444 22.052 15.3607 21.2023 17.5524C20.6144 19.069 20.031 20.5738 19.6859 22.0693ZM24.6873 14.8938C24.8704 14.3337 25.0163 13.7629 25.141 13.1921C27.3513 16.0007 29.1078 19.4146 29.6783 22.2579C30.0471 24.0849 29.2883 26.8027 27.6379 28.171C24.7351 30.5768 22.6973 27.9256 22.1533 25.4851C21.5544 22.787 22.6729 20.0245 23.7241 17.428C24.0747 16.5619 24.4179 15.7143 24.6873 14.8938ZM13.6413 9.80588C13.6228 9.83427 13.6027 9.85752 13.5825 9.88091C13.559 9.90807 13.5353 9.93542 13.5139 9.97124C13.5166 10.0246 13.421 10.0806 13.291 10.1366C12.702 10.598 11.1126 10.9394 10.7783 10.7047C10.7544 10.2033 10.7597 9.7392 10.7703 9.28311L10.6987 9.26977C10.1998 9.17909 9.71161 9.46714 9.5471 9.9499C9.34279 10.5447 9.71692 11.1848 10.3325 11.2995L13.5298 11.8809C14.087 11.9823 14.6204 11.6089 14.7212 11.0488C14.822 10.4887 14.4532 9.95257 13.896 9.85122L13.6413 9.80588ZM13.4521 7.81776C13.4786 5.71069 13.8978 3.43559 16.0471 2.7448C18.7695 1.86729 21.659 4.72651 22.5187 6.95093C22.7416 7.52704 22.8716 8.10048 22.9645 8.67393C22.1923 8.21251 21.4228 7.84443 20.6905 7.64706C18.2441 6.99094 15.4952 6.87092 13.4521 7.81776Z" fill="black"/>
</svg>
