<svg width="36" height="36" viewBox="0 0 36 36" fill="none" xmlns="http://www.w3.org/2000/svg">
<path d="M24.6906 24.9743C23.7877 25.6957 22.6568 26.1099 21.4607 26.1099C20.1528 26.1099 18.9288 25.6073 17.9979 24.7695C17.0671 25.6073 15.8477 26.1099 14.5352 26.1099C13.3391 26.1099 12.2082 25.6957 11.3099 24.9743C10.4117 25.691 9.27604 26.1099 8.08457 26.1099C7.32594 26.1099 6.59058 25.9424 5.92969 25.6398L8.15904 35.5765H27.8322L30.0755 25.6352C29.3634 25.9563 28.6141 26.1146 27.9253 26.1146C26.7245 26.1099 25.5936 25.6957 24.6906 24.9743Z" fill="black"/>
<path d="M34.8877 16.4339C35.5718 15.7869 36 14.8747 36 13.8555C36 11.8961 34.4129 10.3136 32.4582 10.3136C32.3139 10.3136 32.1696 10.3229 32.03 10.3416C32.0998 10.067 32.137 9.77841 32.137 9.48054C32.137 7.52114 30.55 5.93872 28.5952 5.93872C28.3579 5.93872 28.1298 5.96199 27.9064 6.00853C27.9436 5.79909 27.9669 5.58035 27.9669 5.3616C27.9669 3.4022 26.3798 1.81978 24.4251 1.81978C23.229 1.81978 22.1678 2.41551 21.5302 3.32308C21.3952 1.46141 19.8593 0 17.9791 0C16.0708 0 14.5164 1.50795 14.4372 3.4022C13.8043 2.44344 12.7152 1.81047 11.4818 1.81047C9.52243 1.81047 7.94001 3.39754 7.94001 5.35229C7.94001 5.48727 7.94932 5.61758 7.96328 5.7479C7.47925 5.49657 6.93006 5.35695 6.34363 5.35695C4.38423 5.35695 2.80181 6.94402 2.80181 8.89877C2.80181 9.41073 2.91351 9.89942 3.10899 10.3369C1.35436 10.5557 0 12.045 0 13.8555C0 14.8701 0.428184 15.7869 1.11235 16.4339C0.428184 17.0808 0 17.993 0 19.0076C0 20.967 1.58707 22.5495 3.54182 22.5495C3.98862 22.5495 4.41681 22.4657 4.81241 22.3121C5.35229 23.5827 6.60892 24.4763 8.07498 24.4763C9.50847 24.4763 10.7465 23.6246 11.3003 22.3959C11.8588 23.6246 13.0922 24.4763 14.5257 24.4763C16.2244 24.4763 17.6393 23.2848 17.9884 21.6884C18.3374 23.2802 19.7523 24.4763 21.4511 24.4763C22.8892 24.4763 24.1272 23.6199 24.6811 22.3866C25.2349 23.6199 26.4729 24.4763 27.9111 24.4763C29.3771 24.4763 30.6384 23.5827 31.1736 22.3121C31.5692 22.4657 31.9974 22.5495 32.4442 22.5495C34.4036 22.5495 35.986 20.9624 35.986 19.0076C36 17.993 35.5718 17.0808 34.8877 16.4339Z" fill="black"/>
</svg>
