<svg width="24px" height="24px" viewBox="0 0 24 24" version="1.1" xmlns="http://www.w3.org/2000/svg" xmlns:xlink="http://www.w3.org/1999/xlink">
    <path d="M11.1531445,6.48541863 C11.8214114,6.22577611 12.5012002,6 13.2731637,6 C16.4071051,6 18.9995199,8.46095955 19.2645223,11.4750706 C19.6793087,11.3057385 20.1171387,11.215428 20.5780125,11.215428 C22.4791167,11.215428 24,12.7055503 24,14.5569144 C24,16.4082785 22.4791167,17.8984008 20.5780125,17.8984008 L11.1992319,17.8984008 C10.9803169,17.8758231 10.8305329,17.7064911 10.819011,17.4920038 L10.819011,6.89181562 C10.8305329,6.69990593 10.8881421,6.58701787 11.1531445,6.48541863 Z M8.68747,17.5710254 C8.61833893,17.8419567 8.37638022,17.9887112 8.15746519,17.9887112 C7.92702832,17.9887112 7.68506961,17.8419567 7.61593855,17.5710254 C7.29332693,16.3969897 7.12049928,14.7036689 7.12049928,14.2521167 C7.12049928,13.8231421 7.38550168,9.34148636 7.66202592,7.86265287 C7.69659145,7.65945437 7.92702832,7.46754468 8.15746519,7.46754468 C8.37638022,7.46754468 8.60681709,7.65945437 8.65290446,7.86265287 C8.91790687,9.34148636 9.18290927,13.8231421 9.18290927,14.2521167 C9.18290927,14.7036689 9.01008161,16.3969897 8.68747,17.5710254 Z M5.16178589,17.5258702 C5.05808929,17.8306679 4.85069611,18 4.59721555,18 C4.343735,18 4.12481997,17.8306679 4.03264522,17.5258702 C3.76764282,16.667921 3.56024964,14.7149577 3.56024964,14.3311383 C3.56024964,13.9473189 3.75612098,11.2831609 4.0787326,9.82690499 C4.13634181,9.58984008 4.37830053,9.44308561 4.59721555,9.44308561 C4.80460874,9.44308561 5.04656745,9.58984008 5.10417667,9.82690499 C5.42678829,11.2831609 5.62265963,13.9473189 5.62265963,14.3311383 C5.62265963,14.7149577 5.41526644,16.667921 5.16178589,17.5258702 Z M0.483917427,12.1749765 C0.576092175,11.8814675 0.829572732,11.7911571 1.03696591,11.7911571 C1.23283725,11.7911571 1.48631781,11.8814675 1.57849256,12.1749765 C1.87806049,13.0555033 2.06240999,14.1505174 2.06240999,14.4553151 C2.06240999,14.7601129 1.87806049,15.855127 1.57849256,16.7356538 C1.48631781,17.0291627 1.23283725,17.1081844 1.03696591,17.1081844 C0.829572732,17.1081844 0.576092175,17.0291627 0.483917427,16.7356538 C0.184349496,15.855127 0,14.7601129 0,14.4553151 C0,14.1505174 0.184349496,13.0555033 0.483917427,12.1749765 Z" id="soundcloud-icon"></path>
</svg>