<svg width="310" height="270" viewBox="0 0 310 270" fill="none" xmlns="http://www.w3.org/2000/svg">
<rect x="102" y="89" width="100" height="100" rx="3" fill="#071318"/>
<rect x="112.5" y="99.5" width="78" height="78" stroke="#FFC30F" stroke-width="3"/>
<path d="M158.577 145V143.248H154.161V128.248H151.017L146.577 132.4L147.753 133.672L151.977 129.736H152.145V143.248H147.345V145H158.577Z" fill="#FFC30F"/>
<path d="M141.841 74V72.686H145.441V62.804L141.787 64.91L141.193 63.758L145.297 61.436H146.953V72.686H150.265V74H141.841ZM157.504 74.216C156.736 74.216 156.076 74.072 155.524 73.784C154.972 73.484 154.516 73.058 154.156 72.506C153.796 71.954 153.532 71.276 153.364 70.472C153.196 69.668 153.112 68.75 153.112 67.718C153.112 66.698 153.196 65.786 153.364 64.982C153.532 64.166 153.796 63.482 154.156 62.93C154.516 62.378 154.972 61.958 155.524 61.67C156.076 61.37 156.736 61.22 157.504 61.22C158.272 61.22 158.932 61.37 159.484 61.67C160.036 61.958 160.492 62.378 160.852 62.93C161.212 63.482 161.476 64.166 161.644 64.982C161.812 65.786 161.896 66.698 161.896 67.718C161.896 68.75 161.812 69.668 161.644 70.472C161.476 71.276 161.212 71.954 160.852 72.506C160.492 73.058 160.036 73.484 159.484 73.784C158.932 74.072 158.272 74.216 157.504 74.216ZM157.504 72.902C158.008 72.902 158.44 72.806 158.8 72.614C159.16 72.41 159.448 72.128 159.664 71.768C159.892 71.408 160.06 70.976 160.168 70.472C160.276 69.956 160.33 69.38 160.33 68.744V66.692C160.33 66.068 160.276 65.498 160.168 64.982C160.06 64.466 159.892 64.028 159.664 63.668C159.448 63.308 159.16 63.032 158.8 62.84C158.44 62.636 158.008 62.534 157.504 62.534C157 62.534 156.568 62.636 156.208 62.84C155.848 63.032 155.554 63.308 155.326 63.668C155.11 64.028 154.948 64.466 154.84 64.982C154.732 65.498 154.678 66.068 154.678 66.692V68.744C154.678 69.38 154.732 69.956 154.84 70.472C154.948 70.976 155.11 71.408 155.326 71.768C155.554 72.128 155.848 72.41 156.208 72.614C156.568 72.806 157 72.902 157.504 72.902ZM157.504 68.78C157.084 68.78 156.79 68.696 156.622 68.528C156.466 68.36 156.388 68.156 156.388 67.916V67.52C156.388 67.28 156.466 67.076 156.622 66.908C156.79 66.74 157.084 66.656 157.504 66.656C157.924 66.656 158.212 66.74 158.368 66.908C158.536 67.076 158.62 67.28 158.62 67.52V67.916C158.62 68.156 158.536 68.36 158.368 68.528C158.212 68.696 157.924 68.78 157.504 68.78ZM168.864 60.68H171.186L169.116 65.666H167.91L168.864 60.68Z" fill="#FFC30F"/>
<path d="M218.841 147V145.686H222.441V135.804L218.787 137.91L218.193 136.758L222.297 134.436H223.953V145.686H227.265V147H218.841ZM234.504 147.216C233.736 147.216 233.076 147.072 232.524 146.784C231.972 146.484 231.516 146.058 231.156 145.506C230.796 144.954 230.532 144.276 230.364 143.472C230.196 142.668 230.112 141.75 230.112 140.718C230.112 139.698 230.196 138.786 230.364 137.982C230.532 137.166 230.796 136.482 231.156 135.93C231.516 135.378 231.972 134.958 232.524 134.67C233.076 134.37 233.736 134.22 234.504 134.22C235.272 134.22 235.932 134.37 236.484 134.67C237.036 134.958 237.492 135.378 237.852 135.93C238.212 136.482 238.476 137.166 238.644 137.982C238.812 138.786 238.896 139.698 238.896 140.718C238.896 141.75 238.812 142.668 238.644 143.472C238.476 144.276 238.212 144.954 237.852 145.506C237.492 146.058 237.036 146.484 236.484 146.784C235.932 147.072 235.272 147.216 234.504 147.216ZM234.504 145.902C235.008 145.902 235.44 145.806 235.8 145.614C236.16 145.41 236.448 145.128 236.664 144.768C236.892 144.408 237.06 143.976 237.168 143.472C237.276 142.956 237.33 142.38 237.33 141.744V139.692C237.33 139.068 237.276 138.498 237.168 137.982C237.06 137.466 236.892 137.028 236.664 136.668C236.448 136.308 236.16 136.032 235.8 135.84C235.44 135.636 235.008 135.534 234.504 135.534C234 135.534 233.568 135.636 233.208 135.84C232.848 136.032 232.554 136.308 232.326 136.668C232.11 137.028 231.948 137.466 231.84 137.982C231.732 138.498 231.678 139.068 231.678 139.692V141.744C231.678 142.38 231.732 142.956 231.84 143.472C231.948 143.976 232.11 144.408 232.326 144.768C232.554 145.128 232.848 145.41 233.208 145.614C233.568 145.806 234 145.902 234.504 145.902ZM234.504 141.78C234.084 141.78 233.79 141.696 233.622 141.528C233.466 141.36 233.388 141.156 233.388 140.916V140.52C233.388 140.28 233.466 140.076 233.622 139.908C233.79 139.74 234.084 139.656 234.504 139.656C234.924 139.656 235.212 139.74 235.368 139.908C235.536 140.076 235.62 140.28 235.62 140.52V140.916C235.62 141.156 235.536 141.36 235.368 141.528C235.212 141.696 234.924 141.78 234.504 141.78ZM245.864 133.68H248.186L246.116 138.666H244.91L245.864 133.68Z" fill="#FFC30F"/>
</svg>
