<svg width="310" height="270" viewBox="0 0 310 270" fill="none" xmlns="http://www.w3.org/2000/svg">
<path d="M266.977 142.686H260.155L263.665 139.626C265.339 138.168 266.473 136.764 266.473 134.856C266.473 132.732 265.069 131.22 262.567 131.22C260.101 131.22 258.967 132.696 258.481 134.172L259.831 134.676C260.227 133.38 261.001 132.534 262.531 132.534C264.079 132.534 264.889 133.398 264.889 134.91V135.126C264.889 136.404 264.007 137.574 262.783 138.672L258.589 142.452V144H266.977V142.686ZM274.504 144.216C277.564 144.216 278.896 141.822 278.896 137.718C278.896 133.614 277.564 131.22 274.504 131.22C271.444 131.22 270.112 133.614 270.112 137.718C270.112 141.822 271.444 144.216 274.504 144.216ZM274.504 142.902C272.488 142.902 271.678 141.264 271.678 138.744V136.692C271.678 134.172 272.488 132.534 274.504 132.534C276.52 132.534 277.33 134.172 277.33 136.692V138.744C277.33 141.264 276.52 142.902 274.504 142.902ZM274.504 138.78C275.332 138.78 275.62 138.402 275.62 137.916V137.52C275.62 137.034 275.332 136.656 274.504 136.656C273.676 136.656 273.388 137.034 273.388 137.52V137.916C273.388 138.402 273.676 138.78 274.504 138.78ZM287.178 135.666H288.384L290.454 130.68H288.132L287.178 135.666ZM282.858 135.666H284.064L286.134 130.68H283.812L282.858 135.666Z" fill="#FFC30F"/>
<path d="M154.977 28.686H148.155L151.665 25.626C153.339 24.168 154.473 22.764 154.473 20.856C154.473 18.732 153.069 17.22 150.567 17.22C148.101 17.22 146.967 18.696 146.481 20.172L147.831 20.676C148.227 19.38 149.001 18.534 150.531 18.534C152.079 18.534 152.889 19.398 152.889 20.91V21.126C152.889 22.404 152.007 23.574 150.783 24.672L146.589 28.452V30H154.977V28.686ZM162.504 30.216C165.564 30.216 166.896 27.822 166.896 23.718C166.896 19.614 165.564 17.22 162.504 17.22C159.444 17.22 158.112 19.614 158.112 23.718C158.112 27.822 159.444 30.216 162.504 30.216ZM162.504 28.902C160.488 28.902 159.678 27.264 159.678 24.744V22.692C159.678 20.172 160.488 18.534 162.504 18.534C164.52 18.534 165.33 20.172 165.33 22.692V24.744C165.33 27.264 164.52 28.902 162.504 28.902ZM162.504 24.78C163.332 24.78 163.62 24.402 163.62 23.916V23.52C163.62 23.034 163.332 22.656 162.504 22.656C161.676 22.656 161.388 23.034 161.388 23.52V23.916C161.388 24.402 161.676 24.78 162.504 24.78ZM175.178 21.666H176.384L178.454 16.68H176.132L175.178 21.666ZM170.858 21.666H172.064L174.134 16.68H171.812L170.858 21.666Z" fill="#FFC30F"/>
<rect x="64" y="45" width="180" height="180" rx="3" fill="#071318"/>
<rect x="74.5" y="54.5" width="160" height="160" stroke="#FFC30F" stroke-width="3"/>
<line x1="156" y1="54.5" x2="156" y2="214.5" stroke="#39FFF6" stroke-opacity="0.25" stroke-width="3" stroke-linecap="round" stroke-dasharray="3 6"/>
<line x1="74.5" y1="133" x2="234.5" y2="133" stroke="#39FFF6" stroke-opacity="0.25" stroke-width="3" stroke-linecap="round" stroke-dasharray="3 6"/>
<path d="M119.577 103V101.248H115.161V86.248H112.017L107.577 90.4L108.753 91.672L112.977 87.736H113.145V101.248H108.345V103H119.577Z" fill="#FFC30F"/>
<path d="M202.193 101.248H193.097L197.777 97.168C200.009 95.224 201.521 93.352 201.521 90.808C201.521 87.976 199.649 85.96 196.313 85.96C193.025 85.96 191.513 87.928 190.865 89.896L192.665 90.568C193.193 88.84 194.225 87.712 196.265 87.712C198.329 87.712 199.409 88.864 199.409 90.88V91.168C199.409 92.872 198.233 94.432 196.601 95.896L191.009 100.936V103H202.193V101.248Z" fill="#FFC30F"/>
<path d="M110.937 172.352V174.08H112.929C115.377 174.08 116.625 175.232 116.625 177.2V177.392C116.625 179.384 115.305 180.536 112.953 180.536C110.841 180.536 109.857 179.6 108.969 178.28L107.457 179.432C108.489 180.872 110.001 182.288 112.953 182.288C116.433 182.288 118.737 180.296 118.737 177.416C118.737 174.896 116.985 173.552 115.137 173.192V173.096C116.961 172.64 118.401 171.344 118.401 169.184C118.401 166.472 116.121 164.96 113.265 164.96C110.529 164.96 109.041 166.352 108.177 167.696L109.689 168.848C110.385 167.576 111.441 166.712 113.217 166.712C115.041 166.712 116.289 167.624 116.289 169.4V169.568C116.289 171.176 115.113 172.352 112.785 172.352H110.937Z" fill="#FFC30F"/>
<path d="M200.297 182V178.712H202.793V177.056H200.297V165.248H197.369L190.121 176.936V178.712H198.377V182H200.297ZM198.281 166.808H198.377V177.056H191.921L198.281 166.808Z" fill="#FFC30F"/>
</svg>
