<svg width="32" height="32" viewBox="0 0 32 32" fill="none" xmlns="http://www.w3.org/2000/svg">
<path d="M1.5 29.8183C0.927294 29.8183 0.504833 29.1637 0.642296 28.5484L5.20286 7.5L8.5 24.9388H6.12635L5.20286 29.0739C5.10544 29.5096 4.75148 29.8183 4.34515 29.8183H1.5Z" fill="black"/>
<path fill-rule="evenodd" clip-rule="evenodd" d="M23.3736 3C23.7781 3 24.131 3.34658 24.2301 3.77988C24.2324 3.79029 24.2552 3.88949 24.296 4.06687C24.9355 6.85176 30 28.9054 30 29.0739C30 29.6128 29.6044 30 29.1165 30H26.27C25.8718 30 25.5229 29.7378 25.4178 29.3137L24.2097 24.4699H14.6646L15.512 28.8536C15.6283 29.4595 15.2095 30 14.6478 30H11.8026C11.3816 30 11.0191 29.7217 10.9364 29.2658L6.37906 4.21084C6.26922 3.6061 6.68903 3 7.24513 3H23.3736ZM19.0307 16.7301L18.7197 15.486H12.5005C12.0416 15.486 11.6416 15.1737 11.5303 14.7286L11.0303 12.7286C10.8726 12.0974 11.3499 11.486 12.0005 11.486H17.7197L17.5039 10.6228C17.3971 10.1956 17.8547 9.8489 18.237 10.0674L22.9422 12.7561C23.5552 13.1063 23.622 13.9642 23.0708 14.4052L19.8281 16.9993C19.5437 17.2269 19.1191 17.0836 19.0307 16.7301Z" fill="black"/>
<path d="M19.5615 29.6636H17.208L17.2069 29.6469C17.1875 29.3375 17.0195 28.557 16.5 26H21L20.4291 28.8536C20.3492 29.3132 19.9852 29.6636 19.5615 29.6636Z" fill="black"/>
</svg>
