<svg width="311" height="69" viewBox="0 0 311 69" fill="none" xmlns="http://www.w3.org/2000/svg">
<title>Signature of Eliana Summers</title>
<path d="M252.783 52.9204C252.783 53.1101 252.783 53.2996 252.783 53.2996C252.783 53.4892 252.972 53.6789 252.972 53.8685C253.162 53.6789 253.351 53.6789 253.541 53.4893C253.92 52.9204 254.3 52.5412 254.679 51.9723C257.333 48.5592 259.799 44.9563 261.695 40.9744C262.074 40.2159 262.264 39.6471 262.453 38.8886C262.453 38.699 262.453 38.5093 262.453 38.1301C262.264 38.1301 261.884 38.1301 261.695 38.3198C260.367 39.2679 259.04 40.2159 257.902 41.3536C254.868 44.7668 253.162 48.5592 252.783 52.9204ZM157.594 52.1619C157.594 47.4214 156.267 44.1979 154.56 41.164C153.991 40.4056 153.991 40.216 153.422 41.164C150.199 45.5253 146.407 49.128 142.235 52.5412C141.666 52.9204 141.666 53.2996 142.045 54.0581C143.562 56.5231 145.458 58.6089 147.923 60.3155C148.682 60.8843 149.63 61.2636 150.578 61.6428C152.664 62.4013 153.802 62.022 155.129 59.9362C156.646 57.2816 157.594 54.2477 157.594 52.1619ZM150.578 23.7191C150.389 27.3218 151.337 31.4934 153.422 35.2858C153.612 35.665 153.991 36.0443 154.181 36.4236C154.37 36.0443 154.75 35.8547 154.939 35.4755C157.973 30.735 160.059 25.4256 161.576 20.1163C162.524 17.0824 163.283 14.0485 163.472 11.0146C163.662 8.54957 163.283 6.27415 161.766 4.37796C160.438 2.67139 158.921 2.48184 157.215 3.61955C156.267 4.18841 155.508 5.13641 154.939 5.89489C154.181 6.84298 153.612 8.1704 153.043 9.30812C151.526 13.2901 150.578 18.0305 150.578 23.7191ZM142.993 39.0782C144.321 39.0782 145.458 39.0782 146.786 39.0782C147.923 39.0782 148.303 39.4574 148.303 40.0263C148.303 40.5951 147.734 40.9744 146.786 40.9744C144.51 40.9744 142.235 40.9744 139.959 40.9744C138.063 40.9744 137.494 41.5433 137.874 43.4395C138.253 45.9045 139.201 48.3696 140.339 50.645C140.528 51.0242 140.718 51.2138 141.097 50.8346C141.287 50.6449 141.476 50.6449 141.476 50.4553C145.458 47.2318 149.061 43.4395 152.285 39.2679C152.664 38.699 153.043 38.1301 152.474 37.3717C147.923 29.7869 147.734 21.4437 149.82 13.1005C150.389 10.4458 151.337 7.98074 152.664 5.70531C153.612 3.99874 154.75 2.48182 156.456 1.3441C159.111 -0.362464 161.576 0.016727 163.472 2.48177C164.8 3.99872 165.368 5.70527 165.558 7.79107C165.937 10.4457 165.558 13.1004 164.8 15.7551C162.903 23.5295 160.249 30.9246 155.887 37.5612C155.508 38.3197 155.508 38.699 155.887 39.4574C157.594 42.1121 158.921 44.9564 159.301 47.9903C159.49 49.5072 159.49 51.2139 159.49 52.9204C159.49 53.1101 159.49 53.4892 159.49 53.6788C159.68 53.4892 159.869 53.2996 160.059 53.11C161.766 49.5072 163.472 45.7149 165.179 42.1121C166.127 40.0263 167.075 37.9405 168.023 35.8547C168.592 34.717 168.971 34.5273 169.73 34.717C170.298 34.9066 170.488 35.6651 170.109 36.6131C168.971 39.2678 167.833 42.1121 166.696 44.7667C165.368 47.9902 164.231 51.4035 163.662 54.8166C163.472 55.7647 163.662 56.7128 163.851 57.6609C163.851 58.2298 164.42 58.4193 164.989 58.2297C165.558 57.8505 166.127 57.4712 166.696 57.0919C167.644 55.9542 168.782 54.6269 169.54 53.2996C171.247 50.2657 172.953 47.2319 174.66 44.3876C175.797 42.3018 176.935 40.2159 178.073 38.1301C178.262 37.7508 178.452 37.3716 178.831 36.9924C179.021 36.8028 179.59 36.8028 179.969 36.8028C180.159 36.9925 180.538 37.3717 180.538 37.7509C180.538 38.1302 180.348 38.5093 180.159 39.0782C178.452 42.6809 176.746 46.4734 175.229 50.0761C174.28 52.3516 173.332 54.6269 173.143 57.0919C173.143 57.8504 173.143 58.6089 173.332 59.3674C173.522 60.3155 174.091 60.6948 174.849 60.1259C175.608 59.5571 176.556 58.9882 177.125 58.2297C178.642 56.3335 180.159 54.4374 181.676 52.5412C183.382 50.0761 184.899 47.4215 186.606 44.9564C187.554 43.6291 188.502 42.3017 189.45 40.9744C189.64 40.5951 190.019 40.2159 190.398 40.0263C190.967 39.4574 191.725 38.8886 192.674 39.2679C193.622 39.6471 193.811 40.5951 193.622 41.3536C193.432 43.2498 193.053 45.146 192.674 46.8526C192.484 47.8007 192.294 48.7488 192.105 49.6969C192.105 49.8865 192.105 50.0761 192.105 50.2657C192.294 50.0761 192.484 49.8865 192.484 49.6969C193.622 47.9903 194.759 46.0942 196.087 44.3876C197.035 43.2499 197.983 42.1121 199.121 41.164C199.5 40.7848 200.069 40.4056 200.637 40.216C201.775 39.6471 202.913 40.0263 203.292 41.3536C203.482 42.4913 203.482 43.629 203.482 44.7667C203.482 45.7148 203.292 46.6629 203.103 47.611C203.103 47.8006 203.102 47.8007 203.292 47.9903L203.482 47.8007C203.671 47.4215 203.861 47.0422 204.051 46.8526C205.188 45.3357 206.326 44.0083 207.464 42.681C207.653 42.3017 208.033 42.1121 208.412 41.7329C209.929 40.7848 211.256 41.3537 211.256 43.0602C211.256 44.7668 211.066 46.4733 210.877 47.9903C210.308 50.6449 209.739 53.1101 209.17 55.7647C208.981 56.9024 208.981 58.0401 208.981 59.3674C208.981 59.9363 209.17 60.6948 209.55 61.074C210.118 61.4532 210.877 60.8844 211.446 60.5052C211.825 60.1259 212.394 59.9363 212.773 59.3674C214.1 57.8504 215.617 56.3335 216.755 54.6269C218.651 51.593 220.358 48.5592 222.064 45.3357C223.202 43.2499 224.529 41.164 225.667 39.0782C226.046 38.5093 226.615 37.9405 227.184 37.3717C228.132 36.6132 229.27 36.9924 229.46 38.1301C229.649 38.8885 229.649 39.647 229.649 40.4055C229.27 43.4394 228.891 46.2837 228.322 49.3176C228.322 49.5072 228.322 49.8865 228.322 50.0761C228.511 49.8865 228.701 49.6968 228.891 49.5072C230.028 47.9902 230.976 46.4733 232.114 45.146C233.062 44.0083 234.39 42.8705 235.527 41.9225C236.475 41.164 237.613 40.7848 238.751 41.3536C239.889 41.9225 240.078 43.0603 240.078 44.3876C240.078 45.3357 239.889 46.2837 239.889 47.4214C239.889 47.6111 239.889 47.8007 240.078 47.9903C240.268 47.9903 240.268 47.8007 240.457 47.8007C241.026 47.0422 241.595 46.2837 242.354 45.5253C242.922 44.9564 243.681 44.1979 244.439 43.8186C246.146 42.8705 247.473 43.6291 247.473 45.5253C247.473 46.663 247.284 47.9903 246.904 49.1281C246.336 50.8346 245.767 52.5411 245.198 54.2477C244.819 55.3854 244.629 56.3335 244.25 57.4712C244.25 57.6608 244.06 58.0401 244.06 58.2297C244.06 58.9882 244.06 59.9363 244.629 60.5052C245.388 61.074 246.146 60.6948 246.904 60.1259C248.232 59.1778 249.369 58.2297 250.697 57.2816C251.266 56.9024 251.266 56.3336 251.266 55.7647C250.507 47.9903 253.92 42.1121 259.799 37.3717C260.557 36.8028 261.695 36.2339 262.643 36.0443C264.16 35.6651 265.108 36.4236 265.108 37.9405C265.108 39.0782 264.729 40.0263 264.349 41.164C263.401 43.0602 262.453 44.9564 261.315 46.8526C259.23 49.8865 256.954 52.9204 254.679 55.9543C254.3 56.3335 253.731 56.7127 254.11 57.4712C254.489 58.0401 255.248 58.2297 256.006 58.04C257.144 57.8504 258.092 57.2816 258.85 56.3335C260.367 54.4374 262.074 52.5411 263.401 50.4553C264.918 48.1799 266.435 45.9045 267.952 43.6291C268.711 42.3017 269.659 41.164 270.417 39.8367C271.176 38.699 271.934 38.1301 273.261 38.1301C274.968 38.1301 276.864 37.9405 278.571 38.1301C280.277 38.3197 280.846 39.2678 280.088 40.7848C279.898 41.3536 279.519 41.9225 279.14 42.4914C277.623 44.7668 276.106 46.8526 274.778 49.1281C274.02 50.4554 273.451 51.7827 272.882 53.11C272.503 54.4373 272.882 54.8166 274.21 54.4374C274.778 54.2477 275.347 54.0581 275.916 53.6788C276.675 53.11 277.433 52.7308 278.192 51.9723C282.932 47.8007 287.483 43.4395 291.086 38.3198C291.654 37.5613 292.223 36.8028 292.792 36.0443C293.171 35.6651 293.74 35.2858 294.309 35.6651C294.878 36.0443 295.068 36.6131 294.878 37.182C294.499 38.3197 294.12 39.2678 293.74 40.4055C292.223 43.8187 290.517 47.2318 288.81 50.8346C288.81 51.0242 288.81 51.2138 288.621 51.4034C288.81 51.4034 289 51.2138 289.189 51.2138C292.223 49.128 295.257 47.0422 298.102 44.5772C302.463 40.9744 305.876 36.8028 308.72 32.0624C308.91 31.6831 309.289 31.3038 309.668 30.9246C309.858 30.735 310.237 30.735 310.427 30.735C310.616 30.9246 310.806 31.3038 310.996 31.4934C310.996 31.8727 310.806 32.252 310.616 32.6312C310.047 33.5793 309.668 34.717 308.91 35.6651C305.117 40.7848 300.756 45.5253 295.447 49.1281C292.603 51.0242 289.948 53.11 287.293 55.0062C286.345 55.7647 285.587 56.5231 285.018 57.4712C283.501 59.9363 281.605 62.2117 278.76 63.539C278.381 63.7286 277.812 63.9182 277.433 64.1079C276.864 64.2975 276.295 64.2975 275.727 63.7286C275.158 63.1597 275.158 62.591 275.537 62.0221C276.106 61.2636 276.675 60.5051 277.433 59.9362C279.14 58.4193 281.036 57.092 282.742 55.7647C283.691 55.0062 284.639 54.2477 285.207 53.11C286.724 49.8865 288.241 46.8526 289.758 43.6291C289.948 43.4394 289.948 43.0602 289.948 42.8705C289.758 43.0602 289.569 43.2499 289.379 43.4395C286.345 46.4734 283.122 49.6968 280.088 52.7307C278.95 53.8685 277.623 54.6269 276.485 55.575C275.537 56.1439 274.399 56.5231 273.072 56.5231C271.176 56.5231 270.228 55.575 270.417 53.6788C270.417 52.7307 270.796 51.7827 271.176 51.0242C271.745 49.5073 272.503 48.1799 273.451 46.8526C274.778 44.7668 276.106 42.8706 277.433 40.7848C278.002 40.0263 277.812 39.8367 276.864 39.8367C275.916 39.8367 274.778 39.8367 273.83 39.8367C272.882 39.8367 272.124 40.216 271.745 41.164C270.986 42.681 270.038 44.1979 269.09 45.5253C267.004 48.5592 264.918 51.5931 262.643 54.4374C261.695 55.5751 260.747 56.7128 259.609 57.8505C258.85 58.6089 257.902 59.1778 256.954 59.5571C255.437 60.3156 253.92 60.1259 252.593 58.9881C252.024 58.4193 251.835 58.7985 251.455 58.9881C250.318 59.9362 249.18 60.8844 247.853 61.6428C247.094 62.0221 246.146 62.4014 245.198 62.4014C243.871 62.591 242.922 61.8325 242.543 60.6948C241.974 59.7467 241.785 58.6089 242.164 57.4712C242.543 55.9543 242.922 54.4373 243.302 53.11C243.871 51.4034 244.439 49.5073 245.008 47.8007C245.198 47.2318 245.198 46.6629 245.388 46.0941C245.388 45.9045 245.388 45.7149 245.388 45.5253C245.198 45.5253 244.819 45.5252 244.819 45.7148C244.25 46.2837 243.681 46.8525 243.112 47.611C240.647 50.6449 238.751 54.0581 237.423 57.8505C237.234 58.4193 237.044 58.7985 236.665 59.3674C236.475 59.557 235.907 59.9363 235.717 59.7467C235.338 59.557 234.958 59.1778 234.958 58.7986C234.958 58.4193 235.148 57.8505 235.148 57.2816C235.907 54.627 236.855 51.9723 237.423 49.1281C237.803 47.4215 237.992 45.9045 238.182 44.1979C238.182 43.4394 237.803 43.2498 237.234 43.6291C236.665 44.0083 236.096 44.3875 235.717 44.7667C234.39 46.2837 232.873 47.8006 231.735 49.5072C229.839 52.1619 228.511 55.1958 227.374 58.4193C227.184 58.7985 227.184 59.1778 226.994 59.7467C226.615 60.6948 226.046 61.0739 225.478 60.8843C224.909 60.6947 224.719 60.1259 224.909 59.1778C224.909 58.9882 224.909 58.7986 224.909 58.7986C225.667 54.8166 226.426 50.6449 227.184 46.6629C227.563 44.9563 227.563 43.0602 227.943 41.3536C227.943 41.164 227.943 40.9744 227.753 40.7848C227.563 40.9744 227.374 40.9744 227.374 41.164C226.236 43.0602 225.098 44.7667 224.15 46.6629C222.444 50.0761 220.737 53.4892 218.462 56.5231C217.134 58.4193 215.428 60.1258 213.911 61.8324C213.342 62.5909 212.394 62.9702 211.446 63.3495C209.55 64.1079 208.033 63.3495 207.464 61.4533C206.895 59.9363 207.085 58.2297 207.274 56.5231C207.464 55.0062 207.843 53.4893 208.222 51.9723C208.601 49.6969 209.17 47.2318 209.55 44.9564C209.55 44.7668 209.55 44.5771 209.36 44.1979C209.17 44.3875 208.981 44.3875 208.791 44.5772C207.843 45.7149 206.705 47.0422 205.947 48.3695C203.861 51.5931 202.534 55.0062 201.206 58.609C201.017 59.1778 200.827 59.5571 200.637 60.1259C200.448 60.6948 200.069 61.0739 199.31 60.8843C198.741 60.6947 198.552 60.3155 198.741 59.3674C198.741 58.9882 198.931 58.7985 198.931 58.4193C200.258 54.0581 201.206 49.6969 201.775 45.3357C201.775 44.7668 201.965 44.1979 201.965 43.6291C201.965 43.4394 201.775 43.0602 201.775 42.8705C201.396 43.0602 201.017 43.0602 200.827 43.2498C200.069 44.0083 199.31 44.5772 198.741 45.3357C197.414 47.0422 196.276 48.7488 195.139 50.645C192.863 54.4374 191.346 58.6089 189.829 62.7805C189.64 63.1597 189.64 63.7287 189.26 63.9183C189.071 64.2975 188.502 64.4871 188.123 64.4871C187.554 64.4871 187.364 63.9183 187.364 63.3495C187.364 62.9702 187.554 62.5909 187.554 62.2117C188.881 56.1439 190.208 50.0761 191.536 44.1979C191.725 43.629 191.536 43.0602 191.725 42.681C191.346 43.0602 190.777 43.4394 190.588 43.8186C188.881 46.2837 187.364 48.7488 185.658 51.2138C184.141 53.4892 182.813 55.7647 181.107 57.8505C179.969 59.3674 178.452 60.6947 176.935 61.8324C174.091 63.9182 171.815 62.591 171.626 59.1778C171.626 58.2297 171.626 57.2816 171.626 56.3335C171.626 56.1439 171.436 55.9543 171.436 55.9543C171.247 55.9543 171.247 56.1439 171.057 56.1439C170.488 56.9023 169.919 57.6608 169.35 58.4193C168.402 59.1778 167.454 60.1259 166.506 60.6948C164.8 61.6428 163.283 60.8843 162.714 58.9881C162.524 58.04 162.524 57.0919 162.334 56.1439C162.334 55.9542 162.335 55.9543 162.145 55.7647C161.955 55.9543 161.766 55.9542 161.766 56.1439C161.386 56.9023 160.818 57.6609 160.438 58.2297C159.301 60.3155 157.594 62.0221 155.698 63.539C154.56 64.4871 153.043 64.8664 151.716 64.4871C149.82 64.1079 148.113 63.3494 146.596 62.0221C144.51 60.3155 142.614 58.2297 141.097 55.9543C140.528 55.0062 140.528 55.0062 139.58 55.575C136.167 57.8504 132.754 60.3155 129.341 62.5909C128.582 63.1598 127.824 63.5391 127.065 63.9183C126.686 64.1079 126.117 64.2975 125.738 63.7286C125.359 63.1597 125.928 62.7806 126.307 62.5909C130.289 59.7467 134.271 57.0919 138.253 54.2477C138.443 54.0581 138.632 53.8685 138.822 53.8685C139.391 53.4893 139.58 53.11 139.201 52.3515C138.443 50.4553 137.684 48.7488 136.926 46.8526C136.546 45.9045 136.357 44.9564 136.357 44.0083C136.167 41.3537 137.494 39.8367 140.149 39.6471C140.528 39.0783 141.856 39.0782 142.993 39.0782ZM19.362 11.2043C15.1904 11.2043 9.50177 15.3759 8.17444 18.7891C7.98483 19.3579 7.79521 20.1163 7.79521 20.8748C7.79521 21.0644 7.79521 21.2541 7.79521 21.2541C7.79521 21.4437 7.79522 21.6333 7.98484 21.6333C7.98484 21.6333 8.17446 21.6333 8.36407 21.4436C8.55369 21.254 8.74332 21.0644 8.93294 20.8748C11.2084 18.5994 13.6734 16.7032 16.5177 15.1862C18.7931 14.0485 21.0685 13.4797 23.7232 14.0486C23.9128 14.0486 24.1024 14.0486 24.292 14.0486C24.292 13.859 24.2921 13.6693 24.1024 13.4796C23.5336 12.5315 22.7751 11.9627 21.827 11.5834C20.8789 11.3938 20.1204 11.2043 19.362 11.2043ZM95.3991 58.4193C95.5887 58.9882 95.5887 59.7466 95.7783 60.3155C96.1576 59.7466 96.7264 59.3674 97.1057 58.7986L97.2952 58.609C100.14 53.2997 103.173 47.9903 106.018 42.681C106.207 42.4914 106.207 42.3017 106.397 41.9225V41.7329C106.207 41.7329 106.207 41.7329 106.018 41.7329C105.828 41.9225 105.449 42.1121 105.259 42.3017C102.036 45.3356 99.0018 48.7487 97.1057 52.7307C96.1576 54.4373 95.5887 56.3335 95.3991 58.4193ZM12.9149 26.7529C13.6734 26.5633 14.4319 26.5634 15.1904 26.3738C18.6035 25.4257 21.4478 23.3399 23.9128 20.6852C24.292 20.306 24.292 19.7371 24.4817 19.1682C24.6713 18.789 24.6713 18.4097 24.8609 18.2201C25.2401 17.4616 25.0505 17.0824 24.4817 16.7032C23.9128 16.3239 23.1543 15.9448 22.3959 15.9448C21.0685 15.7552 19.7412 15.9447 18.6035 16.3239C14.6215 17.8409 11.5876 20.4956 8.93294 23.7191C8.5537 24.288 8.5537 24.4776 8.93294 25.0464C10.0706 26.1842 11.398 26.7529 12.9149 26.7529ZM4.5717 62.7805C4.38208 66.004 6.27826 67.3314 9.12254 66.3833C9.69139 66.1937 10.4499 65.8144 11.0187 65.6248C15.0007 63.1597 18.4139 60.3156 21.6374 56.7128C22.0166 56.1439 22.0166 55.7646 21.827 55.1958C20.3101 52.7307 19.7412 49.8865 19.5516 47.0422C19.5516 46.2837 19.5516 45.5252 19.362 44.7667L18.9827 44.5772C17.6554 45.5253 16.3281 46.2837 15.0007 47.4214C11.9668 50.0761 9.31217 53.11 7.03675 56.5231C5.5198 58.4193 4.76132 60.6947 4.5717 62.7805ZM1.91705 37.3717C1.91705 41.164 4.5717 44.5771 8.36407 45.7148C10.8291 46.4733 13.2942 46.0941 15.1904 44.1979C15.7592 43.629 16.3281 43.2498 16.8969 42.8705C17.4658 42.4913 17.845 42.3018 18.6035 42.4914C19.3619 42.8706 19.362 42.3017 19.362 41.9225C19.7412 36.6131 20.6893 31.3039 22.2062 25.9945C22.2062 25.8049 22.2062 25.6153 22.2062 25.4257C22.0166 25.4257 21.827 25.4257 21.6374 25.6153C20.1204 26.3738 18.6035 27.5114 17.0865 28.0803C13.863 29.4076 10.4499 29.4076 7.60561 26.7529C7.22637 26.3737 6.84714 26.3738 6.65752 26.9426C4.95095 29.4077 3.43398 32.0624 2.48588 34.9066C2.29626 35.6651 2.10667 36.4236 1.91705 37.3717ZM34.5315 27.1322C34.5315 25.9945 34.3419 24.4775 34.1522 22.9606C33.9626 21.4436 33.5834 19.9267 32.8249 18.5994C32.0664 17.272 31.3079 17.0825 29.9806 17.841C28.6533 18.5994 27.5156 19.7371 26.7571 21.0644C25.809 22.771 24.8609 24.4776 24.292 26.3738C22.9647 29.9766 22.3959 33.5793 22.0166 37.3717C21.6374 40.7848 21.0685 44.3876 21.6374 47.8007C21.827 49.6969 22.3959 51.593 23.1543 53.2996C23.5336 54.0581 23.5336 54.0581 24.1024 53.2996C24.2921 53.11 24.4817 52.9204 24.4817 52.7307C27.1363 49.5072 29.2221 45.7149 31.1183 42.1121C33.3937 37.7509 34.5315 32.8208 34.5315 27.1322ZM67.5251 50.2657C67.7147 47.2318 67.7147 44.0083 68.094 40.9744C68.2836 39.0782 68.8525 37.182 69.9902 35.4755C71.6967 32.6312 74.9203 31.3038 78.1438 31.8727C80.2296 32.2519 81.7465 33.5793 82.6946 35.4755C83.6427 37.5613 84.2116 39.8367 84.4012 42.1121C84.4012 42.681 84.5908 43.2498 84.7804 43.6291C85.1597 43.2498 85.3493 42.6809 85.7285 42.3017C86.487 41.3536 87.0559 40.4056 88.0039 39.6471C90.2794 37.7509 93.1237 38.699 93.8821 41.3536C94.2614 42.8706 94.451 44.5771 94.2614 46.0941C94.0718 48.5591 93.6925 50.8345 93.5029 53.2996C93.5029 53.6788 93.5029 53.8684 93.3133 54.2477C93.3133 54.2477 93.3133 54.4373 93.3133 54.6269C93.5029 54.6269 93.5029 54.4374 93.6925 54.4374C93.8821 54.0581 94.0718 53.6788 94.2614 53.2996C96.5368 48.5591 99.7603 44.3875 103.553 40.7848C104.501 39.8367 105.638 39.0782 106.776 38.3198C108.104 37.5613 108.483 37.9405 108.862 39.2679C109.241 40.5952 108.862 41.5433 108.483 42.681C107.535 45.5253 106.966 48.3695 107.345 51.4034C107.345 51.9722 107.535 52.3516 107.535 52.9204C108.104 55.1959 110 56.3335 112.275 55.575C112.654 55.3854 113.223 55.1958 113.602 55.0062C114.74 54.4373 115.878 53.6789 117.016 52.9204C118.153 52.162 119.481 51.4034 120.049 49.8865C120.239 49.6968 120.618 49.3176 120.808 49.5072C120.998 49.6968 121.377 50.0761 121.377 50.4553C121.377 51.0242 121.187 51.5931 120.808 51.9723C120.429 52.5412 119.86 53.2996 119.291 53.6788C117.584 55.1958 115.499 56.5232 113.413 57.2816C109.62 58.7986 106.207 56.9024 105.449 52.9204C105.259 51.7827 105.259 50.6449 105.07 49.5072C105.07 49.3176 104.88 49.3177 104.88 49.1281C104.69 49.1281 104.69 49.3176 104.501 49.3176C104.311 49.6969 104.122 49.8865 103.932 50.2657C102.225 53.2996 100.519 56.3335 98.6226 59.3674C98.0537 60.3155 97.4849 61.0739 96.7264 61.8324C95.5887 63.1597 94.2614 62.7805 93.6925 61.2636C93.6925 61.074 93.6925 60.8844 93.5029 60.6948C93.5029 60.5051 93.3133 60.5052 93.3133 60.5052C93.1237 60.6948 93.1236 60.6947 93.1236 60.8843C92.934 61.2636 92.934 61.6429 92.7444 62.0221C92.5548 62.591 92.1755 62.7805 91.6067 62.7805C91.0378 62.7805 90.6586 62.2117 90.6586 61.8324C90.6586 60.1258 90.6586 58.6089 90.8482 56.9024C91.2275 53.2996 91.6067 49.6968 91.986 46.0941C92.1756 44.9564 91.9859 43.6291 91.7963 42.4914C91.4171 40.5952 90.0897 40.216 88.7624 41.5433C88.1936 42.1122 87.6247 42.8706 87.2455 43.6291C85.7285 46.4733 84.5908 49.5072 84.0219 52.7307C84.0219 53.2996 83.8323 53.6788 83.8323 54.2477C83.6427 55.1958 83.0739 55.7646 82.505 55.575C81.9362 55.3854 81.5569 54.8166 81.7465 53.8685C81.7465 53.4893 81.9361 53.1101 81.9361 52.9204C82.8842 48.3696 82.8842 43.8187 81.7465 39.2679C81.5569 38.5094 81.3673 37.7508 80.9881 37.182C80.2296 35.0962 78.7126 33.9585 76.4372 33.7689C74.3514 33.7689 72.6448 34.5273 71.5071 36.2339C70.1798 38.3197 69.8006 40.5952 69.6109 43.0602C69.4213 47.2318 69.4213 51.2138 69.2317 55.3855C69.0421 57.8505 68.6628 60.3155 68.2836 62.9702C68.2836 63.5391 68.094 63.9183 67.9044 64.2976C67.3355 65.4353 66.1978 65.4352 65.4393 64.4871C65.0601 64.1079 64.8705 63.539 64.8705 63.1598C64.6808 62.5909 64.6809 62.0221 64.4912 61.4533C64.4912 61.2637 64.3016 61.0739 64.112 60.8843C63.9224 61.0739 63.7327 61.2637 63.7327 61.4533C63.1639 62.4014 62.595 63.3495 61.8366 64.2976C61.4573 64.8664 60.6989 65.4352 60.13 65.8145C56.9065 67.9003 52.9245 66.7625 51.4075 63.1598C50.649 61.2636 50.4594 59.3674 50.4594 57.2816C50.4594 56.7128 50.2698 55.9543 50.2698 55.3855C49.8906 55.9543 49.5113 56.3335 49.1321 56.9024C47.9944 58.4193 47.0463 59.9363 45.9086 61.4533C45.1501 62.4014 44.3916 63.1598 43.4435 63.9183C41.737 65.056 40.22 64.6768 39.2719 62.9702C38.5135 61.4532 38.1342 59.7466 38.1342 58.04C38.1342 56.3335 38.3238 54.8166 38.5134 53.11C38.5134 52.7308 38.7031 52.1619 38.7031 51.7826C38.7031 51.593 38.7031 51.593 38.5134 51.4034C38.3238 51.4034 38.1342 51.4035 38.1342 51.5931C37.5654 52.3516 37.1861 52.9204 36.6173 53.6788C35.2899 55.575 33.773 57.2817 31.8768 58.609C29.2221 60.5052 26.9467 60.5052 24.292 58.609C23.3439 57.8505 23.3439 57.8505 22.3959 58.7986C19.5516 61.8325 16.5177 64.6768 12.9149 66.7626C11.7772 67.521 10.4499 68.0898 8.93294 68.4691C5.33018 69.6068 2.10666 67.1418 2.29628 63.3495C2.29628 60.3156 3.43399 57.6608 5.14056 55.1958C6.65751 53.11 8.17445 51.4034 9.6914 49.3176C9.6914 49.128 9.88101 49.128 10.0706 48.9384C10.2603 48.5591 10.4499 48.3695 10.6395 47.9903C10.2603 47.9903 10.0706 47.8007 9.6914 47.8007C4.00284 47.2318 -0.168758 42.4914 0.0208612 36.9924C0.0208612 35.2858 0.589712 33.5793 1.34819 32.0624C2.4859 29.7869 4.00283 27.3219 5.33016 25.0464C5.7094 24.288 5.89904 23.9087 5.70942 22.9606C5.14057 20.6851 5.51979 18.4098 6.84712 16.5136C9.50178 12.5316 13.2942 9.87697 18.0346 9.30812C19.362 9.1185 20.6893 9.30802 21.827 9.68726C23.7232 10.0665 25.0505 11.2042 25.809 12.9108C26.3778 14.0485 26.5675 15.1862 26.9467 16.3239C27.326 17.4616 27.1363 17.2721 28.0844 16.8929C28.8429 16.5136 29.791 16.1344 30.7391 15.9448C31.8768 15.7552 32.8249 15.9448 33.5834 16.8929C34.3419 17.841 34.9107 18.789 35.2899 19.9267C36.4276 23.1502 36.6173 26.5634 36.4277 29.7869C36.0484 34.9066 34.7211 39.8367 32.256 44.5772C30.1702 48.3695 28.0844 51.9723 25.4298 55.3855C24.6713 56.3335 24.6713 56.5232 25.6194 57.2816C27.326 58.4193 28.6533 58.6089 30.3599 57.4712C32.0664 56.3335 33.3938 55.0062 34.5315 53.4893C37.9446 49.128 40.5993 44.3875 41.9266 38.8886C42.1162 38.5094 42.1162 38.1302 42.3058 37.7509C42.4954 37.5613 43.0643 37.182 43.4435 37.182C44.0124 37.182 44.202 37.7509 44.202 38.3198C44.202 38.699 44.0124 39.0782 44.0124 39.4574C43.0643 42.8706 41.9266 46.2838 41.1681 49.6969C40.5993 52.5412 40.4096 55.3855 40.22 58.2297C40.22 59.3674 40.5993 60.5051 40.9785 61.6428C41.3577 62.7806 41.9266 62.9702 42.8747 62.0221C43.6332 61.4532 44.3916 60.6948 44.7709 59.7467C47.0463 56.3335 49.5113 52.9203 51.7868 49.5072C54.0622 46.0941 56.3376 42.681 59.3715 39.6471C60.5092 38.5094 62.0262 37.5613 63.1639 36.4236C63.3535 36.234 63.5431 36.2339 63.7327 36.0443C64.3016 35.8547 64.6808 35.8546 65.0601 36.2339C65.4393 36.8027 65.2497 37.182 64.8705 37.5612C64.6808 37.7509 64.4912 37.9405 64.112 38.1301C62.4054 39.0782 61.0781 40.2159 59.9404 41.7329C58.0442 44.1979 56.3376 46.4733 54.4414 48.9384C53.8726 49.8865 53.3037 51.0242 53.1141 52.1619C52.3556 54.8166 51.9764 57.4712 52.5452 60.3155C52.7349 61.2636 52.9245 62.022 53.3037 62.7805C54.2518 64.8663 56.7169 65.6248 58.8027 64.4871C60.3196 63.539 61.2677 62.2118 62.0262 60.5052C63.1639 58.0401 63.7327 55.3854 64.112 52.7307C64.4912 50.4553 64.6808 48.3695 65.0601 46.0941C65.0601 45.7148 65.0601 45.3356 65.2497 45.146C65.4393 44.7668 66.0082 44.3875 66.1978 44.5772C66.577 44.5772 66.9563 45.1461 66.9563 45.3357C67.1459 46.0942 66.9563 46.663 66.9563 47.4214C66.577 50.4553 66.1978 53.4892 66.0082 56.5231C65.8185 57.8504 66.0082 59.3674 66.1978 60.8843C66.1978 61.0739 66.3874 61.2636 66.3874 61.2636C66.577 61.074 66.577 60.8843 66.577 60.8843C66.7666 58.04 66.9563 55.0062 67.1459 52.1619C67.5251 51.2138 67.5251 50.8346 67.5251 50.2657ZM48.3736 25.0464C48.3736 25.9945 47.9944 26.9426 46.8567 27.5115C46.0982 27.8907 45.1501 28.0804 44.3916 28.27C43.8228 28.4596 43.0643 27.8907 43.0643 26.9426C42.6851 25.2361 44.0124 23.1502 45.5294 22.771C47.0463 22.3918 48.3736 23.3399 48.3736 25.0464Z" fill="black"/>
</svg>
