<?xml version="1.0" encoding="utf-8"?>
<!-- Generator: Adobe Illustrator 23.0.4, SVG Export Plug-In . SVG Version: 6.00 Build 0)  -->
<svg version="1.1" id="Layer_1" xmlns="http://www.w3.org/2000/svg" xmlns:xlink="http://www.w3.org/1999/xlink" x="0px" y="0px"
	 viewBox="0 0 1140.29 54" style="enable-background:new 0 0 1140.29 54;" xml:space="preserve">
<g>
	<path d="M20.85,25.22c0,5.58,4.5,10.09,10.09,10.09h3.36v15.13h-6.72v-8.74c-6.59-1.35-11.77-6.52-13.11-13.11H6.73v21.86H0V0h6.73
		v21.86h7.73c1.34-6.59,6.52-11.77,13.11-13.11V0h6.72v15.13h-3.36C25.35,15.13,20.85,19.64,20.85,25.22z"/>
	<path d="M108.3,45.39v3.36h-6.72v-3.36c0-9.28-7.53-16.81-16.81-16.81s-16.81,7.53-16.81,16.81v3.36h-6.73v-3.36
		c0-11.84,8.81-21.66,20.17-23.27V1.68h6.72v20.44C99.49,23.74,108.3,33.55,108.3,45.39z"/>
	<path d="M185.74,0v45.39h-6.73v-1.68c0-20.37-16.61-36.98-36.98-36.98l-0.07,18.49h0.07c7.33,0,13.38,6.05,13.38,13.45
		s-6.05,13.45-13.45,13.45h-6.72v-6.72h6.72c3.7,0,6.73-3.03,6.73-6.73s-3.03-6.72-6.73-6.72h-6.72V0h6.79
		c15.6,0,29.32,8.14,36.98,20.51V0H185.74z"/>
	<path d="M236.08,15.33l6.72,6.72c2.02-1.21,4.37-1.88,6.86-1.88c7.39,0,13.45,6.05,13.45,13.45s-6.05,13.45-13.45,13.45
		c-7.4,0-13.45-6.05-13.45-13.45c0-2.49,0.67-4.84,1.88-6.86l-6.72-6.73c-5.38,6.39-8.61,14.66-8.61,23.67v6.73h-6.73v-6.73
		c0-15.53,8.14-29.25,20.44-36.98h-23.81V0h53.8v6.72h-6.72C250.75,6.72,242.47,9.95,236.08,15.33z M242.94,33.62
		c0,3.7,3.03,6.72,6.73,6.72s6.72-3.03,6.72-6.72s-3.03-6.72-6.72-6.72S242.94,29.92,242.94,33.62z"/>
	<path d="M334.85,47.27V54h-37.66l-3.77-4.77L317.7,0.34l6.05,2.96L301.9,47.27H334.85z"/>
	<path d="M408.85,6.72c-9.01,0-17.28,3.23-23.67,8.61l24.41,24.41l-4.71,4.71l-24.41-24.41c-5.38,6.39-8.61,14.66-8.61,23.67v6.73
		h-6.73v-6.73c0-15.53,8.14-29.25,20.44-36.98h-23.81V0h51.78v6.72H408.85z"/>
	<path d="M484.21,6.72h-6.72v43.71h-16.81v-6.73h10.09V6.72c-9.28,0-16.81,7.53-16.81,16.81v26.9h-6.72v-26.9
		c0-6.59,2.69-12.51,7.06-16.81H440.5V0h43.71V6.72z"/>
	<path d="M561.66,0v45.39h-6.73v-1.68c0-20.37-16.61-36.98-36.98-36.98l-0.07,18.49h0.07c7.33,0,13.38,6.05,13.38,13.45
		s-6.05,13.45-13.45,13.45h-6.72v-6.72h6.72c3.7,0,6.73-3.03,6.73-6.73s-3.03-6.72-6.73-6.72h-6.72V0h6.79
		c15.6,0,29.32,8.14,36.98,20.51V0H561.66z"/>
	<path d="M629.21,42.97l-2.29,5.78h-38.33V1.68h6.72v40.35h23.27l-14.99-14.39c-2.69-2.62-3.97-6.12-3.97-9.55
		c0-7.53,5.92-13.31,13.45-13.31c3.43,0,6.93,1.28,9.48,3.83l2.35,2.35l-4.71,4.77l-2.42-2.42c-1.28-1.28-3.03-1.95-4.71-1.95
		c-3.76,0-6.72,2.96-6.72,6.72c0,1.75,0.61,3.43,1.95,4.77L629.21,42.97z"/>
	<path d="M679.55,15.33l6.72,6.72c2.02-1.21,4.37-1.88,6.86-1.88c7.4,0,13.45,6.05,13.45,13.45s-6.05,13.45-13.45,13.45
		s-13.45-6.05-13.45-13.45c0-2.49,0.67-4.84,1.88-6.86l-6.72-6.73c-5.38,6.39-8.61,14.66-8.61,23.67v6.73h-6.73v-6.73
		c0-15.53,8.14-29.25,20.44-36.98h-23.8V0h53.8v6.72h-6.72C694.21,6.72,685.93,9.95,679.55,15.33z M686.41,33.62
		c0,3.7,3.03,6.72,6.73,6.72s6.72-3.03,6.72-6.72s-3.03-6.72-6.72-6.72S686.41,29.92,686.41,33.62z"/>
	<path d="M743,35.3c0-3.63,1.48-6.93,3.83-9.35c-5.92-3.5-9.95-10.09-9.95-17.55V0h36.31v6.72h-29.59V8.4
		c0,7.47,5.78,13.45,12.84,13.45c7.4,0,13.45,6.05,13.45,13.45v15.13h-6.72V35.3c0-3.7-3.03-6.72-6.72-6.72s-6.72,3.03-6.72,6.72
		v15.13H743V35.3z"/>
	<path d="M843.17,35.3c0,7.4-6.05,13.45-13.45,13.45h-29.59V0h6.73v42.03h11.09c-1.14-2.15-1.68-4.44-1.68-6.72
		c0-7.4,6.05-13.45,13.45-13.45C837.12,21.86,843.17,27.91,843.17,35.3z M836.45,35.3c0-3.7-3.03-6.72-6.72-6.72S823,31.54,823,35.3
		c0,2.35,0.61,4.44,2.89,6.72h3.83C833.42,42.03,836.45,39,836.45,35.3z"/>
	<path d="M917.18,0v6.72h-3.36c-9.28,0-16.81,7.53-16.81,16.81v2.08c5.78,1.55,10.09,6.79,10.09,13.05c0,7.4-6.05,13.45-13.45,13.45
		c-7.4,0-13.45-6.05-13.45-13.45c0-6.25,4.3-11.5,10.09-13.05v-2.08c0-9.28-7.53-16.81-16.81-16.81h-3.36V0h3.36
		c8.54,0,16.07,4.57,20.17,11.43C897.75,4.57,905.28,0,913.82,0H917.18z M893.64,31.94c-3.7,0-6.72,3.03-6.72,6.72
		s3.03,6.73,6.72,6.73s6.72-3.03,6.72-6.73S897.28,31.94,893.64,31.94z"/>
	<path d="M985.54,47.27V54h-37.66l-3.77-4.77l24.28-48.89l6.05,2.96l-21.86,43.98H985.54z"/>
	<path d="M1035.88,15.33l6.72,6.72c2.02-1.21,4.37-1.88,6.86-1.88c7.4,0,13.45,6.05,13.45,13.45s-6.05,13.45-13.45,13.45
		c-7.4,0-13.45-6.05-13.45-13.45c0-2.49,0.67-4.84,1.88-6.86l-6.72-6.73c-5.38,6.39-8.61,14.66-8.61,23.67v6.73h-6.73v-6.73
		c0-15.53,8.14-29.25,20.44-36.98h-23.8V0h53.8v6.72h-6.72C1050.54,6.72,1042.27,9.95,1035.88,15.33z M1042.74,33.62
		c0,3.7,3.03,6.72,6.73,6.72c3.7,0,6.72-3.03,6.72-6.72s-3.03-6.72-6.72-6.72C1045.77,26.9,1042.74,29.92,1042.74,33.62z"/>
	<path d="M1140.29,0v6.72h-3.36c-9.28,0-16.81,7.53-16.81,16.81v2.08c5.78,1.55,10.09,6.79,10.09,13.05
		c0,7.4-6.05,13.45-13.45,13.45c-7.4,0-13.45-6.05-13.45-13.45c0-6.25,4.3-11.5,10.09-13.05v-2.08c0-9.28-7.53-16.81-16.81-16.81
		h-3.36V0h3.36c8.54,0,16.07,4.57,20.17,11.43c4.1-6.86,11.63-11.43,20.17-11.43H1140.29z M1116.75,31.94
		c-3.7,0-6.72,3.03-6.72,6.72s3.03,6.73,6.72,6.73s6.72-3.03,6.72-6.73S1120.39,31.94,1116.75,31.94z"/>
</g>
</svg>
