<svg viewBox="0 0 256 256" version="1.1" xmlns="http://www.w3.org/2000/svg" xmlns:xlink="http://www.w3.org/1999/xlink">
    <g id="bronycon-2019-annual-website-variant" stroke="none" stroke-width="1" fill="none" fill-rule="evenodd">
        <path d="M116.129185,187.666963 C112.222815,186.884741 108.382815,185.723259 104.718222,184.201481 C103.514074,183.689481 102.120296,184.277333 101.622519,185.486222 C101.12,186.695111 101.69363,188.084148 102.902519,188.581926 C106.126222,189.914074 109.492148,190.928593 112.905481,191.734519 L111.355259,199.518815 C97.9721481,196.408889 85.7931852,189.705481 76.0414815,179.953778 C75.1122963,179.029333 73.6142222,179.029333 72.6897778,179.953778 C71.7605926,180.878222 71.7605926,182.381037 72.6897778,183.305481 C83.6693333,194.280296 97.517037,201.685333 112.739556,204.714667 C112.896,204.743111 113.052444,204.757333 113.204148,204.757333 C114.313481,204.757333 115.299556,203.975111 115.527111,202.851556 L117.992296,190.454519 C118.248296,189.169778 117.413926,187.922963 116.129185,187.666963 Z M86.8456296,179.057778 C87.2865185,179.413333 87.8127407,179.584 88.3342222,179.584 C89.0263704,179.584 89.7137778,179.280593 90.1831111,178.697481 C91.0032593,177.678222 90.8420741,176.18963 89.8228148,175.364741 C81.9152593,168.988444 75.6811852,160.663704 71.7937778,151.277037 C71.296,150.068148 69.8974815,149.485037 68.6933333,149.997037 L59.3114074,153.879704 C58.1783704,150.864593 57.2397037,147.77837 56.5096296,144.635259 L66.4699259,142.65363 C67.7499259,142.39763 68.5842963,141.146074 68.3282963,139.866074 C68.0722963,138.576593 66.8444444,137.728 65.5407407,138.002963 L57.0026667,139.704889 L48.877037,143.141926 C48.4693333,143.312593 48.0426667,143.402667 47.6065185,143.402667 C46.6062222,143.402667 45.696,142.871704 45.0844444,142.075259 L28.3448889,145.403259 C27.0601481,145.654519 26.2257778,146.906074 26.4817778,148.190815 C27.8091852,154.837333 29.7908148,161.370074 32.3745185,167.604148 C32.7537778,168.519111 33.6355556,169.069037 34.5647407,169.069037 C34.8681481,169.069037 35.1762963,169.012148 35.4702222,168.888889 C36.6838519,168.38637 37.2574815,166.997333 36.754963,165.793185 C34.5884444,160.568889 32.9528889,155.107556 31.7108148,149.56563 L51.858963,145.559704 C52.8308148,149.774222 54.0776296,153.936593 55.7321481,157.928296 C56.1114074,158.843259 56.9931852,159.393185 57.9223704,159.393185 C58.2257778,159.393185 58.5339259,159.336296 58.8278519,159.213037 L68.4562963,155.226074 C72.6802963,164.446815 78.9428148,172.686222 86.8456296,179.057778 Z M172.112593,189.752889 C172.107852,189.748148 172.112593,189.743407 172.107852,189.738667 C171.562667,188.923259 170.600296,188.553481 169.690074,188.728889 C169.552593,188.752593 169.429333,188.837926 169.296593,188.890074 C169.135407,188.951704 168.969481,188.984889 168.817778,189.089185 C160.758519,194.474667 151.845926,198.172444 142.331259,200.064 C141.051259,200.32 140.216889,201.566815 140.468148,202.851556 C140.690963,203.979852 141.681778,204.757333 142.791111,204.757333 C142.947556,204.757333 143.099259,204.743111 143.255704,204.714667 C152.604444,202.856296 161.374815,199.291259 169.419852,194.251852 L180.830815,211.332741 C178.398815,212.868741 175.905185,214.324148 173.359407,215.665778 L169.182815,222.369185 C168.917333,222.795852 168.542815,223.108741 168.139852,223.369481 C174.203259,220.814222 180.043852,217.704296 185.495704,214.053926 C186.590815,213.328593 186.88,211.854222 186.154667,210.768593 L172.112593,189.752889 Z M250.723556,131.849481 C251.335111,131.346963 251.738074,130.583704 251.766519,129.735111 L251.785481,129.019259 L250.353778,128.971852 L250.330074,129.687704 C250.311111,130.289778 249.91763,130.801778 249.381926,130.996148 C249.102222,130.403556 248.50963,129.991111 247.817481,129.972148 C246.826667,129.943704 246.001778,130.721185 245.968593,131.707259 C245.940148,132.698074 246.72237,133.522963 247.708444,133.556148 C248.400593,133.575111 249.016889,133.200593 249.334519,132.626963 C249.860741,132.849778 250.221037,133.385481 250.202074,133.987556 L250.183111,134.703407 L251.614815,134.746074 L251.638519,134.030222 C251.662222,133.18163 251.301926,132.394667 250.723556,131.849481 Z M250.94163,142.482963 L245.271704,141.672296 L244.560593,146.635852 L245.712593,147.294815 L246.286222,146.849185 C246.859852,147.214222 247.390815,147.408593 247.850667,147.470222 C249.007407,147.636148 249.979259,146.996148 250.130963,145.938963 C250.273185,144.96237 249.6,144.056889 248.613926,143.909926 C248.135111,143.848296 247.670519,143.966815 247.277037,144.265481 C246.930963,144.526222 246.599111,144.791704 246.234074,145.076148 L246.490074,143.288889 L250.737778,143.895704 L250.94163,142.482963 Z M247.632593,158.976 L244.41837,154.761481 L243.162074,155.022222 L241.948444,159.881481 L243.337481,160.232296 L244.186074,156.814222 L246.494815,159.848296 L247.632593,158.976 Z M244.935111,168.76563 L244.261926,168.519111 C243.460741,168.215704 242.602667,168.291556 241.901037,168.666074 C241.616593,167.921778 241.024,167.300741 240.222815,166.997333 L239.55437,166.746074 L239.04237,168.092444 L239.720296,168.343704 C240.455111,168.618667 240.83437,169.453037 240.559407,170.192593 C240.279704,170.936889 239.445333,171.316148 238.705778,171.036444 L238.037333,170.780444 L237.525333,172.126815 L238.198519,172.378074 C239.687111,172.937481 241.34637,172.188444 241.901037,170.704593 C242.090667,170.202074 242.526815,169.870222 243.01037,169.78963 L241.815704,172.970667 L243.162074,173.482667 L244.935111,168.76563 Z M237.75763,179.565037 C237.307259,179.346963 236.762074,179.503407 236.520296,180.005926 C236.306963,180.446815 236.449185,181.029926 236.965926,181.285926 C237.406815,181.494519 237.961481,181.371259 238.217481,180.840296 C238.440296,180.366222 238.255407,179.797333 237.75763,179.565037 Z M235.956148,188.553481 L231.04,185.66163 L229.048889,189.041778 C228.551111,189.895111 228.830815,190.985481 229.684148,191.483259 C230.532741,191.985778 231.623111,191.696593 232.120889,190.852741 C232.623407,190.004148 232.338963,188.909037 231.49037,188.411259 L231.182222,188.231111 L231.542519,187.614815 L235.235556,189.786074 L235.956148,188.553481 Z M228.437333,200.016593 L227.294815,199.149037 L225.161481,201.955556 L224.232296,198.253037 L222.833778,198.608593 L224.137481,203.757037 L225.398519,204.017778 L228.437333,200.016593 Z M221.212444,193.128296 L202.140444,180.389926 C199.632593,183.940741 196.864,187.311407 193.839407,190.492444 L201.182815,197.831111 C202.107259,198.760296 202.107259,200.25837 201.182815,201.182815 C200.718222,201.647407 200.116148,201.879704 199.509333,201.879704 C198.902519,201.879704 198.295704,201.647407 197.831111,201.182815 L188.894815,192.246519 C187.97037,191.317333 187.97037,189.819259 188.894815,188.894815 C192.350815,185.438815 195.408593,181.688889 198.200889,177.754074 L179.237926,165.082074 C178.147556,164.356741 177.85363,162.88237 178.583704,161.796741 C179.309037,160.70163 180.788148,160.417185 181.869037,161.137778 L200.832,173.809778 C203.401481,169.728 205.691259,165.466074 207.563852,160.952889 C208.06637,159.739259 209.460148,159.16563 210.659556,159.672889 C211.868444,160.170667 212.442074,161.559704 211.944296,162.768593 C209.953185,167.570963 207.511704,172.103111 204.776296,176.44563 L223.843556,189.188741 C235.173926,171.505778 241.777778,150.513778 241.777778,128 C241.777778,105.481481 235.173926,84.4894815 223.838815,66.8017778 L215.277037,72.5238519 C222.160593,83.346963 226.996148,95.1798519 229.513481,107.804444 C229.764741,109.089185 228.935111,110.336 227.65037,110.592 L215.253333,113.057185 C215.096889,113.08563 214.940444,113.099852 214.784,113.099852 C213.679407,113.099852 212.688593,112.32237 212.465778,111.194074 C212.209778,109.909333 213.044148,108.662519 214.328889,108.406519 L224.289185,106.424889 C221.795556,95.2841481 217.448296,84.7928889 211.337481,75.1597037 L193.161481,87.3007407 C193.047704,87.3813333 192.914963,87.3623704 192.796444,87.4145185 C192.663704,87.5567407 192.559407,87.7084444 192.393481,87.8174815 C191.990519,88.082963 191.535407,88.210963 191.080296,88.210963 C190.317037,88.210963 189.563259,87.8411852 189.108148,87.1537778 C186.728296,83.5745185 184.011852,80.1848889 181.034667,77.0797037 C180.129185,76.1362963 180.16237,74.6382222 181.105778,73.728 C182.044444,72.8272593 183.547259,72.850963 184.452741,73.7991111 C187.079111,76.5345185 189.454222,79.5164444 191.649185,82.6121481 L210.759111,69.8500741 C210.763852,69.8453333 210.763852,69.8405926 210.768593,69.8405926 C210.773333,69.8358519 210.778074,69.8358519 210.782815,69.8358519 L221.207704,62.866963 C215.665778,54.9594074 209.147259,47.7914074 201.822815,41.5288889 L195.237926,49.4222222 C197.276444,51.1620741 199.296,52.9161481 201.182815,54.8077037 C202.107259,55.7321481 202.107259,57.234963 201.182815,58.1594074 L193.910519,65.4364444 C193.445926,65.8962963 192.839111,66.1285926 192.232296,66.1285926 C191.625481,66.1285926 191.023407,65.8962963 190.558815,65.4364444 C189.63437,64.5072593 189.63437,63.0091852 190.558815,62.0847407 L196.072296,56.5665185 C192.545185,53.2005926 188.766815,50.1001481 184.775111,47.2888889 L179.13363,55.7368889 C178.673778,56.4195556 177.924741,56.7893333 177.161481,56.7893333 C176.70637,56.7893333 176.246519,56.6613333 175.843556,56.3863704 C171.818667,53.7031111 167.518815,51.4228148 163.100444,49.4459259 L155.240296,68.4231111 C157.705481,69.5514074 160.090074,70.8266667 162.389333,72.2488889 L168.163556,63.6112593 C168.89837,62.5256296 170.372741,62.2317037 171.45363,62.9617778 C172.544,63.6871111 172.837926,65.1614815 172.107852,66.2471111 L171.439407,67.2521481 C170.922667,66.9202963 170.330074,66.7164444 169.694815,66.7164444 C168.348444,66.7164444 167.163259,67.5223704 166.674963,68.7739259 L163.124148,77.805037 C163.119407,77.805037 163.119407,77.8097778 163.114667,77.8097778 C162.659556,77.8097778 162.199704,77.6817778 161.796741,77.4068148 C159.156148,75.6432593 156.325926,74.1404444 153.424593,72.8035556 L149.541926,82.1854815 C149.157926,83.0957037 148.280889,83.6456296 147.351704,83.6456296 C147.048296,83.6456296 146.740148,83.5887407 146.441481,83.4654815 C145.232593,82.9677037 144.658963,81.5786667 145.161481,80.3697778 L159.672889,45.330963 C160.180148,44.1220741 161.573926,43.5531852 162.773333,44.050963 C167.518815,46.0183704 172.079407,48.4740741 176.436148,51.2284444 L182.21037,42.5908148 C182.940444,41.5004444 184.419556,41.2112593 185.495704,41.9365926 C187.591111,43.3351111 189.577481,44.8853333 191.563852,46.4308148 L198.153481,38.528 C184.964741,28.16 169.443556,20.6411852 152.50963,16.9102222 L150.490074,27.0601481 C156.325926,28.3591111 162.085926,30.0847407 167.608889,32.3697778 C168.817778,32.8722963 169.391407,34.2565926 168.89363,35.4702222 C168.50963,36.3804444 167.632593,36.9303704 166.703407,36.9303704 C166.4,36.9303704 166.091852,36.8734815 165.793185,36.7502222 C160.564148,34.5837037 155.098074,32.9481481 149.56563,31.7060741 L142.65363,66.4651852 C142.435556,67.5934815 141.444741,68.370963 140.335407,68.370963 C140.178963,68.370963 140.027259,68.3567407 139.866074,68.3235556 C138.586074,68.0722963 137.751704,66.8254815 138.007704,65.5407407 L139.989333,55.5804444 C131.237926,54.1297778 122.396444,54.1961481 113.664,55.9265185 C113.507556,55.9597037 113.351111,55.9739259 113.199407,55.9739259 C113.114074,55.9739259 113.038222,55.9407407 112.952889,55.9312593 C112.810667,55.917037 112.673185,55.8980741 112.535704,55.8601481 C112.407704,55.8174815 112.289185,55.7653333 112.165926,55.7037037 C112.033185,55.6373333 111.900444,55.5757037 111.781926,55.4856296 C111.658667,55.3908148 111.563852,55.277037 111.464296,55.1632593 C111.378963,55.0684444 111.284148,54.9878519 111.213037,54.8788148 C111.056593,54.637037 110.938074,54.3668148 110.876444,54.0681481 L105.946074,29.2693333 C105.690074,27.9845926 106.524444,26.7377778 107.804444,26.4817778 C109.108148,26.2068148 110.336,27.0601481 110.592,28.3448889 L115.086222,50.9297778 C123.666963,49.4885926 132.328296,49.4885926 140.909037,50.9297778 L147.858963,15.9905185 C142.160593,14.9854815 136.32,14.4023704 130.37037,14.2838519 L130.37037,39.5045926 C130.37037,40.813037 129.308444,41.874963 128,41.874963 C126.686815,41.874963 125.62963,40.813037 125.62963,39.5045926 L125.62963,14.2838519 C104.011852,14.7294815 83.8684444,21.2195556 66.8065185,32.1517037 L79.506963,51.1525926 C83.1952593,48.8296296 87.0779259,46.7911111 91.0648889,45.0180741 L87.1822222,35.6456296 C86.6797037,34.4367407 87.2533333,33.0524444 88.4622222,32.5499259 C89.6663704,32.0521481 91.0601481,32.6257778 91.5626667,33.8346667 L101.551407,57.9508148 C102.049185,59.1597037 101.475556,60.5487407 100.266667,61.0465185 C99.9727407,61.1697778 99.6645926,61.2266667 99.3611852,61.2266667 C98.432,61.2266667 97.5502222,60.6767407 97.170963,59.7665185 L92.8805926,49.408 C88.4574815,51.3848889 84.1671111,53.7031111 80.1517037,56.3863704 C79.744,56.6565926 79.2888889,56.7845926 78.8337778,56.7845926 C78.0705185,56.7845926 77.3214815,56.4148148 76.8616296,55.7321481 L62.8717037,34.7875556 C34.0906667,54.9546667 15.0565926,88.0782222 14.2791111,125.624889 L24.6091852,125.624889 C24.7514074,119.646815 25.3202963,113.664 26.4817778,107.804444 C26.7425185,106.519704 27.9703704,105.671111 29.2693333,105.941333 C30.5540741,106.197333 31.3884444,107.444148 31.1324444,108.728889 C30.0325926,114.285037 29.4874074,119.959704 29.3499259,125.624889 L39.5093333,125.624889 C40.8177778,125.624889 41.8797037,126.686815 41.8797037,127.995259 C41.8797037,129.303704 40.8177778,130.36563 39.5093333,130.36563 L14.2791111,130.36563 C14.7247407,151.978667 21.2195556,172.122074 32.146963,189.184 L51.2284444,176.436148 C48.4835556,172.084148 46.0278519,167.528296 44.0557037,162.768593 C43.5531852,161.559704 44.1268148,160.170667 45.3357037,159.672889 C46.5351111,159.16563 47.9336296,159.744 48.4314074,160.952889 C50.285037,165.423407 52.5937778,169.709037 55.1727407,173.800296 L63.616,168.163556 C64.7016296,167.433481 66.1712593,167.732148 66.9013333,168.817778 C67.6314074,169.908148 67.3374815,171.377778 66.2471111,172.107852 L55.7416296,179.124148 C55.7416296,179.128889 55.7368889,179.128889 55.7368889,179.128889 L47.2936296,184.77037 C54.3146667,194.75437 62.9522963,203.311407 73.1306667,210.10963 C74.2162963,210.839704 74.5102222,212.309333 73.7848889,213.399704 C73.325037,214.08237 72.576,214.452148 71.8127407,214.452148 C71.3576296,214.452148 70.9025185,214.324148 70.4948148,214.053926 C59.794963,206.904889 50.7211852,197.906963 43.3540741,187.401481 L34.7875556,193.128296 C46.6915556,210.11437 63.104,223.706074 82.285037,232.158815 L91.0648889,210.972444 C81.024,206.497185 71.7558519,200.248889 63.7487407,192.246519 C62.8242963,191.317333 62.8242963,189.819259 63.7487407,188.894815 C64.6779259,187.96563 66.176,187.96563 67.1004444,188.894815 C75.1881481,196.982519 84.6032593,203.249778 94.8527407,207.521185 C94.9143704,207.540148 94.9807407,207.530667 95.0423704,207.559111 C95.104,207.582815 95.1419259,207.639704 95.1988148,207.668148 C104.751407,211.598222 115.034074,213.712593 125.62963,214.001778 L125.62963,191.203556 C125.62963,189.895111 126.686815,188.833185 128,188.833185 C129.308444,188.833185 130.37037,189.895111 130.37037,191.203556 L130.37037,229.129481 C130.37037,230.437926 129.308444,231.499852 128,231.499852 C121.239704,231.499852 114.446222,230.826667 107.804444,229.508741 C106.524444,229.252741 105.690074,228.005926 105.946074,226.721185 C106.202074,225.441185 107.429926,224.587852 108.73363,224.862815 C114.289778,225.967407 119.964444,226.503111 125.62963,226.640593 L125.62963,218.742519 C115.147852,218.472296 104.983704,216.443259 95.4405926,212.788148 L86.6654815,233.969778 C99.4891852,238.990222 113.417481,241.777778 128,241.777778 C134.774519,241.777778 141.406815,241.147259 147.858963,240.004741 L142.938074,215.248593 C142.682074,213.963852 143.516444,212.717037 144.801185,212.461037 C149.020444,211.621926 153.163852,210.360889 157.231407,208.891259 C156.951704,209.275259 156.724148,209.706667 156.634074,210.209185 C156.387556,211.565037 156.99437,212.887704 158.184296,213.589333 C154.846815,214.736593 151.461926,215.760593 148.024889,216.538074 L152.50963,239.085037 C180.773926,232.855704 205.112889,216.092444 221.212444,193.128296 Z M220.273778,210.507852 L219.757037,210.019556 C219.136,209.431704 218.315852,209.170963 217.528889,209.246815 C217.557333,208.455111 217.253926,207.649185 216.632889,207.066074 L216.111407,206.573037 L215.125333,207.616 L215.646815,208.104296 C216.220444,208.649481 216.248889,209.559704 215.708444,210.128593 C215.163259,210.702222 214.253037,210.730667 213.679407,210.190222 L213.157926,209.697185 L212.171852,210.740148 L212.698074,211.233185 C213.845333,212.318815 215.661037,212.266667 216.746667,211.114667 C217.106963,210.730667 217.637926,210.588444 218.116741,210.706963 L215.793778,213.172148 L216.832,214.153481 L220.273778,210.507852 Z M209.540741,217.746963 C209.199407,217.367704 208.635259,217.306074 208.218074,217.680593 C207.848296,218.007704 207.758222,218.600296 208.142222,219.036444 C208.469333,219.401481 209.028741,219.496296 209.46963,219.102815 C209.867852,218.747259 209.910519,218.149926 209.540741,217.746963 Z M204.131556,225.303704 L203.278222,224.161185 L200.466963,226.261333 L200.599704,222.473481 L199.168,222.426074 L198.992593,227.697778 L200.13037,228.295111 L204.131556,225.303704 Z M192.440889,230.71763 C192.180148,230.295704 191.630222,230.134519 191.160889,230.428444 C190.738963,230.689185 190.544593,231.253333 190.848,231.74637 C191.104,232.163556 191.639704,232.348444 192.142222,232.040296 C192.592593,231.765333 192.739556,231.186963 192.440889,230.71763 Z M186.036148,237.316741 L185.718519,236.686222 C185.339259,235.927704 184.666074,235.401481 183.907556,235.20237 C184.201481,234.477037 184.187259,233.618963 183.808,232.865185 L183.49037,232.225185 L182.215111,232.865185 L182.532741,233.500444 C182.888296,234.202074 182.599111,235.060148 181.897481,235.410963 C181.195852,235.757037 180.342519,235.472593 179.986963,234.770963 L179.669333,234.140444 L178.394074,234.770963 L178.716444,235.410963 C179.418074,236.818963 181.129481,237.387852 182.532741,236.686222 C183.006815,236.449185 183.547259,236.496593 183.954963,236.766815 L180.944593,238.279111 L181.579852,239.544889 L186.036148,237.316741 Z M173.582222,242.88237 L173.089185,241.540741 L169.780148,242.74963 L170.998519,239.137185 L169.637926,238.686815 L167.945481,243.707259 L168.874667,244.608 L173.582222,242.88237 Z M160.952889,247.352889 L160.080593,243.877926 L158.345481,244.309333 C158.151111,244.361481 157.961481,244.242963 157.909333,244.048593 C157.861926,243.854222 157.980444,243.664593 158.174815,243.617185 L159.905185,243.185778 L159.563852,241.796741 L157.824,242.228148 C156.86637,242.465185 156.283259,243.437037 156.520296,244.399407 C156.762074,245.357037 157.733926,245.940148 158.691556,245.69837 L159.03763,245.608296 L159.213037,246.305185 L158.848,246.395259 C157.515852,246.731852 156.164741,245.916444 155.832889,244.584296 L155.567407,243.527111 L154.17837,243.877926 L155.396741,248.741926 L156.785778,248.38637 L156.567704,247.523556 C157.359407,247.898074 158.283852,248.016593 159.203556,247.784296 L160.952889,247.352889 Z M148.148148,247.594667 C148.067556,247.10163 147.621926,246.746074 147.067259,246.836148 C146.583704,246.916741 146.180741,247.367111 146.275556,247.940741 C146.356148,248.419556 146.778074,248.803556 147.361185,248.708741 C147.887407,248.623407 148.242963,248.144593 148.148148,247.594667 Z M139.287704,250.059852 L137.53363,248.538074 L139.060148,246.779259 L137.969778,245.831111 L136.448,247.585185 L134.689185,246.063407 L133.741037,247.153778 L135.504593,248.680296 L133.973333,250.43437 L135.068444,251.377778 L136.590222,249.623704 L138.344296,251.145481 L139.287704,250.059852 Z M126.288593,246.044444 L124.856889,245.992296 L124.828444,246.708148 C124.8,247.433481 124.558222,248.101926 124.155259,248.651852 L123.662222,248.116148 C123.927704,247.694222 124.088889,247.205926 124.112593,246.674963 L124.141037,245.963852 L122.709333,245.902222 L122.680889,246.618074 C122.647704,247.405037 121.979259,248.026074 121.192296,247.992889 L120.476444,247.964444 L120.414815,249.396148 L121.130667,249.424593 C121.66163,249.448296 122.159407,249.325037 122.600296,249.092741 L123.093333,249.628444 C122.514963,249.984 121.837037,250.168889 121.102222,250.145185 L120.38637,250.116741 L120.329481,251.543704 L126.056296,251.776 L126.117926,250.344296 L124.60563,250.282667 C125.572741,249.41037 126.208,248.168296 126.260148,246.765037 L126.288593,246.044444 Z M113.408,245.167407 L111.995259,244.963556 L111.890963,245.674667 C111.791407,246.395259 111.478519,247.030519 111.028148,247.542519 L110.587259,246.959407 C110.895407,246.565926 111.108741,246.096593 111.184593,245.575111 L111.284148,244.864 L109.861926,244.660148 L109.767111,245.371259 C109.648593,246.148741 108.923259,246.698667 108.145778,246.584889 L107.434667,246.485333 L107.235556,247.902815 L107.941926,248.00237 C108.463407,248.078222 108.975407,248.00237 109.44,247.817481 L109.871407,248.400593 C109.259852,248.699259 108.562963,248.813037 107.84237,248.713481 L107.131259,248.609185 L106.927407,250.026667 L112.602074,250.837333 L112.805926,249.419852 L111.307852,249.206519 C112.360296,248.438519 113.109333,247.267556 113.308444,245.873778 L113.408,245.167407 Z M99.6266667,246.840889 L96.2133333,245.94963 L99.2711111,243.669333 L98.4082963,242.517333 L94.1558519,245.69837 L94.4071111,246.964148 L99.2663704,248.229926 L99.6266667,246.840889 Z M88.4954074,239.284148 L87.1585185,238.776889 L86.9072593,239.440593 C86.6275556,240.175407 85.8026667,240.545185 85.0725926,240.270222 C84.3377778,239.985778 83.968,239.160889 84.242963,238.430815 L84.498963,237.76237 L83.1715556,237.259852 L82.9155556,237.918815 C82.3561481,239.393185 83.090963,241.038222 84.5605926,241.59763 C85.0536296,241.787259 85.3854815,242.218667 85.4613333,242.697481 L82.3134815,241.502815 L81.8062222,242.834963 L86.4663704,244.608 L86.7223704,243.939556 C87.021037,243.147852 86.9451852,242.299259 86.5801481,241.60237 C87.3197037,241.327407 87.936,240.739556 88.2394074,239.947852 L88.4954074,239.284148 Z M75.9940741,234.244741 L71.533037,231.969185 L70.8882963,233.239704 L74.0171852,234.842074 L70.5422222,236.397037 L71.1348148,237.705481 L75.9608889,235.529481 L75.9940741,234.244741 Z M62.2885926,229.508741 L64.5783704,229.044148 L64.2891852,227.626667 L62.0041481,228.091259 L61.5395556,225.806222 L60.1220741,226.090667 L60.5866667,228.380444 L58.2968889,228.840296 L58.5860741,230.257778 L60.8711111,229.797926 L61.3357037,232.082963 L62.7531852,231.793778 L62.2885926,229.508741 Z M54.8551111,220.676741 L53.7505185,219.761778 L53.3001481,220.316444 C52.8308148,220.875852 52.2382222,221.255111 51.5887407,221.449481 L51.5602963,221.108148 C51.7451852,221.003852 51.9205926,220.86163 52.0628148,220.686222 C52.6933333,219.927704 52.589037,218.799407 51.8305185,218.168889 C51.072,217.543111 49.9484444,217.647407 49.3179259,218.405926 C48.6874074,219.164444 48.7964444,220.292741 49.554963,220.918519 C49.7303704,221.065481 49.9247407,221.174519 50.1285926,221.240889 L50.1617778,221.582222 C49.4838519,221.511111 48.8296296,221.25037 48.2702222,220.785778 L47.7202963,220.325926 L46.8100741,221.430519 L51.2047407,225.071407 L52.1197037,223.976296 L50.962963,223.013926 C52.2524444,222.904889 53.504,222.302815 54.3952593,221.226667 L54.8551111,220.676741 Z M43.282963,213.447111 C42.9321481,213.101037 42.3348148,213.039407 41.9223704,213.447111 C41.581037,213.797926 41.5194074,214.362074 41.9365926,214.779259 C42.3111111,215.153778 42.9084444,215.163259 43.2924444,214.769778 C43.648,214.409481 43.6764444,213.845333 43.282963,213.447111 Z M37.8216296,204.141037 C37.1816296,203.382519 36.0485926,203.287704 35.2900741,203.927704 C34.7591111,204.373333 34.5505185,205.070222 34.6974815,205.705481 C34.157037,205.89037 33.5265185,205.733926 33.1377778,205.274074 L32.6731852,204.719407 L31.5733333,205.648593 L32.0331852,206.198519 C32.5878519,206.852741 33.3795556,207.203556 34.176,207.217778 C34.0527407,208.004741 34.2613333,208.843852 34.8112593,209.498074 L35.2758519,210.048 L36.3757037,209.118815 L35.9158519,208.57363 C35.5271111,208.109037 35.4797037,207.464296 35.7546667,206.961778 C36.3567407,207.213037 37.0725926,207.122963 37.6035556,206.677333 C38.3620741,206.037333 38.4616296,204.904296 37.8216296,204.141037 Z M26.9842963,199.533037 L31.7297778,196.352 L28.9422222,192.199111 L27.6527407,192.469333 L27.5247407,193.185185 C26.8562963,193.298963 26.3300741,193.507556 25.9460741,193.768296 C24.978963,194.417778 24.6897778,195.546074 25.2823704,196.427852 C25.8275556,197.243259 26.9321481,197.466074 27.757037,196.916148 C28.1552593,196.645926 28.4207407,196.247704 28.5155556,195.764148 C28.5914074,195.342222 28.6625185,194.920296 28.7431111,194.465185 L29.7481481,195.958519 L26.1878519,198.347852 L26.9842963,199.533037 Z M24.5143704,184.808296 L23.8364444,183.552 L18.8017778,186.268444 L19.4844444,187.529481 L24.5143704,184.808296 Z M18.0859259,177.005037 C17.8868148,176.554667 17.3558519,176.284444 16.8248889,176.516741 C16.384,176.715852 16.1232593,177.223111 16.3602963,177.754074 C16.5783704,178.23763 17.1282963,178.460444 17.6213333,178.232889 C18.0811852,178.029037 18.3134815,177.512296 18.0859259,177.005037 Z M11.8660741,171.003259 L17.3037037,169.15437 L16.0284444,165.409185 C15.7108148,164.475259 14.6915556,163.972741 13.7528889,164.29037 C12.8142222,164.612741 12.3117037,165.632 12.6340741,166.570667 C12.9517037,167.509333 13.970963,168.007111 14.9096296,167.694222 L15.2462222,167.575704 L15.4785185,168.25363 L11.4014815,169.642667 L11.8660741,171.003259 Z M10.2779259,155.728593 L12.2500741,156.975407 L13.0180741,155.752296 L11.0506667,154.510222 L12.288,152.538074 L11.0696296,151.770074 L9.82281481,153.742222 L7.85540741,152.495407 L7.08266667,153.723259 L9.05481481,154.960593 L7.81274074,156.932741 L9.03585185,157.705481 L10.2779259,155.728593 Z M6.07762963,144.768 C6.92148148,144.673185 7.64207407,144.222815 8.09718519,143.573333 C8.6802963,144.104296 9.48622222,144.388741 10.3300741,144.289185 L11.0411852,144.213333 L10.88,142.795852 L10.1688889,142.876444 C9.39140741,142.961778 8.6802963,142.39763 8.59496296,141.615407 C8.50962963,140.837926 9.07377778,140.126815 9.85125926,140.036741 L10.5623704,139.956148 L10.4011852,138.543407 L9.69481481,138.619259 C8.85096296,138.718815 8.12088889,139.169185 7.67525926,139.818667 C7.09214815,139.287704 6.28622222,139.003259 5.43762963,139.098074 L4.73125926,139.178667 L4.89244444,140.596148 L5.59881481,140.520296 C6.3762963,140.430222 7.08740741,140.99437 7.17274074,141.776593 C7.26281481,142.554074 6.69866667,143.265185 5.91644444,143.350519 L5.20533333,143.431111 L5.36651852,144.853333 L6.07762963,144.768 Z M4.28088889,131.555556 L8.2157037,131.474963 C9.20651852,131.456 9.99348148,130.640593 9.96977778,129.649778 C9.95081481,128.663704 9.13066667,127.876741 8.14459259,127.895704 C7.15377778,127.914667 6.37155556,128.734815 6.39051852,129.72563 L6.39525926,130.081185 L5.68414815,130.095407 L5.67466667,129.72563 C5.64622222,128.350815 6.74133333,127.208296 8.11614815,127.179852 L8.832,127.16563 L8.80355556,125.733926 L8.0877037,125.748148 C5.92592593,125.790815 4.19555556,127.587556 4.24296296,129.754074 L4.28088889,131.555556 Z M4.63644444,118.016 L8.17777778,118.381037 L8.35792593,116.608 C8.38162963,116.408889 8.5522963,116.266667 8.75140741,116.29037 C8.94577778,116.309333 9.09274074,116.48 9.06903704,116.679111 L8.88888889,118.452148 L10.3016296,118.59437 L10.4865185,116.821333 C10.5860741,115.844741 9.87496296,114.967704 8.89837037,114.868148 C7.91703704,114.768593 7.04474074,115.484444 6.94044444,116.461037 L6.90725926,116.816593 L6.19614815,116.745481 L6.23407407,116.375704 C6.37155556,115.015111 7.58992593,114.019556 8.95051852,114.157037 L10.0314074,114.270815 L10.1736296,112.853333 L5.21007407,112.346074 L5.06785185,113.763556 L5.95437037,113.85363 C5.33333333,114.469926 4.91614815,115.294815 4.81659259,116.228741 L4.63644444,118.016 Z M8.01659259,104.647111 C7.91703704,105.168593 8.23940741,105.66637 8.77985185,105.765926 C9.27288889,105.860741 9.75644444,105.571556 9.86548148,105.02637 C9.9602963,104.542815 9.68059259,104.011852 9.10696296,103.898074 C8.63288889,103.808 8.12562963,104.073481 8.01659259,104.647111 Z M9.38192593,93.3357037 L12.4539259,97.6402963 L13.7197037,97.4174815 L15.085037,92.6103704 L13.7102222,92.2168889 L12.7525926,95.597037 L10.5481481,92.5013333 L9.38192593,93.3357037 Z M12.3780741,83.5745185 L13.0417778,83.8494815 C13.8334815,84.1765926 14.6962963,84.1291852 15.4121481,83.7783704 C15.6634074,84.5274074 16.2417778,85.1721481 17.0334815,85.4992593 L17.7019259,85.7742222 L18.2471111,84.4420741 L17.5881481,84.1671111 C16.8485926,83.8637037 16.5025185,83.0198519 16.8059259,82.285037 C17.1045926,81.554963 17.9531852,81.2041481 18.6832593,81.5075556 L19.3517037,81.7825185 L19.9016296,80.4503704 L19.2331852,80.1754074 C17.7635556,79.5685926 16.0805926,80.2702222 15.469037,81.7398519 C15.2651852,82.2328889 14.8242963,82.5505185 14.3312593,82.6168889 L15.6302222,79.469037 L14.2980741,78.9143704 L12.3780741,83.5745185 Z M19.9111111,72.9552593 C20.3567407,73.1828148 20.9066667,73.0453333 21.1626667,72.5475556 C21.394963,72.1066667 21.2764444,71.5188148 20.754963,71.2485926 C20.3282963,71.021037 19.7688889,71.1348148 19.4939259,71.6562963 C19.2426667,72.1256296 19.4133333,72.704 19.9111111,72.9552593 Z M24.5191111,65.4174815 C25.8512593,66.2613333 27.6100741,65.8725926 28.4586667,64.5451852 C29.3025185,63.2177778 28.9137778,61.458963 27.5911111,60.6103704 C26.2637037,59.7617778 24.5048889,60.1505185 23.6562963,61.4826667 C22.8077037,62.8053333 23.1964444,64.5688889 24.5191111,65.4174815 Z M31.3362963,54.1487407 L32.4503704,55.0447407 L36.0391111,50.5884444 L34.925037,49.6924444 L31.3362963,54.1487407 Z M41.0074074,40.2678519 L41.5952593,45.5300741 L42.8136296,45.9567407 L46.354963,42.4154074 L45.3404444,41.4008889 L42.8515556,43.8945185 L42.4391111,40.1019259 L41.0074074,40.2678519 Z M48.786963,32.9244444 L52.4278519,37.3191111 L53.5324444,36.4088889 L49.8820741,32.0094815 L48.786963,32.9244444 Z M56.594963,26.8847407 L57.3914074,28.0699259 L57.984,27.6764444 C58.4817778,27.3398519 59.1217778,27.3635556 59.5911111,27.6859259 C59.2734815,28.2595556 59.282963,28.9754074 59.6717037,29.549037 C60.2216296,30.3691852 61.330963,30.592 62.1511111,30.0373333 C62.9712593,29.4921481 63.1893333,28.3828148 62.6346667,27.5626667 C62.2506667,26.9842963 61.5917037,26.7093333 60.9422222,26.7804444 C60.8237037,26.2257778 61.0465185,25.6237037 61.5395556,25.2871111 L62.1368889,24.8888889 L61.3404444,23.7037037 L60.7478519,24.1019259 C60.0414815,24.5712593 59.6100741,25.3202963 59.5057778,26.1025185 C58.7425185,25.8986667 57.8891852,26.0124444 57.1875556,26.4865185 L56.594963,26.8847407 Z M68.7312593,22.1677037 C68.9682963,22.6085926 69.5134815,22.7934815 70.0017778,22.5232593 C70.4379259,22.2862222 70.6607407,21.7268148 70.3762963,21.2148148 C70.1392593,20.7881481 69.613037,20.5748148 69.0962963,20.8592593 C68.6317037,21.1152593 68.4562963,21.6888889 68.7312593,22.1677037 Z M75.4725926,15.8435556 L77.7860741,21.1105185 L82.3893333,19.0814815 L82.3514074,17.7493333 L81.664,17.4980741 C81.6687407,16.8154074 81.554963,16.2607407 81.3653333,15.8340741 C80.8912593,14.7626667 79.8245926,14.2696296 78.848,14.701037 C77.9377778,15.0992593 77.5253333,16.1564444 77.9235556,17.0714074 C78.1179259,17.5122963 78.4687407,17.8441481 78.9333333,18.0242963 C79.341037,18.176 79.7392593,18.322963 80.1801481,18.4841481 L78.5208889,19.2142222 L76.7857778,15.2651852 L75.4725926,15.8435556 Z M88.5285926,10.6666667 L90.3205926,16.1042963 L91.6811852,15.6586667 L89.8939259,10.221037 L88.5285926,10.6666667 Z M97.9911111,7.83644444 L98.157037,8.53807407 C98.3419259,9.37244444 98.8776296,10.0503704 99.5745185,10.4296296 C99.1146667,11.0743704 98.9202963,11.9134815 99.1099259,12.7478519 L99.2663704,13.4494815 L100.66963,13.1318519 L100.513185,12.4302222 C100.337778,11.6574815 100.826074,10.8847407 101.594074,10.7093333 C102.366815,10.5339259 103.139556,11.0222222 103.319704,11.794963 L103.480889,12.4965926 L104.884148,12.178963 L104.718222,11.4773333 C104.528593,10.642963 103.992889,9.96503704 103.300741,9.58577778 C103.760593,8.94103704 103.954963,8.10192593 103.765333,7.26755556 L103.608889,6.56592593 L102.20563,6.88355556 L102.362074,7.58518519 C102.537481,8.35792593 102.049185,9.13066667 101.281185,9.30607407 C100.508444,9.48148148 99.730963,8.99318519 99.5602963,8.22044444 L99.3943704,7.51881481 L97.9911111,7.83644444 Z M111.93363,5.29540741 L112.625778,10.9653333 L114.043259,10.7899259 L113.351111,5.12 L111.93363,5.29540741 Z M121.206519,6.92148148 C121.230222,7.424 121.633185,7.82696296 122.192593,7.79851852 C122.680889,7.77481481 123.131259,7.37185185 123.098074,6.79348148 C123.07437,6.30518519 122.695111,5.87851852 122.107259,5.90696296 C121.581037,5.93540741 121.168593,6.37155556 121.206519,6.92148148 Z M128.872296,8.56651852 L129.398519,9.74696296 L134.409481,9.89392593 L134.456889,8.46222222 L130.934519,8.35792593 L133.404444,5.45659259 L132.309333,4.52740741 L128.872296,8.56651852 Z M141.387852,7.48562963 C141.321481,7.98340741 141.643852,8.448 142.203259,8.51437037 C142.691556,8.576 143.198815,8.25837037 143.265185,7.68 C143.326815,7.19644444 143.028148,6.71762963 142.440296,6.64651852 C141.918815,6.58014815 141.444741,6.94044444 141.387852,7.48562963 Z M149.428148,11.8755556 L151.182222,12.2358519 C152.149333,12.434963 153.102222,11.8139259 153.296593,10.8420741 C153.495704,9.87496296 152.874667,8.92681481 151.907556,8.7277037 L151.552,8.65659259 L151.698963,7.95496296 L152.064,8.03081481 C153.41037,8.30577778 154.282667,9.62844444 154.002963,10.9748148 L153.780148,12.0414815 L155.188148,12.3306667 L156.197926,7.41925926 L154.794667,7.13007407 L154.614519,8.00711111 C154.064593,7.3197037 153.28237,6.81718519 152.353185,6.62755556 L150.584889,6.26251852 L149.864296,9.77066667 L151.61363,10.130963 C151.812741,10.1736296 151.931259,10.3585185 151.898074,10.5528889 C151.855407,10.752 151.670519,10.8752593 151.471407,10.8325926 L149.717333,10.4722963 L149.428148,11.8755556 Z M162.432,13.6059259 L162.602667,14.8811852 L167.36237,16.4503704 L167.812741,15.0897778 L164.465778,13.9851852 L167.661037,11.9134815 L166.874074,10.7093333 L162.432,13.6059259 Z M174.042074,19.2521481 L175.668148,19.9964444 C176.568889,20.4041481 177.630815,20.0106667 178.038519,19.1099259 C178.446222,18.2091852 178.052741,17.152 177.156741,16.7395556 L176.824889,16.5925926 L177.123556,15.9431111 L177.460148,16.0948148 C178.711704,16.6637037 179.26637,18.1428148 178.697481,19.3943704 L178.247111,20.3804444 L179.550815,20.9777778 L181.622519,16.4171852 L180.323556,15.8245926 L179.953778,16.64 C179.565037,15.8482963 178.915556,15.1845926 178.057481,14.7911111 L176.412444,14.0468148 L174.933333,17.298963 L176.559407,18.0432593 C176.744296,18.1238519 176.820148,18.3324444 176.739556,18.5173333 C176.654222,18.6974815 176.44563,18.7780741 176.260741,18.6927407 L174.634667,17.9531852 L174.042074,19.2521481 Z M185.581037,24.9078519 L186.81363,25.6331852 L187.173926,25.0168889 C187.538963,24.3911111 188.065185,23.9217778 188.676741,23.6278519 L188.762074,23.9597037 C188.596148,24.0877037 188.449185,24.2583704 188.330667,24.4574815 C187.832889,25.3060741 188.112593,26.3964444 188.961185,26.898963 C189.814519,27.3967407 190.904889,27.1122963 191.407407,26.2637037 C191.905185,25.4151111 191.620741,24.3247407 190.772148,23.8222222 C190.577778,23.7084444 190.364444,23.6325926 190.151111,23.5994074 L190.061037,23.2675556 C190.743704,23.2248889 191.42637,23.3813333 192.052148,23.7511111 L192.668444,24.1114074 L193.393778,22.8835556 L188.472889,19.9917037 L187.752296,21.2195556 L189.051259,21.9828148 C187.790222,22.2957037 186.652444,23.0874074 185.941333,24.2915556 L185.581037,24.9078519 Z M198.746074,33.5122963 C199.537778,34.1001481 200.656593,33.938963 201.244444,33.152 C201.66163,32.5973333 201.699556,31.8814815 201.419852,31.2936296 C201.898667,30.994963 202.543407,31.0044444 203.026963,31.3647407 L203.595852,31.7914074 L204.453926,30.6488889 L203.875556,30.2222222 C203.19763,29.714963 202.353778,29.5537778 201.581037,29.7197037 C201.519407,28.9327407 201.125926,28.1694815 200.452741,27.6622222 L199.879111,27.2355556 L199.025778,28.3780741 L199.594667,28.8047407 C200.078222,29.1602963 200.267852,29.7765926 200.116148,30.3217778 C199.476148,30.2174815 198.802963,30.464 198.385778,31.0186667 C197.797926,31.8056296 197.959111,32.9244444 198.746074,33.5122963 Z M208.374519,38.4379259 C208.744296,38.7697778 209.34637,38.7934815 209.73037,38.3620741 C210.052741,38.0017778 210.085926,37.4281481 209.645037,37.0346667 C209.246815,36.6838519 208.649481,36.7075556 208.289185,37.1247407 C207.957333,37.4992593 207.957333,38.0681481 208.374519,38.4379259 Z M212.271407,45.3072593 L213.252741,46.3454815 L213.774222,45.8571852 C214.347852,45.312 215.258074,45.3404444 215.798519,45.9140741 C216.338963,46.4877037 216.310519,47.3979259 215.74163,47.9383704 L215.220148,48.4314074 L216.206222,49.4696296 L216.722963,48.9813333 C217.344,48.3934815 217.652148,47.5922963 217.623704,46.8005926 C218.415407,46.8764444 219.230815,46.6157037 219.851852,46.0278519 L220.373333,45.5348148 L219.387259,44.4965926 L218.870519,44.9896296 C218.292148,45.5300741 217.381926,45.5063704 216.841481,44.928 C216.301037,44.3543704 216.324741,43.4441481 216.903111,42.9037037 L217.419852,42.4106667 L216.438519,41.3677037 L215.917037,41.8607407 C215.296,42.4485926 214.987852,43.2497778 215.016296,44.0414815 C214.229333,43.9703704 213.409185,44.2263704 212.788148,44.8142222 L212.271407,45.3072593 Z M221.165037,55.5377778 L222.037333,56.6660741 L226.550519,53.1958519 L225.678222,52.0628148 L221.165037,55.5377778 Z M228.03437,64.9576296 L233.287111,65.5881481 L233.974519,64.5072593 L231.338667,60.2548148 L230.129778,61.0085926 L231.973926,63.9952593 L228.200296,63.5306667 L228.03437,64.9576296 Z M233.879704,75.776 C234.30637,76.6625185 235.377778,77.037037 236.264296,76.6056296 C237.155556,76.178963 237.525333,75.1075556 237.098667,74.221037 L236.942222,73.8986667 L237.586963,73.5857778 L237.748148,73.9223704 C238.345481,75.154963 237.828741,76.6482963 236.591407,77.2456296 L235.946667,77.5537778 L236.567704,78.8432593 L237.212444,78.5303704 C239.156148,77.5917037 239.976296,75.245037 239.032889,73.3013333 L238.250667,71.68 L234.709333,73.3866667 C233.822815,73.8180741 233.453037,74.8847407 233.879704,75.776 Z M239.653926,85.5182222 L238.748444,86.4284444 L240.417185,91.1407407 L241.768296,90.6619259 L240.592593,87.3528889 L244.176593,88.5997037 L244.645926,87.2485926 L239.653926,85.5182222 Z M247.822222,96.8628148 L242.266074,98.1902222 L243.432296,103.054222 L244.740741,103.243852 L246.300444,100.598519 C246.362074,100.484741 246.46163,100.446815 246.518519,100.432593 C246.712889,100.385185 246.907259,100.508444 246.945185,100.698074 C246.959407,100.754963 246.97363,100.859259 246.907259,100.963556 L246.532741,101.575111 L247.74637,102.319407 L248.12563,101.712593 C248.372148,101.304889 248.424296,100.821333 248.315259,100.370963 C248.082963,99.3896296 247.149037,98.816 246.186667,99.0435556 C245.722074,99.1573333 245.333333,99.437037 245.077333,99.858963 L244.404148,100.996741 L243.986963,99.2474074 L248.154074,98.2471111 L247.822222,96.8628148 Z M249.012148,120.267852 C248.50963,120.291556 248.111407,120.694519 248.135111,121.253926 C248.158815,121.746963 248.561778,122.192593 249.140148,122.164148 C249.633185,122.140444 250.059852,121.756444 250.026667,121.168593 C249.998222,120.64237 249.562074,120.234667 249.012148,120.267852 Z M250.55763,110.762667 L244.887704,111.516444 L245.072593,112.933926 L250.742519,112.180148 L250.55763,110.762667 Z M256,128 C256,198.693926 198.693926,256 128,256 C57.3060741,256 -5.32907052e-15,198.693926 -5.32907052e-15,128 C-5.32907052e-15,57.3060741 57.3060741,0 128,0 C198.693926,0 256,57.3060741 256,128 Z M230.46163,189.458963 L230.281481,189.767111 C230.177185,189.937778 230.234074,190.151111 230.404741,190.255407 C230.575407,190.354963 230.793481,190.298074 230.893037,190.127407 C230.992593,189.956741 230.935704,189.738667 230.765037,189.639111 L230.46163,189.458963 Z M248.713481,145.735111 C248.741926,145.536 248.599704,145.355852 248.410074,145.332148 C248.353185,145.322667 248.244148,145.322667 248.144593,145.403259 L247.523556,145.891556 C247.717926,145.98637 247.898074,146.038519 248.054519,146.052741 C248.376889,146.100148 248.675556,146.019556 248.713481,145.735111 Z M247.405037,131.749926 C247.395556,131.953778 247.547259,132.114963 247.751111,132.119704 C247.950222,132.124444 248.116148,131.972741 248.116148,131.77363 C248.12563,131.574519 247.973926,131.413333 247.770074,131.403852 C247.570963,131.399111 247.409778,131.550815 247.405037,131.749926 Z M167.608889,223.620741 C167.646815,223.606519 167.684741,223.582815 167.717926,223.568593 C167.556741,223.639704 167.376593,223.658667 167.205926,223.696593 C167.338667,223.672889 167.480889,223.67763 167.608889,223.620741 Z M235.809185,74.8420741 L235.657481,74.5197037 L235.33037,74.6761481 C235.150222,74.7614815 235.079111,74.9700741 235.164444,75.1502222 C235.254519,75.3351111 235.467852,75.4062222 235.643259,75.3208889 C235.823407,75.2355556 235.894519,75.0222222 235.809185,74.8420741 Z M25.5905185,63.7392593 C25.9887407,63.9905185 26.5291852,63.8767407 26.7851852,63.4785185 C27.0364444,63.0802963 26.9131852,62.5398519 26.5197037,62.2885926 C26.1214815,62.0325926 25.581037,62.1511111 25.3297778,62.5493333 C25.0785185,62.9475556 25.197037,63.488 25.5905185,63.7392593 Z M25.2918519,64.2133333 C24.6281481,63.7914074 24.4337778,62.9048889 24.8557037,62.2459259 C25.2776296,61.586963 26.1641481,61.3925926 26.8231111,61.8097778 C27.4820741,62.2317037 27.6764444,63.1182222 27.2592593,63.7771852 C26.8373333,64.4408889 25.9508148,64.6352593 25.2918519,64.2133333 Z M190.174815,25.5431111 C190.27437,25.3677037 190.222222,25.1543704 190.046815,25.0548148 C189.876148,24.9505185 189.658074,25.0074074 189.558519,25.1780741 C189.454222,25.3534815 189.511111,25.5668148 189.686519,25.6663704 C189.857185,25.7659259 190.070519,25.7137778 190.174815,25.5431111 Z M177.109333,88.1398519 C176.06163,88.9268148 175.853037,90.4106667 176.64,91.4583704 C182.087111,98.706963 185.898667,107.235556 187.666963,116.124444 C187.885037,117.252741 188.875852,118.034963 189.985185,118.034963 C190.136889,118.034963 190.293333,118.020741 190.449778,117.987556 C191.734519,117.731556 192.568889,116.484741 192.312889,115.204741 C190.411852,105.618963 186.30163,96.4266667 180.427852,88.6091852 C179.64563,87.5662222 178.166519,87.3576296 177.109333,88.1398519 Z M188.837926,127.995259 C188.837926,131.972741 188.444444,135.969185 187.666963,139.866074 C187.410963,141.146074 188.245333,142.39763 189.525333,142.65363 C189.681778,142.686815 189.838222,142.696296 189.994667,142.696296 C191.099259,142.696296 192.090074,141.918815 192.312889,140.790519 C193.000296,137.362963 193.332148,133.864296 193.460148,130.36563 L203.847111,130.36563 C205.155556,130.36563 206.217481,129.303704 206.217481,127.995259 C206.217481,118.456889 204.430222,109.165037 201.064296,100.295111 L210.659556,96.3223704 C211.868444,95.8198519 212.442074,94.4355556 211.944296,93.2219259 C211.441778,92.0177778 210.062222,91.4441481 208.843852,91.9419259 L197.162667,96.7774815 C196.257185,97.1567407 195.712,98.029037 195.702519,98.9534815 C195.697778,99.2616296 195.759407,99.5745185 195.882667,99.8779259 C199.291259,108.09363 201.078519,116.754963 201.358222,125.624889 L191.208296,125.624889 C189.895111,125.624889 188.837926,126.686815 188.837926,127.995259 Z M200.068741,142.326519 C199.125333,147.043556 197.722074,151.684741 195.882667,156.117333 C195.380148,157.321481 195.958519,158.710519 197.162667,159.213037 C197.461333,159.336296 197.764741,159.393185 198.072889,159.393185 C199.002074,159.393185 199.883852,158.843259 200.263111,157.928296 C201.912889,153.941333 203.164444,149.778963 204.136296,145.554963 L224.293926,149.57037 C223.061333,155.079111 221.435259,160.507259 219.245037,165.793185 C218.742519,166.997333 219.316148,168.38637 220.525037,168.888889 C220.823704,169.012148 221.131852,169.069037 221.435259,169.069037 C222.364444,169.069037 223.241481,168.519111 223.620741,167.604148 C228.849778,154.979556 231.504593,141.658074 231.504593,127.995259 C231.504593,126.686815 230.442667,125.624889 229.134222,125.624889 C227.821037,125.624889 226.763852,126.686815 226.763852,127.995259 C226.763852,133.712593 226.190222,139.349333 225.21837,144.919704 L217.462519,143.374222 C218.330074,138.292148 218.861037,133.138963 218.861037,127.995259 C218.861037,126.686815 217.799111,125.624889 216.490667,125.624889 C215.177481,125.624889 214.120296,126.686815 214.120296,127.995259 C214.120296,132.830815 213.627259,137.671111 212.811852,142.449778 L202.856296,140.468148 C201.581037,140.212148 200.32,141.037037 200.068741,142.326519 Z M200.106667,32.2986667 C200.220444,32.1374815 200.192,31.9194074 200.030815,31.7961481 C199.86963,31.6823704 199.651556,31.7108148 199.528296,31.872 C199.409778,32.0331852 199.442963,32.2512593 199.604148,32.3697778 C199.760593,32.4882963 199.983407,32.4598519 200.106667,32.2986667 Z M50.413037,219.320889 C50.2897778,219.472593 50.3087407,219.695407 50.4604444,219.818667 C50.6168889,219.946667 50.834963,219.927704 50.9677037,219.771259 C51.0957037,219.619556 51.072,219.396741 50.9202963,219.268741 C50.7685926,219.140741 50.5457778,219.159704 50.413037,219.320889 Z M80.0474074,16.4124444 C79.9146667,16.109037 79.6871111,15.9004444 79.4263704,16.018963 C79.2414815,16.0995556 79.1656296,16.3128889 79.2414815,16.493037 C79.2651852,16.5451852 79.3220741,16.64 79.4405926,16.6779259 L80.1943704,16.9528889 C80.1659259,16.7395556 80.1185185,16.5546667 80.0474074,16.4124444 Z M36.1718519,205.530074 C36.3045926,205.686519 36.5274074,205.705481 36.6791111,205.577481 C36.8355556,205.449481 36.8545185,205.221926 36.7265185,205.070222 C36.5937778,204.913778 36.370963,204.899556 36.2145185,205.027556 C36.0628148,205.155556 36.0438519,205.37837 36.1718519,205.530074 Z M8.17303704,129.327407 C7.97392593,129.332148 7.81748148,129.493333 7.82222222,129.692444 L7.8317037,130.052741 L8.18725926,130.048 C8.39111111,130.043259 8.54281481,129.882074 8.53807407,129.678222 C8.53333333,129.479111 8.37214815,129.327407 8.17303704,129.327407 Z M62.5161481,125.624889 L52.1481481,125.624889 C51.6408889,125.624889 51.2,125.819259 50.8112593,126.089481 L59.7428148,130.36563 L64.768,130.36563 C64.7774815,130.36563 64.7822222,130.37037 64.7917037,130.37037 C64.8011852,130.37037 64.8059259,130.36563 64.8106667,130.36563 L77.4305185,130.36563 C78.738963,130.36563 79.8008889,129.303704 79.8008889,127.995259 C79.8008889,126.686815 78.738963,125.624889 77.4305185,125.624889 L67.2758519,125.624889 C67.3991111,122.439111 67.7072593,119.248593 68.3282963,116.124444 C68.4515556,115.508148 68.3235556,114.868148 67.9727407,114.346667 C67.6266667,113.825185 67.0814815,113.460148 66.4699259,113.34163 L44.1078519,108.890074 C45.1887407,104.149333 46.573037,99.5128889 48.4171852,95.0565926 C48.4219259,95.0518519 48.4314074,95.0471111 48.4314074,95.0376296 C48.4361481,95.0281481 48.4361481,95.0186667 48.4408889,95.0044444 C50.285037,90.5576296 52.5795556,86.2957037 55.1727407,82.1854815 L72.1777778,93.549037 C70.7508148,95.8577778 69.4708148,98.2518519 68.3472593,100.721778 L58.8278519,96.7774815 C57.6284444,96.2844444 56.2346667,96.8533333 55.7321481,98.0622222 C55.2296296,99.2711111 55.808,100.660148 57.0121481,101.157926 L68.6838519,105.993481 C68.973037,106.112 69.2811852,106.17363 69.5893333,106.17363 C69.8974815,106.17363 70.2103704,106.112 70.4995556,105.993481 C71.0779259,105.751704 71.5425185,105.287111 71.7842963,104.708741 C73.3013333,101.029926 75.1881481,97.4933333 77.3973333,94.189037 C77.7481481,93.6628148 77.8761481,93.0228148 77.7528889,92.4065185 C77.6296296,91.7902222 77.2693333,91.2497778 76.7478519,90.898963 L55.7368889,76.8616296 C54.6417778,76.1268148 53.1721481,76.4302222 52.4515556,77.5158519 C49.5644444,81.8346667 47.1514074,86.3905185 45.0607407,91.0743704 L37.7694815,88.0545185 C42.386963,77.6154074 48.6921481,68.1765926 56.5665185,59.9182222 L63.7487407,67.1004444 C64.2133333,67.5602963 64.8201481,67.7925926 65.426963,67.7925926 C66.0337778,67.7925926 66.6405926,67.5602963 67.1004444,67.1004444 C68.0296296,66.1712593 68.0296296,64.6731852 67.1004444,63.7487407 L58.1641481,54.8077037 C57.234963,53.8832593 55.7368889,53.8832593 54.8124444,54.8077037 C45.1508148,64.4693333 37.6035556,75.7617778 32.3745185,88.3863704 C31.8767407,89.5952593 32.4503704,90.9842963 33.6592593,91.4820741 L43.2497778,95.4548148 C41.4056296,100.247704 39.8980741,105.173333 38.8835556,110.26963 C38.6275556,111.55437 39.4619259,112.801185 40.7466667,113.057185 L63.2604444,117.532444 C62.829037,120.210963 62.6157037,122.917926 62.5161481,125.624889 Z M26.4675556,195.631407 C26.5765926,195.802074 26.7994074,195.835259 26.9605926,195.730963 C27.008,195.697778 27.0885926,195.626667 27.1075556,195.498667 L27.2497778,194.721185 C27.0411852,194.782815 26.8705185,194.858667 26.7425185,194.958222 C26.4722963,195.13837 26.3063704,195.39437 26.4675556,195.631407 Z M14.2174815,165.650963 C14.0278519,165.717333 13.9235556,165.916444 13.9899259,166.106074 C14.0515556,166.295704 14.2554074,166.395259 14.445037,166.33363 L14.7863704,166.215111 L14.6678519,165.873778 C14.6062222,165.684148 14.4071111,165.589333 14.2174815,165.650963 Z M61.3546667,28.8521481 C61.1887407,28.9659259 60.9706667,28.9185185 60.8568889,28.7573333 C60.7478519,28.5914074 60.7905185,28.3733333 60.9564444,28.2595556 C61.1223704,28.1457778 61.3404444,28.1931852 61.4494815,28.3591111 C61.5632593,28.525037 61.5205926,28.7431111 61.3546667,28.8521481 Z" id="structure" fill="#000000"></path>
        <path d="M42.8562963,136.485926 C41.5241481,136.38637 40.576,135.201185 40.7182222,133.925926 C40.813037,132.598519 41.9982222,131.65037 43.3256296,131.792593 C44.6103704,131.930074 45.5537778,133.067852 45.4162963,134.395259 C45.3167407,135.627852 44.2737778,136.533333 43.0459259,136.533333 C42.9937778,136.533333 42.898963,136.533333 42.8088889,136.485926 L42.8562963,136.485926 Z M190.577778,73.1022222 C189.44,72.4859259 189.013333,71.0162963 189.62963,69.8785185 C190.241185,68.7407407 191.710815,68.3140741 192.848593,68.9303704 C193.991111,69.5466667 194.413037,70.9688889 193.796741,72.1540741 C193.374815,72.9125926 192.568889,73.3866667 191.710815,73.3866667 C191.331556,73.3866667 190.957037,73.2918519 190.577778,73.1022222 Z M184.315259,70.0681481 C183.035259,70.0681481 181.944889,69.0251852 181.944889,67.6977778 C181.944889,66.4177778 182.987852,65.3274074 184.272593,65.3274074 L184.315259,65.3274074 C185.595259,65.3274074 186.68563,66.3703704 186.68563,67.6503704 C186.68563,68.9777778 185.647407,70.0681481 184.362667,70.0681481 L184.315259,70.0681481 Z M211.242667,61.0133333 C210.725926,61.0133333 210.157037,60.8711111 209.73037,60.4918519 C208.734815,59.6337778 208.592593,58.1214815 209.441185,57.1259259 C210.294519,56.1303704 211.768889,55.9881481 212.807111,56.8414815 C213.802667,57.6948148 213.902222,59.2118519 213.096296,60.2074074 C212.617481,60.7288889 211.911111,61.0133333 211.242667,61.0133333 Z M205.795556,67.2711111 C205.179259,67.2711111 204.61037,67.0340741 204.131556,66.6074074 C203.183407,65.7066667 203.136,64.1896296 204.041481,63.2414815 C204.937481,62.2933333 206.454519,62.2933333 207.407407,63.1893333 C208.355556,64.0474074 208.402963,65.5597037 207.497481,66.5125926 C207.028148,66.9866667 206.411852,67.2711111 205.795556,67.2711111 Z M199.627852,72.7656296 C198.821926,72.7656296 198.016,72.3437037 197.589333,71.5804444 C196.882963,70.4474074 197.257481,69.0251852 198.395259,68.3614815 C199.533037,67.6977778 201.002667,68.077037 201.671111,69.2100741 C202.330074,70.3525926 201.950815,71.7748148 200.813037,72.4385185 C200.438519,72.6708148 200.007111,72.7656296 199.627852,72.7656296 Z M177.109333,73.5762963 C176.592593,73.5762963 176.113778,73.4340741 175.687111,73.1022222 C174.644148,72.2962963 174.411852,70.8266667 175.217778,69.7837037 C176.018963,68.7407407 177.488593,68.5511111 178.536296,69.3096296 C179.574519,70.1155556 179.768889,71.5804444 179.00563,72.6281481 C178.536296,73.2444444 177.820444,73.5762963 177.109333,73.5762963 Z M23.2248889,142.791111 C24.4622222,143.17037 25.1685926,144.493037 24.7893333,145.777778 C24.4622222,146.773333 23.5567407,147.432296 22.5185185,147.432296 C22.2814815,147.432296 22.0397037,147.38963 21.8026667,147.342222 C20.5700741,146.915556 19.858963,145.588148 20.2382222,144.355556 C20.6648889,143.118222 21.9922963,142.411852 23.2248889,142.791111 Z M157.904593,226.019556 C158.103704,227.309037 157.179259,228.489481 155.885037,228.645926 C155.742815,228.683852 155.553185,228.66963 155.410963,228.660148 C154.320593,228.598519 153.377185,227.77837 153.211259,226.62637 C153.054815,225.332148 153.931852,224.156444 155.230815,223.947852 C156.572444,223.796148 157.748148,224.720593 157.904593,226.019556 Z M34.8397037,137.434074 C33.7967407,137.434074 32.8485926,136.722963 32.5688889,135.68 C32.2322963,134.395259 32.9481481,133.12 34.2234074,132.788148 C35.456,132.408889 36.7834074,133.12 37.1626667,134.395259 C37.4992593,135.68 36.7407407,136.96 35.5081481,137.339259 C35.2663704,137.381926 35.0767407,137.434074 34.8397037,137.434074 Z M28.7715556,140.420741 C28.3448889,140.747852 27.8281481,140.894815 27.3493333,140.894815 C26.642963,140.894815 25.9271111,140.558222 25.4577778,139.899259 C24.6992593,138.856296 24.9315556,137.339259 25.9745185,136.576 C27.0696296,135.817481 28.5345185,136.059259 29.293037,137.14963 C30.0515556,138.187852 29.8192593,139.662222 28.7715556,140.420741 Z M21.5656296,150.897778 C22.8456296,151.134815 23.6562963,152.410074 23.4145185,153.694815 C23.1774815,154.832593 22.1819259,155.58637 21.0962963,155.58637 C20.9540741,155.58637 20.7597037,155.58637 20.6174815,155.538963 C19.3422222,155.306667 18.4841481,154.026667 18.7733333,152.746667 C19.0056296,151.466667 20.2382222,150.660741 21.5656296,150.897778 Z M157.582222,231.888593 C158.629926,231.149037 160.132741,231.428741 160.867556,232.519111 C161.607111,233.609481 161.327407,235.06963 160.237037,235.804444 C159.796148,236.112593 159.255704,236.264296 158.738963,236.231111 C158.032593,236.188444 157.387852,235.818667 156.951704,235.169185 C156.212148,234.126222 156.491852,232.628148 157.582222,231.888593 Z M158.293333,217.490963 C159.469037,216.950519 160.862815,217.41037 161.455407,218.638222 C161.995852,219.809185 161.483852,221.202963 160.308148,221.748148 L160.308148,221.795556 C159.914667,221.961481 159.530667,222.032593 159.151407,222.008889 C158.302815,221.952 157.525333,221.435259 157.146074,220.648296 C156.600889,219.472593 157.070222,218.031407 158.293333,217.490963 Z" id="dots" fill="#000000"></path>
        <path d="M174.435556,207.454815 C174.961778,207.454815 175.312593,208.047407 175.018667,208.516741 L167.172741,221.112889 C166.997333,221.397333 166.71763,221.525333 166.437926,221.525333 C166.034963,221.525333 165.636741,221.255111 165.56563,220.776296 L164.721778,214.651259 L159.383704,211.541333 C158.677333,211.13363 158.871704,210.062222 159.67763,209.929481 L174.312296,207.464296 C174.354963,207.459556 174.392889,207.454815 174.435556,207.454815 Z M164.091259,84.4041481 C163.631407,84.4041481 163.26163,83.9253333 163.451259,83.4512593 L168.879407,69.6367407 C169.02637,69.266963 169.358222,69.0868148 169.694815,69.0868148 C170.040889,69.0868148 170.386963,69.2859259 170.514963,69.6841481 L172.458667,75.5484444 L178.275556,77.6391111 C179.043556,77.9140741 179.043556,78.9997037 178.280296,79.2794074 L164.337778,84.3567407 C164.252444,84.3899259 164.167111,84.4041481 164.091259,84.4041481 Z M47.6065185,141.032296 C46.9997037,141.032296 46.5256296,140.368593 46.8385185,139.752296 L49.6687407,134.262519 L47.0945185,128.644741 C46.8148148,128.033185 47.2936296,127.407407 47.8862222,127.407407 C48.0094815,127.407407 48.1374815,127.435852 48.2654815,127.492741 L61.6485926,133.906963 C62.189037,134.167704 62.1748148,134.940444 61.6248889,135.177481 L47.9525926,140.956444 C47.8340741,141.008593 47.7202963,141.032296 47.6065185,141.032296 Z" id="arrows" fill="#000000"></path>
        <path d="M146.962963,184.888889 C125.857185,184.888889 109.037037,167.665778 109.037037,146.962963 C109.037037,137.984 112.170667,129.754074 117.380741,123.259259 L120.888889,123.259259 C124.809481,123.259259 128,126.449778 128,130.37037 C128,131.65037 127.630222,132.897185 126.91437,134.063407 C124.747852,138.372741 123.259259,141.781333 123.259259,146.962963 C123.259259,159.625481 133.69363,170.666667 146.962963,170.666667 C154.718815,170.666667 161.540741,166.888296 165.864296,161.123556 L180.484741,175.744 L173.833481,182.395259 L169.111704,177.673481 C162.87763,182.191407 155.249778,184.888889 146.962963,184.888889 Z M150.940444,123.638519 C149.726815,118.21037 147.038815,113.246815 143.241481,109.221926 C144.464593,109.108148 145.706667,109.037037 146.962963,109.037037 C155.249778,109.037037 162.87763,111.734519 169.111704,116.247704 L173.833481,111.530667 L180.484741,118.181926 L165.864296,132.80237 C162.299259,128.052148 157.027556,124.686222 150.940444,123.638519 Z M146.962963,180.148148 C148.271407,180.148148 149.333333,179.086222 149.333333,177.777778 C149.333333,176.469333 148.271407,175.407407 146.962963,175.407407 C145.649778,175.407407 144.592593,176.469333 144.592593,177.777778 C144.592593,179.086222 145.649778,180.148148 146.962963,180.148148 Z M132.740741,171.595852 C131.602963,170.936889 130.157037,171.33037 129.498074,172.463407 C128.843852,173.596444 129.232593,175.047111 130.37037,175.701333 C131.503407,176.355556 132.954074,175.966815 133.603556,174.833778 C134.262519,173.700741 133.873778,172.250074 132.740741,171.595852 Z M160.31763,174.833778 C160.971852,175.966815 162.417778,176.355556 163.555556,175.701333 C164.688593,175.047111 165.077333,173.596444 164.41837,172.463407 C163.768889,171.33037 162.318222,170.936889 161.185185,171.595852 C160.047407,172.250074 159.658667,173.700741 160.31763,174.833778 Z M121.462519,129.502815 C120.324741,128.848593 118.874074,129.237333 118.224593,130.37037 C117.56563,131.503407 117.95437,132.954074 119.092148,133.608296 C120.220444,134.262519 121.675852,133.873778 122.325333,132.740741 C122.979556,131.607704 122.590815,130.157037 121.462519,129.502815 Z M122.325333,161.185185 C121.675852,160.052148 120.220444,159.663407 119.092148,160.31763 C117.95437,160.971852 117.56563,162.422519 118.224593,163.555556 C118.874074,164.688593 120.324741,165.077333 121.462519,164.41837 C122.590815,163.768889 122.979556,162.318222 122.325333,161.185185 Z M118.518519,146.962963 C118.518519,145.654519 117.456593,144.592593 116.148148,144.592593 C114.834963,144.592593 113.777778,145.654519 113.777778,146.962963 C113.777778,148.271407 114.834963,149.333333 116.148148,149.333333 C117.456593,149.333333 118.518519,148.271407 118.518519,146.962963 Z M161.185185,122.330074 C162.318222,122.984296 163.768889,122.595556 164.41837,121.462519 C165.077333,120.329481 164.688593,118.878815 163.555556,118.224593 C162.417778,117.57037 160.971852,117.959111 160.31763,119.092148 C159.658667,120.225185 160.047407,121.675852 161.185185,122.330074 Z M105.728,156.444444 L85.3333333,156.444444 L85.3333333,142.222222 L90.4106667,142.222222 L90.4106667,94.8148148 L90.4106667,85.3333333 L85.3333333,85.3333333 L85.3333333,71.1111111 L114.11437,71.1111111 C115.584,71.1111111 117.010963,71.2865185 118.409481,71.5425185 C129.441185,73.5668148 137.818074,83.1952593 137.818074,94.8148148 C137.818074,99.6171852 136.362667,104.073481 133.911704,107.804444 C141.923556,112.421926 146.962963,120.950519 146.962963,130.37037 C146.962963,141.620148 139.780741,151.205926 129.768296,154.851556 C128.658963,152.443259 128,149.788444 128,146.962963 C128,143.194074 129.052444,139.505778 130.953481,136.552296 C132.062815,134.746074 132.740741,132.641185 132.740741,130.37037 C132.740741,123.832889 127.42163,118.518519 120.888889,118.518519 L114.11437,118.518519 L104.632889,118.518519 L104.632889,146.962963 C104.632889,150.224593 105.031111,153.386667 105.728,156.444444 Z M104.632889,104.296296 L114.11437,104.296296 C119.348148,104.296296 123.595852,100.048593 123.595852,94.8148148 C123.595852,89.5762963 119.348148,85.3333333 114.11437,85.3333333 L104.632889,85.3333333 L104.632889,104.296296 Z" id="bc-abbreviated" fill="#000000"></path>
    </g>
</svg>