<svg width="310" height="270" viewBox="0 0 310 270" fill="none" xmlns="http://www.w3.org/2000/svg">
<rect x="102" y="89" width="100" height="100" rx="3" fill="#071318"/>
<rect x="112.5" y="99.5" width="78" height="78" stroke="#FFC30F" stroke-width="3"/>
<path d="M158.577 145V143.248H154.161V128.248H151.017L146.577 132.4L147.753 133.672L151.977 129.736H152.145V143.248H147.345V145H158.577Z" fill="#FFC30F"/>
<path d="M150.265 74V72.686H146.953V61.436H144.595L141.265 64.55L142.147 65.504L145.315 62.552H145.441V72.686H141.841V74H150.265ZM157.504 74.216C160.564 74.216 161.896 71.822 161.896 67.718C161.896 63.614 160.564 61.22 157.504 61.22C154.444 61.22 153.112 63.614 153.112 67.718C153.112 71.822 154.444 74.216 157.504 74.216ZM157.504 72.902C155.488 72.902 154.678 71.264 154.678 68.744V66.692C154.678 64.172 155.488 62.534 157.504 62.534C159.52 62.534 160.33 64.172 160.33 66.692V68.744C160.33 71.264 159.52 72.902 157.504 72.902ZM157.504 68.78C158.332 68.78 158.62 68.402 158.62 67.916V67.52C158.62 67.034 158.332 66.656 157.504 66.656C156.676 66.656 156.388 67.034 156.388 67.52V67.916C156.388 68.402 156.676 68.78 157.504 68.78ZM170.178 65.666H171.384L173.454 60.68H171.132L170.178 65.666ZM165.858 65.666H167.064L169.134 60.68H166.812L165.858 65.666Z" fill="#FFC30F"/>
<path d="M227.265 147V145.686H223.953V134.436H221.595L218.265 137.55L219.147 138.504L222.315 135.552H222.441V145.686H218.841V147H227.265ZM234.504 147.216C237.564 147.216 238.896 144.822 238.896 140.718C238.896 136.614 237.564 134.22 234.504 134.22C231.444 134.22 230.112 136.614 230.112 140.718C230.112 144.822 231.444 147.216 234.504 147.216ZM234.504 145.902C232.488 145.902 231.678 144.264 231.678 141.744V139.692C231.678 137.172 232.488 135.534 234.504 135.534C236.52 135.534 237.33 137.172 237.33 139.692V141.744C237.33 144.264 236.52 145.902 234.504 145.902ZM234.504 141.78C235.332 141.78 235.62 141.402 235.62 140.916V140.52C235.62 140.034 235.332 139.656 234.504 139.656C233.676 139.656 233.388 140.034 233.388 140.52V140.916C233.388 141.402 233.676 141.78 234.504 141.78ZM247.178 138.666H248.384L250.454 133.68H248.132L247.178 138.666ZM242.858 138.666H244.064L246.134 133.68H243.812L242.858 138.666Z" fill="#FFC30F"/>
</svg>
