<svg width="310" height="270" viewBox="0 0 310 270" fill="none" xmlns="http://www.w3.org/2000/svg">
<path d="M266.977 144H258.589V142.452L262.783 138.672C263.395 138.12 263.899 137.556 264.295 136.98C264.691 136.392 264.889 135.774 264.889 135.126V134.91C264.889 134.154 264.691 133.572 264.295 133.164C263.899 132.744 263.311 132.534 262.531 132.534C261.763 132.534 261.169 132.732 260.749 133.128C260.341 133.512 260.035 134.028 259.831 134.676L258.481 134.172C258.601 133.8 258.763 133.44 258.967 133.092C259.183 132.732 259.453 132.414 259.777 132.138C260.101 131.862 260.491 131.64 260.947 131.472C261.415 131.304 261.955 131.22 262.567 131.22C263.191 131.22 263.743 131.31 264.223 131.49C264.715 131.67 265.123 131.922 265.447 132.246C265.783 132.57 266.035 132.954 266.203 133.398C266.383 133.842 266.473 134.328 266.473 134.856C266.473 135.336 266.401 135.786 266.257 136.206C266.125 136.626 265.933 137.028 265.681 137.412C265.441 137.796 265.147 138.174 264.799 138.546C264.463 138.906 264.085 139.266 263.665 139.626L260.155 142.686H266.977V144ZM274.504 144.216C273.736 144.216 273.076 144.072 272.524 143.784C271.972 143.484 271.516 143.058 271.156 142.506C270.796 141.954 270.532 141.276 270.364 140.472C270.196 139.668 270.112 138.75 270.112 137.718C270.112 136.698 270.196 135.786 270.364 134.982C270.532 134.166 270.796 133.482 271.156 132.93C271.516 132.378 271.972 131.958 272.524 131.67C273.076 131.37 273.736 131.22 274.504 131.22C275.272 131.22 275.932 131.37 276.484 131.67C277.036 131.958 277.492 132.378 277.852 132.93C278.212 133.482 278.476 134.166 278.644 134.982C278.812 135.786 278.896 136.698 278.896 137.718C278.896 138.75 278.812 139.668 278.644 140.472C278.476 141.276 278.212 141.954 277.852 142.506C277.492 143.058 277.036 143.484 276.484 143.784C275.932 144.072 275.272 144.216 274.504 144.216ZM274.504 142.902C275.008 142.902 275.44 142.806 275.8 142.614C276.16 142.41 276.448 142.128 276.664 141.768C276.892 141.408 277.06 140.976 277.168 140.472C277.276 139.956 277.33 139.38 277.33 138.744V136.692C277.33 136.068 277.276 135.498 277.168 134.982C277.06 134.466 276.892 134.028 276.664 133.668C276.448 133.308 276.16 133.032 275.8 132.84C275.44 132.636 275.008 132.534 274.504 132.534C274 132.534 273.568 132.636 273.208 132.84C272.848 133.032 272.554 133.308 272.326 133.668C272.11 134.028 271.948 134.466 271.84 134.982C271.732 135.498 271.678 136.068 271.678 136.692V138.744C271.678 139.38 271.732 139.956 271.84 140.472C271.948 140.976 272.11 141.408 272.326 141.768C272.554 142.128 272.848 142.41 273.208 142.614C273.568 142.806 274 142.902 274.504 142.902ZM274.504 138.78C274.084 138.78 273.79 138.696 273.622 138.528C273.466 138.36 273.388 138.156 273.388 137.916V137.52C273.388 137.28 273.466 137.076 273.622 136.908C273.79 136.74 274.084 136.656 274.504 136.656C274.924 136.656 275.212 136.74 275.368 136.908C275.536 137.076 275.62 137.28 275.62 137.52V137.916C275.62 138.156 275.536 138.36 275.368 138.528C275.212 138.696 274.924 138.78 274.504 138.78ZM285.864 130.68H288.186L286.116 135.666H284.91L285.864 130.68Z" fill="#FFC30F"/>
<path d="M154.977 30H146.589V28.452L150.783 24.672C151.395 24.12 151.899 23.556 152.295 22.98C152.691 22.392 152.889 21.774 152.889 21.126V20.91C152.889 20.154 152.691 19.572 152.295 19.164C151.899 18.744 151.311 18.534 150.531 18.534C149.763 18.534 149.169 18.732 148.749 19.128C148.341 19.512 148.035 20.028 147.831 20.676L146.481 20.172C146.601 19.8 146.763 19.44 146.967 19.092C147.183 18.732 147.453 18.414 147.777 18.138C148.101 17.862 148.491 17.64 148.947 17.472C149.415 17.304 149.955 17.22 150.567 17.22C151.191 17.22 151.743 17.31 152.223 17.49C152.715 17.67 153.123 17.922 153.447 18.246C153.783 18.57 154.035 18.954 154.203 19.398C154.383 19.842 154.473 20.328 154.473 20.856C154.473 21.336 154.401 21.786 154.257 22.206C154.125 22.626 153.933 23.028 153.681 23.412C153.441 23.796 153.147 24.174 152.799 24.546C152.463 24.906 152.085 25.266 151.665 25.626L148.155 28.686H154.977V30ZM162.504 30.216C161.736 30.216 161.076 30.072 160.524 29.784C159.972 29.484 159.516 29.058 159.156 28.506C158.796 27.954 158.532 27.276 158.364 26.472C158.196 25.668 158.112 24.75 158.112 23.718C158.112 22.698 158.196 21.786 158.364 20.982C158.532 20.166 158.796 19.482 159.156 18.93C159.516 18.378 159.972 17.958 160.524 17.67C161.076 17.37 161.736 17.22 162.504 17.22C163.272 17.22 163.932 17.37 164.484 17.67C165.036 17.958 165.492 18.378 165.852 18.93C166.212 19.482 166.476 20.166 166.644 20.982C166.812 21.786 166.896 22.698 166.896 23.718C166.896 24.75 166.812 25.668 166.644 26.472C166.476 27.276 166.212 27.954 165.852 28.506C165.492 29.058 165.036 29.484 164.484 29.784C163.932 30.072 163.272 30.216 162.504 30.216ZM162.504 28.902C163.008 28.902 163.44 28.806 163.8 28.614C164.16 28.41 164.448 28.128 164.664 27.768C164.892 27.408 165.06 26.976 165.168 26.472C165.276 25.956 165.33 25.38 165.33 24.744V22.692C165.33 22.068 165.276 21.498 165.168 20.982C165.06 20.466 164.892 20.028 164.664 19.668C164.448 19.308 164.16 19.032 163.8 18.84C163.44 18.636 163.008 18.534 162.504 18.534C162 18.534 161.568 18.636 161.208 18.84C160.848 19.032 160.554 19.308 160.326 19.668C160.11 20.028 159.948 20.466 159.84 20.982C159.732 21.498 159.678 22.068 159.678 22.692V24.744C159.678 25.38 159.732 25.956 159.84 26.472C159.948 26.976 160.11 27.408 160.326 27.768C160.554 28.128 160.848 28.41 161.208 28.614C161.568 28.806 162 28.902 162.504 28.902ZM162.504 24.78C162.084 24.78 161.79 24.696 161.622 24.528C161.466 24.36 161.388 24.156 161.388 23.916V23.52C161.388 23.28 161.466 23.076 161.622 22.908C161.79 22.74 162.084 22.656 162.504 22.656C162.924 22.656 163.212 22.74 163.368 22.908C163.536 23.076 163.62 23.28 163.62 23.52V23.916C163.62 24.156 163.536 24.36 163.368 24.528C163.212 24.696 162.924 24.78 162.504 24.78ZM173.864 16.68H176.186L174.116 21.666H172.91L173.864 16.68Z" fill="#FFC30F"/>
<rect x="64" y="45" width="180" height="180" rx="3" fill="#071318"/>
<rect x="74.5" y="54.5" width="160" height="160" stroke="#FFC30F" stroke-width="3"/>
<line x1="156" y1="54.5" x2="156" y2="214.5" stroke="#39FFF6" stroke-opacity="0.25" stroke-width="3" stroke-linecap="round" stroke-dasharray="3 6"/>
<line x1="74.5" y1="133" x2="234.5" y2="133" stroke="#39FFF6" stroke-opacity="0.25" stroke-width="3" stroke-linecap="round" stroke-dasharray="3 6"/>
<path d="M119.577 103V101.248H115.161V86.248H112.017L107.577 90.4L108.753 91.672L112.977 87.736H113.145V101.248H108.345V103H119.577Z" fill="#FFC30F"/>
<path d="M202.193 101.248H193.097L197.777 97.168C200.009 95.224 201.521 93.352 201.521 90.808C201.521 87.976 199.649 85.96 196.313 85.96C193.025 85.96 191.513 87.928 190.865 89.896L192.665 90.568C193.193 88.84 194.225 87.712 196.265 87.712C198.329 87.712 199.409 88.864 199.409 90.88V91.168C199.409 92.872 198.233 94.432 196.601 95.896L191.009 100.936V103H202.193V101.248Z" fill="#FFC30F"/>
<path d="M110.937 172.352V174.08H112.929C115.377 174.08 116.625 175.232 116.625 177.2V177.392C116.625 179.384 115.305 180.536 112.953 180.536C110.841 180.536 109.857 179.6 108.969 178.28L107.457 179.432C108.489 180.872 110.001 182.288 112.953 182.288C116.433 182.288 118.737 180.296 118.737 177.416C118.737 174.896 116.985 173.552 115.137 173.192V173.096C116.961 172.64 118.401 171.344 118.401 169.184C118.401 166.472 116.121 164.96 113.265 164.96C110.529 164.96 109.041 166.352 108.177 167.696L109.689 168.848C110.385 167.576 111.441 166.712 113.217 166.712C115.041 166.712 116.289 167.624 116.289 169.4V169.568C116.289 171.176 115.113 172.352 112.785 172.352H110.937Z" fill="#FFC30F"/>
<path d="M200.297 182V178.712H202.793V177.056H200.297V165.248H197.369L190.121 176.936V178.712H198.377V182H200.297ZM198.281 166.808H198.377V177.056H191.921L198.281 166.808Z" fill="#FFC30F"/>
</svg>
