<!-- <svg width="781" height="275" viewBox="0 0 781 275" fill="none" xmlns="http://www.w3.org/2000/svg"> -->
<svg width="781" viewBox="0 0 781 275" fill="none" xmlns="http://www.w3.org/2000/svg">
<path d="M14.3085 166.741C23.979 163.139 24.9271 163.328 31.943 173.378C32.7015 172.24 33.2704 171.292 33.8392 170.344C35.5458 167.5 38.0108 165.224 41.2343 163.897C45.7852 162.191 49.7672 163.707 51.853 168.069C52.6115 169.396 53.1803 170.913 53.3699 172.43C53.9388 178.687 54.318 184.755 54.8869 191.013C54.8869 191.392 54.8869 191.961 54.6973 192.34C54.1284 193.098 53.5596 193.857 52.9907 194.615C52.2322 194.046 51.2841 193.478 50.9049 192.719C50.336 191.581 50.336 190.444 50.1464 189.116C49.7672 185.893 49.7672 182.859 49.3879 179.635C49.0087 176.791 48.6295 173.947 47.871 171.103C46.7333 167.689 44.4579 166.931 41.6136 169.206C39.907 170.534 38.3901 172.43 37.6316 174.516C36.3043 177.739 35.7354 181.152 34.7873 184.566C34.5977 185.514 34.7873 186.462 34.2184 187.22C33.6496 188.168 32.5119 189.116 31.5638 189.116C30.8053 189.306 29.6676 188.168 29.2884 187.41C28.7195 186.272 28.7195 184.755 28.3403 183.428C27.5818 180.015 26.8233 176.602 25.6856 173.378C25.1167 171.292 23.979 169.206 21.3244 169.396C18.6697 169.396 17.3424 171.482 16.5839 173.568C16.015 174.895 15.6358 176.412 15.6358 177.929C15.4462 183.428 15.4462 189.116 15.2566 194.615C15.2566 195.753 15.6358 196.891 15.2566 197.839C15.067 198.787 14.1189 199.925 13.55 199.925C12.7915 200.114 11.6538 199.166 11.085 198.408C10.5161 197.46 10.3265 196.132 10.3265 194.995C10.1369 191.013 9.75763 187.22 9.94725 183.238C10.1369 177.739 10.3265 172.43 8.99915 166.931C8.80953 166.552 8.61992 165.983 8.61992 165.604C8.99916 164.656 9.37839 163.328 9.94725 163.139C10.7057 162.759 12.0331 163.328 12.6019 163.897C13.55 164.466 13.7396 165.604 14.3085 166.741ZM568.185 163.897C569.891 161.242 570.46 158.588 568.754 155.743C567.047 152.899 564.393 151.951 561.359 152.33C558.894 152.71 556.239 153.278 553.774 154.037C551.119 154.985 548.844 158.967 549.982 160.863C551.498 163.139 551.119 165.414 550.93 167.879C550.361 172.62 549.792 177.17 549.413 181.911C549.223 183.617 549.223 185.514 549.602 187.22C550.171 190.064 551.119 190.823 553.774 190.064C557.945 189.116 562.307 187.979 566.289 186.272C570.271 184.566 572.925 181.342 572.925 176.791C572.925 172.24 570.271 169.586 566.289 167.879C566.099 167.879 566.099 167.689 565.72 167.121C566.668 165.983 567.426 165.035 568.185 163.897ZM556.049 176.412C557.187 172.999 563.065 171.482 565.909 173.757C567.616 175.085 567.995 177.929 566.289 179.825C565.151 181.152 563.444 182.1 561.927 182.859C559.842 183.807 557.756 184.186 554.343 185.324C555.101 181.721 555.291 178.877 556.049 176.412ZM557.377 160.294C557.566 159.346 558.325 158.398 559.273 158.019C560.79 157.26 562.496 156.692 563.824 158.209C565.151 159.915 563.824 161.242 562.686 162.38C561.359 163.707 559.652 164.656 558.325 165.983C557.945 165.793 557.566 165.604 557.187 165.414C556.997 163.707 556.997 162.001 557.377 160.294ZM159.556 196.891C158.039 196.701 156.523 197.08 156.523 198.597C156.523 199.735 157.091 201.442 157.85 201.821C159.367 202.579 161.453 202.769 163.159 202.579C170.934 201.631 176.622 196.322 178.139 188.358C179.656 180.584 180.415 172.809 181.552 165.035C181.552 164.656 181.742 164.087 181.552 163.707C180.794 162.57 180.225 161.242 179.087 160.863C177.381 160.294 176.243 161.432 175.674 163.139C175.295 164.656 174.916 166.362 174.726 168.069C174.157 172.62 172.261 176.791 169.985 180.773C168.848 182.48 167.52 183.997 165.245 183.617C162.97 183.238 162.211 181.152 161.832 179.256C161.453 176.602 161.263 173.757 161.453 171.103C161.453 168.827 162.211 166.552 162.59 164.466C162.78 162.949 162.59 161.432 160.884 161.242C159.746 161.242 158.608 162.38 157.66 162.949C157.471 163.139 157.471 163.518 157.281 163.707C155.574 169.965 155.006 176.222 157.091 182.48C158.798 187.41 163.349 189.685 168.279 188.548C169.417 188.358 170.554 187.789 172.071 187.22C171.123 194.615 166.572 197.839 159.556 196.891ZM659.202 232.16C659.392 233.866 659.96 235.573 659.96 237.28C659.771 241.83 659.012 246.381 658.633 250.932C658.254 254.345 658.064 257.948 657.875 261.361C657.875 262.309 658.633 263.257 658.823 264.205C659.202 264.205 659.581 264.205 660.15 264.205C660.529 262.878 661.098 261.551 661.288 260.034C662.046 254.535 662.805 248.846 663.184 243.347C663.563 240.124 663.563 236.9 663.373 233.866C663.184 231.401 662.236 228.936 659.581 228.178C656.737 227.419 654.841 228.936 653.513 231.022C651.807 233.487 650.479 236.142 648.962 238.796C648.583 239.555 648.014 240.313 647.256 241.83C646.687 240.124 646.497 239.176 646.308 238.038C644.98 233.108 642.705 230.264 639.292 230.264C634.741 230.074 633.034 233.298 631.518 236.9C628.104 245.623 627.156 254.914 626.587 264.016C626.398 265.343 626.587 266.86 628.863 267.239C629.242 266.481 629.811 265.722 630.001 264.774C630.38 262.499 630.38 260.223 630.759 257.948C631.897 251.88 633.035 245.812 634.551 239.745C634.931 238.228 635.879 236.711 636.827 235.383C638.154 233.677 639.861 233.677 640.998 235.383C641.947 236.9 642.705 238.986 642.895 240.882C643.464 244.864 643.464 249.036 643.653 253.208C643.653 254.724 643.274 256.621 645.17 257C647.445 257.379 647.445 255.104 648.014 253.587C648.962 250.742 649.721 247.709 650.859 244.864C651.996 241.83 653.324 238.986 654.651 236.142C655.409 234.625 656.737 233.298 657.875 231.97C658.254 231.97 658.633 232.16 659.202 232.16ZM21.7036 270.084C23.7894 272.549 26.2545 275.014 29.6676 274.255C33.46 273.497 35.3562 270.463 36.4939 267.05C36.6835 266.481 36.8731 265.912 37.0627 265.343C38.3901 257.758 36.6835 250.174 35.1665 242.778C34.9769 242.21 34.2184 241.451 33.6496 241.451C33.0807 241.451 32.1326 242.02 31.943 242.589C31.5638 243.916 31.3742 245.244 31.5638 246.571C31.7534 249.036 32.7015 251.311 32.7015 253.776C32.8911 257.758 32.7015 261.551 32.3223 265.533C32.1326 267.239 31.3742 269.515 29.2884 269.515C27.961 269.515 26.2545 268.187 25.3064 267.05C22.8413 264.016 21.514 260.603 20.7555 256.81C20.3763 255.293 20.3763 253.207 17.9112 253.397C15.6358 253.587 15.8254 255.673 15.8254 257.189C15.8254 257.948 15.8254 258.706 15.8254 259.465C15.4462 261.74 15.2566 264.016 14.6877 266.102C14.3085 267.618 13.55 269.325 11.8434 269.136C10.7057 268.946 9.18877 267.619 8.61992 266.481C7.86144 265.153 7.29258 263.447 7.29258 261.74C7.10297 258.327 7.29258 254.724 7.10296 251.311C7.10296 250.553 6.15487 249.605 5.58602 248.846C4.82754 249.415 3.50021 249.794 3.31059 250.553C1.79364 257.569 1.98326 264.585 5.96526 270.652C8.80954 274.824 14.4981 274.824 17.532 270.652C18.2905 269.704 18.8593 268.756 19.6178 267.429C20.3763 268.567 20.9451 269.325 21.7036 270.084ZM12.2227 119.526C10.8953 116.492 10.7057 113.269 10.7057 109.856C10.7057 105.684 10.8953 101.323 10.8953 97.1513C10.8953 96.3928 9.94725 95.4447 9.56801 94.6862C8.61992 95.2551 7.67182 95.8239 6.91335 96.5824C6.53411 97.1513 6.53411 98.0994 6.53411 98.8579C6.53411 104.736 6.53411 110.614 6.72373 116.492C6.72373 118.199 7.29258 120.095 8.05106 121.802C9.75763 125.784 13.7396 126.353 16.3943 123.129C17.3424 121.991 17.7216 120.474 18.4801 119.147C19.0489 118.199 19.4282 117.251 19.997 115.924C21.3244 117.441 22.2725 118.768 23.2206 119.716C26.2545 122.56 29.0987 122.181 30.8053 118.389C31.7534 116.113 32.3223 113.648 32.5119 111.373C32.7015 104.926 32.7015 98.289 32.7015 91.842C32.7015 91.2731 32.1326 90.5146 31.5638 89.3769C30.6157 90.325 29.478 90.8938 29.2884 91.6523C28.7195 93.3589 28.5299 95.2551 28.5299 96.9617C28.1506 102.271 27.961 107.58 27.5818 112.89C27.5818 113.838 27.0129 114.786 26.2545 116.682C25.1168 114.407 24.1687 112.89 23.5998 111.562C23.0309 110.235 22.8413 108.718 22.4621 107.201C22.0829 105.684 21.514 104.167 19.6178 104.167C17.7216 104.167 17.1528 105.684 16.7735 107.201C16.2047 108.908 16.015 110.804 15.4462 112.51C14.6877 114.975 13.9292 117.251 13.3604 119.716C12.9811 119.526 12.6019 119.526 12.2227 119.526ZM772.404 165.983C771.456 157.45 764.44 151.193 756.476 151.761C752.874 151.951 751.925 153.089 751.925 156.502C751.925 163.328 751.925 170.154 751.925 176.981C751.925 180.394 752.115 183.428 754.58 186.272C756.287 188.358 756.856 189.116 759.321 187.789C768.612 183.049 771.835 180.394 772.594 168.638C772.404 167.879 772.594 166.931 772.404 165.983ZM757.614 157.45C762.544 157.45 765.957 160.484 766.716 165.793C768.043 174.136 764.82 180.015 757.614 182.29C757.614 173.757 757.614 165.604 757.614 157.45ZM314.475 165.224C314.665 163.328 315.233 161.242 315.044 159.346C315.044 158.588 314.096 157.26 313.148 157.071C312.389 156.881 311.251 157.45 310.493 158.209C309.924 158.588 309.734 159.536 309.734 160.294C308.786 168.638 307.838 176.791 306.89 185.134C306.89 185.893 306.701 186.841 307.08 187.41C307.649 188.358 308.407 189.496 309.355 189.685C309.924 189.875 310.872 188.737 311.631 187.979C312.01 187.599 312.01 186.841 312.01 186.272C312.958 180.963 312.958 180.963 318.267 180.015C319.215 179.825 319.974 179.825 321.301 179.635C321.491 182.29 321.491 184.945 321.68 187.41C321.87 188.927 322.629 190.444 324.714 190.254C326.421 190.064 326.611 188.737 326.8 187.22C327.369 177.17 328.128 166.931 331.351 157.26C331.73 155.933 331.73 154.416 330.213 153.847C328.507 153.089 327.369 154.037 326.421 155.554C325.852 156.502 325.473 157.45 325.283 158.588C324.335 162.949 323.577 167.5 322.629 171.861C322.439 173.378 322.249 174.705 321.87 176.412C320.353 176.033 319.215 175.653 318.078 175.464C316.75 175.274 315.423 175.464 313.337 175.464C313.527 171.482 313.906 168.258 314.475 165.224ZM504.852 32.6809C504.283 32.3017 502.956 32.1121 502.387 32.3017C501.818 32.6809 501.439 34.1979 501.818 34.5771C502.956 36.4733 504.094 38.3695 505.8 40.0761C509.593 44.058 513.385 43.1099 514.712 37.8006C515.471 34.3875 515.85 30.7847 515.471 27.3716C514.902 21.1142 513.954 15.0464 513.006 8.9786C512.816 8.22012 512.627 7.46163 512.247 6.89278C511.11 5.18621 509.213 5.18622 508.265 7.08241C507.697 8.22012 507.697 9.35781 507.317 10.4955C506.369 13.5294 505.611 16.5633 504.663 19.5972C504.283 20.9245 503.146 21.8727 502.198 23.2C499.543 20.3557 498.974 19.4076 498.784 15.6153C498.784 12.9606 499.164 10.4955 499.164 7.84087C499.164 6.32392 498.974 4.61732 496.888 4.4277C495.182 4.23808 494.423 5.56546 494.423 7.08241C494.423 11.8229 494.423 16.3737 494.802 21.1142C494.992 22.6311 495.94 24.3377 496.888 25.4754C499.543 28.8885 503.714 29.0782 506.748 25.8547C507.696 24.9066 508.455 23.7689 509.782 22.2519C510.73 27.3716 511.299 31.7328 509.593 36.8525C507.696 35.1459 506.369 33.8186 504.852 32.6809ZM257.969 180.584C258.917 182.101 259.865 183.617 261.002 184.945C262.519 186.841 263.847 188.927 265.364 190.633C265.933 191.202 267.829 191.581 268.018 191.392C268.587 190.633 269.156 189.306 268.966 188.358C268.587 186.841 267.639 185.324 266.691 183.997C264.984 181.152 263.278 178.308 261.382 175.464C262.899 174.326 264.226 173.568 265.174 172.43C266.881 170.534 268.398 168.448 269.725 166.362C270.863 164.087 270.673 161.622 268.777 159.536C267.07 157.64 264.795 157.45 262.519 158.019C258.537 158.967 255.314 161.242 253.038 164.466C252.28 165.604 252.09 167.31 251.901 168.638C251.711 171.292 252.09 173.947 251.901 176.602C251.711 180.584 250.953 184.376 250.573 188.358C250.384 190.254 251.142 191.771 253.228 191.771C255.124 191.771 255.504 190.254 255.693 188.548C255.883 186.082 256.452 183.617 256.831 180.963C257.21 180.773 257.589 180.773 257.969 180.584ZM258.917 169.586C257.969 165.414 258.537 164.656 264.036 162.949C263.657 167.121 263.088 167.879 258.917 169.586ZM189.895 191.392C191.223 194.805 193.498 197.27 197.48 197.46C201.652 197.649 204.875 196.132 207.151 192.53C209.995 187.979 211.133 182.859 210.564 177.36C210.185 172.43 207.151 168.827 203.548 165.604C199.566 162.19 197.859 162.001 194.067 165.604C189.706 169.965 187.81 175.464 187.62 183.238C188.189 184.945 188.758 188.358 189.895 191.392ZM202.031 190.254C199.566 193.288 196.722 192.909 195.015 189.496C192.361 184.376 192.361 173.757 198.808 169.017C205.823 173.947 207.151 183.997 202.031 190.254ZM84.4674 194.805C85.2259 196.322 85.4155 198.977 87.6909 198.408C90.3456 197.649 89.2079 194.995 88.8287 193.478C86.5532 185.324 84.2778 177.17 81.8128 169.206C81.2439 167.5 80.2958 165.793 79.1581 164.466C77.4515 162.38 74.7969 162.191 73.2799 164.087C72.5214 165.035 71.763 166.173 71.5733 167.31C70.0564 176.791 68.5394 186.082 67.2121 195.563C67.0225 196.512 67.2121 197.839 67.5913 198.597C67.9706 199.356 69.1083 200.114 70.0564 200.114C70.6253 200.114 71.5733 199.166 71.763 198.408C72.1422 197.08 72.3318 195.563 72.5214 194.046C74.6072 193.667 76.5034 193.288 78.21 193.098C79.9166 192.909 81.4335 192.719 83.5193 192.53C83.8986 193.478 84.2778 194.046 84.4674 194.805ZM82.3816 188.168C79.1581 188.548 76.5034 188.927 72.9007 189.306C73.2799 182.859 74.4176 176.981 76.5034 170.913C79.3477 176.033 81.2439 181.721 82.3816 188.168ZM428.057 32.3017C431.09 38.1799 438.106 39.1279 442.278 34.0082C443.795 32.112 444.933 29.647 445.881 27.3716C448.915 19.7868 446.07 12.5813 443.605 5.37579C442.468 1.96266 438.296 1.0146 435.262 3.1004C433.935 4.0485 432.797 5.37582 431.849 6.70315C428.057 11.8229 426.54 17.8906 425.781 24.3377C426.35 26.8027 426.729 29.8366 428.057 32.3017ZM441.33 24.5273C440.571 26.6131 439.623 28.6989 438.296 30.4055C436.4 32.6809 433.935 32.3017 432.418 29.647C432.228 29.2678 432.039 28.8885 431.849 28.3197C429.763 22.4415 432.987 11.4436 438.486 6.89278C440.761 12.9606 443.416 18.4595 441.33 24.5273ZM698.074 121.043C700.918 122.939 703.952 124.836 707.175 126.163C711.157 127.87 714.76 126.732 716.846 122.939C718.173 120.854 719.121 118.199 719.69 115.734C721.586 108.718 721.018 101.702 719.69 94.4966C719.121 90.8938 718.173 89.5665 716.467 89.7561C713.812 90.1354 714.191 92.4108 713.622 94.307C713.054 96.5825 712.864 99.2371 709.83 100.754C709.072 99.4267 707.934 98.0994 707.555 96.5824C706.986 94.4966 706.607 92.4108 706.227 90.325C706.038 89.3769 706.038 88.0496 705.279 87.2911C704.71 86.5326 703.573 86.1534 702.625 86.1534C702.056 86.1534 701.297 87.4807 701.297 88.0496C701.866 92.79 702.056 97.5305 704.71 101.513C706.986 104.926 709.451 105.684 713.243 103.978C714.002 103.598 714.76 103.409 716.088 102.84C716.467 108.718 715.898 113.838 713.622 118.768C712.295 121.991 710.778 122.56 707.555 121.233C705.659 120.474 703.762 119.337 701.866 118.389C700.349 117.63 698.832 116.682 697.126 115.734C696.367 119.716 696.367 119.906 698.074 121.043ZM103.429 172.62C103.24 170.913 103.24 169.206 103.24 167.689C103.24 166.173 102.86 164.845 101.154 164.656C99.2577 164.466 98.3096 165.793 98.4992 167.5C98.6888 170.913 98.8784 174.516 99.6369 177.739C100.585 181.342 103.809 182.669 107.222 181.342C108.928 180.584 110.635 179.256 112.152 178.118C113.289 177.36 114.048 176.412 115.565 174.895C116.892 180.204 117.082 184.945 115.565 189.685C114.806 191.961 113.1 192.53 110.824 191.581C109.307 191.013 107.98 190.064 106.274 189.496C105.705 189.306 104.757 189.685 104.377 190.254C103.998 190.633 103.998 191.771 104.377 192.34C106.653 195.374 109.497 196.891 113.289 196.701C116.892 196.512 119.547 194.426 120.495 190.823C122.77 182.1 121.064 173.757 118.409 165.414C118.22 164.466 116.703 163.518 115.755 163.518C114.996 163.518 113.858 164.845 113.289 165.793C112.91 166.552 113.1 167.5 112.721 168.448C111.393 172.43 108.928 175.464 104.188 177.929C103.998 175.653 103.619 174.137 103.429 172.62ZM472.617 183.049C471.29 183.807 469.773 184.186 468.445 184.945C466.739 185.893 466.739 187.599 468.445 188.358C469.393 188.737 470.531 188.927 471.479 188.737C476.599 187.22 481.529 184.945 483.046 179.446C485.132 172.43 486.08 165.035 487.407 157.64C487.597 156.881 486.459 155.364 485.701 154.985C484.942 154.606 483.425 155.364 482.667 155.933C481.908 156.692 481.719 158.209 481.15 159.157C479.822 161.432 478.685 163.707 476.978 165.604C474.324 168.638 471.859 167.689 471.1 163.707C470.721 161.622 470.91 159.536 470.721 157.45C470.531 155.743 469.583 154.606 467.687 154.795C465.98 154.985 465.222 156.123 465.222 157.64C465.222 160.105 465.032 162.57 465.411 164.845C466.549 171.103 471.1 174.705 477.357 172.051C477.737 171.861 478.306 171.861 479.254 171.671C479.064 176.981 477.168 180.773 472.617 183.049ZM284.326 111.183C284.705 114.407 285.653 115.734 287.359 115.355C289.825 114.786 289.445 112.51 289.256 110.804C289.066 103.029 288.687 95.4447 288.497 87.6704C288.497 87.2911 288.497 87.1015 288.497 86.7223C288.308 85.0157 287.549 83.6884 285.653 83.878C283.946 84.0676 283.377 85.2053 283.377 86.7223C283.377 87.86 283.377 89.1873 283.377 90.325C283.377 93.3589 283.377 96.2032 283.377 99.6163C280.723 99.4267 278.258 99.2371 275.414 99.0475C275.414 96.0136 275.414 93.1693 275.414 90.325C275.414 88.9977 275.603 87.4807 275.224 86.343C274.845 85.3949 273.707 84.2572 272.759 84.2572C272 84.2572 270.863 85.3949 270.294 86.343C269.915 87.2911 270.104 88.4288 270.104 89.5666C270.104 93.7382 270.104 98.0994 270.104 102.271C270.104 105.494 270.104 108.718 270.294 111.752C270.294 113.648 270.294 115.924 272.948 116.303C274.655 116.492 275.224 115.355 275.414 111.942C275.414 109.477 275.603 106.822 275.603 104.167C278.447 103.978 280.723 103.788 283.757 103.598C283.946 106.443 284.136 108.908 284.326 111.183ZM413.456 155.743C410.232 155.743 408.715 156.502 408.336 159.536C407.578 166.173 407.009 172.809 406.819 179.446C406.819 184.186 410.612 186.841 415.163 185.703C417.438 185.134 419.903 183.617 421.61 181.911C425.023 178.687 426.54 174.326 426.54 170.723C426.729 162.191 420.851 155.933 413.456 155.743ZM421.041 171.671C420.472 175.085 418.955 178.118 416.111 180.015C414.025 181.342 412.318 180.773 412.318 178.498C411.939 172.809 412.887 167.121 413.646 161.053C419.713 162.949 421.989 166.362 421.041 171.671ZM450.811 180.394C451.759 181.721 452.707 183.049 454.414 182.1C456.12 181.152 455.931 179.446 455.551 178.118C453.276 171.292 451 164.656 448.725 157.829C448.156 156.123 447.018 154.606 444.933 154.416C442.468 154.416 441.33 155.933 440.761 157.829C438.486 165.414 436.21 173.188 433.935 180.963C433.745 181.721 434.504 183.238 435.072 183.428C435.831 183.807 437.158 183.428 437.917 183.049C438.486 182.859 438.865 181.911 439.244 181.152C439.813 179.446 440.951 178.877 442.657 178.877C444.933 178.687 447.208 178.498 449.484 178.308C450.052 179.256 450.432 179.825 450.811 180.394ZM444.174 163.328C447.018 166.741 447.587 169.775 447.967 173.568C445.691 173.757 443.795 173.757 440.951 173.947C442.088 169.965 443.036 166.931 444.174 163.328ZM731.826 161.242C732.205 157.829 732.395 157.45 735.808 156.881C737.325 156.502 738.842 156.692 740.169 156.123C741.117 155.743 741.686 154.606 742.445 153.847C741.686 153.278 740.928 152.141 740.169 152.141C736.946 152.33 733.532 152.52 730.309 153.089C728.413 153.468 726.896 154.795 726.896 156.881C726.517 165.414 726.137 173.757 725.948 182.29C725.948 184.186 727.085 185.893 729.171 186.272C734.101 187.031 739.031 186.082 743.961 184.566C744.53 184.376 745.289 183.428 745.099 182.859C744.91 182.1 744.151 181.152 743.582 180.963C741.876 180.773 739.979 180.773 738.273 180.773C736.187 180.773 734.291 180.963 732.016 181.152C732.016 177.739 732.016 174.895 732.016 172.24C735.239 170.913 738.842 171.103 741.117 167.689C738.652 164.087 735.429 167.31 732.205 166.362C731.826 164.656 731.636 162.949 731.826 161.242ZM735.239 14.0983C736.566 12.5813 738.273 10.8747 739.031 9.16817C740.928 4.23808 738.083 0.445729 732.964 1.01459C729.93 1.39382 727.085 3.29003 724.052 4.23813C721.586 4.9966 720.828 6.70317 720.828 8.9786C720.638 15.236 720.449 21.3038 720.449 27.5612C720.449 28.5093 720.638 29.4574 720.828 30.2159C721.018 30.7847 721.776 31.5432 722.345 31.5432C722.914 31.5432 723.862 30.7847 724.052 30.4055C724.62 28.3197 724.81 26.2339 725.189 24.1481C725.379 22.8208 725.568 21.683 725.758 19.218C727.465 21.8727 728.602 23.7688 729.74 25.4754C730.688 26.8027 731.636 28.3197 732.774 29.4574C733.343 30.0263 734.86 30.2158 735.049 30.0262C735.618 29.4574 735.997 28.3197 735.997 27.3716C735.997 26.6131 735.429 25.665 735.049 24.9066C733.722 22.6311 732.584 20.3557 731.067 17.701C732.584 16.1841 734.101 15.236 735.239 14.0983ZM733.912 6.32389C733.532 9.54741 733.153 9.92665 725.948 14.0983C725.379 8.4097 728.034 5.94465 733.912 6.32389ZM166.952 39.128C166.003 41.4034 163.918 41.7826 161.832 42.3514C161.263 42.5411 160.505 43.6788 160.505 44.4373C160.505 45.1957 161.263 46.1438 162.021 46.5231C162.97 46.9023 164.107 46.9023 165.055 46.7127C169.606 45.575 172.261 42.3515 172.64 37.9902C173.209 30.2159 173.209 22.2519 173.588 14.4775C173.588 14.0983 173.588 13.7191 173.399 13.5294C172.83 12.771 171.882 11.4436 171.313 11.4436C170.365 11.6332 169.037 12.3917 168.658 13.3398C167.9 15.236 167.52 17.5114 166.762 19.4076C166.193 21.1142 165.624 23.2 162.97 23.7688C162.59 22.6311 161.832 21.4934 161.832 20.3557C161.453 17.5114 161.263 14.6672 160.884 11.8229C160.694 10.1163 160.315 8.59935 158.419 8.78897C157.471 8.97858 156.143 10.4955 156.143 11.6332C155.764 16.5633 156.333 21.3038 158.419 25.8547C159.936 29.0782 162.211 29.8367 165.624 28.8886C166.383 28.6989 166.952 28.3197 168.279 27.9405C168.658 32.1121 168.469 35.7148 166.952 39.128ZM100.395 16.1841C100.775 18.0803 101.533 19.7868 101.723 21.683C102.102 25.665 102.292 29.8366 102.671 34.0082C102.86 35.3356 103.05 36.6629 103.619 37.9902C103.809 38.5591 104.757 39.128 105.325 38.9383C105.894 38.9383 106.653 38.1798 106.842 37.611C107.222 37.2317 107.222 36.4733 107.222 35.9044C106.842 29.8366 106.842 23.7688 105.894 17.701C104.757 10.8747 100.964 9.16819 94.8964 12.3917C94.7068 12.5813 94.3276 12.3917 93.9484 12.5813C93.7587 12.3917 93.3795 12.2021 93.3795 12.0124C92.8106 10.8747 92.2418 9.1682 90.5352 9.73706C88.8287 10.1163 88.4494 11.8229 88.4494 13.3398C88.4494 13.9087 88.4494 14.4775 88.4494 15.236C88.8286 22.6311 89.2079 30.0263 89.5871 37.4214C89.5871 38.3695 89.7767 39.3176 90.156 40.0761C90.5352 40.8345 91.4833 41.593 92.0522 41.593C92.8106 41.593 93.5691 40.6449 93.9484 39.8864C94.3276 38.9383 94.3276 37.8006 94.3276 36.8525C94.3276 34.3875 93.9483 31.9225 94.138 29.647C94.5172 26.4235 94.8964 23.0104 95.8445 19.9765C96.2238 18.4595 97.9304 17.3218 99.0681 15.9945C99.6369 15.8048 100.016 15.9945 100.395 16.1841ZM549.602 98.6682C548.844 96.9617 548.085 95.2551 547.137 93.7381C545.81 91.4627 543.534 91.4627 542.207 93.7381C541.638 94.8759 541.449 96.0136 540.88 97.1513C540.311 98.4786 540.311 100.375 538.225 101.513C537.656 99.2371 537.087 97.3409 536.708 95.6343C536.139 93.3589 535.57 90.8939 535.002 88.6185C534.622 87.1015 533.674 85.9638 532.157 86.5327C531.399 86.7223 530.64 88.6185 530.83 89.3769C532.347 95.6344 534.054 101.892 535.95 108.149C536.329 109.287 538.225 110.614 539.173 110.614C540.311 110.614 541.638 109.097 542.207 107.96C543.155 106.253 543.724 104.167 544.672 101.513C545.81 103.219 546.568 104.167 547.327 105.305C548.465 107.011 549.223 109.097 551.688 108.528C553.964 108.149 554.153 106.063 554.343 104.167C555.101 99.6163 555.86 95.2551 556.429 90.7042C556.808 87.4807 556.239 85.5846 554.532 85.7742C552.067 85.9638 552.257 88.2392 551.878 89.9458C551.309 92.79 550.74 95.824 550.171 98.6682C550.171 98.6682 549.981 98.6682 549.602 98.6682ZM688.214 260.792C688.403 261.551 689.162 262.499 689.73 262.688C690.299 262.688 691.627 262.12 691.816 261.361C692.196 259.465 692.764 257.379 692.385 255.673C691.247 249.984 689.92 244.485 688.403 238.986C688.024 237.469 687.076 235.952 686.128 234.625C683.852 231.781 680.818 231.401 678.353 234.056C676.836 235.763 675.699 237.848 674.94 239.934C673.044 245.433 671.717 250.932 670.01 256.431C669.631 257.758 669.441 259.086 669.252 260.413C669.062 261.93 668.872 263.637 670.769 264.205C672.854 264.774 673.234 262.878 673.613 261.361C673.992 259.655 674.371 257.948 674.751 256.621C679.301 256.241 683.283 256.052 688.024 255.673C688.214 257.569 688.024 259.086 688.214 260.792ZM687.076 251.691C683.473 251.691 680.06 251.691 676.268 251.691C677.974 246.571 678.543 241.451 682.146 236.521C685.369 241.641 685.938 246.571 687.076 251.691ZM356.381 30.7848C356.76 31.3536 357.708 31.9225 358.087 31.7328C358.846 31.5432 359.415 30.5951 359.794 30.0262C359.983 29.647 359.983 28.8885 359.794 28.3197C358.087 21.683 356.381 14.8567 354.295 8.22007C353.726 6.13427 352.778 3.47961 349.934 3.47961C346.9 3.47961 346.141 6.13428 345.383 8.4097C342.918 15.236 340.642 22.0623 338.177 28.8886C337.798 29.8367 337.608 30.9743 337.608 31.9224C337.608 32.6809 338.367 33.629 338.936 34.0082C339.505 34.1979 340.642 33.629 341.211 33.2498C341.59 32.8705 341.97 32.3017 342.159 31.7328C342.728 27.5612 345.762 26.6131 349.365 26.4235C350.882 26.2339 352.209 26.0443 353.916 25.665C355.053 27.3716 355.622 29.0782 356.381 30.7848ZM352.968 20.7349C351.071 20.9245 349.175 21.3038 346.141 21.683C347.469 17.8906 348.417 15.0464 349.554 11.6332C352.019 14.6671 352.209 15.6152 352.968 20.7349ZM381.6 94.8759C381.6 98.8579 381.221 102.84 381.6 106.632C382.169 112.321 386.72 114.217 391.65 111.183C395.253 108.908 397.907 105.494 399.424 101.323C402.268 93.9278 398.855 83.878 389.185 81.9818C388.047 81.7922 386.909 81.413 385.582 81.0337C382.738 80.4649 381.979 81.0337 381.79 83.878C381.6 87.4808 381.79 91.0835 381.79 94.6862C381.79 94.8759 381.6 94.8759 381.6 94.8759ZM387.289 86.7223C392.219 87.2911 395.442 90.7042 395.821 95.4447C396.201 100.754 392.219 106.443 387.289 107.77C385.582 104.357 385.392 92.6005 387.289 86.7223ZM407.009 229.884C404.923 229.884 402.268 231.022 400.372 232.349C398.666 233.487 400.562 235.383 400.562 236.9C400.751 238.607 400.751 240.313 400.941 241.83C401.131 246.571 401.131 251.122 401.32 255.862C401.32 257 401.32 257.948 401.51 259.086C402.268 263.068 405.682 265.154 409.284 263.068C411.37 261.74 413.456 259.844 414.783 257.758C417.628 253.397 418.955 248.467 419.145 244.106C419.334 235.763 414.404 230.074 407.009 229.884ZM405.113 234.056C412.129 234.435 415.731 238.038 414.783 244.106C414.214 247.898 412.697 251.691 411.181 255.293C410.422 256.81 408.715 257.948 407.199 259.275C406.63 259.086 406.25 258.896 405.682 258.706C405.682 250.553 405.302 242.399 405.113 234.056ZM346.9 243.347C348.417 240.503 349.744 237.659 350.882 234.814C351.071 234.246 350.123 233.108 349.744 232.16C348.986 232.539 347.848 232.729 347.469 233.298C346.521 234.435 346.141 235.952 345.383 237.28C343.297 241.451 340.263 244.864 335.523 247.898C335.523 244.675 335.333 242.21 335.333 239.934C335.333 238.417 335.143 236.9 334.575 235.573C334.385 235.004 333.247 234.435 332.489 234.246C332.109 234.246 331.351 235.194 331.161 235.763C330.972 236.521 330.972 237.28 330.972 238.038C330.972 246.002 331.161 253.776 331.161 261.74C331.161 264.774 332.109 266.291 333.437 265.912C335.712 265.343 335.143 263.257 335.143 261.74C335.333 258.706 335.333 255.483 335.523 252.449C337.04 252.259 338.177 252.07 339.125 252.07C344.624 251.691 345.952 252.639 347.848 257.758C348.417 259.086 348.796 260.792 349.554 261.93C349.934 262.688 351.261 262.878 352.209 263.257C352.588 262.309 353.347 261.361 353.157 260.603C351.64 255.293 350.503 249.415 343.487 247.709C345.193 245.812 346.331 244.675 346.9 243.347ZM587.526 257.758C589.233 264.395 595.111 265.912 599.851 260.982C605.161 255.483 607.436 248.657 607.436 241.072C607.246 235.383 604.971 230.264 596.438 231.022C595.49 231.022 594.352 230.833 593.404 230.453C590.37 229.126 589.991 229.126 589.422 232.539C588.474 239.365 587.716 246.002 586.957 252.828C587.147 254.535 587.147 256.241 587.526 257.758ZM597.197 257.758C596.438 258.706 594.732 259.655 593.783 259.465C592.835 259.275 591.887 257.569 591.508 256.431C591.129 254.914 591.129 253.207 591.318 251.501C591.698 247.14 592.266 242.779 592.835 238.417C593.025 236.711 592.835 235.004 595.3 234.625C597.955 234.056 600.799 234.814 601.747 236.9C602.506 238.417 602.885 240.313 603.264 241.262C602.695 247.898 601.179 253.397 597.197 257.758ZM655.41 155.364C656.926 154.985 658.633 154.416 660.15 153.847C660.719 153.658 661.288 152.71 661.098 152.141C661.098 151.572 660.34 150.813 659.771 150.624C659.012 150.245 657.875 150.245 657.116 150.434C652.944 151.193 648.773 151.951 644.601 153.089C642.136 153.658 641.188 155.743 640.998 158.209C640.809 166.173 640.43 173.947 640.05 181.911C640.05 183.617 640.24 185.324 640.619 186.841C640.998 188.358 642.136 189.496 643.843 189.306C645.739 189.116 645.929 187.599 645.929 185.893C645.929 182.669 645.929 179.446 645.929 176.412C645.929 174.516 646.687 173.378 648.773 172.999C650.29 172.809 651.807 172.43 653.134 171.671C653.893 171.292 655.03 169.775 654.841 169.396C654.272 168.448 653.324 167.5 652.186 167.5C650.479 167.31 648.773 167.689 646.497 167.879C646.497 165.983 646.497 164.656 646.497 163.328C646.497 161.622 646.687 160.105 646.687 157.829C650.29 156.692 652.945 156.123 655.41 155.364ZM304.046 263.637C304.804 264.774 305.753 266.102 307.269 265.153C309.166 264.016 308.028 262.499 307.459 261.172C306.701 259.655 305.753 258.327 304.804 256.81C302.719 253.397 302.719 253.018 305.942 250.553C308.407 248.657 310.303 246.381 310.872 243.158C311.441 239.555 309.545 236.521 306.511 235.573C300.064 233.866 293.238 239.555 293.807 246.192C293.996 247.898 293.996 249.605 293.996 251.122C293.996 255.104 293.996 259.086 294.186 262.878C294.186 264.395 293.996 266.291 296.461 266.67C299.685 264.016 297.22 259.844 299.116 256.052C300.822 259.275 302.339 261.551 304.046 263.637ZM301.771 240.693C302.908 240.313 304.615 240.693 305.942 240.882C305.752 242.21 306.132 244.106 305.373 245.054C303.667 246.95 301.391 248.467 299.116 250.363C297.599 244.106 298.168 241.83 301.771 240.693ZM119.926 20.5453C119.737 19.218 119.547 17.8907 119.547 16.5633C119.357 14.4775 119.547 12.3917 119.168 10.3059C118.978 9.54742 117.84 8.4097 117.271 8.4097C116.513 8.4097 115.755 9.35779 114.996 10.1163C114.617 10.4955 114.806 11.254 114.806 11.8229C114.806 19.4076 114.806 26.9924 114.996 34.5771C114.996 35.7148 115.375 37.0421 115.944 37.9902C116.134 38.5591 117.271 38.9383 117.84 38.7487C118.409 38.5591 119.168 37.9902 119.357 37.2318C119.737 36.0941 119.547 34.7667 119.737 33.629C119.926 31.7328 119.926 29.8366 120.116 27.5612C123.529 29.0782 124.287 31.7328 125.235 34.1979C125.994 36.2837 126.563 38.5591 127.701 40.4553C128.269 41.593 129.407 42.9203 130.924 41.9722C131.493 41.593 131.682 39.8864 131.493 38.9383C130.166 33.629 129.217 28.3197 125.235 24.1481C125.994 23.0104 126.752 22.0623 127.132 21.1142C128.269 18.6491 129.407 16.1841 130.166 13.5294C130.734 12.0125 131.114 9.92665 128.838 9.3578C126.942 8.78894 126.373 10.6851 125.804 12.0124C125.425 13.3398 125.046 14.6671 124.477 15.8048C123.529 17.5114 122.581 19.0284 121.443 20.7349C120.685 20.7349 120.305 20.7349 119.926 20.5453ZM52.2322 37.9902C52.2322 34.1979 52.0426 30.4055 51.853 26.6131C51.853 23.0104 51.853 19.4076 51.853 15.8048C51.853 14.2879 52.0426 12.3917 50.1464 12.2021C47.871 12.0125 47.4918 13.9087 47.4918 15.6153C47.3021 18.0803 47.3021 20.3557 47.1125 22.8207C47.1125 24.5273 47.1125 26.4235 47.1125 28.3197C45.2163 28.3197 43.5098 28.3197 41.8032 28.3197C41.2343 24.1481 40.8551 20.3557 40.2862 16.3737C40.0966 15.0464 39.7174 13.7191 39.1485 12.5813C38.9589 12.0125 37.8212 11.4436 37.2523 11.6332C36.4939 11.8229 35.7354 12.5813 35.3562 13.3398C34.9769 13.9087 35.1665 14.8568 35.3562 15.6153C36.1146 23.2 36.8731 30.5951 37.6316 38.1799C37.6316 39.128 37.6316 40.076 38.2004 40.8345C38.5797 41.593 39.5278 42.1619 40.2862 42.9203C40.8551 42.1619 41.8032 41.4034 41.9928 40.6449C42.3721 38.5591 42.3721 36.4733 42.3721 34.1979C44.2682 34.1979 45.5956 34.1979 46.9229 34.1979C48.6295 37.0421 46.7333 41.2137 51.2841 43.2995C51.6634 41.0241 52.2322 39.5072 52.2322 37.9902ZM224.406 182.859C223.458 178.118 224.216 173.568 225.733 169.017C226.113 168.069 226.681 167.121 226.681 165.983C226.871 163.897 224.596 162.57 222.889 163.897C221.941 164.656 220.993 165.983 220.614 167.121C219.097 171.482 217.959 176.222 218.528 180.963C218.907 183.428 219.097 185.893 220.045 187.979C222.131 192.53 226.681 193.478 230.474 190.254C231.422 189.496 232.18 188.548 232.939 187.599C237.49 182.669 239.576 176.412 240.713 169.965C241.092 168.258 242.041 165.604 239.386 164.845C236.731 164.276 236.352 166.741 235.783 168.638C234.835 171.482 234.077 174.516 233.129 177.36C231.612 180.963 229.905 184.566 225.733 186.841C225.165 185.324 224.785 183.997 224.406 182.859ZM355.243 160.484C353.536 156.312 349.744 155.364 346.141 158.209C340.642 162.759 337.988 168.638 337.988 175.653C337.988 182.48 344.055 185.893 350.123 182.859C351.83 182.1 353.347 180.584 354.485 179.067C356.57 176.222 357.329 172.809 357.708 169.017C356.95 166.362 356.381 163.328 355.243 160.484ZM350.692 174.895C350.313 176.033 349.554 177.17 348.606 177.739C347.658 178.308 346.141 178.687 345.383 178.308C344.624 177.929 343.676 176.412 343.676 175.464C343.676 170.155 345.762 165.983 350.123 161.622C352.209 166.741 352.209 170.913 350.692 174.895ZM313.337 29.2678C314.475 30.4055 315.802 32.6809 317.698 30.9743C319.405 29.4574 317.698 27.5612 316.75 26.2339C315.423 24.148 313.716 22.0623 312.2 19.9765C313.716 18.4595 315.044 17.5114 315.992 16.1841C318.836 12.9606 319.026 8.03046 316.371 5.37579C314.096 3.10037 309.734 3.29002 306.321 5.94468C304.046 7.84087 301.581 10.3059 302.719 13.1502C304.236 17.1322 303.287 20.9246 303.477 24.7169C303.477 26.8027 303.477 28.8885 304.046 30.9743C304.236 31.7328 305.373 32.3017 305.942 33.0601C306.511 32.4913 307.459 31.9224 307.649 31.164C308.028 29.2678 308.218 27.3716 308.786 24.1481C310.683 26.4235 311.82 27.9404 313.337 29.2678ZM310.303 10.1163C310.493 9.54741 311.82 9.54741 312.579 9.16817C312.768 9.92664 313.527 10.8748 313.148 11.4436C312.579 12.5813 311.441 13.719 310.683 14.8567C310.303 14.6671 309.924 14.4775 309.355 14.2879C309.545 12.9606 309.734 11.4436 310.303 10.1163ZM309.734 114.217C310.303 114.786 311.631 115.355 312.389 115.165C312.958 114.975 313.527 113.648 313.716 112.7C313.906 112.131 313.527 111.562 313.337 110.993C311.251 104.167 309.166 97.5305 306.89 90.7042C306.511 89.3769 305.752 88.2392 304.994 87.1015C303.098 84.6364 300.064 85.2053 298.926 88.0496C298.547 88.8081 298.357 89.7561 298.357 90.7042C298.168 97.7201 297.978 104.546 297.789 111.562C297.789 112.321 297.789 113.269 298.168 113.648C298.926 114.596 299.874 115.544 300.822 115.734C302.15 115.924 302.908 114.786 302.908 113.269C302.908 112.51 303.287 111.942 303.477 111.183C304.994 110.993 306.132 110.993 307.649 110.804C308.407 112.321 308.786 113.459 309.734 114.217ZM306.132 104.357C306.701 106.443 305.373 107.011 303.477 107.201C301.96 104.357 302.908 101.513 303.098 98.6682C303.477 98.6682 303.856 98.4786 304.236 98.4786C304.804 100.375 305.373 102.461 306.132 104.357ZM698.643 32.4913C701.677 37.8006 708.313 37.611 711.537 32.4913C713.243 29.647 714.191 26.6131 713.622 23.3896C712.674 18.8387 711.726 14.0983 709.83 9.92669C709.072 8.0305 706.417 6.32391 704.331 5.75505C702.056 4.99658 700.728 7.65123 699.591 9.3578C697.126 13.3398 695.609 17.5114 695.04 22.4415C696.367 25.665 696.936 29.4574 698.643 32.4913ZM708.692 22.8207C709.072 24.7169 708.313 26.9924 707.744 28.8886C707.365 29.8367 706.038 30.9744 705.09 30.7848C704.142 30.7848 702.814 29.647 702.435 28.6989C701.677 26.0443 700.918 23.3896 700.918 20.7349C700.918 17.1322 702.245 13.719 705.659 10.3059C706.796 15.236 708.123 19.0284 708.692 22.8207ZM231.612 261.93C231.612 263.636 231.422 265.343 231.801 266.86C231.991 268.377 232.56 270.084 234.645 269.704C236.352 269.325 236.352 267.998 236.352 266.481C236.542 262.12 236.731 257.758 237.111 253.397C237.49 249.415 238.059 245.244 238.438 241.262C238.438 240.503 237.679 239.555 237.3 238.607C236.352 239.176 234.835 239.555 234.456 240.313C233.697 242.589 233.508 245.054 233.129 247.329C232.749 249.036 232.56 250.742 232.18 252.828C228.578 252.828 225.354 252.828 221.751 252.828C222.131 249.605 222.699 246.76 222.889 243.916C222.889 242.968 222.32 241.261 221.562 241.072C219.855 240.503 218.907 242.02 218.717 243.347C217.769 250.174 217.011 257.19 216.252 264.016C216.252 264.964 217.011 266.67 217.769 266.86C219.476 267.239 219.855 265.533 220.045 264.205C220.424 262.309 220.803 260.413 221.183 258.327C224.596 257.948 227.63 257.569 231.422 257C231.801 259.275 231.612 260.603 231.612 261.93ZM591.318 160.105C592.077 158.777 594.921 158.588 596.817 157.64C597.576 157.26 597.955 156.123 598.524 155.364C597.765 154.795 596.817 153.847 596.059 153.847C593.025 154.037 589.991 154.416 587.147 154.985C585.44 155.364 584.871 156.502 584.871 158.398C585.061 161.053 584.871 163.897 584.682 166.552C584.682 170.344 584.492 174.136 584.682 177.929C584.871 180.584 585.819 183.238 588.664 183.997C593.404 185.514 597.955 184.755 602.316 182.669C602.885 182.29 603.644 181.152 603.454 180.584C603.264 180.015 602.127 179.446 601.368 179.256C600.42 179.067 599.472 179.446 598.714 179.446C596.248 179.446 593.594 179.446 590.75 179.446C590.56 177.55 590.37 176.033 590.181 174.516C593.025 173.757 595.68 173.188 597.955 172.24C598.714 172.051 599.093 170.913 599.472 170.344C598.714 169.775 597.955 168.827 597.197 168.638C595.111 168.448 593.025 168.638 590.181 168.638C590.56 165.414 590.181 162.38 591.318 160.105ZM564.582 231.97C563.824 233.677 562.876 235.194 562.686 236.711C561.927 241.262 561.548 246.002 561.169 250.742C560.979 253.966 560.79 257.19 560.979 260.223C560.979 260.982 562.307 261.74 563.065 262.688C563.634 261.93 564.772 261.361 564.961 260.413C565.341 259.086 565.151 257.758 565.151 256.431C565.53 251.311 566.099 246.192 568.185 241.451C569.702 238.417 571.788 236.711 573.494 237.469C576.149 238.417 575.58 240.882 575.58 242.968C575.58 247.329 575.39 251.691 575.201 256.052C575.201 257.379 575.201 258.896 575.77 260.034C576.149 260.792 577.287 261.361 578.235 261.361C578.614 261.361 579.372 260.034 579.372 259.275C579.562 252.828 579.941 246.192 579.562 239.745C579.372 234.246 575.58 231.97 570.46 233.487C569.702 233.677 569.133 234.056 568.185 234.435C567.047 233.677 566.099 233.108 564.582 231.97ZM442.468 244.485C442.657 249.036 442.278 253.587 442.278 258.138C442.278 259.654 442.468 261.171 442.847 262.688C443.036 263.257 443.985 263.637 444.553 263.637C444.933 263.637 445.502 263.068 445.881 262.499C446.26 261.93 446.26 261.361 446.26 260.792C446.26 253.966 446.45 247.14 446.45 240.313C446.45 239.176 446.07 237.848 445.691 236.711C443.985 231.591 439.623 230.264 435.262 233.677C434.124 234.625 432.987 235.763 432.039 236.711C428.057 235.573 427.298 235.952 427.109 239.555C426.919 244.485 426.919 249.226 426.729 254.156C426.729 255.862 426.16 258.327 428.815 258.327C431.47 258.327 431.09 256.052 431.28 254.345C431.659 249.794 432.607 245.433 434.693 241.262C435.831 239.176 437.158 237.09 439.813 236.521C442.468 238.607 442.278 241.641 442.468 244.485ZM290.773 10.6852C290.583 9.73706 290.014 8.78895 289.825 7.65124C289.066 3.66925 287.549 3.10041 284.136 5.18622C278.447 8.78898 274.086 18.8387 275.603 25.4754C275.982 26.9923 276.551 28.6989 277.31 30.0262C280.344 35.1459 286.032 35.3356 289.635 30.4055C292.1 26.9924 292.669 23.2 292.858 17.8906C292.29 16.5633 291.531 13.7191 290.773 10.6852ZM285.843 26.8027C285.463 27.7508 283.946 28.8886 283.188 28.6989C282.24 28.6989 281.102 27.3716 280.723 26.4235C280.154 24.5273 279.964 22.4415 280.344 20.7349C280.912 17.3218 282.429 14.0983 285.463 11.0644C288.308 16.5633 288.497 21.683 285.843 26.8027ZM89.7767 253.776C89.7767 251.501 89.9664 249.226 89.9664 246.95C89.9664 246.192 89.0183 245.054 88.639 245.054C87.6909 245.244 86.9325 245.812 86.174 246.571C85.7947 246.95 85.7948 247.709 85.7948 248.277C85.4155 255.293 85.2259 262.12 85.0363 269.136C85.0363 270.084 85.0363 271.032 85.6051 271.79C85.9844 272.549 86.9325 273.307 87.5013 273.307C88.0702 273.307 88.8287 272.359 89.0183 271.601C89.3975 270.463 89.2079 269.135 89.2079 267.998C89.0183 265.533 90.5352 264.395 92.621 264.205C93.7587 264.016 94.8965 264.016 96.4134 264.016C96.603 265.343 96.7926 266.67 96.7926 267.808C96.9823 269.135 96.9823 270.652 97.3615 271.79C97.7407 272.549 98.6888 273.117 99.4473 273.686C100.016 272.928 100.585 272.359 100.775 271.601C100.964 270.842 100.964 270.084 100.964 269.325C100.964 261.551 100.775 253.966 100.775 246.192C100.775 245.812 100.964 245.243 100.775 244.864C100.206 244.106 99.6369 243.158 99.0681 243.158C98.4992 243.158 97.3615 243.916 97.1719 244.485C96.7926 245.812 96.7926 247.14 96.603 248.467C96.603 251.691 96.603 255.104 96.603 258.706C94.5172 259.086 92.621 259.465 89.7767 260.034C89.7767 257.379 89.7767 255.483 89.7767 253.776ZM78.21 38.5591C78.5892 38.9383 79.727 39.128 80.2958 38.9383C80.8647 38.7487 81.4335 37.8006 81.4335 37.2318C81.4335 36.2837 81.4335 35.146 81.0543 34.1979C78.3996 27.182 75.745 19.9764 73.2799 12.9605C73.0903 12.2021 72.7111 11.6332 72.1422 11.0644C70.8149 9.35779 69.4875 9.35779 67.9706 11.0644C66.4536 12.9605 65.5055 15.0463 65.5055 17.701C65.8848 23.5792 65.8848 29.4574 66.0744 35.3356C66.0744 37.2318 65.6952 39.6968 68.3498 40.0761C71.0045 40.4553 70.6252 37.8006 71.5733 36.2837C72.7111 36.0941 74.0384 35.7148 75.745 35.5252C76.693 36.6629 77.2619 37.611 78.21 38.5591ZM73.8488 28.5093C74.228 29.8366 74.0384 30.0263 71.3837 30.7848C70.0564 27.9405 70.246 25.0962 70.246 22.2519C70.6252 22.2519 71.0045 22.0623 71.3837 22.0623C72.1422 24.1481 73.0903 26.4235 73.8488 28.5093ZM162.021 264.205C163.159 265.533 163.918 266.481 164.487 267.239C167.141 266.67 167.331 265.343 167.141 263.826C166.572 256.621 165.055 249.415 162.401 242.778C161.832 241.641 160.315 240.124 159.177 240.313C158.039 240.313 156.523 241.83 156.143 243.158C153.489 252.07 151.024 261.172 148.559 270.084C148.179 271.411 147.99 272.928 149.886 273.307C151.592 273.686 152.351 272.359 152.73 270.842C153.299 268.946 153.678 267.05 154.247 264.964C157.281 264.585 159.936 264.395 162.021 264.205ZM162.401 259.275C160.125 259.465 158.04 259.844 155.195 260.223C156.523 256.052 157.66 252.828 158.608 249.605C158.988 249.605 159.556 249.605 159.936 249.794C160.694 252.639 161.453 255.673 162.401 259.275ZM385.203 242.399C385.582 246.95 385.772 251.501 385.961 256.052C385.961 257.569 385.961 259.086 386.34 260.603C386.72 261.551 387.857 262.12 388.806 262.688C389.185 261.93 390.133 260.982 390.133 260.223C389.943 253.587 389.564 246.95 389.185 240.313C389.185 239.365 388.616 238.228 388.237 237.28C385.961 231.591 381.79 230.643 377.239 234.435C376.48 235.004 375.532 235.763 374.584 235.952C371.361 236.711 371.171 236.521 371.171 239.745C371.171 245.812 371.171 251.88 371.171 257.948C371.171 258.327 371.171 258.517 371.171 258.896C371.361 260.413 371.929 261.93 373.446 261.551C374.205 261.361 375.153 260.034 375.343 259.086C375.722 256.81 375.343 254.535 375.722 252.259C376.291 248.467 377.049 244.485 378.187 240.882C378.756 238.986 379.893 237.28 381.979 236.9C384.634 238.796 384.824 239.176 385.203 242.399ZM574.632 21.4934C575.959 23.0103 577.287 24.717 578.804 26.0443C579.941 27.182 581.079 29.2678 582.786 27.9405C584.682 26.4235 583.165 24.717 582.217 23.2C581.648 22.2519 580.7 21.3038 580.131 20.3557C579.372 19.4076 578.804 18.4595 578.235 17.3218C579.183 16.1841 579.752 15.236 580.51 14.2879C582.596 11.8229 583.165 8.78895 582.406 5.75505C582.027 3.66925 580.889 2.15229 578.614 1.77305C574.822 1.39381 571.977 3.29001 569.323 5.75505C567.237 7.84086 567.426 9.92667 568.564 12.3917C569.133 13.3398 568.943 14.8567 568.943 15.9945C568.943 19.5972 568.943 23.2 568.943 26.8027C568.943 27.9405 569.133 29.2678 569.512 30.4055C569.702 30.7847 570.46 31.5432 570.84 31.3536C571.408 31.3536 572.357 30.9743 572.546 30.4055C572.925 29.4574 573.115 28.3197 573.305 27.3716C573.494 25.665 573.494 23.7688 573.494 22.0623C573.873 21.8727 574.253 21.683 574.632 21.4934ZM577.097 6.89278C578.235 9.92668 578.045 10.3059 573.873 13.1502C572.925 8.22009 573.115 8.03049 577.097 6.89278ZM675.509 18.6491C675.509 21.683 675.509 24.7169 675.509 27.7508C675.509 28.8886 675.509 30.2159 675.888 31.3536C676.268 32.8705 676.836 34.3875 678.733 34.1979C680.439 33.8186 680.629 32.4913 680.629 30.9743C680.629 29.2678 680.629 27.5612 680.439 26.0443C679.87 22.6311 681.008 20.3557 684.421 18.8387C686.507 17.8906 688.593 16.3737 690.299 14.6672C693.144 11.6333 693.333 8.22012 691.247 5.18622C689.162 1.9627 685.938 0.824955 682.146 1.77305C677.595 2.91076 675.13 5.75504 674.94 9.3578C674.94 12.5813 674.94 15.8048 674.94 18.8387C674.94 18.6491 675.13 18.6491 675.509 18.6491ZM679.681 9.92669C679.681 7.65126 681.198 6.51351 683.094 6.32389C684.232 6.13427 685.749 6.89277 686.507 7.65124C687.645 8.78895 687.265 10.3059 686.128 11.254C684.421 12.5813 682.525 13.9086 680.818 15.0464C680.439 14.8567 680.06 14.4775 679.681 14.2879C679.681 12.9606 679.681 11.4436 679.681 9.92669ZM202.979 88.6185C200.893 88.6185 200.704 90.7043 200.704 92.4108C200.704 97.1513 200.704 101.702 200.893 106.443C200.893 107.77 201.462 109.287 203.169 109.287C204.875 109.477 205.444 108.149 205.823 106.822C206.203 105.305 206.203 103.788 206.582 102.271C207.53 98.289 209.237 94.8759 212.46 92.4108C214.736 90.7043 216.063 91.0835 216.821 93.7381C217.39 95.4447 217.58 97.3409 217.769 99.0475C218.149 101.892 218.528 104.736 219.286 107.58C219.476 108.528 220.993 109.477 221.751 109.477C223.268 109.477 223.458 107.96 223.268 106.822C223.079 103.788 222.699 100.754 222.32 97.7201C221.941 95.4447 221.751 93.1693 220.803 91.0835C218.907 86.343 214.736 85.2053 210.564 88.0496C209.237 88.9977 207.909 89.9458 206.961 90.7042C205.444 90.1354 204.117 88.6185 202.979 88.6185ZM705.848 254.535C704.141 248.846 706.227 244.106 709.451 239.745C711.916 236.521 712.864 236.711 715.329 239.934C715.898 240.693 717.036 240.882 717.794 241.262C718.173 240.313 719.121 239.555 718.932 238.607C718.742 234.435 714.191 230.453 709.072 233.677C702.625 237.848 698.832 249.415 701.677 256.81C703.573 261.93 709.072 264.395 714.381 262.309C717.225 261.171 718.363 259.086 717.794 256.241C717.415 254.156 716.846 251.88 716.277 249.226C714.76 249.226 713.054 249.036 711.347 249.226C709.261 249.605 708.692 251.311 710.399 252.828C712.106 254.156 713.054 255.483 713.054 257.569C708.692 258.896 706.986 258.138 705.848 254.535ZM176.053 107.96C177.001 111.752 179.277 113.079 183.069 112.89C188.568 112.51 192.929 108.528 193.688 102.84C194.446 96.5825 192.929 89.3769 182.69 87.2911C176.433 85.9638 173.778 87.86 173.778 94.1174C174.347 98.8579 174.916 103.409 176.053 107.96ZM189.137 99.9956C189.327 103.788 187.62 107.011 184.396 108.149C181.931 109.097 180.415 108.528 180.035 105.874C179.277 101.133 178.898 96.3928 178.139 91.0835C186.293 92.2212 188.758 94.307 189.137 99.9956ZM325.852 104.926C323.766 99.6163 323.008 94.307 322.818 88.6185C322.818 85.395 321.87 84.0676 320.164 84.0676C318.457 84.0676 317.698 85.395 317.698 88.6185C317.509 95.6344 319.405 102.461 321.491 109.097C322.249 111.183 323.197 113.079 325.662 113.458C328.317 113.838 330.024 111.942 330.782 109.666C332.868 103.598 334.764 97.3409 336.66 91.0835C336.85 90.1354 336.471 88.4288 335.902 88.0496C334.385 87.1015 333.247 88.2392 332.678 89.5666C331.541 92.2212 330.593 94.8759 329.644 97.5305C328.696 99.9956 327.938 102.461 326.99 105.115C326.611 104.926 326.231 104.926 325.852 104.926ZM548.085 257.379C548.465 258.706 548.465 260.034 549.033 261.361C549.413 262.12 550.361 262.688 550.93 263.447C551.498 262.499 552.067 261.551 552.447 260.603C552.636 260.223 552.447 259.655 552.447 259.275C551.688 253.776 550.93 248.277 549.982 242.778C549.602 240.693 548.654 238.796 547.706 236.9C546.758 235.004 545.241 233.298 542.776 233.487C540.311 233.677 538.604 235.383 537.846 237.659C536.898 240.503 536.519 243.537 535.76 246.381C534.622 250.932 535.57 255.483 536.329 259.844C536.708 261.551 537.277 263.447 540.311 262.499C540.311 260.223 540.311 257.758 540.311 255.104C542.586 254.724 544.672 254.345 546.948 253.776C547.516 255.104 547.706 256.241 548.085 257.379ZM546.948 250.742C544.483 250.742 542.397 250.742 539.932 250.742C539.742 246.192 540.69 242.02 542.776 237.469C546.379 241.451 546.379 246.002 546.948 250.742ZM186.672 37.4214C189.327 42.5411 195.394 42.7307 198.239 37.8006C199.376 35.9044 199.945 33.629 200.135 31.3536C200.514 25.4754 198.618 19.9765 196.722 14.6672C195.963 12.3917 194.257 11.8228 191.981 13.1502C190.654 13.9086 189.516 15.0464 188.758 16.1841C185.913 19.9765 184.586 24.1481 184.017 28.8886C184.776 31.7328 185.345 34.7667 186.672 37.4214ZM195.015 32.8705C194.826 34.0082 193.688 35.5252 192.74 35.7148C190.844 36.094 190.275 34.3875 189.895 32.8705C188.568 27.9404 189.327 23.5792 192.929 18.4595C194.636 23.9585 195.963 28.3197 195.015 32.8705ZM178.518 265.153C176.432 261.93 176.433 258.138 176.243 254.345C176.053 250.742 176.053 247.14 175.864 243.347C175.864 241.83 175.484 240.124 173.399 240.313C171.502 240.503 171.502 242.02 171.502 243.537C171.692 249.226 171.882 254.724 172.261 260.413C172.451 262.688 173.209 264.964 174.157 266.86C176.243 271.221 180.794 271.601 183.638 267.808C184.776 266.291 185.913 264.395 186.103 262.499C187.051 256.431 187.81 250.174 188.568 244.106C188.758 243.158 187.999 242.02 187.43 239.934C186.293 241.451 185.345 242.02 185.155 242.968C184.586 244.864 184.396 246.76 184.017 248.846C183.448 252.639 182.88 256.621 182.121 260.413C181.742 262.12 180.604 263.826 179.846 265.533C179.277 265.343 178.898 265.153 178.518 265.153ZM614.641 29.2678C612.935 29.4574 611.228 29.4574 609.711 29.8367C608.763 30.0263 608.194 30.9744 607.436 31.5432C608.194 32.3017 608.953 33.629 609.711 33.8186C611.987 34.1978 614.262 34.3875 616.538 34.1979C623.364 33.4394 625.829 28.5093 622.416 22.6311C620.52 19.218 617.296 17.1322 614.073 15.0464C612.935 14.4775 611.987 13.5294 611.039 12.771C613.125 10.3059 615.21 10.6851 617.296 11.0644C618.623 11.4436 619.951 11.8229 621.278 11.8229C622.226 11.8229 623.174 11.0644 623.743 10.3059C623.933 9.92665 623.364 8.59936 622.795 8.0305C619.382 4.80698 611.987 4.9966 608.384 8.0305C604.971 10.8748 605.35 15.0464 608.953 17.5114C610.849 18.8388 612.935 19.7869 614.831 21.1142C617.107 22.6311 619.003 24.5273 619.003 28.13C617.486 28.5093 616.158 29.0781 614.641 29.2678ZM12.9811 25.0962C13.55 30.7848 13.9292 36.4733 14.4981 42.1619C14.6877 43.6788 14.8773 45.9542 16.9631 45.7646C19.2386 45.575 18.8593 43.4892 18.8593 41.7826C18.4801 35.5252 18.1009 29.4574 17.532 23.2C17.532 21.6831 17.532 20.3557 17.532 18.6491C20.1867 18.0802 22.6517 17.8907 24.9271 17.3218C26.2545 16.9426 27.961 16.5633 27.3922 14.8567C27.2026 14.0983 25.6856 13.5294 24.5479 12.9605C23.979 12.7709 23.4102 12.771 22.8413 12.771C16.3943 13.1502 9.94725 13.719 3.50021 14.0983C3.12097 14.0983 2.74173 14.0983 2.55212 14.2879C1.79364 14.8568 0.466309 15.8049 0.466309 16.3737C0.655927 17.3218 1.4144 18.6491 2.3625 19.0284C3.31059 19.5972 4.63792 19.4076 5.96526 19.4076C7.86144 19.4076 9.75763 19.4076 12.2227 19.4076C12.6019 21.6831 12.7915 23.3896 12.9811 25.0962ZM616.348 105.305C617.296 110.045 621.468 112.51 626.208 111.183C629.432 110.235 631.328 108.149 632.655 105.305C635.5 99.2371 634.172 93.5485 630.38 88.2392C627.156 83.6884 623.174 83.6884 619.761 88.4288C617.296 92.0316 615.969 96.2032 615.59 100.944C615.779 102.271 615.969 103.788 616.348 105.305ZM628.673 103.029C628.104 104.167 627.346 105.495 626.398 106.253C623.933 108.149 621.089 107.201 620.52 104.167C619.572 98.8578 621.089 94.1174 624.881 89.5666C629.432 93.5486 630.759 98.4786 628.673 103.029ZM226.681 15.9945C226.871 15.0464 227.061 14.0983 226.871 13.3398C226.681 12.5813 226.302 11.4436 225.733 11.254C225.165 11.0644 223.837 11.6332 223.458 12.2021C222.699 13.3398 222.32 14.6671 222.131 15.9945C221.562 19.5972 221.183 23.2 220.424 26.8027C220.045 28.6989 219.286 30.5951 218.338 32.3017C217.39 33.8186 215.494 33.629 214.736 32.112C214.167 30.9743 213.787 29.4574 213.787 28.3197C213.787 25.2858 214.167 22.2519 214.546 19.4076C214.735 18.0803 214.925 16.753 214.925 15.4256C214.925 14.8568 214.167 13.9087 213.787 13.7191C213.029 13.5294 211.891 13.9087 211.512 14.4775C210.754 15.236 210.374 16.3737 210.185 17.3218C209.616 21.1142 209.047 25.0961 209.047 29.0781C209.047 30.9743 209.616 33.0601 210.374 34.7667C213.029 40.076 219.097 40.6449 222.51 35.9044C223.648 34.1979 224.596 32.112 224.975 30.2159C225.923 25.8546 226.492 21.3038 227.25 16.7529C226.871 15.9944 226.681 15.9945 226.681 15.9945ZM197.67 260.792C196.153 256.241 198.049 249.415 201.841 246.381C203.548 245.054 205.255 244.485 206.961 246.192C207.909 247.14 209.237 247.709 209.995 246.192C210.374 245.433 210.185 243.727 209.805 242.968C207.72 239.745 203.548 239.555 199.756 242.02C193.498 246.381 190.654 256.81 193.877 263.637C196.153 268.756 201.652 270.463 206.392 267.429C209.237 265.722 210.185 262.878 208.668 260.034C207.72 258.327 206.013 256.81 204.306 255.483C203.738 255.104 202.221 255.104 202.031 255.483C201.652 256.241 201.462 257.569 201.841 258.327C202.6 259.655 203.738 260.982 204.875 262.499C200.704 264.964 198.997 264.395 197.67 260.792ZM119.737 99.2371C119.168 97.7201 117.84 96.3928 117.271 94.8759C115.565 90.5146 113.479 89.5666 109.497 92.2212C103.619 96.0136 101.343 104.736 104.377 110.804C106.653 115.165 110.256 117.061 114.427 116.303C118.978 115.355 121.822 111.752 122.391 106.443C121.443 103.978 120.685 101.512 119.737 99.2371ZM116.703 103.409C117.271 104.736 117.271 106.443 117.271 107.77C117.082 110.045 115.565 111.373 113.479 111.752C111.393 112.321 110.066 110.804 109.118 109.287C106.653 105.305 107.791 99.9956 112.721 96.0136C114.048 98.6683 115.565 100.944 116.703 103.409ZM732.205 108.718C734.101 111.183 736.566 113.079 739.979 112.321C743.772 111.562 745.478 108.718 746.047 105.305C746.995 99.806 744.91 95.2551 740.738 91.6523C739.411 90.5146 738.273 89.5666 737.135 88.4288C735.239 86.343 733.532 85.9638 731.447 88.0496C728.792 90.7042 728.034 94.1174 728.034 97.5305C728.034 101.702 729.55 105.305 732.205 108.718ZM740.359 97.9098C741.117 99.806 741.686 102.271 741.496 104.357C741.496 105.495 740.169 107.201 739.031 107.58C738.273 107.96 736.566 106.822 735.808 105.874C732.395 102.081 731.826 97.5305 734.101 92.6004C736.946 93.9277 739.221 95.2551 740.359 97.9098ZM637.585 27.5612C637.206 25.665 636.448 23.5792 636.258 21.683C636.068 18.2699 636.068 14.6671 636.068 11.254C636.068 9.3578 636.258 7.27203 633.793 7.08241C631.518 6.89279 631.518 9.1682 631.518 10.6852C631.518 14.8568 631.518 19.218 631.897 23.3896C632.086 25.4754 632.655 27.5612 633.603 29.4574C636.258 34.3875 640.998 34.5771 643.653 29.647C646.877 23.7688 647.445 17.3218 647.445 10.6852C647.445 9.1682 646.877 7.84087 645.17 7.84087C643.464 7.84087 643.084 9.1682 642.895 10.6852C642.326 14.6671 641.757 18.8387 640.998 22.8207C640.619 24.5273 639.671 26.0443 639.102 27.5612C638.533 27.7508 637.965 27.5612 637.585 27.5612ZM132.82 106.822C132.441 104.357 132.631 101.702 132.441 99.0475C132.441 97.9098 132.441 96.5824 132.251 95.4447C132.062 93.9277 131.303 92.6004 129.597 93.1693C128.838 93.3589 127.701 94.8759 127.701 95.824C127.701 99.806 127.89 103.978 128.269 107.96C128.459 110.045 129.407 112.131 130.545 113.838C133.01 117.82 137.181 118.389 140.405 114.975C146.473 108.528 147.231 100.375 147.231 92.0316C147.231 91.4627 146.473 90.7043 145.904 90.5147C145.335 90.5147 144.387 91.0835 144.197 91.6523C143.628 93.1693 143.249 94.8758 142.87 96.3928C141.922 99.9955 141.163 103.788 140.026 107.391C139.457 109.477 138.319 111.752 135.664 112.321C133.579 111.373 133.199 108.908 132.82 106.822ZM267.639 19.0284C268.966 18.4595 270.104 17.1322 269.156 15.8048C268.587 15.0463 267.07 14.8567 265.933 15.0464C264.605 15.236 263.468 15.9945 262.14 16.3737C261.382 16.5633 260.623 16.5633 259.296 16.5633C260.434 13.9087 262.33 12.9605 264.226 12.0124C265.743 11.254 267.45 10.8748 268.777 9.92669C269.535 9.54745 269.915 8.4097 270.294 7.46161C269.346 6.89275 268.398 5.94467 267.45 5.75505C266.312 5.56543 264.984 6.13428 264.036 6.51352C262.14 7.27199 260.244 8.40973 258.158 8.78897C255.883 9.1682 254.935 10.3059 254.745 12.3917C254.366 18.8387 253.797 25.2858 253.607 31.9224C253.607 33.0601 253.987 34.3875 254.745 35.3356C255.504 36.6629 257.4 36.2837 257.969 34.9563C258.348 34.0082 258.348 32.8705 258.348 31.9224C258.537 28.8885 258.537 25.8547 258.727 23.2C262.14 21.4934 264.984 20.3557 267.639 19.0284ZM448.915 99.2371C448.725 96.5824 448.915 93.7382 448.535 91.0835C447.587 85.2053 443.036 82.9299 437.727 85.5846C436.779 85.9638 436.021 86.9119 434.883 87.1015C432.607 87.4807 431.659 88.9977 431.47 91.2731C431.091 95.2551 430.522 99.4267 430.142 103.409C430.142 103.978 429.953 104.736 430.332 105.115C430.711 105.874 431.659 106.822 432.228 106.822C433.176 106.822 434.124 106.063 434.693 105.305C435.072 104.736 435.073 103.598 435.262 102.65C435.831 99.806 436.21 96.9617 436.969 94.307C437.538 92.6005 438.675 91.0835 440.003 89.9458C441.52 88.4288 443.226 88.9977 443.795 91.0835C444.174 92.4108 444.364 94.1174 444.364 95.4447C444.364 98.8578 444.174 102.461 444.174 105.874C444.174 107.391 444.174 109.666 446.26 109.856C448.535 110.045 448.535 107.77 448.535 106.253C448.725 103.978 448.535 101.702 448.535 99.4267C448.725 99.2371 448.725 99.2371 448.915 99.2371ZM754.011 241.83C754.58 242.21 755.718 242.399 756.476 242.21C756.856 242.02 757.614 240.693 757.235 240.313C755.907 238.228 754.58 235.763 752.684 234.246C750.788 232.729 748.323 233.677 746.427 235.194C739.79 239.934 737.135 251.88 741.117 259.086C742.445 261.551 744.53 263.257 747.185 263.257C751.357 263.257 755.149 261.74 758.372 258.896C759.51 257.758 760.079 256.431 758.372 255.104C755.528 256.241 752.874 257.569 750.029 258.517C747.185 259.465 746.047 258.706 744.91 256.241C742.065 250.363 744.72 241.83 750.788 238.228C751.736 239.555 752.684 240.882 754.011 241.83ZM500.491 175.653C499.543 175.843 498.216 176.412 498.216 177.17C498.026 177.929 498.784 179.256 499.543 179.635C502.008 181.152 505.042 181.532 507.886 180.773C510.162 180.204 511.299 178.498 511.489 176.033C511.678 172.24 510.351 169.206 507.317 166.931C506.18 166.173 505.042 165.414 504.094 164.466C502.766 163.139 503.146 162.001 504.473 161.053C506.369 159.725 508.265 160.674 509.972 161.811C511.11 162.759 512.627 162.949 513.575 161.622C514.712 160.105 514.144 158.777 513.006 157.64C509.972 154.416 503.525 154.416 500.112 157.64C496.699 160.674 496.888 165.414 500.301 168.258C501.249 169.206 502.577 169.775 503.525 170.723C505.042 171.861 505.99 173.378 505.421 175.843C503.904 175.653 502.198 175.464 500.491 175.653ZM652.944 13.3398C653.324 19.218 654.082 25.0961 654.841 30.9743C654.841 31.5432 655.03 32.3017 655.41 32.6809C656.168 33.4394 657.306 33.8186 658.064 34.5771C658.443 33.629 659.202 32.8705 659.391 31.9224C659.581 30.9743 659.202 29.8366 659.012 28.6989C658.064 24.1481 658.443 20.5453 663.563 18.4595C666.407 17.3218 668.114 14.6671 668.493 11.254C668.683 7.46161 666.407 4.80695 663.184 4.61733C658.633 4.61733 652.755 9.16819 652.944 13.3398ZM658.823 15.4256C657.685 11.8229 659.012 10.4955 663.563 10.3059C663.184 13.5294 661.098 14.4775 658.823 15.4256ZM532.726 8.22007C529.503 5.18617 526.469 5.56541 524.004 9.16817C520.78 13.719 520.78 21.683 523.625 26.4235C526.279 30.5951 531.399 31.1639 534.622 27.1819C536.708 24.9065 537.656 22.0623 537.656 19.7868C537.846 15.236 535.76 11.0644 532.726 8.22007ZM531.778 22.8207C531.209 23.5792 530.261 24.5273 529.503 24.5273C528.744 24.5273 527.796 23.3896 527.227 22.6311C525.331 19.0284 525.9 15.0463 528.744 12.0124C532.726 15.0463 533.864 19.218 531.778 22.8207ZM275.603 249.226C275.982 245.054 276.362 244.864 280.344 243.916C282.05 243.537 283.946 243.158 285.653 242.589C286.791 242.21 288.308 241.641 287.739 240.124C287.549 239.365 286.032 238.796 285.274 238.796C281.671 239.176 278.068 239.745 274.655 240.693C273.707 240.882 272.759 242.399 272.569 243.347C271.621 249.605 270.483 255.862 269.915 262.309C269.535 267.239 276.172 271.032 280.723 268.567C281.292 268.187 281.861 267.429 281.861 266.86C281.861 266.291 281.102 265.533 280.533 265.343C279.585 264.964 278.447 264.964 277.499 264.774C274.276 264.016 274.086 263.637 274.276 260.603C274.465 258.517 275.224 257.379 277.31 256.81C279.585 256.241 282.429 256.431 283.946 253.587C281.671 250.174 278.447 253.018 275.793 252.07C275.603 250.932 275.413 249.984 275.603 249.226ZM417.438 86.343C415.921 85.3949 414.404 85.3949 412.697 86.5327C408.715 89.3769 405.871 96.772 406.819 101.513C407.578 105.305 411.181 108.528 415.163 108.908C418.955 109.287 422.178 107.011 423.695 102.84C424.075 101.513 424.454 100.185 424.643 99.0475C424.643 93.3589 421.799 89.3769 417.438 86.343ZM419.713 100.185C419.145 102.84 417.628 104.357 415.542 104.167C413.456 103.978 411.37 102.081 411.181 99.6163C410.991 96.0136 412.508 93.3589 415.163 90.325C418.765 93.1693 420.661 96.2032 419.713 100.185ZM650.1 105.305C649.531 103.788 648.773 102.461 648.583 100.944C648.394 96.9617 648.583 93.1693 648.583 89.1873C648.583 87.4807 648.963 85.3949 646.877 85.2053C644.601 84.8261 644.222 86.9119 644.222 88.6185C644.032 92.9797 643.843 97.3409 644.032 101.702C644.032 103.219 644.791 104.926 645.549 106.443C648.014 111.373 652.755 111.752 655.978 107.011C659.96 100.944 659.96 93.7381 660.529 86.9119C660.529 86.343 659.771 85.3949 659.202 85.3949C658.633 85.2053 657.495 85.5845 657.306 86.1534C656.547 87.6703 656.168 89.1873 655.789 90.8939C655.03 94.307 654.651 97.7201 653.893 101.133C653.513 102.65 652.376 104.167 651.617 105.684C650.859 105.305 650.479 105.305 650.1 105.305ZM599.093 93.5485C598.903 91.4627 599.093 89.3769 598.714 87.2911C598.524 86.5326 597.576 85.2053 596.817 85.2053C596.059 85.2053 595.111 86.1534 594.732 87.1015C594.352 87.6703 594.542 88.6185 594.542 89.3769C594.732 92.6004 594.732 95.824 594.921 98.8579C595.111 100.944 595.3 103.029 595.49 105.115C595.68 106.443 596.059 108.149 597.765 107.77C598.524 107.58 599.282 106.063 599.662 105.115C600.041 104.167 599.851 103.029 600.041 101.702C601.937 101.513 603.644 101.513 605.54 101.323C605.919 103.788 606.298 106.063 606.867 107.96C607.057 108.718 608.194 109.287 608.953 110.045C609.522 109.287 610.659 108.528 610.659 107.77C610.091 101.323 609.522 94.8759 608.763 88.4288C608.763 87.86 607.436 86.7223 607.057 86.7223C606.298 86.9119 605.161 87.6704 604.971 88.4288C604.592 89.5666 604.781 90.8939 604.781 92.0316C604.781 93.5485 604.781 94.8759 604.781 96.5824C602.885 96.5824 601.558 96.5824 599.851 96.5824C599.472 95.6343 599.093 94.6862 599.093 93.5485ZM507.507 239.934C508.076 240.503 509.403 241.072 510.162 240.693C511.489 240.124 511.489 238.607 510.73 237.659C509.403 236.142 508.076 234.246 506.369 233.298C503.525 231.781 498.974 232.918 497.457 234.814C496.13 236.711 496.699 239.555 499.164 242.589C500.301 243.916 501.439 244.864 502.577 246.192C503.904 247.709 505.231 249.036 506.369 250.742C507.128 252.07 507.507 253.587 507.886 255.104C503.904 257.758 501.629 253.587 498.405 253.776C498.216 254.724 497.836 255.673 498.216 256.431C499.543 259.465 502.387 260.223 505.231 260.792C507.697 261.171 509.782 260.223 511.11 258.138C512.627 256.052 512.627 253.587 511.489 251.691C509.593 248.467 507.128 245.623 504.852 242.589C503.714 241.072 502.387 239.745 501.06 238.228C504.473 236.331 505.99 238.228 507.507 239.934ZM48.8191 96.3928C48.6295 93.5485 49.5776 91.6523 52.4218 90.8939C53.3699 90.7042 54.5077 90.325 55.2661 89.5666C55.835 88.9977 56.2142 87.86 56.5935 87.1015C55.835 86.7222 54.8869 85.9638 54.318 86.1534C52.0426 86.5326 49.9568 87.4807 47.6814 87.8599C45.0267 88.2392 44.2682 89.7562 44.2682 92.2212C44.2682 96.2032 44.0786 100.185 44.2682 103.978C44.2682 106.443 44.4579 109.097 45.0267 111.562C45.7852 114.786 47.871 117.251 50.9049 118.768C53.5596 119.906 55.2661 119.147 56.2142 116.492C49.9568 113.458 49.1983 112.51 49.5776 107.58C51.2841 105.874 54.6973 106.063 55.2661 102.461C53.1803 102.461 51.2841 102.461 49.0087 102.461C48.8191 100.185 48.8191 98.289 48.8191 96.3928ZM463.326 9.16817C464.843 8.59931 466.549 8.03046 467.876 7.27198C468.445 6.89274 469.014 5.75508 469.014 5.18622C468.825 4.61736 467.687 3.66925 467.118 3.85887C464.653 4.04849 462.378 4.42775 460.102 5.18622C455.931 6.51355 454.793 8.03049 454.793 12.5813C454.793 17.3218 454.793 22.2519 454.793 26.9924C454.793 28.8886 454.414 30.9743 454.603 32.8705C454.603 33.629 455.551 34.9563 456.31 35.146C457.068 35.3356 458.396 34.5771 458.775 33.8186C459.344 32.8705 459.533 31.5432 459.533 30.4055C459.723 28.3197 459.533 26.2339 459.723 24.1481C459.913 23.2 460.671 21.8727 461.429 21.3038C462.757 20.3557 465.601 20.1661 464.843 17.8906C464.463 16.7529 461.998 16.1841 460.102 15.236C459.344 10.6851 459.344 10.6851 463.326 9.16817ZM460.292 240.503C460.671 236.711 460.671 236.521 464.463 235.763C465.222 235.573 465.98 235.573 466.739 235.383C468.066 235.004 469.583 234.814 469.583 232.918C469.393 230.832 467.687 231.212 466.36 231.212C464.463 231.212 462.378 231.591 460.481 231.591C458.206 231.401 457.068 232.349 456.689 234.435C455.931 240.693 455.172 246.95 454.603 253.397C454.414 256.052 455.551 257.569 458.016 257.948C460.481 258.327 462.757 258.138 465.222 257.948C465.98 257.948 466.739 256.81 467.497 256.241C465.222 253.018 461.809 254.724 458.964 253.208C459.154 251.691 459.154 249.984 459.344 248.467C461.24 247.898 462.946 247.709 464.463 246.95C465.032 246.76 465.601 245.623 465.601 244.864C465.601 244.485 464.653 243.727 464.084 243.537C462.946 243.158 461.809 243.347 460.102 243.158C460.292 242.21 460.292 241.262 460.292 240.503ZM89.3975 99.9956C89.9664 101.513 91.4833 101.892 92.621 100.754C94.3276 99.2371 94.3276 94.6862 92.621 92.79C91.1041 90.8939 88.639 90.8938 86.174 92.6004C79.1581 97.7201 78.5892 109.666 85.0363 115.544C88.2598 118.578 92.2418 119.147 96.4134 118.199C99.0681 117.63 99.6369 116.492 99.4473 113.648C93.9484 114.975 88.4494 115.544 85.7948 109.097C84.0882 105.115 85.4155 100.185 89.0183 97.1513C89.0183 98.0994 89.0183 99.0475 89.3975 99.9956ZM765.957 7.84087C766.716 7.65125 767.285 6.51353 767.853 5.75505C767.095 5.1862 766.336 4.0485 765.578 4.0485C761.027 4.0485 756.476 4.23808 752.115 4.4277C751.357 4.4277 750.409 4.42772 749.84 4.80696C748.892 5.56543 747.754 6.51351 747.754 7.27198C747.754 8.03046 749.081 8.97857 750.029 9.54743C750.977 9.92667 752.305 9.92664 753.822 10.1163C754.011 14.4775 754.011 18.4595 754.201 22.4415C754.201 24.3377 754.201 26.4235 754.391 28.3197C754.58 29.8366 754.77 31.5432 756.856 31.5432C758.752 31.3536 758.941 29.647 758.941 28.13C758.941 26.4235 759.131 24.717 759.131 23.2C759.131 18.6492 759.131 14.0983 759.131 9.3578C761.786 8.78894 763.871 8.59935 765.957 7.84087ZM704.142 168.448C704.142 172.051 703.952 175.653 704.142 179.446C704.331 181.152 704.9 183.238 706.038 184.186C708.692 186.462 712.295 187.031 715.898 187.031C716.656 187.031 717.794 186.082 717.794 185.514C717.794 184.566 717.415 183.428 716.656 182.859C715.329 182.1 713.812 181.532 712.485 181.342C710.209 180.773 709.451 179.635 709.64 177.36C709.83 174.705 709.83 172.24 709.83 169.586C709.83 165.414 709.83 161.053 709.83 156.881C709.83 154.985 709.072 153.468 706.796 153.658C704.9 153.847 704.521 155.364 704.521 156.881C704.521 160.674 704.521 164.466 704.521 168.258C704.521 168.448 704.331 168.448 704.142 168.448ZM550.171 10.6852C550.171 9.35782 550.361 7.84086 550.171 6.70315C549.982 5.75505 548.844 4.42771 548.275 4.61733C547.327 4.80695 545.81 5.75504 545.81 6.51352C545.051 12.3917 544.862 18.4595 548.465 23.5792C550.93 27.182 555.101 27.1819 557.377 23.3896C560.6 18.4595 561.169 12.5813 561.359 6.89278C561.359 6.1343 560.411 4.80696 560.031 4.80696C559.083 4.80696 557.945 5.37584 557.566 6.13431C556.808 7.84088 556.618 9.54743 556.049 11.4436C555.291 14.4775 555.291 17.701 552.636 20.5453C549.982 17.5114 550.361 13.9087 550.171 10.6852ZM346.9 97.7201C346.9 95.0655 346.9 92.4108 346.9 90.325C348.796 88.4288 352.209 89.9458 353.157 86.5327C350.882 84.4468 348.417 85.0157 345.762 85.3949C342.159 85.9638 341.401 86.9119 341.401 90.5147C341.401 94.307 341.401 98.0994 341.401 101.892C341.401 103.598 341.78 105.495 342.539 107.201C343.487 109.666 345.572 110.993 348.227 110.993C350.692 110.993 353.347 111.562 355.243 107.77C353.347 107.391 351.83 107.201 350.313 107.011C347.848 106.822 346.71 105.684 347.279 103.409C348.986 101.702 352.209 102.271 352.968 98.8579C350.692 98.4786 348.796 98.0994 346.9 97.7201ZM760.648 103.978C759.889 103.219 758.941 102.461 758.562 101.513C757.804 99.6163 757.424 97.7201 757.045 95.824C756.666 93.5485 756.856 91.2731 756.666 88.9977C756.476 88.2392 755.528 87.4808 754.959 86.7223C754.201 87.4808 753.253 88.0496 752.494 88.808C752.305 88.9977 752.305 89.3769 752.305 89.7561C752.115 94.307 752.305 98.8578 754.201 103.029C754.959 104.546 755.907 105.874 757.045 107.011C760.079 109.666 764.63 109.097 765.768 105.305C767.474 99.9956 768.043 94.307 768.991 88.808C769.181 88.2392 768.233 87.2911 767.664 86.7223C766.905 87.2911 765.578 87.6704 765.388 88.4288C764.63 90.5146 764.44 92.7901 763.871 95.0655C763.303 97.9098 762.544 100.944 761.975 103.788C761.406 103.788 761.027 103.978 760.648 103.978ZM130.355 262.12C130.355 258.138 130.545 254.156 130.545 250.363C130.545 247.709 130.355 244.864 129.976 242.21C129.786 240.693 128.649 239.555 127.132 240.124C126.373 240.503 125.615 242.02 125.615 242.968C125.615 249.415 125.615 256.052 125.804 262.499C125.804 264.585 125.994 266.86 126.563 268.756C126.942 269.894 127.89 271.6 128.838 271.79C132.631 272.359 136.233 272.359 140.026 272.359C140.595 272.359 141.543 271.221 141.543 270.652C141.543 270.084 140.784 268.946 140.026 268.756C138.698 268.377 137.371 268.187 136.044 268.187C134.337 267.998 132.82 267.998 130.734 267.998C130.734 265.533 130.355 263.826 130.355 262.12ZM687.076 167.5C687.076 164.845 687.076 162.38 687.076 159.725C687.076 158.019 686.507 156.692 684.611 156.692C682.715 156.692 681.956 158.019 681.956 159.725C681.956 165.793 681.767 171.861 681.956 177.929C681.956 179.635 683.094 181.911 684.611 182.859C688.214 185.324 692.575 185.703 696.746 184.945C697.505 184.755 698.643 183.807 698.453 183.238C698.263 182.29 697.505 181.152 696.746 180.963C694.85 180.394 692.954 180.204 691.058 179.825C687.645 179.067 687.265 178.877 687.076 175.464C686.886 172.62 687.076 170.154 687.076 167.5ZM65.8848 253.397C65.8848 257 65.6952 260.603 65.6952 264.205C65.6952 265.343 65.5055 266.481 66.0744 267.239C66.4536 268.187 67.4017 269.515 68.1602 269.704C69.6772 269.894 69.8668 268.377 69.8668 267.05C69.8668 263.826 69.8668 260.792 70.0564 257.569C70.246 254.535 70.4356 251.691 70.6252 248.467C72.5214 248.277 74.0384 248.277 75.5553 248.088C76.6931 248.088 77.8308 248.088 78.5892 247.709C79.3477 247.329 79.9166 246.571 80.1062 245.812C80.1062 245.433 79.3477 244.485 78.7789 244.295C78.0204 243.916 77.0723 243.916 76.1242 243.916C71.5733 243.916 67.0225 244.106 62.4716 244.106C62.0924 244.106 61.9028 244.106 61.5235 244.106C60.0066 244.485 58.3 244.675 58.3 246.571C58.4896 248.277 60.0066 248.467 61.3339 248.467C62.6613 248.657 63.9886 248.657 65.5055 248.657C65.8848 250.742 65.8848 252.07 65.8848 253.397ZM483.615 253.587C481.908 253.776 480.012 253.776 478.116 254.156C477.357 254.345 476.789 255.104 476.03 255.483C476.599 256.241 477.357 257.379 477.926 257.379C480.391 257.569 482.856 257.758 485.132 257.189C488.924 256.431 490.441 253.207 489.114 249.605C487.976 246.381 485.701 244.295 483.046 242.589C481.719 241.641 480.391 240.882 478.874 239.934C480.391 237.659 482.288 238.038 483.994 238.228C485.132 238.417 486.27 238.796 487.597 238.986C488.166 238.986 489.114 238.417 489.303 237.848C489.493 237.28 489.114 236.331 488.735 235.952C485.701 232.918 478.495 233.487 475.841 236.711C473.944 238.986 474.324 241.641 476.599 243.537C478.116 244.675 479.822 245.433 481.15 246.381C483.236 247.898 485.321 249.415 485.511 252.639C484.942 253.018 484.373 253.587 483.615 253.587ZM463.515 88.9977C464.084 88.8081 464.653 87.1015 464.463 86.9119C463.895 86.1534 462.946 85.3949 461.998 85.3949C459.154 85.2053 456.31 88.0496 456.12 91.0835C456.12 96.2032 455.931 101.323 456.12 106.443C456.31 110.993 459.344 113.079 463.515 111.183C464.274 110.804 464.843 109.856 465.601 109.097C464.843 108.528 464.274 107.391 463.515 107.391C461.05 107.201 460.861 105.874 461.05 103.978C461.05 103.029 461.24 101.892 461.429 101.323C463.515 99.4267 466.928 100.944 468.066 97.7201C466.549 95.0655 463.895 96.3928 461.429 95.4447C461.24 92.9797 459.913 90.325 463.515 88.9977ZM237.679 96.5824C237.679 100.185 237.679 103.788 237.869 107.391C238.059 110.614 239.196 112.321 240.713 111.752C243.178 110.993 242.42 108.908 242.42 107.201C242.42 103.029 242.42 98.6682 242.42 94.4966C242.42 92.0316 243.178 90.1354 246.212 89.9458C247.54 89.7561 249.056 89.5665 249.246 87.1015C247.919 86.7222 246.402 85.9638 244.885 86.1534C240.903 86.343 237.111 87.1015 233.129 87.6704C232.37 87.86 231.612 88.0496 231.043 88.2392C229.715 88.8081 228.578 89.7562 229.147 91.2731C229.715 92.6004 230.853 92.6005 232.18 92.4108C233.697 92.0316 235.404 91.842 237.679 91.4628C237.679 93.5486 237.679 95.0655 237.679 96.5824ZM364.724 170.344C364.724 172.24 364.534 174.326 364.724 176.222C364.914 177.739 365.482 179.825 366.431 180.584C369.844 183.238 374.015 184.376 378.187 184.376C378.945 184.376 380.083 183.428 380.273 182.669C380.462 182.29 379.704 180.963 378.945 180.584C377.049 179.635 375.153 178.877 373.067 178.308C370.602 177.55 369.654 176.222 369.844 173.568C370.033 170.155 370.223 166.552 370.033 163.139C370.033 161.622 369.464 160.105 368.706 158.967C367.947 157.64 366.43 157.071 365.293 157.829C364.534 158.398 363.965 159.725 363.965 160.863C364.155 164.087 364.534 167.121 364.724 170.344C364.914 170.344 365.103 170.344 364.724 170.344ZM390.322 17.8906C389.564 13.9086 388.995 9.92668 388.237 5.94468C387.857 4.61735 386.72 3.29002 385.203 4.0485C384.444 4.42773 383.686 5.94468 383.686 6.89278C383.686 8.59935 384.255 10.4955 384.444 12.2021C385.013 16.3737 385.582 20.5453 386.34 24.7169C386.72 26.9924 387.668 29.0782 390.322 28.8886C393.167 28.8886 396.011 28.3197 398.855 27.9405C400.183 27.7509 401.7 26.8028 401.131 25.0962C400.751 24.3377 399.424 23.5792 398.286 23.5792C396.201 23.3896 394.115 23.5792 391.65 23.5792C390.891 21.683 390.512 19.7868 390.322 17.8906ZM251.711 259.086C251.711 261.171 252.09 263.257 252.47 265.343C252.659 265.912 253.607 266.481 254.176 266.481C254.745 266.481 255.504 265.533 255.504 265.153C255.693 263.447 255.693 261.551 255.693 259.655C255.883 255.104 256.072 250.363 256.452 245.623C259.486 245.244 261.761 245.054 264.226 244.675C264.984 244.485 265.364 243.537 265.933 242.968C265.364 242.399 264.795 241.641 264.036 241.262C263.088 240.882 261.951 241.072 260.813 241.072C257.02 241.072 253.228 241.262 249.436 241.262C248.298 241.262 247.16 241.072 246.402 241.641C245.643 242.02 245.075 242.968 244.695 243.916C244.695 244.295 245.833 245.244 246.591 245.433C248.108 245.812 249.815 245.623 251.522 245.812C251.522 250.553 251.522 254.914 251.711 259.086ZM673.234 170.344C673.234 167.689 673.234 165.224 673.234 162.57C673.234 160.674 673.044 158.967 673.044 157.071C672.854 155.554 672.096 154.606 670.389 154.606C668.872 154.606 667.924 155.554 667.545 157.071C667.356 157.829 667.545 158.588 667.545 159.346C667.735 166.362 667.924 173.568 668.114 180.584C668.114 181.152 668.114 181.721 668.304 182.48C668.493 184.186 669.252 185.324 671.148 185.324C673.234 185.324 673.423 183.807 673.423 182.1C673.423 178.118 673.423 174.326 673.423 170.344C673.423 170.344 673.423 170.344 673.234 170.344ZM575.58 85.9638C574.253 87.1015 574.442 88.9977 576.149 89.5666C577.287 89.9458 578.424 89.5666 579.752 89.5666C580.51 94.6863 581.269 99.4267 582.027 104.167C582.217 105.494 582.406 106.822 582.786 108.149C582.975 108.908 584.302 109.666 584.682 109.666C585.44 109.476 586.388 108.528 586.768 107.77C587.147 106.822 586.957 105.684 586.768 104.736C586.388 100.944 586.199 97.1513 585.63 93.5485C585.251 90.7042 585.061 88.2392 588.284 86.343C584.871 83.878 577.666 83.878 575.58 85.9638ZM365.293 18.6491C365.482 21.4934 366.241 24.5273 369.085 25.8547C371.74 26.9924 374.774 27.7508 377.808 28.3197C378.756 28.5093 380.273 27.5612 380.652 26.8027C381.41 25.2858 380.083 24.3377 378.756 23.7688C377.239 23.2 375.532 22.6311 374.015 22.2519C371.361 21.6831 370.223 19.9765 370.223 17.3218C370.033 13.5294 369.654 9.73706 369.464 5.94468C369.275 4.0485 369.275 1.77306 366.81 1.96268C364.345 2.1523 364.724 4.42775 364.724 5.18622C364.914 10.4955 364.914 14.6671 365.293 18.6491ZM504.852 99.2371C504.663 101.892 504.663 104.736 504.852 107.391C504.852 108.339 506.18 109.097 506.748 110.045C507.507 109.287 508.645 108.528 508.834 107.58C509.213 105.115 509.213 102.461 509.403 99.9956C509.782 96.7721 510.162 93.5485 510.541 90.325C512.058 90.1354 513.006 90.1354 513.764 89.7561C514.712 89.1873 515.471 88.4288 516.229 87.6704C515.471 87.1015 514.712 85.9638 513.954 85.7742C509.972 85.5846 506.18 85.5846 502.198 85.5846C501.629 85.5846 500.491 86.7223 500.491 87.2911C500.491 87.86 501.249 88.9977 501.818 89.1873C502.766 89.7562 503.715 89.7562 505.421 90.1354C505.421 93.7382 505.042 96.3928 504.852 99.2371ZM682.525 88.2392C677.785 87.86 672.854 87.6704 668.114 87.6704C667.545 87.6704 666.597 88.8081 666.597 89.3769C666.597 89.9458 667.355 91.0835 668.114 91.2731C669.441 91.842 670.958 91.842 673.044 92.2212C673.044 94.1174 673.044 96.2032 673.044 98.0994C673.044 100.944 672.854 103.788 673.044 106.632C673.234 107.77 673.992 109.476 674.751 109.666C676.647 110.045 676.647 108.149 676.836 106.822C677.026 104.546 677.026 102.271 677.216 99.9956C677.405 97.3409 677.595 94.6863 677.595 92.4108C680.06 91.0835 682.904 92.6005 684.042 89.5666C683.473 88.9977 683.094 88.2392 682.525 88.2392ZM393.167 168.258C393.356 165.035 393.736 162.001 393.925 158.777C394.115 157.26 393.546 155.933 391.839 155.743C390.322 155.554 389.185 156.312 388.806 157.829C388.426 158.777 388.237 159.915 388.237 160.863C388.047 166.552 387.857 172.43 387.668 178.118C387.668 179.256 387.857 180.584 388.237 181.721C388.426 182.29 389.374 183.049 389.754 183.049C390.512 183.049 391.46 182.48 391.839 181.721C392.408 180.773 392.598 179.446 392.788 178.308C392.977 174.895 392.977 171.671 393.167 168.258ZM153.678 97.3409C154.058 100.754 154.247 104.357 154.816 107.58C155.195 109.287 155.954 111.183 157.281 112.131C160.505 114.217 164.107 114.027 167.71 113.458C168.279 113.458 169.037 112.321 169.037 111.942C168.848 111.183 168.089 110.235 167.52 110.045C166.003 109.666 164.297 109.477 162.59 109.287C160.315 109.097 158.988 107.96 158.798 105.495C158.608 102.271 158.229 98.8578 157.85 95.6343C157.66 94.4966 157.85 93.1693 157.281 92.0316C156.712 91.2731 155.574 90.7043 154.626 90.1354C154.058 90.8939 153.299 91.6523 153.109 92.6004C153.489 94.307 153.868 95.8239 153.678 97.3409C153.868 97.3409 153.868 97.3409 153.678 97.3409ZM732.395 248.277C732.584 244.485 732.964 240.693 733.153 236.9C733.153 235.573 732.774 233.866 731.067 234.056C730.309 234.246 729.55 235.573 728.982 236.521C728.602 236.9 728.792 237.659 728.602 238.228C728.223 244.295 727.844 250.363 727.465 256.431C727.465 257.569 727.465 258.896 727.654 260.034C727.844 261.361 728.223 263.068 729.93 262.688C730.688 262.499 731.636 260.982 731.636 260.034C732.016 256.052 732.205 252.07 732.395 248.277ZM51.0945 257.758C51.0945 253.966 51.0945 250.174 51.0945 246.381C51.0945 244.864 50.7153 243.347 49.0087 243.537C48.2502 243.727 46.9229 245.054 46.9229 246.002C47.1125 253.587 47.3021 261.171 47.6814 268.567C47.6814 269.515 49.0087 270.273 49.7672 271.221C50.336 270.273 51.4738 269.515 51.4738 268.567C51.6634 264.964 51.4738 261.361 51.4738 257.758C51.4738 257.758 51.2841 257.758 51.0945 257.758ZM359.604 248.467C359.604 251.88 359.604 255.104 359.604 258.517C359.604 259.655 359.604 260.603 359.983 261.551C360.173 262.12 361.121 262.878 361.69 262.878C362.259 262.878 363.017 262.12 363.207 261.551C363.586 260.603 363.586 259.465 363.586 258.517C363.776 252.07 363.965 245.812 364.155 239.365C364.155 238.228 364.155 236.9 363.776 235.763C363.586 235.194 362.638 234.435 361.88 234.246C361.5 234.246 360.552 235.004 360.363 235.573C359.983 236.521 360.173 237.659 359.983 238.796C359.983 242.02 359.983 245.244 359.983 248.277C359.983 248.467 359.794 248.467 359.604 248.467ZM488.166 100.944C488.166 102.84 487.976 104.546 488.166 106.443C488.355 107.96 489.114 109.287 490.631 108.908C491.389 108.718 492.148 107.201 492.337 106.253C492.906 100.375 493.285 94.4967 493.854 88.6185C494.044 87.2911 494.044 85.5845 492.337 85.2053C490.441 84.8261 489.872 86.343 489.303 87.8599C489.114 88.4288 489.114 88.9977 488.924 89.5666C488.735 93.3589 488.355 97.1513 488.166 100.944C487.976 100.944 487.976 100.944 488.166 100.944ZM561.548 89.7561C562.307 95.6343 563.255 101.323 564.013 107.201C564.203 108.528 564.772 110.235 566.478 109.666C567.237 109.476 568.185 107.77 568.185 107.011C567.616 100.564 566.858 94.1174 565.909 87.6704C565.72 86.9119 564.582 86.343 564.013 85.5846C563.255 86.343 562.496 87.1015 561.738 88.0496C561.548 88.4288 561.738 89.1873 561.548 89.7561ZM772.404 21.1142C772.404 21.4934 772.404 21.683 772.404 22.0623C772.973 23.2 773.163 25.0961 773.921 25.2858C775.628 25.8546 776.007 23.9584 776.386 22.6311C777.714 16.9425 778.851 11.0644 779.989 5.18622C780.179 3.85889 779.989 2.15231 778.282 2.15231C777.334 2.15231 776.386 3.29002 775.628 4.0485C775.249 4.42773 775.059 5.1862 775.059 5.75505C774.111 10.8748 773.163 15.8048 772.215 20.9246C772.215 21.1142 772.404 21.1142 772.404 21.1142ZM772.973 246.192C772.973 247.709 772.784 249.605 774.68 249.984C776.766 250.363 776.955 248.277 777.145 246.95C777.714 243.158 778.282 239.176 778.662 235.194C778.851 233.487 778.662 231.97 776.576 231.781C774.869 231.591 774.3 233.108 774.111 234.625C773.732 238.038 773.352 241.451 772.973 245.243C772.973 245.433 772.973 245.812 772.973 246.192ZM228.009 81.0337C227.44 80.0856 226.302 79.7064 225.354 78.9479C224.785 79.896 224.027 80.8441 223.837 81.7922C223.648 82.7403 224.027 83.878 224.785 84.8261C225.354 85.5846 226.492 86.343 227.25 86.1534C228.009 85.9638 228.388 84.6364 228.767 84.2572C228.388 82.7403 228.578 81.7922 228.009 81.0337ZM315.423 265.912C315.233 265.343 314.665 264.774 314.285 264.774C313.906 264.585 312.958 264.964 312.768 265.343C312.2 267.429 311.82 269.515 311.062 271.98C314.285 270.463 315.992 267.998 315.423 265.912ZM771.835 112.321C773.732 112.51 774.111 110.614 774.111 109.097C774.111 107.58 773.352 106.253 771.646 106.632C770.887 106.822 770.129 108.149 769.181 109.097C770.129 110.614 770.887 112.321 771.835 112.321ZM773.921 36.4733C773.921 35.7148 772.973 34.5771 772.215 34.3875C771.646 34.1979 770.318 35.3356 770.129 35.9044C769.939 36.8525 770.698 37.8006 771.456 39.8864C772.784 38.1799 773.732 37.4214 773.921 36.4733ZM770.887 262.12C770.318 262.12 769.56 262.688 769.37 263.257C769.37 263.826 769.939 264.585 770.508 264.774C771.077 264.964 771.646 264.205 772.594 263.826C771.835 262.878 771.267 262.12 770.887 262.12Z" fill="#C2343E"/>
</svg>
