<svg width="253" height="79" viewBox="0 0 253 79" fill="none" xmlns="http://www.w3.org/2000/svg">
<title>Signature of Shir Goldberg</title>
<path d="M172.627 37.0942C172.248 38.9904 173.006 40.697 174.523 41.2658C174.902 41.4555 175.661 41.2659 176.419 41.0763C176.23 40.1282 176.23 39.3697 176.04 38.8008C174.713 38.232 173.765 37.6631 172.627 37.0942ZM178.695 34.6292C178.126 33.3018 177.747 32.1642 177.367 30.6472C176.04 31.7849 175.092 32.5434 174.144 33.4915C175.282 35.3877 176.609 35.5773 178.695 34.6292ZM173.196 43.5413C169.972 41.6451 168.835 38.9904 169.783 35.7668C167.697 35.7668 167.697 37.4735 167.697 38.232C167.886 40.8866 169.214 42.9725 171.3 44.8686C172.058 44.4894 172.627 44.1101 173.196 43.5413ZM178.695 41.8347C178.695 42.0243 178.695 42.2139 178.695 42.4035C180.591 42.0243 182.487 41.6451 184.383 41.2658C182.677 39.7489 181.539 38.4216 180.212 37.4735C179.074 36.5254 178.126 36.9046 177.557 38.0423C178.126 39.3696 178.505 40.5073 178.695 41.8347ZM62.648 46.0063C63.4065 43.7309 64.7338 40.3177 65.6819 37.663C66.0612 36.5253 66.0612 35.3877 65.4923 34.4396L65.1131 33.6811C64.9235 33.3018 64.5442 32.9226 63.9754 32.9226C63.7858 32.9226 63.4065 32.9226 62.8377 32.9226C62.2688 36.7149 62.2688 46.0063 62.648 46.0063ZM191.21 34.4396C190.451 34.0604 189.503 33.3018 188.365 33.3018C187.417 33.1122 186.279 33.4914 184.952 33.8707C185.9 32.1641 186.469 31.0264 186.848 30.268C188.365 29.1303 189.503 28.3718 191.02 27.4237C187.417 26.286 182.866 27.2341 179.453 29.3199C179.832 30.6472 180.212 32.1642 180.591 33.4915H184.004C183.435 34.6292 183.056 35.3876 182.677 36.1461C184.194 38.9904 188.176 39.9385 191.21 38.0423V34.4396ZM105.692 16.6154C104.554 17.5635 103.795 18.8908 103.795 20.4078C103.795 21.1662 103.795 21.9247 103.985 22.6832C104.554 26.0964 106.26 28.3718 110.053 27.9925C111.19 27.9925 116.31 27.2341 117.827 26.8549C117.448 24.9587 117.448 23.4416 117.069 21.9247C116.689 20.4077 116.5 18.8909 115.931 17.3739C114.224 13.7712 110.242 13.2023 107.019 15.6673C106.45 15.8569 106.071 16.2362 105.692 16.6154ZM192.347 10.9268C190.451 9.40988 188.176 8.84105 186.469 10.358C184.573 12.0646 183.246 14.34 181.918 16.4258C180.97 17.9428 180.591 19.8389 180.022 21.5454C179.643 22.8728 179.643 24.2002 179.453 25.5275C183.625 24.769 187.417 24.2001 191.778 23.4416C193.295 19.8389 194.623 15.4777 192.347 10.9268ZM52.4086 40.8866C49.9436 39.5592 47.2889 38.0423 44.6343 36.7149C41.6004 37.663 38.9457 38.6111 36.291 39.5592C27.379 42.4035 18.2773 45.0582 9.93403 49.4194C8.03784 50.3675 6.14165 51.6949 4.05585 53.0222C3.48699 53.4015 3.67661 53.9703 4.05585 54.3496C5.00394 54.7288 5.57279 55.1081 6.33127 55.2977C10.3133 56.2458 14.1056 57.1938 18.0876 57.7627C20.7423 58.1419 23.397 58.5211 26.0516 58.3315C29.6544 58.1419 33.4467 57.7626 37.0495 57.0042C43.1173 55.6768 48.8059 53.9702 52.7879 49.0402C54.6841 46.7647 55.6321 45.6271 54.3048 42.9725C53.9256 42.0244 53.1671 41.4554 52.4086 40.8866ZM215.86 43.3516C213.395 44.1101 211.12 44.2997 209.034 45.2478C203.724 47.5232 198.225 49.7987 193.106 52.4534C186.848 55.6769 182.297 60.4173 180.401 67.0539C179.074 71.7944 181.349 76.1557 187.417 75.966C191.02 75.966 194.433 75.018 198.036 74.0699C204.862 71.984 210.74 68.7605 215.481 63.6408C219.083 59.8484 220.79 55.4872 218.704 50.3675C217.946 48.0921 216.998 45.8166 215.86 43.3516ZM214.153 40.8866C212.826 38.4215 211.499 35.9565 210.361 33.6811C207.896 34.4396 205.431 35.0084 202.776 35.7668C201.259 35.198 199.742 34.6292 198.036 34.0603C196.898 34.25 195.76 34.4396 194.433 34.6292C194.243 35.9565 193.864 37.2838 193.675 38.9904C195.95 38.6111 198.036 38.232 200.122 37.8527C200.69 38.4216 200.501 39.5592 199.742 39.9385C199.363 40.1281 199.174 40.1282 198.794 40.1282C193.295 40.5074 187.986 41.8347 183.056 43.9205C182.677 44.1102 182.108 44.2997 181.729 44.1101C177.936 43.5413 175.092 45.8167 171.489 46.9544C171.868 50.9364 170.351 54.3495 167.886 57.3834C164.473 61.555 160.491 65.1578 155.751 68.002C148.356 72.5529 140.202 75.5868 131.669 76.9141C121.999 78.4311 113.087 75.7765 107.398 66.6748C104.554 62.1239 103.037 57.573 103.226 52.2637C103.416 49.4194 104.743 47.144 107.019 45.627C110.242 43.3516 113.655 41.645 117.827 41.4554C122.757 41.2658 127.687 40.697 132.807 40.1282C135.272 39.9385 137.737 39.3696 140.012 38.9904C142.478 38.8008 145.132 38.6112 147.787 38.4216C147.787 38.6112 147.976 38.8008 147.976 38.9904C147.028 39.18 146.08 39.5592 144.943 39.5592C141.909 39.7488 138.875 39.9385 136.031 40.697C129.015 42.5932 121.24 41.2659 114.414 43.9205C111.949 44.8686 109.484 46.3855 107.588 48.0921C105.692 49.609 105.123 52.0742 105.502 54.3496C106.071 59.4693 108.346 64.2097 111.759 68.1917C115.172 72.1737 119.913 74.2595 125.412 74.4491C132.617 74.8284 139.444 72.9321 145.891 69.8982C149.493 68.3813 153.096 66.6747 156.32 64.5889C161.439 61.1758 165.99 57.1938 168.455 51.6949C169.214 50.1779 169.024 48.2818 169.403 46.3856C165.99 45.0582 165.042 42.214 164.473 38.8008C164.284 37.8527 163.336 36.715 162.387 35.9565C158.406 32.733 154.424 29.3198 150.252 26.2859C145.891 23.252 142.667 19.27 139.444 14.9088C133.945 20.787 127.118 23.8209 120.482 28.1821C120.482 28.1821 117.637 35.0084 115.172 37.8527C111.949 41.4555 106.64 44.4893 100.572 42.4035C99.4341 42.0243 98.1067 41.8347 96.969 41.6451C96.4002 43.3517 96.0209 44.8685 95.2625 46.1959C93.1767 50.1779 90.3324 50.5571 87.1089 47.144L86.3504 47.7129C85.2127 48.4714 83.8853 48.8506 82.558 48.4713H82.3684C81.6099 48.2817 80.8514 47.9025 80.2826 47.3337C76.8695 43.7309 75.3525 38.6112 70.9913 35.0084C70.4224 34.6292 69.6639 34.8188 69.2847 35.3877C68.3366 38.0424 67.3885 40.3178 66.63 42.5932C65.8716 44.8686 65.1131 47.144 64.3546 49.2298C63.9754 50.3676 63.5961 51.8845 61.1311 51.3156C61.1311 47.9025 60.9415 40.8866 60.7519 40.8866C60.5622 38.4215 60.3726 35.9565 60.183 32.9226C56.3906 33.681 52.7879 34.4395 48.8059 35.198C51.4605 36.9046 53.9256 38.4216 55.8218 39.7489C56.5802 40.3178 57.1491 41.0763 57.5283 42.0244C58.8557 47.3337 55.6321 49.9883 52.219 53.0222C47.8578 56.8146 42.3588 57.9523 37.0495 59.2796C31.1713 60.6069 25.1035 60.7966 19.2253 59.6589C15.2434 58.9004 11.2614 58.5211 7.27936 57.573C5.38318 57.0041 3.48699 56.0561 1.40118 55.108C0.0738519 54.5391 -0.115767 52.8325 1.02195 51.8844C1.02195 51.8844 1.21156 51.8845 1.21156 51.6949C5.38318 49.4194 9.36517 46.9543 13.7264 45.2478C21.1215 42.4035 28.5167 39.9385 36.1014 37.4735C37.4287 37.0942 38.7561 36.5254 39.8938 35.9565C36.291 35.0084 32.8779 34.25 29.0855 34.0603C23.397 33.8707 17.5188 33.4915 12.0198 32.733C8.98593 32.3538 5.5728 31.5952 4.24546 28.1821C4.05585 27.8029 4.05585 27.4237 4.24546 27.0444C5.00394 24.3898 7.6586 23.252 9.93403 21.9247C19.415 16.0465 29.6544 11.1165 40.8419 9.03065C43.8758 8.46179 47.2889 8.27217 49.754 10.9268C50.1332 11.3061 50.1332 12.0645 50.1332 12.823C45.772 9.03065 41.0315 10.5476 36.4806 11.6854C28.327 13.7712 20.7423 17.1842 13.916 21.9247C12.2095 23.0624 10.3133 24.2001 8.6067 25.1482C7.84822 25.5275 7.46898 26.286 7.27936 27.0444C7.27936 28.1821 8.03784 28.9406 9.17555 29.5094C10.3133 30.0783 11.6406 30.6472 12.9679 30.8368C15.6226 31.216 18.4669 31.5953 21.1215 31.5953C28.5167 31.5953 35.9118 32.3538 43.1173 34.0603C44.4446 34.4396 45.772 34.25 47.0993 34.0603C51.4605 32.9226 55.6321 31.7849 60.183 30.4575C60.9415 27.4236 59.4245 13.3918 55.6321 9.22022L57.3387 7.13446C58.2868 8.65141 59.2349 9.78908 59.8038 11.1164C61.6999 16.4257 62.8377 21.7351 62.648 27.234C62.648 28.1821 62.648 29.1303 62.648 30.268L65.4923 30.4575C66.63 30.4575 67.5781 31.0264 68.5262 31.7849L68.9055 32.1642L71.7497 32.3537C74.7836 33.8707 76.111 36.9046 78.0072 39.5592C79.5241 41.645 81.0411 43.7309 82.7476 45.627C83.3165 46.1959 84.2646 46.3856 84.8334 45.8167C86.3504 44.4894 86.7296 42.5931 85.7815 39.9385C85.5919 39.5592 85.7815 39.18 86.1608 38.8008L87.1089 37.8527C87.4881 38.0423 87.6777 38.0423 87.8673 38.0423C88.2466 38.9904 88.8154 39.9385 89.0051 40.8866C89.3843 42.4035 89.3843 43.9205 89.5739 45.2478C89.5739 45.8166 89.9531 46.1959 90.522 46.3856C92.4182 46.9544 92.987 46.7647 93.5559 45.2478C94.1248 43.5412 95.4521 41.8347 93.5559 39.9385C92.6078 38.9904 92.987 37.8527 94.3144 36.5254C94.8832 35.9565 95.8313 36.1461 96.2106 36.7149C96.7794 37.663 97.3483 38.8008 97.9171 39.7489C99.4341 40.3178 100.951 41.2659 102.468 41.0763C104.933 41.0763 107.398 40.697 109.484 39.7489C112.518 38.6112 114.224 35.9565 115.931 33.6811C116.879 32.5434 117.258 31.0264 118.206 29.1302C116.121 29.5094 114.414 29.5095 112.707 29.8887C109.484 30.6472 102.278 28.1821 102.089 22.4935V22.304C101.52 15.4777 102.658 13.9607 108.157 11.8749C111.38 10.7372 116.5 11.3061 118.206 15.0985C118.965 16.6154 119.723 18.3219 120.103 20.0285C120.482 21.7351 120.671 23.4416 120.861 25.7171C122.568 24.9586 124.085 24.2001 125.601 23.2521C128.825 21.3559 132.048 19.4597 134.893 17.1842C136.41 16.0465 137.358 14.1504 138.116 13.2023C136.979 9.40991 136.031 6.18634 135.082 2.96282C134.893 2.58359 135.082 2.01475 135.272 1.4459C135.462 1.06666 135.841 0.87704 136.22 0.497803C139.444 2.58361 140.771 5.80708 140.961 9.22022C141.15 11.8749 141.909 13.9607 143.426 16.2361C145.891 19.8389 149.114 22.6832 152.907 25.1482C156.699 27.8029 160.112 31.0264 163.715 34.0603C164.473 34.6292 165.042 35.7668 165.801 36.7149C168.266 34.6291 169.593 32.1641 171.3 32.733C173.765 30.6472 175.471 29.1303 177.747 27.4237C177.936 21.5455 180.212 15.8569 183.814 10.5476C185.521 8.27215 188.745 6.75522 191.21 7.13446C194.243 7.70332 195.381 10.1684 196.14 12.6334C197.088 16.0466 195.95 19.2701 195.192 22.6832C195.002 23.2521 194.812 24.0106 194.812 24.5794L198.036 29.5094C198.225 29.6991 198.225 30.0784 197.846 30.268C197.467 30.4576 197.088 30.6472 196.708 30.268C195.571 29.5095 194.623 28.5614 193.295 27.6133C192.727 28.751 192.347 29.6991 191.968 30.4575C194.054 32.3537 196.329 31.7849 198.415 31.7849C199.363 30.2679 200.311 28.751 201.07 27.4237H205.431C206.569 28.3718 207.896 29.3199 206.569 30.6472C205.052 31.2161 203.724 31.5953 202.397 32.1642C202.397 32.5434 202.397 32.5433 202.397 32.9226C205.052 33.8707 207.327 32.3538 208.654 31.7849C211.309 29.8887 207.517 27.4236 210.551 26.2859C212.636 26.6651 213.205 28.5613 213.205 30.0783C213.395 34.2499 216.239 37.2839 217.756 41.0763C223.634 40.1282 229.513 38.9904 235.201 38.0423C240.89 37.0942 246.578 36.3357 252.267 35.7668C251.129 37.4734 249.423 37.6631 247.526 38.0423C244.492 38.6111 241.269 38.9904 238.235 39.5592C233.115 40.5073 227.996 41.4555 223.065 42.5932C221.928 42.7828 220.98 43.162 219.463 43.5413C220.221 45.8167 220.98 47.9024 221.738 49.9883C224.203 56.2457 222.307 61.3654 217.756 65.9163C211.878 71.9841 204.293 75.5868 195.95 77.8622C192.727 78.8103 189.693 79 186.469 79C181.918 78.8104 179.453 76.7246 178.695 72.9322C177.747 68.0021 179.074 63.8305 182.108 59.6589C187.796 52.2637 195.76 48.4713 204.293 45.0582C207.138 43.9205 209.982 43.3516 212.826 42.4035C212.826 41.8346 213.395 41.4554 214.153 40.8866ZM84.4542 24.3897C85.5919 25.1482 86.54 25.7171 87.6777 26.4756C86.3504 27.2341 85.5919 27.8029 84.4542 28.5614C83.6957 27.9925 83.1269 27.4236 82.1788 26.6652C83.1269 25.9067 83.6957 25.3378 84.4542 24.3897Z" fill="black"/>
</svg>
