<svg width="237" height="107" viewBox="0 0 237 107" fill="none" xmlns="http://www.w3.org/2000/svg">
<title>Signature of Eric Houston</title>
<path d="M167.872 25.4639C162.563 36.0826 160.856 47.4597 157.253 58.6472C159.529 58.0783 161.615 57.5095 163.511 57.3198C163.89 57.3198 164.08 57.3198 164.459 57.3198C165.217 57.5095 165.786 58.2679 165.407 59.0263C165.217 59.4056 165.217 59.5952 165.028 59.9744C162.942 63.7668 160.666 67.7489 158.77 71.5412C158.391 72.4893 158.391 73.627 158.391 74.5751C158.391 74.9543 158.581 75.144 158.77 75.3336C159.15 75.5232 159.529 75.5232 159.718 75.3336C161.615 74.1959 163.511 72.8686 165.407 71.5412C166.355 70.9724 167.113 70.2139 168.062 69.6451C169.958 68.5073 171.285 69.2658 171.664 71.3516C173.181 78.5571 173.561 78.7468 180.576 76.2817C184.369 74.9544 187.972 73.4374 191.954 72.2997C197.073 70.9723 202.193 73.2478 205.796 78.3675C203.9 77.4194 202.572 76.8505 201.434 76.092C198.021 73.8166 194.229 73.627 190.437 75.1439C187.023 76.4713 183.421 77.7987 180.008 79.126C173.371 81.4014 171.285 80.2637 169.958 73.4374C169.768 72.8686 169.768 72.4893 169.389 71.5412C167.872 72.679 166.355 73.627 164.838 74.5751C163.7 75.3336 162.563 76.092 161.425 76.4713C157.633 78.1779 155.357 76.6609 156.305 72.6789C157.064 69.0762 158.96 65.4734 160.477 62.0603C160.856 61.3018 161.425 60.5433 161.994 59.7849C157.253 59.9745 157.064 60.1641 155.926 64.1461C153.651 72.4893 151.375 81.0221 149.1 89.3653C148.91 90.1238 148.72 90.6927 148.531 91.2615C148.341 91.2615 147.962 91.2615 147.772 91.2615C147.962 88.9861 147.772 86.7107 148.341 84.4353C150.048 77.609 151.944 70.9724 153.651 64.3358C153.84 63.3877 154.03 62.4395 154.409 61.1122C150.996 62.0603 148.152 62.6291 145.118 63.5772C144.359 63.7669 143.601 65.0942 143.222 66.0423C139.998 73.627 136.964 81.2118 133.741 88.7965C133.361 89.7446 132.793 90.6928 132.224 91.8305C131.844 91.8305 131.655 91.6408 131.276 91.6408C131.465 90.5031 131.655 89.1758 132.034 88.2277C134.499 81.591 137.154 74.9544 139.808 68.3177C140.188 67.3696 140.377 66.4216 140.946 65.2839C139.05 65.6631 137.533 65.8527 136.016 66.2319L135.447 65.663C136.016 65.0941 136.585 64.1461 137.154 64.1461C141.705 63.9564 143.032 60.7329 144.17 57.1302C146.635 49.3558 149.669 41.7711 152.134 34.1863C152.702 32.4798 152.702 30.5835 153.082 28.6873C147.962 28.1185 141.325 33.807 139.619 39.1164C139.24 40.6333 140.756 41.7711 142.084 41.2022C143.032 40.6334 143.98 40.2542 144.928 39.6853C145.118 39.8749 145.118 40.0645 145.307 40.2542C143.601 41.5815 142.084 42.9088 140.188 44.0465C138.481 44.9946 136.585 43.0984 137.154 40.823C137.533 38.9268 138.291 37.0306 139.429 35.5137C141.894 31.7213 145.497 29.0667 149.669 27.3601C151.185 26.7912 154.03 25.6535 156.116 25.4639C156.116 25.4639 155.736 26.0328 156.116 25.4639L156.874 25.6535C156.495 27.1704 156.495 28.8771 155.926 30.2044C152.702 40.0646 149.289 49.7351 146.066 59.5953C145.876 60.1641 145.687 60.9226 145.307 62.0603C148.72 61.3018 151.565 60.5434 154.599 59.5953C155.167 59.4057 155.736 58.0783 155.926 57.3198C158.201 49.5455 160.477 41.7711 162.942 34.1863C163.7 31.9109 164.838 29.8251 165.976 27.7392C165.976 26.6015 167.113 26.0328 167.872 25.4639ZM66.8052 71.3516C67.5637 73.627 67.9429 75.144 68.7014 76.4713C68.891 76.2817 69.2702 76.092 69.4598 76.092C69.4598 75.7128 69.2702 75.3336 69.2702 74.9544C68.1325 71.5412 68.7014 69.6451 71.7353 67.7489C73.2522 66.8008 74.9588 66.0423 76.6653 65.2839C77.2342 65.0942 78.3719 65.2838 78.7511 65.663C79.1304 66.0422 79.32 67.18 78.9408 67.7489C72.1145 79.6949 66.0467 92.0201 55.6177 101.311C53.9111 102.828 52.0149 103.966 50.1187 105.104C49.7395 104.914 49.5498 104.724 49.1706 104.535C49.1706 103.208 48.981 101.88 49.1706 100.742C51.446 89.1757 58.462 79.3155 66.8052 71.3516ZM70.2183 65.8527C74.0107 53.1482 104.539 6.69166 111.934 2.70967C111.366 4.41623 111.176 5.74347 110.607 6.88119C106.815 14.2763 103.022 21.8612 99.23 29.2563C93.7311 39.8749 88.2321 50.6831 82.7331 61.3018C82.1643 62.2499 81.7851 63.198 81.0266 64.3358C77.0446 61.3019 73.8211 64.5254 70.2183 65.8527ZM80.837 79.126C81.2162 79.126 81.4058 78.9363 81.7851 78.9363C81.7851 77.9882 81.7851 77.2298 81.7851 76.2817C81.9747 72.8686 81.4058 69.0762 82.7331 66.4215C89.9387 51.6313 97.5234 37.0306 105.108 22.4299C107.952 16.931 110.607 11.432 113.262 5.93309C114.02 4.41614 114.779 2.52002 113.072 1.38231C111.176 0.0549802 109.849 1.76153 108.711 2.89924C107.194 4.41619 105.487 6.12271 104.35 7.82928C97.1442 18.2583 89.749 28.4978 82.7331 38.9268C76.6653 47.8389 71.1664 57.1302 67.9429 67.5592C67.7533 68.3177 66.8052 69.0762 66.0467 69.8346C57.3243 77.2298 51.8253 86.7108 48.981 97.519C48.6018 99.2256 48.0329 100.932 48.2225 102.828C48.2225 104.156 48.6018 106.052 49.5499 106.621C50.498 107.19 52.3941 107 53.3422 106.241C55.8073 104.535 58.462 102.828 60.3582 100.553C64.5298 95.4332 68.5117 89.9342 72.3041 84.4353C74.9588 80.6429 77.2342 76.4714 79.8889 71.9205C80.0785 74.5752 80.4577 76.8506 80.837 79.126ZM23.9513 78.5572C23.7617 78.5572 23.7617 78.3675 23.5721 78.3675C23.5721 77.9882 23.5721 77.609 23.7617 77.4194C24.8994 73.627 26.0371 69.6451 26.9852 65.8527C27.1749 65.2838 26.7956 64.5254 26.606 63.9565C26.0371 64.1461 25.4683 64.1461 25.0891 64.5253C24.7098 64.9046 24.7098 65.4734 24.3306 65.8527C21.1071 71.7309 17.8835 77.609 14.2808 83.1079C12.195 86.5211 9.7299 87.09 6.50638 85.7627C3.47248 84.4353 1.76592 81.591 2.90364 78.1779C4.04135 74.1959 5.36867 70.0243 7.45448 66.2319C13.3327 56.3718 20.3486 47.4597 29.8295 40.6334C30.3984 40.2542 30.3984 39.4957 30.7776 38.9268C30.0191 38.9268 29.2607 38.5476 28.6918 38.7372C26.4164 39.8749 24.3306 41.3919 22.2448 42.5296C21.1071 43.2881 19.7797 43.6672 18.4524 44.2361C18.0732 43.8569 18.2627 43.8569 17.8835 43.4777C18.8316 42.1504 19.5901 40.4438 20.5382 39.3061C23.3825 36.2722 26.0372 33.2382 29.0711 30.5835C36.2766 24.1365 44.4301 18.8272 53.9111 16.7414C55.0488 16.5518 56.3761 16.7414 57.7034 16.7414C58.4619 15.0348 58.2723 14.466 56.3761 14.8452C53.7215 15.2244 51.0668 15.6037 48.6018 16.5518C36.6558 21.2923 26.7956 28.8771 18.642 38.7372C17.6939 40.0646 16.7458 41.5815 16.1769 43.0984C15.6081 44.805 16.3666 46.1323 18.4524 46.1323C19.0213 46.1323 19.5901 46.1323 20.5382 46.1323C19.5901 47.27 18.8316 48.0285 18.2628 48.787C13.7119 54.8548 8.97143 60.733 4.61019 66.8008C2.14515 70.4035 0.817865 74.5751 0.628247 78.9363C0.438628 83.6768 4.04136 88.0381 8.78183 88.2277C11.8157 88.4173 13.9015 86.9003 15.4185 84.6249C17.3147 81.7806 19.2109 78.7468 21.2967 75.3336C21.2967 76.4713 21.1071 77.0402 21.2967 77.6091C21.2967 77.7987 21.2967 77.7986 21.2967 77.9882C21.6759 79.8844 23.9513 80.643 25.4683 79.5053C26.606 78.5572 27.3645 77.0402 28.5022 75.7129C30.588 82.5392 30.9672 82.7287 34.57 79.6948C38.3624 81.2118 43.1028 80.4533 44.8094 77.7986C42.7236 77.9883 40.4482 78.3675 38.1727 78.5572C35.5181 78.5572 34.7596 77.609 35.5181 74.9544C36.6558 71.5412 37.7935 68.1281 42.3444 67.7489C40.6378 66.0423 39.1208 66.4215 37.7935 67.5592C35.1388 70.2138 33.2427 73.2478 33.4323 77.2298C33.4323 77.9883 32.8634 78.5571 32.6738 79.3156C32.1049 79.1259 31.7257 78.7468 31.5361 78.1779C31.1568 76.661 30.9672 75.144 30.588 73.627C30.3984 72.8685 30.0191 72.2997 29.8295 71.5412C29.071 71.9205 28.3126 72.2997 27.7437 72.8686C26.606 74.7648 25.2787 76.661 23.9513 78.5572ZM99.23 64.5253C99.6092 64.5253 99.4196 64.5253 99.7988 64.7149C99.6092 67.1799 99.23 69.4555 99.4196 71.9205C99.6092 73.2478 100.747 75.144 101.885 75.5232C103.022 75.9024 104.919 75.1439 106.056 74.1958C107.194 73.2477 107.952 71.7309 109.28 70.0243C109.659 71.3517 110.038 72.2997 110.038 73.2477C110.228 74.9543 110.038 76.8506 110.228 78.5572C110.417 79.8845 112.124 80.2637 112.883 79.126C114.02 77.2298 114.968 75.144 116.296 72.4893C118.381 76.8506 120.088 80.8325 124.639 81.591C122.553 78.1779 120.467 74.9543 118.192 71.7308C117.054 70.2139 115.727 70.5931 114.589 71.7308C113.831 72.6789 113.072 73.6271 112.124 74.7648C111.555 72.4894 111.366 70.5932 110.607 68.697C110.038 66.9904 108.521 66.8008 107.573 68.3177C106.625 69.645 105.867 71.1619 104.919 72.2997C104.35 73.0581 103.212 73.2478 102.453 73.8167C102.074 72.8686 101.126 71.7308 101.126 70.7827C101.126 68.6969 101.695 66.8007 101.885 64.7149C102.074 63.0083 101.885 61.3018 99.6092 60.9225C101.505 53.9066 103.402 46.8907 105.298 40.0645C104.919 39.8748 104.729 39.8749 104.35 39.6853C103.402 42.1504 102.453 44.4258 101.505 46.8908C98.6611 55.234 96.1961 63.5773 93.3518 71.9205C92.783 73.4375 91.8348 74.9543 91.266 76.4713C91.0764 77.2298 91.266 78.1779 91.0764 79.126C91.8348 78.5571 92.9726 78.1779 93.3518 77.4194C94.6791 74.9543 95.6272 72.1101 96.7649 69.6451C97.713 67.9385 98.4715 66.2319 99.23 64.5253ZM219.638 60.9225C219.638 60.5433 219.638 60.1641 219.827 59.7849C218.879 59.5952 217.931 59.4056 216.983 59.216C203.71 57.6991 190.247 56.1821 176.974 54.6651C175.457 54.4755 173.75 54.6652 172.044 54.8548C172.044 55.2341 172.044 55.6132 172.044 55.9925C187.782 58.4575 203.71 59.5952 219.638 60.9225ZM86.9048 75.9025C86.5255 71.9205 88.2321 68.8865 89.9386 65.663C90.1283 65.2838 91.0764 65.0942 91.266 65.2839C91.6452 65.6631 92.0245 66.2319 92.0245 66.8008C91.8348 70.5932 89.9387 73.4374 86.9048 75.9025ZM92.4037 62.0603C88.4217 64.3357 84.4397 70.9723 84.819 75.5232C84.819 76.4713 85.3878 77.609 85.9567 77.9882C86.7152 78.3675 88.0425 77.9882 88.801 77.4194C93.5414 74.0062 95.0584 67.5593 92.4037 62.0603ZM231.963 63.5772L228.929 59.5953L225.895 65.0942L229.688 62.4396L231.963 63.5772ZM232.722 58.0782C232.911 58.2679 235.755 59.0264 236.893 60.3537C234.238 60.7329 234.049 60.7329 232.532 61.3018C232.911 62.0603 233.48 67.18 233.48 67.18C233.48 67.18 230.636 64.3358 229.498 63.3877C227.602 64.1461 224.758 66.8008 224.758 66.8008C224.758 66.8008 225.706 62.4395 226.843 60.3537C226.085 59.7848 223.999 58.2679 223.999 58.2679C224.947 58.0783 227.602 57.8887 228.55 57.3198C228.55 57.3198 230.446 53.5274 231.394 52.3897C231.963 52.9585 231.774 53.5274 231.963 54.0963C232.153 54.6652 232.722 58.0782 232.722 58.0782Z" fill="black"/>
</svg>
