<svg width="32px" height="32px" viewBox="0 0 32 32" version="1.1" xmlns="http://www.w3.org/2000/svg" xmlns:xlink="http://www.w3.org/1999/xlink">
    <path fill="#000000" d="M16.7574941,4.369 C17.0304941,4.839 17.3144941,5.355 17.6054941,5.911 C17.8974941,6.468 18.1964941,7.065 18.4994941,7.692 C18.8014941,8.32 19.1084941,8.979 19.4154941,9.661 C19.6194941,10.114 19.9584941,10.895 20.1614941,11.367 C20.2654941,11.609 20.4954941,11.776 20.7574941,11.8 C21.2634941,11.848 22.0984941,11.926 22.5854941,11.977 C23.3184941,12.053 24.0294941,12.134 24.7114941,12.218 C25.3924941,12.303 26.0454941,12.39 26.6594941,12.482 C27.2734941,12.573 27.8484941,12.667 28.3784941,12.765 C28.6744941,12.819 28.8564941,13.101 28.9224941,13.394 C28.9904941,13.697 28.9454941,14.051 28.7394941,14.278 C28.3574941,14.7 27.9514941,15.14 27.5164941,15.595 C27.0834941,16.05 26.6214941,16.521 26.1334941,17.004 C25.6454941,17.487 25.1324941,17.981 24.5954941,18.482 C24.2374941,18.816 23.6134941,19.38 23.2384941,19.717 C23.0464941,19.89 22.9614941,20.151 23.0134941,20.404 C23.1154941,20.887 23.2814941,21.683 23.3754941,22.148 C23.5144941,22.849 23.6454941,23.531 23.7674941,24.191 C23.8904941,24.851 24.0044941,25.491 24.1104941,26.107 C24.2164941,26.724 24.3164941,27.319 24.4104941,27.894 C24.4614941,28.205 24.2694941,28.479 23.9894941,28.633 C23.7054941,28.788 23.3404941,28.814 23.0534941,28.661 C22.5114941,28.371 21.9654941,28.086 21.4044941,27.796 C20.8444941,27.506 20.2724941,27.212 19.6844941,26.905 C19.0954941,26.599 18.4924941,26.281 17.8734941,25.95 C17.4594941,25.727 16.7494941,25.338 16.3254941,25.103 C16.1074941,24.983 15.8434941,24.983 15.6264941,25.103 C15.2014941,25.338 14.4924941,25.727 14.0784941,25.95 C13.4594941,26.281 12.8554941,26.598 12.2674941,26.905 C11.6784941,27.211 11.1064941,27.506 10.5464941,27.796 C9.98649413,28.086 9.43949413,28.371 8.89749413,28.661 C8.61149413,28.814 8.24649413,28.788 7.96149413,28.633 C7.68149413,28.479 7.49049413,28.205 7.54149413,27.894 C7.63449413,27.319 7.73449413,26.724 7.84049413,26.107 C7.94749413,25.491 8.06149413,24.851 8.18349413,24.191 C8.30549413,23.531 8.43649413,22.849 8.57649413,22.148 C8.66949413,21.683 8.83649413,20.887 8.93749413,20.404 C8.99049413,20.151 8.90449413,19.89 8.71349413,19.717 C8.33849413,19.38 7.71449413,18.816 7.35549413,18.482 C6.81949413,17.981 6.30549413,17.487 5.81849413,17.004 C5.33049413,16.521 4.86849413,16.05 4.43449413,15.595 C4.00049413,15.14 3.59349413,14.7 3.21249413,14.278 C3.00649413,14.05 2.96149413,13.697 3.02949413,13.394 C3.09549413,13.101 3.27749413,12.819 3.57249413,12.765 C4.10249413,12.667 4.67849413,12.573 5.29249413,12.482 C5.90649413,12.39 6.55849413,12.303 7.24049413,12.218 C7.92249413,12.134 8.63349413,12.053 9.36549413,11.977 C9.85249413,11.926 10.6874941,11.848 11.1934941,11.8 C11.4564941,11.776 11.6854941,11.609 11.7904941,11.367 C11.9934941,10.895 12.3324941,10.114 12.5364941,9.661 C12.8434941,8.979 13.1494941,8.32 13.4524941,7.692 C13.7554941,7.065 14.0534941,6.468 14.3454941,5.911 C14.6364941,5.355 14.9214941,4.839 15.1944941,4.369 C15.3454941,4.109 15.6754941,4 15.9754941,4 C16.2764941,4 16.6064941,4.109 16.7574941,4.369" id="icon-star"></path>
</svg>