<svg width="32" height="32" viewBox="0 0 32 32" fill="none" xmlns="http://www.w3.org/2000/svg">
<path fill-rule="evenodd" clip-rule="evenodd" d="M22.8761 10.933L19.2993 18.6811C19.1733 18.9544 18.9543 19.1734 18.6815 19.2993L10.9331 22.8758C9.68244 23.454 8.69657 21.8725 9.08626 21.0296L12.6627 13.281C12.7886 13.0077 13.0076 12.7888 13.2809 12.6628L21.0297 9.08673C21.8726 8.6953 23.4534 9.68467 22.8761 10.933ZM16 14C14.8955 14 14 14.8955 14 16C14 17.1045 14.8955 18 16 18C17.1045 18 18 17.1045 18 16C18 14.8955 17.1045 14 16 14ZM16.0068 4C9.37524 4 4 9.37244 4 16C4 22.6276 9.37524 28 16.0068 28C22.6326 28 28 22.6298 28 16C28 9.37024 22.6326 4 16.0068 4ZM2 16C2 8.26677 8.27177 2 16.0068 2C23.7383 2 30 8.26677 30 16C30 23.7332 23.7383 30 16.0068 30C8.27177 30 2 23.7332 2 16Z" fill="black"/>
</svg>
